<svg width="249" height="43" viewBox="0 0 249 43" fill="none" xmlns="http://www.w3.org/2000/svg">
<path fill-rule="evenodd" clip-rule="evenodd" d="M26.461 13.3051C24.8165 12.2063 22.8831 11.6198 20.9053 11.6198V1.61987C24.8609 1.61987 28.7277 2.79285 32.0167 4.99048C35.3056 7.18811 37.8691 10.3117 39.3829 13.9662C40.8966 17.6207 41.2927 21.642 40.521 25.5216C39.7493 29.4013 37.8444 32.9649 35.0474 35.762C32.2503 38.559 28.6867 40.4638 24.8071 41.2355C20.9275 42.0072 16.9061 41.6112 13.2516 40.0974C9.59708 38.5837 6.47351 36.0202 4.27588 32.7312C2.07825 29.4422 0.905273 25.5755 0.905273 21.6198H10.9053C10.9053 23.5976 11.4918 25.531 12.5906 27.1755C13.6894 28.82 15.2512 30.1017 17.0784 30.8586C18.9057 31.6155 20.9164 31.8135 22.8562 31.4277C24.796 31.0418 26.5778 30.0894 27.9763 28.6909C29.3749 27.2924 30.3273 25.5105 30.7131 23.5707C31.099 21.6309 30.9009 19.6203 30.1441 17.793C29.3872 15.9657 28.1055 14.4039 26.461 13.3051Z" fill="white"/>
<path fill-rule="evenodd" clip-rule="evenodd" d="M10.9053 1.6199C10.9053 2.93312 10.6466 4.23348 10.1441 5.44674C9.64153 6.66 8.90493 7.76239 7.97635 8.69097C7.04776 9.61956 5.94537 10.3561 4.73211 10.8587C3.51886 11.3612 2.2185 11.6199 0.905279 11.6199L0.905273 21.6198C3.53171 21.6198 6.13244 21.1025 8.55895 20.0975C10.9855 19.0924 13.1902 17.6192 15.0474 15.762C16.9046 13.9048 18.3778 11.7 19.3829 9.27357C20.388 6.84706 20.9053 4.24631 20.9053 1.61987L10.9053 1.6199Z" fill="white"/>
<path d="M65.7701 34.85H65.0101C63.5634 34.85 62.2034 34.6334 60.9301 34.2001C59.6567 33.7667 58.5467 33.1034 57.6001 32.21C56.6601 31.31 55.9201 30.1767 55.3801 28.81C54.8467 27.45 54.5801 25.8334 54.5801 23.96V21.02C54.5801 19.2 54.8534 17.6134 55.4001 16.26C55.9467 14.9067 56.7001 13.7767 57.6601 12.87C58.6134 11.9567 59.7134 11.2734 60.9601 10.82C62.2134 10.3667 63.5401 10.14 64.9401 10.14H65.7101C67.0367 10.14 68.2901 10.3334 69.4701 10.72C70.6501 11.1 71.6834 11.6934 72.5701 12.5C73.4567 13.3067 74.1501 14.3334 74.6501 15.58C75.1501 16.8267 75.4001 18.3134 75.4001 20.04H69.9101C69.9101 18.62 69.7267 17.5134 69.3601 16.72C69.0001 15.9267 68.4701 15.3667 67.7701 15.04C67.0701 14.7134 66.2434 14.55 65.2901 14.55C64.6101 14.55 63.9967 14.65 63.4501 14.85C62.9034 15.0434 62.4301 15.35 62.0301 15.77C61.6367 16.19 61.3267 16.7334 61.1001 17.4C60.8801 18.0667 60.7701 18.8667 60.7701 19.8V25.19C60.7701 26.4034 60.9567 27.4 61.3301 28.18C61.7034 28.9667 62.2301 29.54 62.9101 29.9C63.5834 30.26 64.3767 30.44 65.2901 30.44C66.3634 30.44 67.2534 30.2767 67.9601 29.9501C68.6734 29.6234 69.2167 29.0701 69.5901 28.2901C69.9634 27.5034 70.1501 26.4 70.1501 24.98H75.4001C75.4001 26.5867 75.1567 28.01 74.6701 29.25C74.1767 30.49 73.4867 31.5234 72.6001 32.35C71.7134 33.1767 70.6867 33.8 69.5201 34.22C68.3534 34.64 67.1034 34.85 65.7701 34.85ZM83.1401 34.5H77.6401V16.61H83.1401V34.5ZM83.1701 13.43H77.5701V9.30005H83.1701V13.43ZM91.6801 40.84H86.1801V16.61H90.4901L91.0801 18.85C91.5934 18.13 92.2867 17.52 93.1601 17.02C94.0401 16.5134 95.0867 16.26 96.3001 16.26C97.7001 16.26 98.9534 16.56 100.06 17.16C101.167 17.7534 102.047 18.7034 102.7 20.01C103.353 21.3167 103.68 23.02 103.68 25.12V25.85C103.68 27.8367 103.353 29.5 102.7 30.84C102.047 32.1867 101.183 33.19 100.11 33.85C99.0367 34.5167 97.8701 34.85 96.6101 34.85C95.3501 34.85 94.3167 34.6234 93.5101 34.17C92.7101 33.71 92.1001 33.1434 91.6801 32.47V40.84ZM94.7901 31.31C95.3767 31.31 95.8967 31.1601 96.3501 30.8601C96.8034 30.5601 97.1634 30.1234 97.4301 29.55C97.7034 28.9767 97.8401 28.3067 97.8401 27.5401V23.75C97.8401 22.89 97.7034 22.17 97.4301 21.59C97.1634 21.0034 96.8034 20.5634 96.3501 20.27C95.8967 19.9834 95.3767 19.84 94.7901 19.84C94.2301 19.84 93.7101 19.9834 93.2301 20.27C92.7567 20.5634 92.3801 20.9967 92.1001 21.57C91.8201 22.1367 91.6801 22.8634 91.6801 23.75V27.5401C91.6801 28.3334 91.8134 29.0067 92.0801 29.56C92.3467 30.1267 92.7201 30.5601 93.2001 30.8601C93.6801 31.1601 94.2101 31.31 94.7901 31.31ZM111.31 34.5H105.82V9.30005H111.31V18.82C111.99 17.98 112.76 17.3434 113.62 16.91C114.487 16.4767 115.467 16.26 116.56 16.26C117.727 16.26 118.747 16.4934 119.62 16.96C120.5 17.4267 121.19 18.08 121.69 18.92C122.19 19.76 122.44 20.7534 122.44 21.9V34.5H116.95V23.16C116.95 22.2067 116.697 21.4834 116.19 20.99C115.69 20.4967 115.043 20.25 114.25 20.25C113.717 20.25 113.227 20.39 112.78 20.67C112.34 20.95 111.983 21.32 111.71 21.78C111.443 22.2334 111.31 22.7534 111.31 23.34V34.5ZM133.89 34.85H133.47C131.717 34.85 130.17 34.5067 128.83 33.82C127.49 33.1334 126.44 32.13 125.68 30.81C124.92 29.49 124.54 27.8967 124.54 26.03V25.09C124.54 23.1967 124.93 21.59 125.71 20.27C126.497 18.95 127.567 17.9534 128.92 17.28C130.273 16.6 131.823 16.26 133.57 16.26H134.24C135.92 16.26 137.367 16.5867 138.58 17.24C139.793 17.8934 140.727 18.81 141.38 19.99C142.033 21.17 142.36 22.53 142.36 24.07V26.2701H130.39C130.39 27.2501 130.5 28.1267 130.72 28.9C130.94 29.6667 131.3 30.2667 131.8 30.7001C132.307 31.1334 132.967 31.35 133.78 31.35C134.507 31.35 135.12 31.21 135.62 30.93C136.12 30.65 136.51 30.2467 136.79 29.72C137.07 29.1934 137.21 28.5567 137.21 27.81H142.32C142.32 29.1634 141.963 30.3734 141.25 31.44C140.543 32.5 139.56 33.3334 138.3 33.94C137.04 34.5467 135.57 34.85 133.89 34.85ZM130.39 23.61H136.93C136.93 22.2834 136.64 21.31 136.06 20.69C135.473 20.0767 134.703 19.77 133.75 19.77C132.79 19.77 132 20.0934 131.38 20.74C130.767 21.4 130.437 22.3567 130.39 23.61ZM149.99 34.5H144.56V16.61H148.69L149.32 19.2C149.393 19.1067 149.527 18.9034 149.72 18.59C149.92 18.2767 150.22 17.94 150.62 17.58C151.013 17.2134 151.503 16.9034 152.09 16.65C152.67 16.39 153.357 16.26 154.15 16.26C155.343 16.26 156.313 16.4834 157.06 16.93C157.807 17.37 158.36 18.0067 158.72 18.84C159.08 19.6667 159.26 20.65 159.26 21.79C159.26 22.05 159.25 22.35 159.23 22.69C159.203 23.03 159.18 23.3367 159.16 23.61H154.61V22.84C154.61 22.4467 154.533 22.0534 154.38 21.66C154.227 21.26 153.987 20.9367 153.66 20.69C153.333 20.4434 152.89 20.32 152.33 20.32C151.91 20.32 151.55 20.4034 151.25 20.57C150.943 20.73 150.697 20.9467 150.51 21.22C150.323 21.4867 150.19 21.7767 150.11 22.09C150.03 22.4034 149.99 22.7234 149.99 23.05V34.5ZM171.3 34.85H170.53C169.083 34.85 167.723 34.6334 166.45 34.2001C165.183 33.7667 164.077 33.1034 163.13 32.21C162.183 31.31 161.443 30.1767 160.91 28.81C160.37 27.45 160.1 25.8334 160.1 23.96V21.02C160.1 19.2 160.373 17.6134 160.92 16.26C161.473 14.9067 162.227 13.7767 163.18 12.87C164.14 11.9567 165.243 11.2734 166.49 10.82C167.737 10.3667 169.06 10.14 170.46 10.14H171.23C172.563 10.14 173.817 10.3334 174.99 10.72C176.17 11.1 177.203 11.6934 178.09 12.5C178.977 13.3067 179.67 14.3334 180.17 15.58C180.677 16.8267 180.93 18.3134 180.93 20.04H175.43C175.43 18.62 175.25 17.5134 174.89 16.72C174.53 15.9267 174 15.3667 173.3 15.04C172.6 14.7134 171.77 14.55 170.81 14.55C170.137 14.55 169.523 14.65 168.97 14.85C168.423 15.0434 167.953 15.35 167.56 15.77C167.16 16.19 166.85 16.7334 166.63 17.4C166.41 18.0667 166.3 18.8667 166.3 19.8V25.19C166.3 26.4034 166.487 27.4 166.86 28.18C167.233 28.9667 167.757 29.54 168.43 29.9C169.11 30.26 169.903 30.44 170.81 30.44C171.883 30.44 172.777 30.2767 173.49 29.9501C174.203 29.6234 174.747 29.0701 175.12 28.2901C175.493 27.5034 175.68 26.4 175.68 24.98H180.93C180.93 26.5867 180.683 28.01 180.19 29.25C179.703 30.49 179.017 31.5234 178.13 32.35C177.243 33.1767 176.217 33.8 175.05 34.22C173.883 34.64 172.633 34.85 171.3 34.85ZM188.52 34.5H183.02V9.30005H188.52V34.5ZM200.35 34.85H199.51C197.83 34.85 196.323 34.4767 194.99 33.73C193.663 32.9834 192.62 31.94 191.86 30.6C191.1 29.26 190.72 27.69 190.72 25.89V25.23C190.72 23.4034 191.1 21.82 191.86 20.48C192.62 19.14 193.663 18.1034 194.99 17.37C196.323 16.63 197.83 16.26 199.51 16.26H200.35C202.03 16.26 203.533 16.63 204.86 17.37C206.193 18.1034 207.24 19.14 208 20.48C208.753 21.82 209.13 23.4034 209.13 25.23V25.89C209.13 27.69 208.753 29.2634 208 30.6101C207.24 31.9634 206.193 33.01 204.86 33.75C203.533 34.4834 202.03 34.85 200.35 34.85ZM199.93 31.35C200.563 31.35 201.13 31.1967 201.63 30.89C202.13 30.59 202.53 30.1534 202.83 29.58C203.137 29.0134 203.29 28.3434 203.29 27.57V23.54C203.29 22.7467 203.137 22.0734 202.83 21.52C202.53 20.9534 202.13 20.52 201.63 20.22C201.13 19.92 200.563 19.77 199.93 19.77C199.297 19.77 198.73 19.92 198.23 20.22C197.73 20.52 197.327 20.9534 197.02 21.52C196.72 22.0734 196.57 22.7467 196.57 23.54V27.57C196.57 28.3434 196.72 29.0134 197.02 29.58C197.327 30.1534 197.73 30.59 198.23 30.89C198.73 31.1967 199.297 31.35 199.93 31.35ZM216.97 34.85C215.157 34.85 213.73 34.3434 212.69 33.33C211.65 32.31 211.13 30.8567 211.13 28.97V16.61H216.63V27.81C216.63 28.8167 216.843 29.57 217.27 30.07C217.703 30.57 218.353 30.82 219.22 30.82C219.78 30.82 220.287 30.6867 220.74 30.42C221.193 30.1534 221.553 29.78 221.82 29.3C222.087 28.8267 222.22 28.3067 222.22 27.74V16.61H227.72V30.09C227.72 30.53 227.83 30.85 228.05 31.05C228.27 31.25 228.51 31.35 228.77 31.35C229.003 31.35 229.237 31.31 229.47 31.23C229.703 31.15 229.923 31.06 230.13 30.96V34.08C229.83 34.3134 229.423 34.5 228.91 34.64C228.397 34.78 227.753 34.85 226.98 34.85C226.073 34.85 225.33 34.7267 224.75 34.48C224.163 34.2334 223.707 33.8901 223.38 33.4501C223.053 33.0101 222.807 32.5101 222.64 31.9501C222.06 32.8567 221.267 33.5667 220.26 34.08C219.26 34.5934 218.163 34.85 216.97 34.85ZM238.19 34.85C236.737 34.85 235.47 34.5167 234.39 33.85C233.303 33.19 232.457 32.1767 231.85 30.81C231.243 29.4434 230.94 27.72 230.94 25.64V25.26C230.94 23.2534 231.267 21.5834 231.92 20.25C232.573 18.9234 233.443 17.9267 234.53 17.26C235.617 16.5934 236.787 16.26 238.04 16.26C239.28 16.26 240.31 16.49 241.13 16.95C241.943 17.4034 242.56 17.9667 242.98 18.64V9.30005H248.47V34.5H244.13L243.57 32.19C243.037 32.91 242.333 33.5334 241.46 34.06C240.58 34.5867 239.49 34.85 238.19 34.85ZM239.86 31.35C240.447 31.35 240.973 31.2034 241.44 30.91C241.907 30.6234 242.28 30.1867 242.56 29.6C242.84 29.02 242.98 28.2967 242.98 27.43V23.65C242.98 22.83 242.84 22.1434 242.56 21.59C242.28 21.0234 241.907 20.5967 241.44 20.31C240.973 20.0167 240.447 19.87 239.86 19.87C239 19.87 238.273 20.2034 237.68 20.87C237.08 21.53 236.78 22.4567 236.78 23.65V27.39C236.78 28.2567 236.917 28.98 237.19 29.56C237.457 30.1467 237.823 30.59 238.29 30.89C238.757 31.1967 239.28 31.35 239.86 31.35Z" fill="white"/>
</svg>
