<svg width="188" height="44" viewBox="0 0 188 44" fill="none" xmlns="http://www.w3.org/2000/svg">
<path fill-rule="evenodd" clip-rule="evenodd" d="M29.4554 4.3558V1.93005H35V24.2816C35 33.9466 27.165 41.7816 17.5 41.7816C8.24271 41.7816 0.664262 34.5936 0.0413736 25.4945H0V1.93005H5.54455V4.3558H14.901V1.93005H20.4455V4.3558H29.4554ZM29.4554 24.2816V20.8797C28.8318 21.5227 28.1633 22.1333 27.4539 22.7084C25.1121 24.6071 22.3612 26.0904 19.369 27.0952C16.3764 28.1002 13.1833 28.6133 9.96797 28.6133H6.35343C8.08848 33.0748 12.425 36.237 17.5 36.237C24.1028 36.237 29.4554 30.8844 29.4554 24.2816ZM15.4269 20.1059C14.3706 21.2256 13.18 22.1965 11.8852 22.9941C13.8545 22.8404 15.7827 22.4508 17.6038 21.8392C20.013 21.0301 22.1698 19.8546 23.9621 18.4016C25.7535 16.9491 27.136 15.2562 28.0645 13.4387C28.6507 12.2913 29.0518 11.1031 29.2674 9.90035H20.2671C20.0641 11.3745 19.6891 12.8214 19.1475 14.2074C18.2893 16.4036 17.0275 18.4092 15.4269 20.1059ZM5.54455 19.6785V9.90035H14.6483C14.4948 10.6829 14.2724 11.4494 13.9832 12.1894C13.3786 13.7367 12.4962 15.1326 11.3938 16.3011C10.2918 17.4693 8.99228 18.3867 7.57404 19.0094C6.91535 19.2986 6.23601 19.5221 5.54455 19.6785Z" fill="white"/>
<path d="M53.4804 35H50.1504V10.5H64.6804V13.37H53.4804V20.86H62.8204V23.59H53.4804V35ZM71.8504 35.42C70.7771 35.42 69.8104 35.2166 68.9504 34.81C68.0837 34.4033 67.4004 33.7433 66.9004 32.83C66.3937 31.9166 66.1404 30.7366 66.1404 29.29V9.09998H69.3004V28.98C69.3004 30.24 69.5604 31.1733 70.0804 31.78C70.6071 32.3866 71.3371 32.69 72.2704 32.69C72.7171 32.69 73.1537 32.6366 73.5804 32.53C74.0137 32.43 74.3837 32.3066 74.6904 32.16L75.4504 34.72C75.0371 34.9066 74.5204 35.07 73.9004 35.21C73.2804 35.35 72.5971 35.42 71.8504 35.42ZM84.4204 35.42C82.6937 35.42 81.1404 35.0166 79.7604 34.21C78.3871 33.41 77.3071 32.29 76.5204 30.85C75.7404 29.4166 75.3504 27.7666 75.3504 25.9C75.3504 23.94 75.7471 22.2466 76.5404 20.82C77.3337 19.4 78.4204 18.3033 79.8004 17.53C81.1737 16.7633 82.7137 16.38 84.4204 16.38C86.1204 16.38 87.6537 16.7633 89.0204 17.53C90.3871 18.3033 91.4704 19.3966 92.2704 20.81C93.0771 22.2166 93.4804 23.89 93.4804 25.83C93.4804 27.7633 93.0837 29.45 92.2904 30.89C91.4971 32.3233 90.4171 33.4366 89.0504 34.23C87.6904 35.0233 86.1471 35.42 84.4204 35.42ZM84.4204 32.62C86.2604 32.62 87.6937 31.9966 88.7204 30.75C89.7471 29.5033 90.2604 27.8866 90.2604 25.9C90.2604 24.6866 90.0037 23.5733 89.4904 22.56C88.9771 21.54 88.2837 20.7233 87.4104 20.11C86.5371 19.49 85.5404 19.18 84.4204 19.18C82.5737 19.18 81.1371 19.7866 80.1104 21C79.0837 22.2133 78.5704 23.8233 78.5704 25.83C78.5704 27.0433 78.8271 28.17 79.3404 29.21C79.8537 30.25 80.5471 31.0766 81.4204 31.69C82.2937 32.31 83.2937 32.62 84.4204 32.62ZM103.46 35H99.9904L94.2504 17.64L97.1604 16.63L101.85 31.43L106.12 18.09H109.51L113.68 31.43L118.33 16.63L121.13 17.64L115.36 35H111.89L107.69 21.45L103.46 35ZM131.84 35.42C130.794 35.42 129.807 35.2266 128.88 34.84C127.96 34.46 127.197 34.01 126.59 33.49V35H123.65V9.09998H126.8V18.69C127.267 18.15 127.95 17.63 128.85 17.13C129.75 16.63 130.817 16.38 132.05 16.38C133.45 16.38 134.764 16.7466 135.99 17.48C137.217 18.2133 138.204 19.2766 138.95 20.67C139.697 22.0566 140.07 23.7433 140.07 25.73C140.07 27.17 139.837 28.4866 139.37 29.68C138.904 30.8666 138.277 31.8866 137.49 32.74C136.71 33.5933 135.83 34.2533 134.85 34.72C133.87 35.1866 132.867 35.42 131.84 35.42ZM131 32.62C132.147 32.62 133.157 32.34 134.03 31.78C134.904 31.22 135.59 30.4266 136.09 29.4C136.597 28.3733 136.85 27.1833 136.85 25.83C136.85 24.43 136.597 23.23 136.09 22.23C135.59 21.2233 134.927 20.45 134.1 19.91C133.274 19.3766 132.357 19.11 131.35 19.11C130.35 19.11 129.447 19.36 128.64 19.86C127.834 20.36 127.22 20.9033 126.8 21.49V31.22C127.34 31.64 127.97 31.9766 128.69 32.23C129.417 32.49 130.187 32.62 131 32.62ZM143.04 43.12C142.34 43.12 141.727 43.05 141.2 42.91C140.68 42.77 140.267 42.6066 139.96 42.42L140.66 39.8C140.94 39.96 141.29 40.1 141.71 40.22C142.13 40.3333 142.597 40.39 143.11 40.39C144.09 40.39 144.967 40.0766 145.74 39.45C146.507 38.8166 147.24 37.5766 147.94 35.73L148.75 33.63H147.07L139.96 17.64L142.76 16.38L149.55 31.54L154.84 16.52L157.74 17.64L151.06 35.91C150.38 37.7766 149.644 39.2333 148.85 40.28C148.057 41.3333 147.184 42.07 146.23 42.49C145.27 42.91 144.207 43.12 143.04 43.12ZM166.11 35.42C164.357 35.42 162.974 34.8433 161.96 33.69C160.947 32.53 160.44 30.8766 160.44 28.73V20.2H157.29V17.46H160.51L161.17 11.72H163.59V17.46H168.63V20.2H163.59V28.98C163.59 30.3333 163.874 31.2766 164.44 31.81C165.014 32.35 165.697 32.62 166.49 32.62C167.077 32.62 167.63 32.5266 168.15 32.34C168.677 32.1533 169.164 31.9333 169.61 31.68L170.48 34.2C170.014 34.48 169.384 34.7533 168.59 35.02C167.797 35.2866 166.97 35.42 166.11 35.42ZM179.06 35.42C176.447 35.42 174.374 34.5866 172.84 32.92C171.314 31.2466 170.55 28.9066 170.55 25.9C170.55 24.08 170.894 22.4533 171.58 21.02C172.274 19.58 173.237 18.4466 174.47 17.62C175.71 16.7933 177.147 16.38 178.78 16.38C180.527 16.38 181.977 16.76 183.13 17.52C184.29 18.2733 185.16 19.2933 185.74 20.58C186.327 21.86 186.62 23.27 186.62 24.81C186.62 25.63 186.584 26.4266 186.51 27.2H173.77C173.984 28.9 174.58 30.2266 175.56 31.18C176.54 32.14 177.834 32.62 179.44 32.62C180.494 32.62 181.44 32.51 182.28 32.29C183.12 32.0633 183.924 31.7766 184.69 31.43L185.43 34.13C184.59 34.5033 183.644 34.81 182.59 35.05C181.544 35.2966 180.367 35.42 179.06 35.42ZM173.74 24.64H183.71C183.71 22.8666 183.267 21.5 182.38 20.54C181.494 19.5866 180.27 19.11 178.71 19.11C177.357 19.11 176.237 19.5833 175.35 20.53C174.464 21.4766 173.927 22.8466 173.74 24.64Z" fill="white"/>
</svg>
