<svg width="233" height="43" viewBox="0 0 233 43" fill="none" xmlns="http://www.w3.org/2000/svg">
<path d="M35.5 1.5C45.9934 1.5 54.5 10.0066 54.5 20.5V41.5C50.0817 41.5 46.5 37.9183 46.5 33.5V20.5C46.5 14.4249 41.5751 9.5 35.5 9.5H30.2988C27.6467 9.50004 25.1029 10.5534 23.2275 12.4287L9.67188 25.9854C8.92179 26.7354 8.50006 27.7527 8.5 28.8135V29.5C8.5 31.7091 10.2909 33.5 12.5 33.5H30.5C30.5 37.7801 27.1389 41.2748 22.9121 41.4893L22.5 41.5H12.5C5.87259 41.5 0.5 36.1274 0.5 29.5V28.8135C0.500062 25.631 1.76427 22.5785 4.01465 20.3281L17.5713 6.77246C20.9469 3.39685 25.525 1.50004 30.2988 1.5H35.5Z" fill="white"/>
<path d="M37.5002 13.5C40.2616 13.5 42.5002 15.7386 42.5002 18.5V41.5C38.0819 41.5 34.5002 37.9183 34.5002 33.5V21.5H31.1565L24.621 28.0355C23.6833 28.9732 22.4115 29.5 21.0854 29.5H12.9777C12.559 29.5 12.3493 28.9937 12.6454 28.6976L26.3792 14.9648C27.3168 14.0272 28.5883 13.5 29.9144 13.5H37.5002Z" fill="white"/>
<path d="M74.6396 34.5H69.3096V9.04004H75.1196L83.1696 21.92C83.5762 22.58 83.9896 23.3 84.4096 24.08C84.8362 24.8534 85.2662 25.7134 85.6996 26.66C86.1396 27.6 86.5762 28.6634 87.0096 29.85H86.4796C86.3996 28.9034 86.3296 27.8967 86.2696 26.83C86.2029 25.7567 86.1496 24.73 86.1096 23.75C86.0629 22.77 86.0396 21.94 86.0396 21.26V9.04004H91.3696V34.5H85.5396L78.2296 22.81C77.6896 21.93 77.1929 21.08 76.7396 20.26C76.2862 19.4334 75.8096 18.5167 75.3096 17.51C74.8162 16.51 74.2296 15.32 73.5496 13.94H74.2096C74.2762 15.1734 74.3462 16.3534 74.4196 17.48C74.4862 18.6067 74.5396 19.63 74.5796 20.55C74.6196 21.4634 74.6396 22.21 74.6396 22.79V34.5ZM102.13 34.88C100.216 34.88 98.5596 34.4667 97.1596 33.64C95.7596 32.8134 94.6796 31.66 93.9196 30.18C93.1662 28.7067 92.7896 26.99 92.7896 25.03C92.7896 23.05 93.1662 21.3234 93.9196 19.85C94.6796 18.37 95.7596 17.2167 97.1596 16.39C98.5596 15.5634 100.216 15.15 102.13 15.15C104.056 15.15 105.72 15.5634 107.12 16.39C108.513 17.2167 109.59 18.37 110.35 19.85C111.103 21.3234 111.48 23.05 111.48 25.03C111.48 26.99 111.103 28.7067 110.35 30.18C109.59 31.66 108.513 32.8134 107.12 33.64C105.72 34.4667 104.056 34.88 102.13 34.88ZM102.13 30.84C103.043 30.84 103.806 30.5867 104.42 30.08C105.04 29.5734 105.503 28.88 105.81 28C106.116 27.1134 106.27 26.12 106.27 25.02C106.27 23.8867 106.116 22.8834 105.81 22.01C105.503 21.13 105.04 20.44 104.42 19.94C103.806 19.44 103.043 19.19 102.13 19.19C101.223 19.19 100.463 19.44 99.8496 19.94C99.2429 20.44 98.7862 21.13 98.4796 22.01C98.1729 22.8834 98.0196 23.8867 98.0196 25.02C98.0196 26.12 98.1729 27.1134 98.4796 28C98.7862 28.88 99.2429 29.5734 99.8496 30.08C100.463 30.5867 101.223 30.84 102.13 30.84ZM123.99 34.5H118.16L111.12 15.39H116.57L119.79 25.31C120.176 26.55 120.513 27.8034 120.8 29.07C121.093 30.33 121.393 31.64 121.7 33H120.61C120.903 31.64 121.193 30.33 121.48 29.07C121.766 27.8034 122.103 26.55 122.49 25.31L125.67 15.39H131.05L123.99 34.5ZM136.82 34.88C135.613 34.88 134.53 34.6667 133.57 34.24C132.603 33.8067 131.843 33.1667 131.29 32.32C130.743 31.4734 130.47 30.4167 130.47 29.15C130.47 28.09 130.666 27.2 131.06 26.48C131.446 25.7667 131.98 25.1934 132.66 24.76C133.34 24.3267 134.11 23.9967 134.97 23.77C135.83 23.5434 136.733 23.3834 137.68 23.29C138.786 23.1767 139.676 23.07 140.35 22.97C141.03 22.8767 141.526 22.7234 141.84 22.51C142.153 22.3034 142.31 21.9934 142.31 21.58V21.49C142.31 20.9434 142.196 20.4834 141.97 20.11C141.743 19.7367 141.406 19.45 140.96 19.25C140.513 19.05 139.966 18.95 139.32 18.95C138.66 18.95 138.083 19.05 137.59 19.25C137.103 19.45 136.706 19.7134 136.4 20.04C136.086 20.3734 135.856 20.7434 135.71 21.15L131.01 20.37C131.343 19.2634 131.89 18.3234 132.65 17.55C133.416 16.77 134.366 16.1767 135.5 15.77C136.633 15.3567 137.906 15.15 139.32 15.15C140.353 15.15 141.356 15.2734 142.33 15.52C143.296 15.7667 144.163 16.1467 144.93 16.66C145.703 17.1734 146.313 17.84 146.76 18.66C147.213 19.48 147.44 20.47 147.44 21.63V34.5H142.58V31.85H142.41C142.103 32.4434 141.693 32.9634 141.18 33.41C140.666 33.8634 140.05 34.22 139.33 34.48C138.603 34.7467 137.766 34.88 136.82 34.88ZM138.28 31.27C139.086 31.27 139.793 31.11 140.4 30.79C141.013 30.47 141.49 30.0367 141.83 29.49C142.17 28.9434 142.34 28.3334 142.34 27.66V25.6C142.193 25.7134 141.966 25.8134 141.66 25.9C141.353 25.9934 141.01 26.0734 140.63 26.14C140.256 26.2134 139.886 26.2767 139.52 26.33C139.16 26.39 138.836 26.4367 138.55 26.47C137.923 26.5567 137.37 26.7034 136.89 26.91C136.41 27.1167 136.04 27.3867 135.78 27.72C135.52 28.06 135.39 28.49 135.39 29.01C135.39 29.5034 135.513 29.9167 135.76 30.25C136.013 30.59 136.353 30.8434 136.78 31.01C137.206 31.1834 137.706 31.27 138.28 31.27ZM157.12 34.88C155.586 34.88 154.226 34.66 153.04 34.22C151.853 33.78 150.883 33.14 150.13 32.3C149.383 31.4667 148.9 30.4567 148.68 29.27L153.45 28.45C153.703 29.3367 154.143 30.0034 154.77 30.45C155.396 30.8967 156.233 31.12 157.28 31.12C158.246 31.12 159.013 30.9334 159.58 30.56C160.153 30.1934 160.44 29.7234 160.44 29.15C160.44 28.65 160.236 28.24 159.83 27.92C159.43 27.6 158.813 27.3567 157.98 27.19L154.68 26.5C152.833 26.1267 151.453 25.4867 150.54 24.58C149.633 23.6734 149.18 22.5067 149.18 21.08C149.18 19.8534 149.516 18.7967 150.19 17.91C150.856 17.03 151.79 16.35 152.99 15.87C154.183 15.39 155.59 15.15 157.21 15.15C158.71 15.15 160.013 15.36 161.12 15.78C162.226 16.1934 163.123 16.7834 163.81 17.55C164.49 18.31 164.943 19.21 165.17 20.25L160.63 21.05C160.436 20.4034 160.063 19.87 159.51 19.45C158.956 19.0367 158.213 18.83 157.28 18.83C156.433 18.83 155.726 19.0067 155.16 19.36C154.586 19.7134 154.3 20.18 154.3 20.76C154.3 21.2467 154.486 21.6567 154.86 21.99C155.226 22.3234 155.86 22.58 156.76 22.76L160.2 23.44C162.046 23.82 163.42 24.4334 164.32 25.28C165.22 26.1267 165.67 27.2334 165.67 28.6C165.67 29.8534 165.303 30.95 164.57 31.89C163.843 32.83 162.84 33.5634 161.56 34.09C160.28 34.6167 158.8 34.88 157.12 34.88ZM165.02 15.39H176.35V19.31H165.02V15.39ZM167.65 29.36V10.85H172.78V28.91C172.78 29.5167 172.913 29.9634 173.18 30.25C173.446 30.5434 173.893 30.69 174.52 30.69C174.713 30.69 174.986 30.6634 175.34 30.61C175.693 30.5634 175.96 30.5167 176.14 30.47L176.88 34.31C176.306 34.4834 175.74 34.6034 175.18 34.67C174.613 34.7367 174.073 34.77 173.56 34.77C171.646 34.77 170.183 34.3034 169.17 33.37C168.156 32.4367 167.65 31.1 167.65 29.36ZM182.74 34.88C181.533 34.88 180.446 34.6667 179.48 34.24C178.52 33.8067 177.763 33.1667 177.21 32.32C176.656 31.4734 176.38 30.4167 176.38 29.15C176.38 28.09 176.576 27.2 176.97 26.48C177.363 25.7667 177.9 25.1934 178.58 24.76C179.253 24.3267 180.02 23.9967 180.88 23.77C181.74 23.5434 182.643 23.3834 183.59 23.29C184.696 23.1767 185.59 23.07 186.27 22.97C186.943 22.8767 187.436 22.7234 187.75 22.51C188.063 22.3034 188.22 21.9934 188.22 21.58V21.49C188.22 20.9434 188.106 20.4834 187.88 20.11C187.653 19.7367 187.316 19.45 186.87 19.25C186.43 19.05 185.883 18.95 185.23 18.95C184.57 18.95 183.996 19.05 183.51 19.25C183.016 19.45 182.616 19.7134 182.31 20.04C182.003 20.3734 181.776 20.7434 181.63 21.15L176.93 20.37C177.256 19.2634 177.803 18.3234 178.57 17.55C179.33 16.77 180.276 16.1767 181.41 15.77C182.543 15.3567 183.816 15.15 185.23 15.15C186.27 15.15 187.273 15.2734 188.24 15.52C189.206 15.7667 190.076 16.1467 190.85 16.66C191.616 17.1734 192.223 17.84 192.67 18.66C193.123 19.48 193.35 20.47 193.35 21.63V34.5H188.5V31.85H188.33C188.016 32.4434 187.606 32.9634 187.1 33.41C186.586 33.8634 185.966 34.22 185.24 34.48C184.52 34.7467 183.686 34.88 182.74 34.88ZM184.19 31.27C184.996 31.27 185.706 31.11 186.32 30.79C186.926 30.47 187.4 30.0367 187.74 29.49C188.086 28.9434 188.26 28.3334 188.26 27.66V25.6C188.113 25.7134 187.883 25.8134 187.57 25.9C187.263 25.9934 186.923 26.0734 186.55 26.14C186.17 26.2134 185.8 26.2767 185.44 26.33C185.073 26.39 184.746 26.4367 184.46 26.47C183.833 26.5567 183.283 26.7034 182.81 26.91C182.33 27.1167 181.956 27.3867 181.69 27.72C181.43 28.06 181.3 28.49 181.3 29.01C181.3 29.5034 181.426 29.9167 181.68 30.25C181.926 30.59 182.263 30.8434 182.69 31.01C183.123 31.1834 183.623 31.27 184.19 31.27ZM203.99 34.88C202.07 34.88 200.41 34.4667 199.01 33.64C197.616 32.8134 196.54 31.66 195.78 30.18C195.026 28.7067 194.65 26.99 194.65 25.03C194.65 23.05 195.026 21.3234 195.78 19.85C196.54 18.37 197.616 17.2167 199.01 16.39C200.41 15.5634 202.07 15.15 203.99 15.15C205.123 15.15 206.166 15.3 207.12 15.6C208.08 15.8934 208.93 16.3134 209.67 16.86C210.41 17.4067 211.02 18.0734 211.5 18.86C211.98 19.6467 212.31 20.53 212.49 21.51L207.72 22.4C207.62 21.9 207.46 21.4534 207.24 21.06C207.026 20.6667 206.766 20.33 206.46 20.05C206.146 19.77 205.79 19.5567 205.39 19.41C204.983 19.2634 204.536 19.19 204.05 19.19C203.136 19.19 202.37 19.4334 201.75 19.92C201.13 20.4134 200.663 21.0967 200.35 21.97C200.036 22.85 199.88 23.8667 199.88 25.02C199.88 26.1534 200.036 27.1567 200.35 28.03C200.663 28.9034 201.13 29.59 201.75 30.09C202.37 30.59 203.136 30.84 204.05 30.84C204.536 30.84 204.986 30.7634 205.4 30.61C205.806 30.4567 206.17 30.2367 206.49 29.95C206.81 29.6567 207.076 29.3034 207.29 28.89C207.51 28.4834 207.663 28.0234 207.75 27.51L212.52 28.38C212.34 29.3934 212.01 30.2967 211.53 31.09C211.05 31.8834 210.44 32.5634 209.7 33.13C208.96 33.7034 208.11 34.1367 207.15 34.43C206.183 34.73 205.13 34.88 203.99 34.88ZM221.9 24.98L218.42 28.91V22.74H219.19L225.44 15.39H231.37L223.12 24.98H221.9ZM218.9 34.5H213.77V9.04004H218.9V34.5ZM231.73 34.5H225.7L219.95 26.13L223.39 22.49L231.73 34.5Z" fill="white"/>
</svg>
