<svg width="477" height="407" viewBox="0 0 477 407" fill="none" xmlns="http://www.w3.org/2000/svg">
<rect x="128.71" y="278.291" width="128.709" height="128.709" rx="6" transform="rotate(90 128.71 278.291)" fill="url(#paint0_linear_2170_292)" fill-opacity="0.05"/>
<rect x="128.21" y="278.791" width="127.709" height="127.709" rx="5.5" transform="rotate(90 128.21 278.791)" stroke="url(#paint1_linear_2170_292)" stroke-opacity="0.8"/>
<rect x="475.799" y="278.291" width="128.709" height="128.709" rx="6" transform="rotate(90 475.799 278.291)" fill="url(#paint2_linear_2170_292)" fill-opacity="0.05"/>
<rect x="475.299" y="278.791" width="127.709" height="127.709" rx="5.5" transform="rotate(90 475.299 278.791)" stroke="url(#paint3_linear_2170_292)" stroke-opacity="0.8"/>
<rect x="197" y="407" width="59" height="59" rx="6" transform="rotate(-180 197 407)" fill="url(#paint4_linear_2170_292)" fill-opacity="0.05"/>
<rect x="196.5" y="406.5" width="58" height="58" rx="5.5" transform="rotate(-180 196.5 406.5)" stroke="url(#paint5_linear_2170_292)" stroke-opacity="0.8"/>
<rect x="128.209" y="0.500021" width="127.709" height="127.709" rx="5.5" transform="rotate(90 128.209 0.500021)" fill="url(#paint6_linear_2170_292)" fill-opacity="0.05" stroke="url(#paint7_linear_2170_292)"/>
<rect x="197.783" y="139.646" width="58.1367" height="58.1367" rx="5.5" transform="rotate(90 197.783 139.646)" fill="url(#paint8_linear_2170_292)" fill-opacity="0.05" stroke="url(#paint9_linear_2170_292)"/>
<rect x="476.573" y="208.718" width="59.1367" height="59.1367" rx="6" transform="rotate(90 476.573 208.718)" fill="url(#paint10_linear_2170_292)" fill-opacity="0.05"/>
<rect x="476.073" y="209.218" width="58.1367" height="58.1367" rx="5.5" transform="rotate(90 476.073 209.218)" stroke="url(#paint11_linear_2170_292)" stroke-opacity="0.4"/>
<rect x="198.283" y="69.5728" width="59.1367" height="59.1367" rx="6" transform="rotate(90 198.283 69.5728)" fill="url(#paint12_linear_2170_292)" fill-opacity="0.05"/>
<rect x="197.783" y="70.0728" width="58.1367" height="58.1367" rx="5.5" transform="rotate(90 197.783 70.0728)" stroke="url(#paint13_linear_2170_292)" stroke-opacity="0.4"/>
<rect x="266.486" y="70.0728" width="58.1367" height="58.1367" rx="5.5" transform="rotate(90 266.486 70.0728)" fill="#FDFF6C" fill-opacity="0.1" stroke="#FDFF6C"/>
<rect x="476.573" y="2.08316e-05" width="59.1367" height="59.1367" rx="6" transform="rotate(90 476.573 2.08316e-05)" fill="url(#paint14_linear_2170_292)" fill-opacity="0.05"/>
<rect x="476.073" y="0.500021" width="58.1367" height="58.1367" rx="5.5" transform="rotate(90 476.073 0.500021)" stroke="url(#paint15_linear_2170_292)" stroke-opacity="0.15"/>
<rect x="58.6371" y="209.218" width="58.1367" height="58.1367" rx="5.5" transform="rotate(90 58.6371 209.218)" fill="url(#paint16_linear_2170_292)" fill-opacity="0.05" stroke="url(#paint17_linear_2170_292)"/>
<rect x="198.283" y="0.000509113" width="59.1367" height="59.1367" rx="6" transform="rotate(90 198.283 0.000509113)" fill="url(#paint18_linear_2170_292)" fill-opacity="0.05"/>
<rect x="197.783" y="0.500509" width="58.1367" height="58.1367" rx="5.5" transform="rotate(90 197.783 0.500509)" stroke="url(#paint19_linear_2170_292)" stroke-opacity="0.4"/>
<rect x="406.5" y="139.646" width="58.1367" height="58.1367" rx="5.5" transform="rotate(90 406.5 139.646)" fill="#53DB78" fill-opacity="0.05" stroke="url(#paint20_linear_2170_292)"/>
<rect x="405.637" y="209.5" width="58.1367" height="58.1367" rx="5.5" transform="rotate(90 405.637 209.5)" fill="#53DB78" fill-opacity="0.1" stroke="#53DB78"/>
<rect x="267.355" y="209.219" width="58.1367" height="58.1367" rx="5.5" transform="rotate(90 267.355 209.219)" fill="#53DB78" fill-opacity="0.1" stroke="#53DB78"/>
<rect x="128.209" y="209.218" width="58.1367" height="58.1367" rx="5.5" transform="rotate(90 128.209 209.218)" fill="#53DB78" fill-opacity="0.1" stroke="#53DB78"/>
<rect x="267.355" y="278.791" width="127.709" height="58.1367" rx="5.5" transform="rotate(90 267.355 278.791)" fill="url(#paint21_linear_2170_292)" fill-opacity="0.05" stroke="url(#paint22_linear_2170_292)"/>
<rect x="476.573" y="69.5733" width="128.709" height="59.1367" rx="6" transform="rotate(90 476.573 69.5733)" fill="url(#paint23_linear_2170_292)" fill-opacity="0.05"/>
<rect x="476.073" y="70.0733" width="127.709" height="58.1367" rx="5.5" transform="rotate(90 476.073 70.0733)" stroke="url(#paint24_linear_2170_292)" stroke-opacity="0.35"/>
<rect x="406.5" y="0.500509" width="127.709" height="58.1367" rx="5.5" transform="rotate(90 406.5 0.500509)" fill="url(#paint25_linear_2170_292)" fill-opacity="0.05" stroke="#53DB78"/>
<rect x="128.709" y="198.282" width="128.709" height="59.1367" rx="6" transform="rotate(-180 128.709 198.282)" fill="url(#paint26_linear_2170_292)" fill-opacity="0.05"/>
<rect x="128.209" y="197.782" width="127.709" height="58.1367" rx="5.5" transform="rotate(-180 128.209 197.782)" stroke="url(#paint27_linear_2170_292)" stroke-opacity="0.8"/>
<rect x="337.427" y="59.1372" width="128.709" height="59.1367" rx="6" transform="rotate(-180 337.427 59.1372)" fill="url(#paint28_linear_2170_292)" fill-opacity="0.05"/>
<rect x="336.927" y="58.6372" width="127.709" height="58.1367" rx="5.5" transform="rotate(-180 336.927 58.6372)" stroke="url(#paint29_linear_2170_292)" stroke-opacity="0.2"/>
<rect x="258.288" y="218.285" width="40.0034" height="40.0034" rx="6" transform="rotate(90 258.288 218.285)" fill="#53DB78"/>
<mask id="mask0_2170_292" style="mask-type:luminance" maskUnits="userSpaceOnUse" x="225" y="225" width="25" height="26">
<path d="M249.995 225.638H225.993V250.935H249.995V225.638Z" fill="white"/>
</mask>
<g mask="url(#mask0_2170_292)">
<path fill-rule="evenodd" clip-rule="evenodd" d="M231.993 225.638H249.995V231.962V244.611L243.994 250.935V231.962H225.993L231.993 225.638ZM225.993 246.516V238.287H233.801L225.993 246.516ZM237.994 250.935H230.286L237.994 242.812V250.935Z" fill="#000D01"/>
</g>
<path d="M389.351 238.74H365" stroke="#53DB78" stroke-width="3" stroke-linecap="round" stroke-linejoin="round"/>
<path d="M369.201 230.351L365 238.74V246.045C365 246.691 365.257 247.31 365.714 247.767C366.17 248.224 366.79 248.48 367.435 248.48H386.916C387.562 248.48 388.181 248.224 388.638 247.767C389.094 247.31 389.351 246.691 389.351 246.045V238.74L385.15 230.351C384.949 229.946 384.638 229.604 384.253 229.366C383.868 229.127 383.424 229 382.971 229H371.38C370.927 229 370.483 229.127 370.098 229.366C369.713 229.604 369.402 229.946 369.201 230.351Z" stroke="#53DB78" stroke-width="3" stroke-linecap="round" stroke-linejoin="round"/>
<path d="M369.871 243.61H369.885" stroke="#53DB78" stroke-width="3" stroke-linecap="round" stroke-linejoin="round"/>
<path d="M374.741 243.61H374.754" stroke="#53DB78" stroke-width="3" stroke-linecap="round" stroke-linejoin="round"/>
<path d="M385.258 94.5034H383.954V91.853C383.954 88.1955 381.032 85.2271 377.431 85.2271C373.831 85.2271 370.909 88.1955 370.909 91.853V94.5034H369.604C368.17 94.5034 366.995 95.6961 366.995 97.1538V110.406C366.995 111.863 368.17 113.056 369.604 113.056H385.258C386.693 113.056 387.867 111.863 387.867 110.406V97.1538C387.867 95.6961 386.693 94.5034 385.258 94.5034ZM373.518 91.853C373.518 89.6532 375.266 87.8775 377.431 87.8775C379.597 87.8775 381.345 89.6532 381.345 91.853V94.5034H373.518V91.853ZM385.258 110.406H369.604V97.1538H385.258V110.406Z" fill="#53DB78"/>
<path d="M110.012 226.546H89.1406C87.6997 226.546 86.5316 227.714 86.5316 229.155V242.2C86.5316 243.641 87.6997 244.809 89.1406 244.809H110.012C111.453 244.809 112.621 243.641 112.621 242.2V229.155C112.621 227.714 111.453 226.546 110.012 226.546Z" stroke="#53DB78" stroke-width="3" stroke-linecap="round" stroke-linejoin="round"/>
<path d="M94.3578 250.027H104.794" stroke="#53DB78" stroke-width="3" stroke-linecap="round" stroke-linejoin="round"/>
<path d="M99.5765 244.809V250.027" stroke="#53DB78" stroke-width="3" stroke-linecap="round" stroke-linejoin="round"/>
<path d="M238.175 84.6807C238.899 84.6807 239.612 84.866 240.243 85.219C240.795 85.5277 241.269 85.9559 241.631 86.47L241.779 86.6962L253.687 106.434L253.698 106.453C254.066 107.086 254.262 107.804 254.264 108.535C254.266 109.266 254.074 109.986 253.709 110.62C253.345 111.255 252.819 111.784 252.184 112.155C251.55 112.525 250.829 112.725 250.093 112.733H226.256C225.52 112.725 224.798 112.526 224.164 112.155C223.53 111.784 223.004 111.255 222.639 110.62C222.275 109.986 222.084 109.266 222.086 108.535C222.088 107.804 222.284 107.086 222.652 106.453C222.655 106.447 222.659 106.44 222.663 106.434L234.57 86.6962C234.945 86.081 235.475 85.572 236.107 85.219C236.738 84.8661 237.451 84.6807 238.175 84.6807ZM238.175 87.4716C237.933 87.4716 237.695 87.5338 237.485 87.6515C237.274 87.7691 237.098 87.9385 236.973 88.1434L225.085 107.849C224.962 108.059 224.898 108.299 224.897 108.542C224.896 108.786 224.96 109.026 225.081 109.237C225.202 109.449 225.379 109.626 225.59 109.75C225.801 109.873 226.042 109.939 226.287 109.942H250.063C250.308 109.939 250.548 109.873 250.76 109.75C250.971 109.626 251.146 109.449 251.268 109.237C251.389 109.026 251.454 108.786 251.453 108.542C251.452 108.299 251.386 108.059 251.264 107.849L239.376 88.1434L239.273 87.9962C239.161 87.8566 239.022 87.7397 238.864 87.6515C238.654 87.5339 238.416 87.4716 238.175 87.4716Z" fill="#FDFF6C"/>
<path d="M236.937 99.8067V94.3063C236.937 93.5468 237.491 92.9312 238.174 92.9312C238.858 92.9312 239.412 93.5468 239.412 94.3063V99.8067C239.412 100.566 238.858 101.182 238.174 101.182C237.491 101.182 236.937 100.566 236.937 99.8067Z" fill="#FDFF6C"/>
<path d="M238.18 104.482C238.861 104.482 239.412 105.037 239.412 105.72C239.412 106.404 238.861 106.958 238.18 106.958H238.168C237.488 106.958 236.937 106.404 236.937 105.72C236.937 105.037 237.488 104.482 238.168 104.482H238.18Z" fill="#FDFF6C"/>
<g filter="url(#filter0_d_2170_292)">
<path d="M266.999 239L307.999 239M307.999 239L307.869 99L327.434 99L346.999 99M307.999 239L346.5 239" stroke="url(#paint30_linear_2170_292)" stroke-width="3"/>
</g>
<path d="M128.71 238.287L208.718 238.287" stroke="#53DB78" stroke-width="3"/>
<path d="M237.417 208.718L237.417 128.71" stroke="#FDFF6C" stroke-width="3"/>
<path d="M347.088 245.175C345.473 245.175 343.925 244.534 342.783 243.392C341.642 242.251 341 240.702 341 239.088C341 237.473 341.642 235.925 342.783 234.783C343.925 233.641 345.473 233 347.088 233L347.088 239.088L347.088 245.175Z" fill="#3A9C54"/>
<path d="M128.71 232.199C130.324 232.199 131.873 232.84 133.014 233.982C134.156 235.123 134.797 236.672 134.797 238.286C134.797 239.901 134.156 241.449 133.014 242.591C131.873 243.733 130.324 244.374 128.71 244.374L128.71 238.286L128.71 232.199Z" fill="#3A9C54"/>
<path d="M280.9 238.286L267.855 245.818L267.855 230.755L280.9 238.286Z" fill="#4DCA6E"/>
<path d="M195.673 238.287L208.718 230.755L208.718 245.818L195.673 238.287Z" fill="#4DCA6E"/>
<path d="M237.417 195.673L244.948 208.718L229.885 208.718L237.417 195.673Z" fill="#FDFF6C"/>
<defs>
<filter id="filter0_d_2170_292" x="262.999" y="97.5" width="88" height="151" filterUnits="userSpaceOnUse" color-interpolation-filters="sRGB">
<feFlood flood-opacity="0" result="BackgroundImageFix"/>
<feColorMatrix in="SourceAlpha" type="matrix" values="0 0 0 0 0 0 0 0 0 0 0 0 0 0 0 0 0 0 127 0" result="hardAlpha"/>
<feOffset dy="4"/>
<feGaussianBlur stdDeviation="2"/>
<feComposite in2="hardAlpha" operator="out"/>
<feColorMatrix type="matrix" values="0 0 0 0 0 0 0 0 0 0 0 0 0 0 0 0 0 0 0.25 0"/>
<feBlend mode="normal" in2="BackgroundImageFix" result="effect1_dropShadow_2170_292"/>
<feBlend mode="normal" in="SourceGraphic" in2="effect1_dropShadow_2170_292" result="shape"/>
</filter>
<linearGradient id="paint0_linear_2170_292" x1="190.181" y1="305.016" x2="261.384" y2="355.322" gradientUnits="userSpaceOnUse">
<stop stop-color="#53DB78"/>
<stop offset="0.720624" stop-color="#2C7540" stop-opacity="0"/>
</linearGradient>
<linearGradient id="paint1_linear_2170_292" x1="111.626" y1="238.457" x2="216.882" y2="325.912" gradientUnits="userSpaceOnUse">
<stop stop-color="#53DB78"/>
<stop offset="1" stop-color="#2C7540" stop-opacity="0"/>
</linearGradient>
<linearGradient id="paint2_linear_2170_292" x1="515.212" y1="390.512" x2="576.741" y2="318.536" gradientUnits="userSpaceOnUse">
<stop stop-color="#53DB78"/>
<stop offset="0.720624" stop-color="#2C7540" stop-opacity="0"/>
</linearGradient>
<linearGradient id="paint3_linear_2170_292" x1="473.806" y1="423.405" x2="520.243" y2="359.168" gradientUnits="userSpaceOnUse">
<stop stop-color="#53DB78"/>
<stop offset="1" stop-color="#2C7540" stop-opacity="0"/>
</linearGradient>
<linearGradient id="paint4_linear_2170_292" x1="215.067" y1="458.442" x2="243.272" y2="425.448" gradientUnits="userSpaceOnUse">
<stop stop-color="#53DB78"/>
<stop offset="0.720624" stop-color="#2C7540" stop-opacity="0"/>
</linearGradient>
<linearGradient id="paint5_linear_2170_292" x1="196.087" y1="473.52" x2="217.373" y2="444.074" gradientUnits="userSpaceOnUse">
<stop stop-color="#53DB78"/>
<stop offset="1" stop-color="#2C7540" stop-opacity="0"/>
</linearGradient>
<linearGradient id="paint6_linear_2170_292" x1="234.74" y1="11.6334" x2="145.736" y2="97.1541" gradientUnits="userSpaceOnUse">
<stop stop-color="#53DB78"/>
<stop offset="1" stop-color="#2C7540" stop-opacity="0"/>
</linearGradient>
<linearGradient id="paint7_linear_2170_292" x1="240.931" y1="15.89" x2="164.698" y2="72.7749" gradientUnits="userSpaceOnUse">
<stop stop-color="#53DB78" stop-opacity="0.7"/>
<stop offset="1" stop-color="#2C7540" stop-opacity="0"/>
</linearGradient>
<linearGradient id="paint8_linear_2170_292" x1="257.42" y1="136.102" x2="185.238" y2="206.979" gradientUnits="userSpaceOnUse">
<stop stop-color="#53DB78"/>
<stop offset="1" stop-color="#2C7540"/>
</linearGradient>
<linearGradient id="paint9_linear_2170_292" x1="257.42" y1="141.754" x2="198.283" y2="198.282" gradientUnits="userSpaceOnUse">
<stop stop-color="#53DB78"/>
<stop offset="1" stop-color="#2C7540" stop-opacity="0"/>
</linearGradient>
<linearGradient id="paint10_linear_2170_292" x1="476.573" y1="238.287" x2="535.709" y2="238.287" gradientUnits="userSpaceOnUse">
<stop stop-color="#53DB78"/>
<stop offset="0.548077" stop-color="#2C7540" stop-opacity="0"/>
</linearGradient>
<linearGradient id="paint11_linear_2170_292" x1="506.229" y1="260.186" x2="506.229" y2="192.079" gradientUnits="userSpaceOnUse">
<stop stop-color="#53DB78"/>
<stop offset="1" stop-color="#2C7540" stop-opacity="0"/>
</linearGradient>
<linearGradient id="paint12_linear_2170_292" x1="245.575" y1="87.7026" x2="200.686" y2="126.013" gradientUnits="userSpaceOnUse">
<stop stop-color="#53DB78"/>
<stop offset="0.548077" stop-color="#2C7540" stop-opacity="0"/>
</linearGradient>
<linearGradient id="paint13_linear_2170_292" x1="252.154" y1="73.3847" x2="198.365" y2="126.013" gradientUnits="userSpaceOnUse">
<stop stop-color="#53DB78"/>
<stop offset="1" stop-color="#2C7540"/>
</linearGradient>
<linearGradient id="paint14_linear_2170_292" x1="529.588" y1="48.7584" x2="481.99" y2="-9.67427" gradientUnits="userSpaceOnUse">
<stop stop-color="#53DB78"/>
<stop offset="0.548077" stop-color="#2C7540" stop-opacity="0"/>
</linearGradient>
<linearGradient id="paint15_linear_2170_292" x1="525.331" y1="47.2106" x2="476.573" y2="-11.2222" gradientUnits="userSpaceOnUse">
<stop offset="0.173077" stop-color="#53DB78"/>
<stop offset="1" stop-color="#2C7540" stop-opacity="0"/>
</linearGradient>
<linearGradient id="paint16_linear_2170_292" x1="96.1458" y1="225.465" x2="97.66" y2="279.825" gradientUnits="userSpaceOnUse">
<stop stop-color="#53DB78"/>
<stop offset="0.548077" stop-color="#2C7540" stop-opacity="0"/>
</linearGradient>
<linearGradient id="paint17_linear_2170_292" x1="90.3412" y1="211.534" x2="91.1151" y2="263.775" gradientUnits="userSpaceOnUse">
<stop stop-color="#53DB78" stop-opacity="0.4"/>
<stop offset="1" stop-color="#2C7540" stop-opacity="0"/>
</linearGradient>
<linearGradient id="paint18_linear_2170_292" x1="244.332" y1="17.7434" x2="198.282" y2="46.7662" gradientUnits="userSpaceOnUse">
<stop stop-color="#53DB78"/>
<stop offset="0.548077" stop-color="#2C7540" stop-opacity="0"/>
</linearGradient>
<linearGradient id="paint19_linear_2170_292" x1="257.102" y1="2.65149" x2="204.087" y2="52.5708" gradientUnits="userSpaceOnUse">
<stop stop-color="#53DB78" stop-opacity="0.7"/>
<stop offset="1" stop-color="#2C7540" stop-opacity="0"/>
</linearGradient>
<linearGradient id="paint20_linear_2170_292" x1="468.746" y1="219.154" x2="432.221" y2="127.405" gradientUnits="userSpaceOnUse">
<stop stop-color="#53DB78" stop-opacity="0.7"/>
<stop offset="1" stop-color="#2C7540" stop-opacity="0"/>
</linearGradient>
<linearGradient id="paint21_linear_2170_292" x1="267.855" y1="307.859" x2="401.064" y2="301.645" gradientUnits="userSpaceOnUse">
<stop stop-color="#53DB78"/>
<stop offset="1" stop-color="#2C7540" stop-opacity="0"/>
</linearGradient>
<linearGradient id="paint22_linear_2170_292" x1="288.727" y1="288.292" x2="381.564" y2="299.145" gradientUnits="userSpaceOnUse">
<stop stop-color="#53DB78"/>
<stop offset="1" stop-color="#2C7540" stop-opacity="0"/>
</linearGradient>
<linearGradient id="paint23_linear_2170_292" x1="476.573" y1="99.1416" x2="605.282" y2="99.1416" gradientUnits="userSpaceOnUse">
<stop stop-color="#53DB78"/>
<stop offset="0.548077" stop-color="#2C7540" stop-opacity="0"/>
</linearGradient>
<linearGradient id="paint24_linear_2170_292" x1="566.432" y1="124.523" x2="523.478" y2="46.7419" gradientUnits="userSpaceOnUse">
<stop stop-color="#53DB78"/>
<stop offset="1" stop-color="#2C7540" stop-opacity="0"/>
</linearGradient>
<linearGradient id="paint25_linear_2170_292" x1="509.547" y1="49.2279" x2="407" y2="-34.358" gradientUnits="userSpaceOnUse">
<stop stop-color="#53DB78"/>
<stop offset="0.548077" stop-color="#2C7540" stop-opacity="0"/>
</linearGradient>
<linearGradient id="paint26_linear_2170_292" x1="135.699" y1="206.173" x2="252.564" y2="234.035" gradientUnits="userSpaceOnUse">
<stop stop-color="#53DB78"/>
<stop offset="0.548077" stop-color="#2C7540" stop-opacity="0"/>
</linearGradient>
<linearGradient id="paint27_linear_2170_292" x1="143.051" y1="214.687" x2="225.848" y2="248.986" gradientUnits="userSpaceOnUse">
<stop stop-color="#53DB78" stop-opacity="0.7"/>
<stop offset="1" stop-color="#2C7540" stop-opacity="0"/>
</linearGradient>
<linearGradient id="paint28_linear_2170_292" x1="394.863" y1="65.2592" x2="393.702" y2="118.274" gradientUnits="userSpaceOnUse">
<stop stop-color="#53DB78"/>
<stop offset="0.548077" stop-color="#2C7540" stop-opacity="0"/>
</linearGradient>
<linearGradient id="paint29_linear_2170_292" x1="401.829" y1="59.4547" x2="380.932" y2="143.814" gradientUnits="userSpaceOnUse">
<stop stop-color="#53DB78"/>
<stop offset="1" stop-color="#2C7540" stop-opacity="0"/>
</linearGradient>
<linearGradient id="paint30_linear_2170_292" x1="306.999" y1="99" x2="306.999" y2="239" gradientUnits="userSpaceOnUse">
<stop stop-color="#53DB78"/>
<stop offset="1" stop-color="#2C7540"/>
</linearGradient>
</defs>
</svg>
