<svg width="937" height="536" viewBox="0 0 937 536" fill="none" xmlns="http://www.w3.org/2000/svg">
<g clip-path="url(#clip0_2248_746)">
<g opacity="0.35">
<rect width="391.938" height="391.938" rx="10" transform="matrix(0.866025 0.5 -0.866025 0.5 469.43 189.314)" fill="url(#paint0_linear_2248_746)"/>
<rect x="-5.96046e-08" y="1" width="389.938" height="389.938" rx="9" transform="matrix(0.866025 0.5 -0.866025 0.5 470.296 189.814)" stroke="#53DB78" stroke-opacity="0.5" stroke-width="2"/>
<path d="M376.776 322.496L380.8 320.173L370.74 314.364C369.673 313.748 368.225 313.402 366.716 313.402C365.207 313.402 363.759 313.748 362.692 314.364L330.499 332.951C329.432 333.567 328.833 334.402 328.833 335.274C328.833 336.145 329.432 336.981 330.499 337.597L362.692 356.183C363.759 356.8 365.207 357.146 366.716 357.146C368.225 357.146 369.673 356.8 370.74 356.183L388.848 345.729L384.824 343.405L366.716 353.86L334.523 335.274L366.716 316.688" fill="#53DB78" fill-opacity="0.5"/>
<path d="M402.932 337.597L386.836 328.304L402.932 319.011L419.028 328.304L402.932 337.597ZM398.908 316.688L382.812 325.981C381.744 326.597 381.145 327.433 381.145 328.304C381.145 329.175 381.744 330.011 382.812 330.627L398.908 339.92C399.975 340.537 401.423 340.883 402.932 340.883C404.441 340.883 405.889 340.537 406.956 339.92L423.052 330.627C424.119 330.011 424.719 329.175 424.719 328.304C424.719 327.433 424.119 326.597 423.052 325.981L406.956 316.688C405.889 316.071 404.441 315.725 402.932 315.725C401.423 315.725 399.975 316.071 398.908 316.688ZM374.764 335.274L366.715 339.92L358.667 335.274L366.715 330.627L374.764 335.274ZM362.691 328.304L354.643 332.951C353.576 333.567 352.977 334.402 352.977 335.274C352.977 336.145 353.576 336.981 354.643 337.597L362.691 342.244C363.759 342.86 365.206 343.206 366.715 343.206C368.225 343.206 369.672 342.86 370.74 342.244L378.788 337.597C379.855 336.981 380.454 336.145 380.454 335.274C380.454 334.402 379.855 333.567 378.788 332.951L370.74 328.304C369.672 327.688 368.225 327.342 366.715 327.342C365.206 327.342 363.759 327.688 362.691 328.304ZM404.944 350.375L400.92 352.699L396.896 350.375L400.92 348.052L404.944 350.375ZM398.908 344.567L390.86 349.214C390.326 349.522 390.026 349.94 390.026 350.375C390.026 350.811 390.326 351.229 390.86 351.537L398.908 356.183C399.441 356.492 400.165 356.665 400.92 356.665C401.675 356.665 402.398 356.492 402.932 356.183L410.98 351.537C411.514 351.229 411.813 350.811 411.813 350.375C411.813 349.94 411.514 349.522 410.98 349.214L402.932 344.567C402.398 344.259 401.675 344.086 400.92 344.086C400.165 344.086 399.441 344.259 398.908 344.567Z" fill="#53DB78" fill-opacity="0.5"/>
<g clip-path="url(#clip1_2248_746)">
<path d="M489.839 392.914L512.739 379.693L503.276 374.229L499.491 376.415L505.169 379.693L501.384 381.878L495.706 378.6L491.921 380.786L497.599 384.064L486.054 390.729C482.08 389.308 476.591 389.636 472.995 391.712C468.832 394.116 468.832 398.05 472.995 400.454C477.159 402.857 483.972 402.857 488.136 400.454C491.732 398.377 492.11 395.318 489.839 392.914ZM476.781 398.268C474.699 397.066 474.699 395.099 476.781 393.898C478.862 392.696 482.269 392.696 484.351 393.898C486.433 395.099 486.433 397.066 484.351 398.268C482.269 399.47 478.862 399.47 476.781 398.268Z" fill="#53DB78" fill-opacity="0.5"/>
<path d="M437.036 399.36L432.684 389.854C430.034 383.953 432.873 377.725 440.254 373.464L467.317 357.839C469.399 356.637 472.806 356.637 474.888 357.839L497.598 370.951L493.813 373.136L471.103 360.024L444.039 375.649C437.983 379.146 435.522 384.281 437.794 389.089L441.2 396.956L454.827 398.923C458.233 399.36 461.64 399.579 465.046 399.142L465.993 402.092C461.829 402.529 457.476 402.42 453.312 401.764L437.036 399.36Z" fill="#53DB78" fill-opacity="0.5"/>
</g>
<path d="M581.871 439.523C585.375 436.543 586.97 432.952 586.381 429.366C585.793 425.781 583.058 422.426 578.647 419.88C574.236 417.333 568.426 415.754 562.216 415.414C556.006 415.075 549.785 415.995 544.624 418.018C540.501 416.357 535.451 415.649 530.468 416.032C525.485 416.415 520.932 417.862 517.706 420.088C514.48 422.314 512.815 425.157 513.041 428.056C513.266 430.955 515.365 433.701 518.924 435.751L519.872 436.298L523.664 434.108L522.716 433.561C520.003 432.003 518.446 429.896 518.375 427.686C518.304 425.476 519.725 423.338 522.338 421.722C524.95 420.107 528.548 419.142 532.371 419.031C536.194 418.92 539.941 419.672 542.821 421.128L544.514 421.981L546.264 421.168C550.384 419.256 555.583 418.29 560.861 418.456C566.139 418.621 571.126 419.906 574.863 422.064C578.601 424.222 580.827 427.101 581.113 430.149C581.4 433.196 579.727 436.197 576.416 438.576L575.007 439.586L576.482 440.565C578.992 442.228 580.284 444.389 580.088 446.592C579.891 448.795 578.22 450.868 575.427 452.373C572.634 453.879 568.938 454.699 565.118 454.661C561.298 454.624 557.652 453.731 554.95 452.171L554.002 451.624L550.21 453.813L551.158 454.361C554.708 456.415 559.463 457.627 564.485 457.757C569.507 457.888 574.431 456.927 578.286 455.064C582.142 453.202 584.648 450.573 585.312 447.696C585.975 444.819 584.748 441.903 581.871 439.523Z" fill="#53DB78" fill-opacity="0.5"/>
<path d="M554.004 449.436L557.796 447.247L553.812 444.947C554.754 444.12 555.412 443.197 555.748 442.227L561.398 442.227L561.398 439.131L555.748 439.131C555.412 438.16 554.754 437.237 553.812 436.41L557.796 434.11L554.004 431.921L550.02 434.221C548.588 433.677 546.989 433.297 545.308 433.103L545.308 429.841L539.946 429.841L539.946 433.103C538.265 433.297 536.665 433.677 535.234 434.221L531.25 431.921L527.458 434.11L531.442 436.41C530.499 437.237 529.842 438.16 529.506 439.131L523.855 439.131L523.855 442.227L529.506 442.227C529.842 443.197 530.499 444.12 531.442 444.947L527.458 447.247L531.25 449.436L535.234 447.136C536.665 447.68 538.265 448.06 539.946 448.254L539.946 451.516L545.308 451.516L545.308 448.254C546.989 448.06 548.588 447.68 550.02 447.136L554.004 449.436ZM536.939 443.963C535.814 443.313 535.047 442.486 534.737 441.585C534.427 440.684 534.586 439.75 535.195 438.901C535.804 438.053 536.835 437.327 538.158 436.817C539.481 436.307 541.036 436.034 542.627 436.034C544.218 436.034 545.773 436.307 547.096 436.817C548.419 437.327 549.45 438.053 550.059 438.901C550.668 439.75 550.827 440.684 550.517 441.585C550.206 442.486 549.44 443.313 548.315 443.963C546.806 444.833 544.76 445.321 542.627 445.321C540.494 445.321 538.448 444.833 536.939 443.963Z" fill="#53DB78" fill-opacity="0.5"/>
</g>
<rect width="308.997" height="308.997" rx="10" transform="matrix(0.866025 0.5 -0.866025 0.5 469.158 149.47)" fill="url(#paint1_linear_2248_746)"/>
<rect x="-5.96046e-08" y="1" width="306.997" height="306.997" rx="9" transform="matrix(0.866025 0.5 -0.866025 0.5 470.024 149.97)" stroke="#53DB78" stroke-opacity="0.5" stroke-width="2"/>
<path d="M419.461 265.982L423.486 263.659L413.425 257.851C412.358 257.234 410.911 256.888 409.401 256.888C407.892 256.888 406.445 257.234 405.377 257.851L373.185 276.437C372.118 277.053 371.518 277.889 371.518 278.76C371.518 279.632 372.118 280.467 373.185 281.083L405.377 299.67C406.445 300.286 407.892 300.632 409.401 300.632C410.911 300.632 412.358 300.286 413.425 299.67L431.534 289.215L427.51 286.892L409.401 297.346L377.209 278.76L409.401 260.174" fill="#53DB78" fill-opacity="0.75"/>
<path d="M445.617 281.084L429.521 271.79L445.617 262.497L461.714 271.79L445.617 281.084ZM441.593 260.174L425.497 269.467C424.43 270.083 423.83 270.919 423.83 271.79C423.83 272.662 424.43 273.497 425.497 274.114L441.593 283.407C442.661 284.023 444.108 284.369 445.617 284.369C447.127 284.369 448.574 284.023 449.641 283.407L465.738 274.114C466.805 273.497 467.404 272.662 467.404 271.79C467.404 270.919 466.805 270.083 465.738 269.467L449.641 260.174C448.574 259.558 447.127 259.212 445.617 259.212C444.108 259.212 442.661 259.558 441.593 260.174ZM417.449 278.76L409.401 283.407L401.353 278.76L409.401 274.114L417.449 278.76ZM405.377 271.79L397.329 276.437C396.262 277.053 395.662 277.889 395.662 278.76C395.662 279.632 396.262 280.467 397.329 281.084L405.377 285.73C406.444 286.346 407.892 286.692 409.401 286.692C410.91 286.692 412.358 286.346 413.425 285.73L421.473 281.084C422.54 280.467 423.14 279.632 423.14 278.76C423.14 277.889 422.54 277.053 421.473 276.437L413.425 271.79C412.358 271.174 410.91 270.828 409.401 270.828C407.892 270.828 406.444 271.174 405.377 271.79ZM447.629 293.862L443.605 296.185L439.581 293.862L443.605 291.538L447.629 293.862ZM441.593 288.053L433.545 292.7C433.012 293.008 432.712 293.426 432.712 293.862C432.712 294.297 433.012 294.715 433.545 295.023L441.593 299.67C442.127 299.978 442.851 300.151 443.605 300.151C444.36 300.151 445.084 299.978 445.617 299.67L453.666 295.023C454.199 294.715 454.499 294.297 454.499 293.862C454.499 293.426 454.199 293.008 453.666 292.7L445.617 288.053C445.084 287.745 444.36 287.572 443.605 287.572C442.851 287.572 442.127 287.745 441.593 288.053Z" fill="#53DB78" fill-opacity="0.75"/>
<g clip-path="url(#clip2_2248_746)">
<path d="M532.524 336.4L555.424 323.179L545.961 317.716L542.176 319.901L547.853 323.179L544.068 325.365L538.391 322.086L534.606 324.272L540.283 327.55L528.739 334.215C524.764 332.795 519.276 333.122 515.68 335.199C511.516 337.602 511.516 341.536 515.68 343.94C519.844 346.344 526.657 346.344 530.82 343.94C534.416 341.864 534.795 338.804 532.524 336.4ZM519.465 341.755C517.383 340.553 517.383 338.586 519.465 337.384C521.547 336.182 524.954 336.182 527.035 337.384C529.117 338.586 529.117 340.553 527.035 341.755C524.954 342.956 521.547 342.956 519.465 341.755Z" fill="#53DB78" fill-opacity="0.75"/>
<path d="M479.721 342.846L475.368 333.34C472.719 327.44 475.557 321.212 482.938 316.95L510.002 301.325C512.084 300.123 515.49 300.123 517.572 301.325L540.283 314.437L536.498 316.622L513.787 303.51L486.724 319.135C480.667 322.632 478.207 327.768 480.478 332.575L483.885 340.443L497.511 342.409C500.918 342.846 504.324 343.065 507.731 342.628L508.677 345.578C504.514 346.015 500.161 345.906 495.997 345.25L479.721 342.846Z" fill="#53DB78" fill-opacity="0.75"/>
</g>
<rect x="-5.96046e-08" y="1" width="230.561" height="230.561" rx="9" transform="matrix(0.866025 0.5 -0.866025 0.5 469.694 108.5)" fill="url(#paint2_linear_2248_746)" stroke="#53DB78" stroke-width="2"/>
<path d="M462.792 211.502L466.816 209.178L456.755 203.37C455.688 202.754 454.241 202.408 452.731 202.408C451.222 202.408 449.775 202.754 448.707 203.37L416.515 221.956C415.448 222.573 414.848 223.408 414.848 224.28C414.848 225.151 415.448 225.987 416.515 226.603L448.707 245.189C449.775 245.805 451.222 246.152 452.731 246.152C454.241 246.152 455.688 245.805 456.755 245.189L474.864 234.734L470.84 232.411L452.731 242.866L420.539 224.28L452.731 205.693" fill="#53DB78"/>
<path d="M488.948 226.603L472.851 217.31L488.948 208.017L505.044 217.31L488.948 226.603ZM484.923 205.693L468.827 214.987C467.76 215.603 467.16 216.438 467.16 217.31C467.16 218.181 467.76 219.017 468.827 219.633L484.923 228.926C485.991 229.542 487.438 229.889 488.948 229.889C490.457 229.889 491.904 229.542 492.972 228.926L509.068 219.633C510.135 219.017 510.735 218.181 510.735 217.31C510.735 216.438 510.135 215.603 509.068 214.987L492.972 205.693C491.904 205.077 490.457 204.731 488.948 204.731C487.438 204.731 485.991 205.077 484.923 205.693ZM460.779 224.28L452.731 228.926L444.683 224.28L452.731 219.633L460.779 224.28ZM448.707 217.31L440.659 221.956C439.592 222.573 438.992 223.408 438.992 224.28C438.992 225.151 439.592 225.987 440.659 226.603L448.707 231.25C449.774 231.866 451.222 232.212 452.731 232.212C454.24 232.212 455.688 231.866 456.755 231.25L464.803 226.603C465.87 225.987 466.47 225.151 466.47 224.28C466.47 223.408 465.87 222.573 464.803 221.956L456.755 217.31C455.688 216.694 454.24 216.348 452.731 216.348C451.222 216.348 449.774 216.694 448.707 217.31ZM490.96 239.381L486.935 241.704L482.911 239.381L486.935 237.058L490.96 239.381ZM484.923 233.573L476.875 238.219C476.342 238.528 476.042 238.945 476.042 239.381C476.042 239.817 476.342 240.235 476.875 240.543L484.923 245.189C485.457 245.497 486.181 245.67 486.935 245.67C487.69 245.67 488.414 245.497 488.948 245.189L496.996 240.543C497.529 240.235 497.829 239.817 497.829 239.381C497.829 238.945 497.529 238.528 496.996 238.219L488.948 233.573C488.414 233.265 487.69 233.092 486.935 233.092C486.181 233.092 485.457 233.265 484.923 233.573Z" fill="#53DB78"/>
</g>
<defs>
<linearGradient id="paint0_linear_2248_746" x1="377.693" y1="391.938" x2="-33.1472" y2="138.5" gradientUnits="userSpaceOnUse">
<stop stop-color="#000D01"/>
<stop offset="1" stop-color="#1D3718"/>
</linearGradient>
<linearGradient id="paint1_linear_2248_746" x1="297.766" y1="308.997" x2="-26.1327" y2="109.191" gradientUnits="userSpaceOnUse">
<stop stop-color="#000D01"/>
<stop offset="1" stop-color="#1D3718"/>
</linearGradient>
<linearGradient id="paint2_linear_2248_746" x1="224.108" y1="232.561" x2="-19.6683" y2="82.1803" gradientUnits="userSpaceOnUse">
<stop stop-color="#000D01"/>
<stop offset="1" stop-color="#2B753F"/>
</linearGradient>
<clipPath id="clip0_2248_746">
<rect width="937" height="536" fill="white"/>
</clipPath>
<clipPath id="clip1_2248_746">
<rect width="69.9308" height="69.9308" fill="white" transform="matrix(0.866025 0.5 -0.866025 0.5 467.317 349.098)"/>
</clipPath>
<clipPath id="clip2_2248_746">
<rect width="69.9308" height="69.9308" fill="white" transform="matrix(0.866025 0.5 -0.866025 0.5 510.002 292.584)"/>
</clipPath>
</defs>
</svg>
