<svg width="553" height="73" viewBox="0 0 553 73" fill="none" xmlns="http://www.w3.org/2000/svg">
<path d="M499.451 71H487L504.209 45.2209C506.537 41.6687 507.65 39.1313 507.65 36.594C507.65 33.9552 506.436 31.4179 504.209 27.9672L487.709 3H499.755L513.825 24.3134C515.344 26.9522 516.558 29.4896 517.166 32.1284H522.834C523.442 29.4896 524.555 26.9522 526.175 24.3134L540.144 3H552.291L535.69 27.9672C533.463 31.4179 532.451 33.9552 532.451 36.594C532.451 39.1313 533.362 41.7701 535.69 45.2209L553 71H540.65L526.276 49.4836C524.555 46.8448 523.442 44.206 522.834 41.5672H517.166C516.558 44.206 515.445 46.8448 513.724 49.4836L499.451 71Z" fill="url(#paint0_linear_2170_774)" fill-opacity="0.8"/>
<path d="M468 71H429.62C422.559 71 420 67.4478 420 61.6627V12.3373C420 6.55224 422.559 3 429.62 3H467.284V12.4388H430.439V32.2298H465.237V41.6687H430.439V61.5612H468V71Z" fill="url(#paint1_linear_2170_774)" fill-opacity="0.8"/>
<path d="M399 3V12.5403H377.717V71H367.179V12.5403H346V3H399Z" fill="url(#paint2_linear_2170_774)" fill-opacity="0.8"/>
<path d="M294.759 71C274.734 71 259.331 55.5296 259.331 35.3463C259.331 15.4704 274.837 0 294.759 0C314.578 0 329.981 15.4704 329.981 35.3463C329.981 55.5296 314.578 71 294.759 71ZM294.759 61.062C308.314 61.062 319.199 49.7922 319.199 35.3463C319.199 21.1053 308.416 9.93795 294.759 9.93795C281.101 9.93795 270.113 21.1053 270.113 35.3463C270.113 49.7922 280.998 61.062 294.759 61.062Z" fill="#53DB78" fill-opacity="0.8"/>
<path d="M197.251 71H187V3H210.886C225.443 3 236.822 9.59701 236.822 23.603C236.822 33.2448 230.876 40.2478 221.24 42.2776C226.776 44.9164 229.749 50.4985 233.747 58.5164L240 71H228.723L222.983 59.5313C218.882 51.5134 215.499 46.2358 205.863 46.2358H197.354L197.251 71ZM210.988 12.5403H197.456L197.354 37H210.783C219.6 37 226.058 32.7373 226.058 24.5164C226.058 16.0925 219.292 12.5403 210.988 12.5403Z" fill="url(#paint3_linear_2170_774)" fill-opacity="0.8"/>
<path d="M121.4 71H111V3H132.718C151.071 3 163 11.2209 163 27.0537C163 43.2925 150.867 51.4119 133.227 51.4119H121.4V71ZM133.024 12.5403H121.4V41.7701H133.024C144.239 41.7701 152.294 37.406 152.294 27.0537C152.294 17.1075 144.545 12.5403 133.024 12.5403Z" fill="url(#paint4_linear_2170_774)" fill-opacity="0.8"/>
<mask id="mask0_2170_774" style="mask-type:luminance" maskUnits="userSpaceOnUse" x="0" y="3" width="67" height="70">
<path d="M66.19 3.37207H0V72.9719H66.19V3.37207Z" fill="white"/>
</mask>
<g mask="url(#mask0_2170_774)">
<path fill-rule="evenodd" clip-rule="evenodd" d="M16.5475 3.37207H66.19V20.772V55.572L49.6425 72.9719V20.772H0L16.5475 3.37207ZM0 60.8153V38.172H21.5339L0 60.8153ZM33.095 72.9719H11.8406L33.095 50.6227V72.9719Z" fill="url(#paint5_linear_2170_774)" fill-opacity="0.8"/>
</g>
<defs>
<linearGradient id="paint0_linear_2170_774" x1="487" y1="37" x2="553" y2="37" gradientUnits="userSpaceOnUse">
<stop stop-color="#53DB78"/>
</linearGradient>
<linearGradient id="paint1_linear_2170_774" x1="420" y1="37" x2="468" y2="37" gradientUnits="userSpaceOnUse">
<stop stop-color="#53DB78"/>
</linearGradient>
<linearGradient id="paint2_linear_2170_774" x1="346" y1="37" x2="399" y2="37" gradientUnits="userSpaceOnUse">
<stop stop-color="#53DB78"/>
</linearGradient>
<linearGradient id="paint3_linear_2170_774" x1="187" y1="37" x2="240" y2="37" gradientUnits="userSpaceOnUse">
<stop stop-color="#53DB78"/>
</linearGradient>
<linearGradient id="paint4_linear_2170_774" x1="111" y1="37" x2="163" y2="37" gradientUnits="userSpaceOnUse">
<stop stop-color="#53DB78"/>
</linearGradient>
<linearGradient id="paint5_linear_2170_774" x1="0" y1="38.172" x2="66.19" y2="38.172" gradientUnits="userSpaceOnUse">
<stop stop-color="#53DB78"/>
</linearGradient>
</defs>
</svg>
