
      <svg data-logo="logo" xmlns="http://www.w3.org/2000/svg" viewBox="0 0 191 42">
        <g id="logogram" transform="translate(0, 1) rotate(0) "><path d="M16.6584 40H15.3817C12.0653 40 10.07 39.9994 8.54581 39.7159L17.3668 28.0344L16.6584 40Z" fill="#FFFFFF"/><path d="M31.2482 39.7514C29.7502 39.9988 27.7875 40 24.6183 40H23.109L22.397 28.0309L31.2482 39.7514Z" fill="#FFFFFF"/><path d="M39.6715 31.6708C39.6071 31.9773 39.5313 32.2655 39.4389 32.5426C38.8337 34.3567 37.7712 35.9522 36.3867 37.1982L26.44 26.044L39.6715 31.6708Z" fill="#FFFFFF"/><path d="M3.48544 37.0792C2.16397 35.8511 1.14739 34.3 0.56108 32.5426C0.459551 32.2382 0.375253 31.921 0.307173 31.5803L13.3239 26.0458L3.48544 37.0792Z" fill="#FFFFFF"/><path d="M40 24.6183C40 25.7428 39.9968 26.7154 39.9858 27.5692L28.1729 23.006H40V24.6183Z" fill="#FFFFFF"/><path d="M11.5962 23.006L0.0106534 27.4805C0.000706106 26.6481 0 25.704 0 24.6183V23.006H11.5962Z" fill="#FFFFFF"/><path d="M24.6183 0C28.7807 0 30.862 0.000553673 32.5426 0.56108C35.7979 1.64713 38.3529 4.20208 39.4389 7.45739C39.9994 9.13798 40 11.2193 40 15.3817V20.016H27.5089L36.5181 16.1861L33.8459 14.4123L25.1048 17.7876L29.2081 12.358L26.2571 11.5501L21.7259 16.6282L21.3885 10.9091H18.3825L18.0398 16.6282L13.5121 11.5501L10.5629 12.358L14.6609 17.7859L5.92507 14.4123L3.25284 16.1861L12.2603 20.016H0V15.3817C0 11.2193 0.000553673 9.13798 0.56108 7.45739C1.64713 4.20208 4.20208 1.64713 7.45739 0.56108C9.13798 0.000553673 11.2193 0 15.3817 0H24.6183Z" fill="#FFFFFF"/></g>
        <g id="logotype" transform="translate(46, 1.5)"><path fill="#ffffff" d="M24.59 32L8.48 32L8.48 7.99L14.37 7.99L14.37 27.38L23.99 27.38L24.59 32ZM34.25 32.35L33.83 32.35Q31.20 32.35 29.19 31.32Q27.18 30.29 26.04 28.31Q24.90 26.33 24.90 23.53L24.90 23.53L24.90 22.59Q24.90 19.75 26.07 17.77Q27.25 15.79 29.28 14.78Q31.31 13.76 33.93 13.76L33.93 13.76L34.60 13.76Q37.12 13.76 38.94 14.74Q40.76 15.72 41.74 17.49Q42.72 19.26 42.72 21.57L42.72 21.57L42.72 23.77L30.75 23.77Q30.75 25.24 31.08 26.40Q31.41 27.55 32.16 28.20Q32.92 28.85 34.14 28.85L34.14 28.85Q35.23 28.85 35.98 28.43Q36.73 28.01 37.15 27.22Q37.57 26.43 37.57 25.31L37.57 25.31L42.68 25.31Q42.68 27.34 41.61 28.94Q40.55 30.53 38.66 31.44Q36.77 32.35 34.25 32.35L34.25 32.35ZM30.75 21.11L30.75 21.11L37.29 21.11Q37.29 19.12 36.42 18.19Q35.54 17.27 34.11 17.27L34.11 17.27Q32.67 17.27 31.74 18.24Q30.82 19.23 30.75 21.11ZM51.36 32.35L51.36 32.35Q49.19 32.35 47.56 31.35Q45.94 30.36 45.03 28.31Q44.12 26.26 44.12 23.14L44.12 23.14L44.12 22.76Q44.12 19.75 45.10 17.75Q46.08 15.76 47.70 14.76Q49.33 13.76 51.22 13.76L51.22 13.76Q53.08 13.76 54.30 14.45Q55.53 15.13 56.16 16.14L56.16 16.14L56.16 6.80L61.65 6.80L61.65 32L57.31 32L56.75 29.69Q55.95 30.77 54.63 31.56Q53.32 32.35 51.36 32.35ZM53.04 28.85L53.04 28.85Q53.92 28.85 54.62 28.41Q55.32 27.98 55.74 27.10Q56.16 26.23 56.16 24.93L56.16 24.93L56.16 21.15Q56.16 19.92 55.74 19.09Q55.32 18.24 54.62 17.81Q53.92 17.37 53.04 17.37L53.04 17.37Q51.75 17.37 50.85 18.37Q49.96 19.36 49.96 21.15L49.96 21.15L49.96 24.89Q49.96 26.19 50.36 27.06Q50.77 27.94 51.47 28.39Q52.17 28.85 53.04 28.85ZM76.53 38.58L67.57 38.58Q66.38 38.58 65.36 38.00Q64.35 37.42 63.72 36.46Q63.09 35.50 63.09 34.31L63.09 34.31Q63.09 33.05 63.79 31.96Q64.49 30.88 65.71 30.29L65.71 30.29Q64.94 29.80 64.50 29.01Q64.07 28.22 64.07 27.31L64.07 27.31Q64.07 26.02 64.94 25.05Q65.82 24.09 67.11 23.67L67.11 23.67Q66.03 23.07 65.29 22.09Q64.56 21.11 64.56 19.68L64.56 19.68Q64.56 18.14 65.40 16.79Q66.24 15.44 67.95 14.60Q69.67 13.76 72.26 13.76L72.26 13.76Q73.31 13.76 74.18 13.85Q75.06 13.94 75.72 14.11L75.72 14.11Q77.16 13.31 77.75 12.45Q78.35 11.59 78.38 10.89L78.38 10.89L82.58 10.89Q82.58 12.15 82.13 13.08Q81.67 14.01 80.83 14.60Q79.99 15.20 78.84 15.51L78.84 15.51L78.80 15.62Q79.64 16.32 80.17 17.27Q80.69 18.21 80.69 19.33L80.69 19.33Q80.69 20.87 79.80 22.16Q78.91 23.46 77.35 24.23Q75.79 25 73.76 25L73.76 25L71.21 25Q70.12 25 69.58 25.40Q69.04 25.80 69.04 26.40L69.04 26.40Q69.04 27.03 69.53 27.43Q70.02 27.84 71.21 27.84L71.21 27.84L77.09 27.84Q79.68 27.84 81.13 29.30Q82.58 30.77 82.58 32.98L82.58 32.98Q82.58 34.48 81.81 35.76Q81.04 37.04 79.68 37.81Q78.31 38.58 76.53 38.58L76.53 38.58ZM69.77 35.26L69.77 35.26L75.48 35.26Q76.35 35.26 76.96 34.71Q77.58 34.17 77.58 33.37L77.58 33.37Q77.58 32.66 77.02 32.14Q76.46 31.61 75.65 31.61L75.65 31.61L69.77 31.61Q68.90 31.61 68.32 32.14Q67.74 32.66 67.74 33.44L67.74 33.44Q67.74 34.17 68.32 34.71Q68.90 35.26 69.77 35.26ZM72.71 22.09L72.71 22.09Q74.04 22.09 74.85 21.31Q75.65 20.52 75.65 19.40L75.65 19.40Q75.65 18.28 74.85 17.47Q74.04 16.67 72.71 16.67L72.71 16.67Q71.38 16.67 70.58 17.47Q69.77 18.28 69.77 19.40L69.77 19.40Q69.77 20.52 70.58 21.31Q71.38 22.09 72.71 22.09ZM92.17 32.35L91.75 32.35Q89.13 32.35 87.11 31.32Q85.10 30.29 83.96 28.31Q82.83 26.33 82.83 23.53L82.83 23.53L82.83 22.59Q82.83 19.75 84.00 17.77Q85.17 15.79 87.20 14.78Q89.23 13.76 91.86 13.76L91.86 13.76L92.52 13.76Q95.04 13.76 96.86 14.74Q98.68 15.72 99.66 17.49Q100.64 19.26 100.64 21.57L100.64 21.57L100.64 23.77L88.67 23.77Q88.67 25.24 89.00 26.40Q89.34 27.55 90.09 28.20Q90.84 28.85 92.07 28.85L92.07 28.85Q93.15 28.85 93.90 28.43Q94.66 28.01 95.08 27.22Q95.50 26.43 95.50 25.31L95.50 25.31L100.61 25.31Q100.61 27.34 99.54 28.94Q98.47 30.53 96.58 31.44Q94.69 32.35 92.17 32.35L92.17 32.35ZM88.67 21.11L88.67 21.11L95.22 21.11Q95.22 19.12 94.34 18.19Q93.47 17.27 92.03 17.27L92.03 17.27Q90.60 17.27 89.67 18.24Q88.74 19.23 88.67 21.11ZM108.27 32L102.85 32L102.85 14.11L106.98 14.11L107.61 16.70Q107.71 16.56 108.01 16.09Q108.31 15.62 108.90 15.08Q109.50 14.53 110.37 14.15Q111.25 13.76 112.44 13.76L112.44 13.76Q114.22 13.76 115.34 14.43Q116.46 15.09 117.00 16.34Q117.55 17.58 117.55 19.29L117.55 19.29Q117.55 19.68 117.51 20.19Q117.48 20.70 117.44 21.11L117.44 21.11L112.89 21.11L112.89 20.34Q112.89 19.75 112.66 19.16Q112.44 18.56 111.95 18.19Q111.46 17.82 110.62 17.82L110.62 17.82Q109.99 17.82 109.53 18.07Q109.08 18.31 108.80 18.72Q108.52 19.12 108.39 19.59Q108.27 20.06 108.27 20.55L108.27 20.55L108.27 32ZM124.48 32L118.98 32L118.98 6.80L124.48 6.80L124.48 32ZM129.83 38.51L129.83 38.51Q128.85 38.51 128.08 38.39Q127.31 38.27 126.72 38.02L126.72 38.02L126.72 34.20Q127.10 34.38 127.78 34.52Q128.47 34.66 129.13 34.66L129.13 34.66Q130.15 34.66 130.72 34.26Q131.30 33.85 131.65 33.16Q132 32.45 132.28 31.58L132.28 31.58L125.49 14.11L131.37 14.11L135.04 25.04L135.29 25.04L138.69 14.11L144.11 14.11L137.78 30.95Q137.00 33.09 135.92 34.80Q134.84 36.52 133.35 37.51Q131.86 38.51 129.83 38.51Z"/></g>
        
      </svg>
    