<svg xmlns="http://www.w3.org/2000/svg" width="777" height="546" fill="none"><path fill="url(#a)" fill-opacity=".15" d="M149.038 231.8c0-7.967 6.459-14.426 14.426-14.426h504.909c7.967 0 14.426 6.459 14.426 14.426v84.399c0 7.968-6.459 14.426-14.426 14.426H163.464c-7.967 0-14.426-6.458-14.426-14.426z"/><path fill="url(#b)" d="M668.373 329.182v1.443H163.464v-1.443zm12.983-12.983V231.8c0-7.171-5.813-12.983-12.983-12.983H163.464c-6.947 0-12.619 5.455-12.966 12.315l-.017.668v84.399c0 7.17 5.813 12.983 12.983 12.983v1.443l-.742-.018c-7.623-.387-13.684-6.69-13.684-14.408V231.8c0-7.967 6.459-14.426 14.426-14.426h504.909c7.967 0 14.426 6.459 14.426 14.426v84.399c0 7.718-6.062 14.021-13.684 14.408l-.742.018v-1.443c7.17 0 12.983-5.813 12.983-12.983"/><path fill="#53DB78" d="M597.461 299.879q-1.662 0-2.931-.785a5.6 5.6 0 0 1-1.985-2.169q-.693-1.386-.692-3.139 0-1.778.692-3.14a5.46 5.46 0 0 1 1.985-2.146q1.293-.808 2.954-.808 1.362 0 2.401.554a3.87 3.87 0 0 1 1.616 1.523v-6.786h2.308v16.619h-2.078l-.23-1.8a5 5 0 0 1-.901 1.015 4.7 4.7 0 0 1-1.338.762q-.785.3-1.801.3m.37-2.008q1.084 0 1.915-.508a3.3 3.3 0 0 0 1.27-1.431q.462-.923.462-2.146 0-1.224-.462-2.124a3.3 3.3 0 0 0-1.27-1.431q-.83-.531-1.915-.531-1.04 0-1.87.531a3.44 3.44 0 0 0-1.293 1.431q-.46.9-.461 2.124 0 1.223.461 2.146a3.43 3.43 0 0 0 1.293 1.431 3.5 3.5 0 0 0 1.87.508M584.186 299.88q-1.66 0-2.954-.762a5.4 5.4 0 0 1-2.031-2.123q-.716-1.362-.716-3.162 0-1.847.716-3.209.738-1.385 2.031-2.146 1.293-.786 3.001-.785 1.707 0 2.931.762a5.2 5.2 0 0 1 1.893 2.031q.669 1.246.669 2.77 0 .23-.023.507 0 .255-.023.577h-9.51v-1.638h7.248q-.069-1.455-.97-2.262-.9-.831-2.238-.831-.946 0-1.732.438-.785.416-1.269 1.247-.462.807-.462 2.054v.646q0 1.293.462 2.193.484.877 1.269 1.339a3.45 3.45 0 0 0 1.708.438q1.108 0 1.824-.485a2.9 2.9 0 0 0 1.062-1.315h2.308a5.1 5.1 0 0 1-1.016 1.916 5.1 5.1 0 0 1-1.777 1.315q-1.039.485-2.401.485M574.948 299.602l-5.355-6.37 4.847-5.263h2.793l-5.771 6.163v-1.731l6.394 7.201zm-7.317 0v-16.619h2.308v16.619zM559.553 299.88q-1.685 0-3.001-.762a5.7 5.7 0 0 1-2.077-2.146q-.738-1.362-.739-3.163 0-1.823.739-3.185a5.47 5.47 0 0 1 2.077-2.146q1.316-.786 3.001-.785 2.124 0 3.554 1.108 1.431 1.108 1.824 3h-2.401q-.23-1.016-1.061-1.569-.808-.554-1.939-.554a3.2 3.2 0 0 0-1.708.485q-.785.461-1.27 1.384-.46.901-.461 2.239 0 .993.277 1.778.276.76.738 1.292.485.53 1.108.808.624.254 1.316.254a3.8 3.8 0 0 0 1.362-.231 2.7 2.7 0 0 0 1.038-.738q.44-.485.6-1.155h2.401q-.393 1.847-1.824 2.978-1.43 1.108-3.554 1.108M545.666 299.88q-1.638 0-2.954-.762a5.55 5.55 0 0 1-2.054-2.123q-.74-1.385-.739-3.186 0-1.846.762-3.208a5.46 5.46 0 0 1 2.077-2.146q1.316-.762 2.954-.762 1.662 0 2.955.762a5.4 5.4 0 0 1 2.031 2.123q.762 1.362.762 3.208t-.762 3.209a5.35 5.35 0 0 1-2.054 2.123q-1.316.762-2.978.762m0-1.985q.946 0 1.708-.462.785-.46 1.247-1.362.484-.923.484-2.285 0-1.36-.461-2.262-.462-.923-1.247-1.384a3.2 3.2 0 0 0-1.685-.462 3.3 3.3 0 0 0-1.708.462q-.785.461-1.269 1.384-.462.902-.462 2.262 0 1.362.462 2.285.485.902 1.246 1.362a3.27 3.27 0 0 0 1.685.462M534.88 299.602v-16.619h2.308v16.619zM526.575 299.879a5.2 5.2 0 0 1-1.731-.277 4.3 4.3 0 0 1-1.339-.715 4.5 4.5 0 0 1-.969-1.062l-.231 1.777h-2.077v-16.619h2.308v6.809q.553-.877 1.546-1.477 1.016-.623 2.493-.623 1.662 0 2.931.808a5.24 5.24 0 0 1 1.962 2.17q.716 1.361.716 3.139 0 1.73-.716 3.116a5.25 5.25 0 0 1-1.962 2.169q-1.269.785-2.931.785m-.369-2.008q1.061 0 1.869-.508a3.43 3.43 0 0 0 1.293-1.431q.485-.923.485-2.146 0-1.224-.485-2.124a3.44 3.44 0 0 0-1.293-1.431q-.808-.531-1.869-.531-1.086 0-1.916.531-.808.508-1.27 1.431-.46.9-.461 2.124 0 1.223.461 2.146.462.924 1.27 1.431.83.508 1.916.508M509.77 299.602q-1.108 0-1.916-.346a2.52 2.52 0 0 1-1.246-1.154q-.44-.807-.439-2.193v-5.978h-2.008v-1.962h2.008l.277-2.908h2.031v2.908h3.301v1.962h-3.301v6.001q0 .993.416 1.362.416.346 1.431.346h1.339v1.962zM490.769 304.681V287.97h2.077l.231 1.8q.37-.531.923-.992a4.5 4.5 0 0 1 1.316-.785q.785-.3 1.823-.3 1.662 0 2.908.808a5.4 5.4 0 0 1 1.962 2.192q.716 1.362.716 3.116t-.716 3.14a5.45 5.45 0 0 1-1.985 2.146q-1.246.785-2.908.785-1.362 0-2.4-.531a4.2 4.2 0 0 1-1.639-1.523v6.855zm5.978-6.809q1.062 0 1.869-.508a3.44 3.44 0 0 0 1.293-1.431q.485-.923.485-2.147t-.485-2.123a3.43 3.43 0 0 0-1.293-1.431q-.807-.531-1.869-.531-1.086 0-1.916.531-.808.507-1.27 1.431-.46.9-.461 2.123 0 1.224.461 2.147.462.923 1.27 1.431.83.508 1.916.508M469.827 299.603V287.97h2.077l.162 1.639a3.93 3.93 0 0 1 1.477-1.408q.923-.508 2.078-.508.876 0 1.592.254.715.23 1.27.715.553.485.9 1.201a4.45 4.45 0 0 1 1.662-1.593 4.6 4.6 0 0 1 2.239-.577q1.407 0 2.423.577 1.016.554 1.547 1.685.531 1.108.531 2.77v6.878H485.5v-6.648q0-1.615-.67-2.446-.646-.831-1.916-.831-.854 0-1.523.438-.669.44-1.062 1.27-.369.831-.369 2.031v6.186h-2.308v-6.648q0-1.615-.67-2.446-.646-.831-1.915-.831-.808 0-1.478.438-.67.44-1.061 1.27-.393.831-.393 2.031v6.186zM461.724 299.88q-1.662 0-2.955-.762a5.4 5.4 0 0 1-2.031-2.123q-.716-1.362-.716-3.162 0-1.847.716-3.209.738-1.385 2.031-2.146 1.293-.786 3.001-.785 1.708 0 2.931.762a5.2 5.2 0 0 1 1.893 2.031q.669 1.246.669 2.77 0 .23-.023.507 0 .255-.023.577h-9.51v-1.638h7.248q-.069-1.455-.969-2.262-.901-.831-2.239-.831a3.5 3.5 0 0 0-1.731.438q-.786.416-1.27 1.247-.462.807-.462 2.054v.646q0 1.293.462 2.193.484.877 1.27 1.339a3.45 3.45 0 0 0 1.708.438q1.107 0 1.823-.485a2.9 2.9 0 0 0 1.062-1.315h2.308a5.1 5.1 0 0 1-1.016 1.916 5.1 5.1 0 0 1-1.777 1.315q-1.039.485-2.4.485M452.224 299.602q-1.108 0-1.916-.346a2.52 2.52 0 0 1-1.246-1.154q-.438-.807-.439-2.193v-5.978h-2.008v-1.962h2.008l.277-2.908h2.031v2.908h3.301v1.962h-3.301v6.001q0 .993.416 1.362.415.346 1.431.346h1.339v1.962zM442.871 299.602q-1.109 0-1.916-.346a2.52 2.52 0 0 1-1.247-1.154q-.438-.807-.438-2.193v-5.978h-2.008v-1.962h2.008l.277-2.908h2.031v2.908h3.301v1.962h-3.301v6.001q0 .993.415 1.362.416.346 1.431.346h1.339v1.962zM429.324 299.88q-1.43 0-2.377-.485t-1.408-1.292a3.6 3.6 0 0 1-.462-1.778q0-1.154.6-1.962.6-.831 1.708-1.269t2.655-.439h3.023q0-1.015-.3-1.685t-.9-.992q-.577-.346-1.477-.346-1.04 0-1.777.508-.74.484-.924 1.454h-2.308q.14-1.224.831-2.078a4.6 4.6 0 0 1 1.824-1.338 5.8 5.8 0 0 1 2.354-.485q1.638 0 2.747.577a3.8 3.8 0 0 1 1.661 1.639q.578 1.038.578 2.493v7.201h-2.009l-.184-1.962q-.254.462-.6.877a3.4 3.4 0 0 1-.831.716q-.462.3-1.085.461-.6.185-1.339.185m.439-1.87q.738 0 1.338-.3t1.016-.808q.438-.53.646-1.177.231-.669.254-1.362v-.069h-2.747q-.992 0-1.615.254-.6.23-.877.646-.277.415-.277.97 0 .576.254.992.277.393.784.624.509.23 1.224.23M406.015 299.603V287.97h2.077l.138 1.985a4.13 4.13 0 0 1 1.57-1.639q1.016-.623 2.331-.623 1.385 0 2.378.554.992.554 1.546 1.685.554 1.107.554 2.793v6.878h-2.308v-6.648q0-1.615-.716-2.446-.715-.831-2.077-.831-.9 0-1.616.438-.715.416-1.154 1.247-.415.831-.415 2.031v6.209zM400.407 299.602v-11.633h2.308v11.633zm1.177-13.826q-.67 0-1.108-.416-.415-.414-.415-1.061 0-.624.415-1.016.438-.415 1.108-.415.646 0 1.085.415.438.393.438 1.016 0 .647-.438 1.061a1.52 1.52 0 0 1-1.085.416M391.813 304.958q-1.593 0-2.816-.416-1.224-.392-1.893-1.223t-.669-2.031q0-.624.277-1.27.276-.623.9-1.2.623-.577 1.685-1.038l1.292 1.038q-1.177.44-1.592 1.039-.393.623-.393 1.2 0 .692.416 1.154.415.462 1.131.693.738.23 1.662.23.9 0 1.569-.253.67-.255 1.039-.716t.369-1.085q0-.739-.554-1.246-.554-.485-2.123-.577a22 22 0 0 1-2.239-.254 10 10 0 0 1-1.547-.393 5.7 5.7 0 0 1-1.061-.507 4.7 4.7 0 0 1-.716-.577v-.531l2.308-2.378 1.87.647-2.516 2.331.485-1.039q.253.162.484.323.231.139.623.254.393.115 1.062.208.67.092 1.754.185 1.57.115 2.516.554.97.438 1.408 1.177.44.738.439 1.754 0 .992-.554 1.893-.531.9-1.685 1.477-1.131.577-2.931.577m0-8.933q-1.478 0-2.516-.554a4 4 0 0 1-1.57-1.5 4.2 4.2 0 0 1-.531-2.1q0-1.177.531-2.101.553-.946 1.593-1.5 1.038-.577 2.493-.577 1.453 0 2.469.577 1.04.554 1.57 1.5.554.924.554 2.101 0 1.154-.554 2.1-.53.946-1.57 1.5-1.016.554-2.469.554m0-1.846q1.131 0 1.8-.577.669-.6.669-1.731t-.669-1.708q-.669-.6-1.8-.601-1.131 0-1.824.601-.692.577-.692 1.708t.692 1.731q.693.577 1.824.577m1.892-4.386-.554-1.823h4.778v1.592zM379.159 299.88q-1.638 0-2.954-.762a5.56 5.56 0 0 1-2.054-2.123q-.74-1.385-.739-3.186 0-1.846.762-3.208a5.47 5.47 0 0 1 2.077-2.146q1.316-.762 2.955-.762 1.66 0 2.954.762a5.4 5.4 0 0 1 2.031 2.123q.762 1.362.762 3.208t-.762 3.209a5.35 5.35 0 0 1-2.054 2.123q-1.316.762-2.978.762m0-1.985q.947 0 1.708-.462.786-.46 1.247-1.362.485-.923.485-2.285 0-1.36-.462-2.262-.462-.923-1.246-1.384a3.2 3.2 0 0 0-1.685-.462q-.924 0-1.708.462-.786.461-1.27 1.384-.462.902-.462 2.262 0 1.362.462 2.285.485.902 1.246 1.362a3.27 3.27 0 0 0 1.685.462M368.372 299.602v-16.619h2.308v16.619zM355.18 299.88q-1.478 0-2.585-.485-1.108-.484-1.755-1.362-.645-.876-.784-2.054h2.354q.115.554.439 1.016.345.461.923.738.6.277 1.408.277.762 0 1.246-.207.508-.23.739-.601.231-.392.231-.83 0-.646-.324-.97-.3-.347-.923-.531-.6-.207-1.454-.369a13 13 0 0 1-1.569-.369 6.7 6.7 0 0 1-1.339-.624 2.9 2.9 0 0 1-.923-.923q-.347-.577-.347-1.408 0-.992.531-1.777.531-.808 1.5-1.246.993-.462 2.332-.462 1.938 0 3.116.923 1.176.924 1.385 2.608h-2.239q-.093-.785-.693-1.2-.6-.438-1.592-.438t-1.524.392a1.23 1.23 0 0 0-.531 1.039q0 .416.3.738.3.323.878.554.6.208 1.454.393 1.223.23 2.192.577.97.346 1.547 1.015.577.67.577 1.916.023 1.085-.554 1.916-.553.831-1.593 1.292-1.016.462-2.423.462M341.402 299.879q-1.362 0-2.377-.554-.993-.554-1.547-1.662-.531-1.107-.531-2.792v-6.902h2.308v6.648q0 1.638.716 2.469t2.054.831q.9 0 1.616-.438a3 3 0 0 0 1.154-1.27q.415-.831.415-2.031v-6.209h2.309v11.633h-2.055l-.161-1.985a3.93 3.93 0 0 1-1.547 1.662q-1.016.6-2.354.6M328.622 299.88q-1.638 0-2.954-.762a5.55 5.55 0 0 1-2.054-2.123q-.74-1.385-.739-3.186 0-1.846.762-3.208a5.46 5.46 0 0 1 2.077-2.146q1.316-.762 2.954-.762 1.662 0 2.955.762a5.4 5.4 0 0 1 2.031 2.123q.762 1.362.762 3.208t-.762 3.209a5.35 5.35 0 0 1-2.054 2.123q-1.316.762-2.978.762m0-1.985q.947 0 1.708-.462.786-.46 1.247-1.362.484-.923.484-2.285 0-1.36-.461-2.262-.462-.923-1.247-1.384a3.2 3.2 0 0 0-1.685-.462 3.3 3.3 0 0 0-1.708.462q-.785.461-1.269 1.384-.462.902-.462 2.262 0 1.362.462 2.285.485.902 1.246 1.362a3.27 3.27 0 0 0 1.685.462M317.705 299.602v-11.633h2.308v11.633zm1.177-13.826q-.67 0-1.108-.416-.416-.414-.416-1.061 0-.624.416-1.016.438-.415 1.108-.415.646 0 1.085.415.438.393.438 1.016 0 .647-.438 1.061a1.52 1.52 0 0 1-1.085.416M309.466 299.88q-1.685 0-3.001-.762a5.7 5.7 0 0 1-2.077-2.146q-.738-1.362-.739-3.163 0-1.823.739-3.185a5.47 5.47 0 0 1 2.077-2.146q1.316-.786 3.001-.785 2.123 0 3.555 1.108 1.43 1.108 1.823 3h-2.401q-.23-1.016-1.061-1.569-.808-.554-1.939-.554a3.2 3.2 0 0 0-1.708.485q-.784.461-1.27 1.384-.46.901-.461 2.239 0 .993.277 1.778.277.76.738 1.292.485.53 1.108.808.623.254 1.316.254a3.8 3.8 0 0 0 1.362-.231 2.7 2.7 0 0 0 1.038-.738q.44-.485.6-1.155h2.401q-.392 1.847-1.823 2.978-1.432 1.108-3.555 1.108M298.477 299.602v-11.633h2.308v11.633zm1.177-13.826q-.669 0-1.108-.416-.415-.414-.415-1.061 0-.624.415-1.016.44-.415 1.108-.415.647 0 1.085.415.438.393.439 1.016 0 .647-.439 1.061a1.52 1.52 0 0 1-1.085.416M292.84 299.602v-16.619h2.308v16.619zM283.847 299.88q-1.431 0-2.378-.485-.946-.485-1.408-1.292a3.6 3.6 0 0 1-.461-1.778q0-1.154.6-1.962.6-.831 1.708-1.269 1.107-.438 2.654-.439h3.024q0-1.015-.3-1.685t-.9-.992q-.578-.346-1.478-.346-1.039 0-1.777.508-.738.484-.923 1.454H279.9q.138-1.224.831-2.078a4.6 4.6 0 0 1 1.823-1.338 5.8 5.8 0 0 1 2.354-.485q1.639 0 2.747.577a3.8 3.8 0 0 1 1.662 1.639q.577 1.038.577 2.493v7.201h-2.008l-.185-1.962q-.254.462-.6.877a3.4 3.4 0 0 1-.831.716q-.462.3-1.085.461-.6.185-1.338.185m.438-1.87q.74 0 1.339-.3.6-.3 1.015-.808.439-.53.647-1.177.23-.669.254-1.362v-.069h-2.747q-.993 0-1.616.254-.6.23-.877.646-.277.415-.277.97 0 .576.254.992.277.393.785.624.507.23 1.223.23M260.361 299.602v-16.157h2.724l5.47 10.918 5.448-10.918h2.746v16.157h-2.308v-12.117l-5.009 9.855h-1.777l-4.986-9.832v12.094z"/><path fill="#ABFFCE" d="M464.778 263.538v-11.634h2.078l.138 1.985a4.1 4.1 0 0 1 1.57-1.638q1.016-.624 2.331-.624 1.385 0 2.377.554.993.554 1.547 1.685.554 1.108.554 2.793v6.879h-2.308v-6.648q0-1.616-.716-2.447-.715-.831-2.077-.831-.9 0-1.616.439-.716.415-1.154 1.246-.416.83-.416 2.032v6.209zM456.271 263.814q-1.64 0-2.955-.761a5.57 5.57 0 0 1-2.054-2.124q-.738-1.385-.739-3.185 0-1.846.762-3.208a5.47 5.47 0 0 1 2.077-2.147q1.316-.762 2.955-.762 1.662 0 2.954.762a5.4 5.4 0 0 1 2.032 2.124q.76 1.362.761 3.208 0 1.846-.761 3.208a5.36 5.36 0 0 1-2.055 2.124q-1.315.761-2.977.761m0-1.985q.946 0 1.708-.461.784-.462 1.246-1.362.485-.923.485-2.285t-.462-2.262q-.461-.924-1.246-1.385a3.2 3.2 0 0 0-1.685-.462q-.924 0-1.708.462-.784.461-1.27 1.385-.46.9-.461 2.262 0 1.362.461 2.285.486.9 1.247 1.362a3.26 3.26 0 0 0 1.685.461M445.353 263.537v-11.633h2.308v11.633zm1.177-13.826q-.669 0-1.108-.415-.415-.415-.415-1.062 0-.623.415-1.015.44-.416 1.108-.416.647 0 1.085.416.438.392.439 1.015 0 .647-.439 1.062-.438.415-1.085.415M440.637 263.537q-1.107 0-1.916-.346a2.52 2.52 0 0 1-1.246-1.154q-.438-.807-.439-2.193v-5.978h-2.008v-1.962h2.008l.277-2.908h2.032v2.908h3.3v1.962h-3.3v6.002q0 .992.415 1.361.415.347 1.431.347h1.339v1.961zM422.289 263.538v-11.634h2.077l.139 1.985a4.1 4.1 0 0 1 1.569-1.638q1.016-.624 2.332-.624 1.384 0 2.377.554t1.547 1.685q.553 1.108.553 2.793v6.879h-2.308v-6.648q0-1.616-.715-2.447-.716-.831-2.078-.831-.9 0-1.615.439-.716.415-1.154 1.246-.416.83-.416 2.032v6.209zM414.186 263.814q-1.662 0-2.955-.761a5.4 5.4 0 0 1-2.031-2.124q-.716-1.362-.716-3.162 0-1.846.716-3.208.738-1.385 2.031-2.147 1.293-.785 3.001-.785t2.931.762a5.23 5.23 0 0 1 1.893 2.031q.669 1.247.669 2.77 0 .23-.023.508 0 .253-.023.577h-9.51v-1.639h7.248q-.069-1.454-.969-2.262-.901-.831-2.239-.831-.946 0-1.732.439a3.2 3.2 0 0 0-1.269 1.246q-.462.808-.462 2.054v.647q0 1.292.462 2.192.484.877 1.269 1.339a3.44 3.44 0 0 0 1.709.439q1.107 0 1.823-.485a2.9 2.9 0 0 0 1.062-1.316h2.308a5.1 5.1 0 0 1-1.016 1.916 5.1 5.1 0 0 1-1.777 1.316q-1.039.484-2.4.484M400.345 263.538l-4.363-11.633h2.424l3.301 9.417 3.323-9.417h2.378l-4.34 11.633zM389.392 263.814q-1.662 0-2.955-.761a5.4 5.4 0 0 1-2.031-2.124q-.716-1.362-.716-3.162 0-1.846.716-3.208.738-1.385 2.031-2.147 1.293-.785 3.001-.785t2.931.762a5.2 5.2 0 0 1 1.893 2.031q.669 1.247.669 2.77 0 .23-.023.508 0 .253-.023.577h-9.51v-1.639h7.248q-.069-1.454-.969-2.262-.901-.831-2.239-.831a3.5 3.5 0 0 0-1.731.439 3.2 3.2 0 0 0-1.27 1.246q-.462.808-.462 2.054v.647q0 1.292.462 2.192.484.877 1.27 1.339a3.44 3.44 0 0 0 1.708.439q1.107 0 1.823-.485a2.9 2.9 0 0 0 1.062-1.316h2.308a5.1 5.1 0 0 1-1.016 1.916 5.1 5.1 0 0 1-1.777 1.316q-1.039.484-2.4.484M375.653 263.538v-11.634h2.078l.207 2.193a4.1 4.1 0 0 1 1.016-1.315q.623-.555 1.454-.854.854-.301 1.939-.301v2.447h-.831a5 5 0 0 0-1.362.185q-.646.161-1.154.577-.485.415-.762 1.131-.277.715-.277 1.777v5.794zM362.132 263.537V247.38h5.516q1.94 0 3.186.646 1.246.647 1.846 1.731.6 1.086.6 2.47 0 1.316-.6 2.424-.577 1.085-1.823 1.754-1.247.646-3.209.646h-3.208v6.486zm2.308-8.402h3.116q1.824 0 2.585-.784.785-.809.785-2.124 0-1.408-.785-2.17-.762-.76-2.585-.761h-3.116zM342.563 263.538v-11.634h2.078l.138 1.985a4.13 4.13 0 0 1 1.57-1.638q1.016-.624 2.331-.624 1.385 0 2.377.554.993.554 1.547 1.685.554 1.108.554 2.793v6.879h-2.308v-6.648q0-1.616-.716-2.447-.715-.831-2.077-.831-.9 0-1.616.439-.716.415-1.154 1.246-.415.83-.415 2.032v6.209zM334.055 263.814q-1.639 0-2.955-.761a5.57 5.57 0 0 1-2.054-2.124q-.738-1.385-.738-3.185 0-1.846.761-3.208a5.47 5.47 0 0 1 2.078-2.147q1.316-.762 2.954-.762 1.662 0 2.955.762a5.4 5.4 0 0 1 2.031 2.124q.76 1.362.761 3.208 0 1.846-.761 3.208a5.35 5.35 0 0 1-2.055 2.124q-1.315.761-2.977.761m0-1.985a3.23 3.23 0 0 0 2.954-1.823q.486-.923.485-2.285 0-1.362-.462-2.262-.461-.924-1.246-1.385a3.2 3.2 0 0 0-1.685-.462q-.923 0-1.708.462-.785.461-1.269 1.385-.462.9-.462 2.262t.462 2.285q.484.9 1.246 1.362a3.26 3.26 0 0 0 1.685.461M323.137 263.537v-11.633h2.308v11.633zm1.177-13.826q-.669 0-1.108-.415-.414-.415-.415-1.062 0-.623.415-1.015.44-.416 1.108-.416.647 0 1.085.416.44.392.439 1.015 0 .647-.439 1.062-.438.415-1.085.415M315.689 263.814q-1.478 0-2.586-.484t-1.754-1.362-.785-2.054h2.355q.115.554.438 1.015.347.462.924.739.6.277 1.408.277.761 0 1.246-.208.507-.231.739-.6.23-.393.23-.831 0-.647-.323-.969-.3-.346-.923-.531-.6-.208-1.454-.37a13 13 0 0 1-1.57-.369 6.7 6.7 0 0 1-1.338-.623 2.94 2.94 0 0 1-.924-.923q-.346-.577-.346-1.408 0-.993.531-1.778.531-.808 1.5-1.246.993-.462 2.331-.462 1.94 0 3.117.924 1.176.923 1.384 2.608h-2.239q-.092-.784-.692-1.2-.6-.44-1.593-.439-.992 0-1.523.393a1.23 1.23 0 0 0-.531 1.038q0 .415.3.739.3.323.877.554.6.207 1.454.392 1.224.23 2.193.577t1.547 1.016q.577.67.577 1.916.022 1.084-.554 1.915-.554.831-1.593 1.293-1.016.461-2.423.461M301.91 263.815q-1.362 0-2.378-.554-.992-.554-1.546-1.662-.531-1.108-.531-2.793v-6.901h2.308v6.647q0 1.64.716 2.47t2.054.831q.9 0 1.616-.439a3 3 0 0 0 1.154-1.269q.415-.831.415-2.031v-6.209h2.308v11.633h-2.054l-.161-1.985a3.93 3.93 0 0 1-1.547 1.662q-1.016.6-2.354.6M288.826 263.538v-11.634h2.078l.207 2.193q.393-.785 1.016-1.315.623-.555 1.454-.854.854-.301 1.939-.301v2.447h-.831a5 5 0 0 0-1.362.185q-.646.161-1.154.577-.485.415-.762 1.131-.276.715-.277 1.777v5.794zM284.275 263.537q-1.108 0-1.916-.346a2.5 2.5 0 0 1-1.246-1.154q-.44-.807-.439-2.193v-5.978h-2.008v-1.962h2.008l.277-2.908h2.031v2.908h3.301v1.962h-3.301v6.002q0 .992.416 1.361.416.347 1.431.347h1.339v1.961zM265.925 263.538v-11.634h2.077l.139 1.985a4.1 4.1 0 0 1 1.569-1.638q1.016-.624 2.331-.624 1.386 0 2.378.554t1.546 1.685q.554 1.108.554 2.793v6.879h-2.308v-6.648q0-1.616-.715-2.447-.716-.831-2.078-.831-.9 0-1.615.439-.716.415-1.155 1.246-.415.83-.415 2.032v6.209zM260.361 263.537V247.38h2.308v16.157z"/><g filter="url(#c)"><path fill="url(#d)" fill-opacity=".15" d="M149.038 231.8c0-7.967 6.459-14.426 14.426-14.426h504.909c7.967 0 14.426 6.459 14.426 14.426v84.399c0 7.968-6.459 14.426-14.426 14.426H163.464c-7.967 0-14.426-6.458-14.426-14.426z"/><path fill="url(#e)" d="M668.373 329.182v1.443H163.464v-1.443zm12.983-12.983V231.8c0-7.171-5.813-12.983-12.983-12.983H163.464c-6.947 0-12.619 5.455-12.966 12.315l-.017.668v84.399c0 7.17 5.813 12.983 12.983 12.983v1.443l-.742-.018c-7.623-.387-13.684-6.69-13.684-14.408V231.8c0-7.967 6.459-14.426 14.426-14.426h504.909c7.967 0 14.426 6.459 14.426 14.426v84.399c0 7.718-6.062 14.021-13.684 14.408l-.742.018v-1.443c7.17 0 12.983-5.813 12.983-12.983"/></g><path fill="url(#f)" fill-opacity=".15" d="M242.807 403.175c0-7.967 6.458-14.426 14.426-14.426h504.908c7.968 0 14.426 6.459 14.426 14.426v84.399c0 7.968-6.458 14.426-14.426 14.426H257.233c-7.968 0-14.426-6.458-14.426-14.426z"/><path fill="url(#g)" d="M762.141 500.557V502H257.233v-1.443zm12.984-12.983v-84.399c0-7.171-5.813-12.983-12.984-12.983H257.233c-6.947 0-12.619 5.455-12.967 12.315l-.017.668v84.399c0 7.17 5.813 12.983 12.984 12.983V502l-.743-.018c-7.622-.387-13.683-6.69-13.683-14.408v-84.399c0-7.967 6.458-14.426 14.426-14.426h504.908c7.968 0 14.426 6.459 14.426 14.426v84.399c0 7.718-6.061 14.021-13.683 14.408l-.743.018v-1.443c7.171 0 12.984-5.813 12.984-12.983"/><path fill="url(#h)" d="m704.393 476.055 2.839-6.371h-.669l-4.593-10.34h2.493l3.646 8.448 3.67-8.448h2.424l-7.386 16.711z"/><path fill="url(#i)" d="M694.423 471.254q-1.431 0-2.378-.485-.946-.485-1.408-1.292a3.6 3.6 0 0 1-.461-1.778q0-1.154.6-1.962.6-.83 1.708-1.269t2.654-.439h3.024q0-1.015-.3-1.685t-.9-.992q-.577-.346-1.477-.346-1.039 0-1.778.508-.738.484-.923 1.454h-2.308q.138-1.224.831-2.078a4.6 4.6 0 0 1 1.823-1.338 5.8 5.8 0 0 1 2.355-.485q1.638 0 2.746.577a3.8 3.8 0 0 1 1.662 1.639q.577 1.038.577 2.493v7.201h-2.008l-.185-1.962q-.254.462-.6.877a3.4 3.4 0 0 1-.831.716q-.461.3-1.084.461a4.6 4.6 0 0 1-1.339.185m.438-1.87q.74 0 1.339-.3.6-.3 1.016-.808.438-.53.646-1.177.23-.669.254-1.362v-.069h-2.747q-.993 0-1.616.254-.6.23-.877.646a1.7 1.7 0 0 0-.277.97q0 .577.254.992.277.393.785.624t1.223.23"/><path fill="url(#j)" d="M681.064 471.254q-1.662 0-2.931-.785a5.6 5.6 0 0 1-1.985-2.17q-.693-1.384-.693-3.139 0-1.777.693-3.139a5.45 5.45 0 0 1 1.985-2.147q1.292-.807 2.954-.807 1.362 0 2.4.554a3.85 3.85 0 0 1 1.616 1.523v-6.786h2.308v16.619h-2.077l-.231-1.801a5 5 0 0 1-.9 1.016 4.7 4.7 0 0 1-1.339.762q-.784.3-1.8.3m.369-2.008q1.085 0 1.916-.508a3.3 3.3 0 0 0 1.269-1.431q.462-.924.462-2.147t-.462-2.123a3.28 3.28 0 0 0-1.269-1.431q-.831-.531-1.916-.531-1.038 0-1.869.531a3.43 3.43 0 0 0-1.293 1.431q-.462.9-.462 2.123t.462 2.147a3.44 3.44 0 0 0 1.293 1.431 3.5 3.5 0 0 0 1.869.508"/><path fill="url(#k)" d="M667.386 471.254q-1.639 0-2.954-.762a5.56 5.56 0 0 1-2.055-2.123q-.738-1.385-.738-3.185 0-1.848.761-3.209a5.47 5.47 0 0 1 2.078-2.146q1.316-.762 2.954-.762 1.662 0 2.955.762a5.4 5.4 0 0 1 2.031 2.123q.761 1.362.761 3.208t-.761 3.209a5.35 5.35 0 0 1-2.054 2.123q-1.317.762-2.978.762m0-1.985q.946 0 1.708-.462.785-.46 1.246-1.362.486-.923.485-2.285 0-1.36-.461-2.262-.462-.923-1.247-1.384a3.2 3.2 0 0 0-1.685-.462q-.923 0-1.708.462-.785.461-1.269 1.384-.462.901-.462 2.262 0 1.362.462 2.285.484.901 1.246 1.362a3.27 3.27 0 0 0 1.685.462"/><path fill="url(#l)" d="M657.838 470.976q-1.108 0-1.915-.346a2.52 2.52 0 0 1-1.247-1.154q-.438-.807-.438-2.193v-5.978h-2.009v-1.962h2.009l.277-2.908h2.031v2.908h3.3v1.962h-3.3v6.001q0 .993.415 1.362.416.346 1.431.346h1.339v1.962z"/><path fill="url(#m)" d="M637.628 471.254q-1.662 0-2.931-.785a5.63 5.63 0 0 1-1.985-2.17q-.692-1.384-.692-3.139 0-1.777.692-3.139a5.46 5.46 0 0 1 1.985-2.147q1.293-.807 2.954-.807 1.362 0 2.401.554a3.86 3.86 0 0 1 1.616 1.523v-6.786h2.308v16.619h-2.078l-.23-1.801a5 5 0 0 1-.901 1.016 4.7 4.7 0 0 1-1.338.762q-.785.3-1.801.3m.37-2.008q1.084 0 1.915-.508a3.3 3.3 0 0 0 1.27-1.431q.462-.924.462-2.147t-.462-2.123a3.3 3.3 0 0 0-1.27-1.431q-.83-.531-1.915-.531-1.04 0-1.87.531a3.43 3.43 0 0 0-1.293 1.431q-.46.9-.461 2.123 0 1.223.461 2.147a3.44 3.44 0 0 0 1.293 1.431 3.5 3.5 0 0 0 1.87.508"/><path fill="url(#n)" d="M624.354 471.254q-1.66 0-2.954-.762a5.4 5.4 0 0 1-2.031-2.123q-.716-1.362-.716-3.162 0-1.847.716-3.209.738-1.385 2.031-2.146 1.293-.786 3.001-.785 1.707 0 2.931.762a5.2 5.2 0 0 1 1.893 2.031q.669 1.246.669 2.77 0 .23-.023.507 0 .255-.023.577h-9.51v-1.638h7.248q-.069-1.455-.97-2.262-.9-.831-2.238-.831-.946 0-1.732.438-.784.416-1.269 1.247-.462.807-.462 2.054v.646q0 1.293.462 2.193.485.877 1.269 1.339a3.45 3.45 0 0 0 1.708.438q1.109 0 1.824-.485a2.9 2.9 0 0 0 1.062-1.315h2.308a5.1 5.1 0 0 1-1.016 1.916 5.1 5.1 0 0 1-1.777 1.315q-1.04.485-2.401.485"/><path fill="url(#o)" d="M614.854 470.976q-1.108 0-1.916-.346a2.52 2.52 0 0 1-1.246-1.154q-.44-.807-.439-2.193v-5.978h-2.008v-1.962h2.008l.277-2.908h2.031v2.908h3.301v1.962h-3.301v6.001q0 .993.416 1.362.416.346 1.431.346h1.339v1.962z"/><path fill="url(#p)" d="M602.221 471.254q-1.685 0-3.001-.762a5.7 5.7 0 0 1-2.077-2.146q-.738-1.362-.739-3.162 0-1.824.739-3.186a5.47 5.47 0 0 1 2.077-2.146q1.316-.786 3.001-.785 2.124 0 3.554 1.108 1.431 1.108 1.824 3h-2.401q-.23-1.015-1.061-1.569-.808-.554-1.939-.554a3.2 3.2 0 0 0-1.708.485q-.785.46-1.27 1.385-.462.9-.461 2.238 0 .993.277 1.778.276.76.738 1.292.485.53 1.108.808.624.254 1.316.254a3.8 3.8 0 0 0 1.362-.231 2.7 2.7 0 0 0 1.038-.738 2.6 2.6 0 0 0 .6-1.154h2.401q-.393 1.846-1.824 2.977-1.43 1.108-3.554 1.108"/><path fill="url(#q)" d="M588.741 471.254q-1.662 0-2.954-.762a5.4 5.4 0 0 1-2.031-2.123q-.716-1.362-.716-3.162 0-1.847.716-3.209.738-1.385 2.031-2.146 1.292-.786 3-.785 1.708 0 2.932.762a5.2 5.2 0 0 1 1.892 2.031q.67 1.246.67 2.77 0 .23-.023.507 0 .255-.023.577h-9.51v-1.638h7.248q-.07-1.455-.97-2.262-.9-.831-2.239-.831a3.5 3.5 0 0 0-1.731.438q-.785.416-1.269 1.247-.462.807-.462 2.054v.646q0 1.293.462 2.193.484.877 1.269 1.339a3.45 3.45 0 0 0 1.708.438q1.109 0 1.824-.485a2.9 2.9 0 0 0 1.061-1.315h2.309a5.1 5.1 0 0 1-1.016 1.916 5.1 5.1 0 0 1-1.777 1.315q-1.04.485-2.401.485"/><path fill="url(#r)" d="M579.239 470.976q-1.109 0-1.916-.346a2.5 2.5 0 0 1-1.246-1.154q-.44-.807-.439-2.193v-5.978h-2.008v-1.962h2.008l.277-2.908h2.031v2.908h3.301v1.962h-3.301v6.001q0 .993.416 1.362.415.346 1.431.346h1.338v1.962z"/><path fill="url(#s)" d="M566.65 471.254q-1.661 0-2.954-.762a5.4 5.4 0 0 1-2.031-2.123q-.716-1.362-.716-3.162 0-1.847.716-3.209.738-1.385 2.031-2.146 1.293-.786 3.001-.785 1.707 0 2.931.762a5.2 5.2 0 0 1 1.893 2.031q.669 1.246.669 2.77 0 .23-.023.507 0 .255-.023.577h-9.51v-1.638h7.248q-.07-1.455-.97-2.262-.9-.831-2.239-.831-.945 0-1.731.438-.784.416-1.269 1.247-.462.807-.462 2.054v.646q0 1.293.462 2.193.485.877 1.269 1.339a3.45 3.45 0 0 0 1.708.438q1.108 0 1.824-.485a2.9 2.9 0 0 0 1.062-1.315h2.308a5.1 5.1 0 0 1-1.016 1.916 5.1 5.1 0 0 1-1.777 1.315q-1.04.485-2.401.485"/><path fill="url(#t)" d="M551.884 471.254q-1.662 0-2.931-.785a5.63 5.63 0 0 1-1.985-2.17q-.693-1.384-.693-3.139 0-1.777.693-3.139a5.46 5.46 0 0 1 1.985-2.147q1.293-.807 2.954-.807 1.362 0 2.401.554a3.85 3.85 0 0 1 1.615 1.523v-6.786h2.309v16.619h-2.078l-.231-1.801q-.345.531-.9 1.016a4.7 4.7 0 0 1-1.338.762q-.786.3-1.801.3m.37-2.008q1.084 0 1.915-.508a3.3 3.3 0 0 0 1.27-1.431q.462-.924.461-2.147 0-1.223-.461-2.123a3.3 3.3 0 0 0-1.27-1.431q-.83-.531-1.915-.531-1.04 0-1.87.531a3.43 3.43 0 0 0-1.293 1.431q-.46.9-.461 2.123 0 1.223.461 2.147a3.44 3.44 0 0 0 1.293 1.431 3.5 3.5 0 0 0 1.87.508"/><path fill="url(#u)" d="M533.52 471.254q-1.477 0-2.586-.485-1.107-.484-1.754-1.362-.646-.876-.784-2.054h2.354q.115.554.438 1.016.346.462.924.738.6.277 1.408.277.761 0 1.246-.207.508-.23.739-.601.23-.392.23-.83 0-.646-.323-.97-.3-.347-.923-.531-.6-.207-1.454-.369a13 13 0 0 1-1.57-.369 6.7 6.7 0 0 1-1.338-.624 2.94 2.94 0 0 1-.924-.923q-.346-.577-.346-1.408 0-.992.531-1.777.531-.808 1.5-1.246.993-.462 2.332-.462 1.938 0 3.116.923 1.177.924 1.384 2.608h-2.238q-.093-.785-.693-1.2-.6-.438-1.593-.438-.992 0-1.523.392a1.23 1.23 0 0 0-.531 1.039q0 .416.3.738.3.323.877.554.6.208 1.455.393 1.223.23 2.192.577.97.346 1.547 1.015.577.67.577 1.916.022 1.085-.554 1.916-.554.831-1.593 1.292-1.016.462-2.423.462"/><path fill="url(#v)" d="M524.466 470.976q-1.107 0-1.916-.346a2.52 2.52 0 0 1-1.246-1.154q-.438-.807-.438-2.193v-5.978h-2.009v-1.962h2.009l.276-2.908h2.032v2.908h3.3v1.962h-3.3v6.001q0 .993.415 1.362.416.346 1.431.346h1.339v1.962z"/><path fill="url(#w)" d="M510.92 471.254q-1.431 0-2.378-.485-.946-.485-1.408-1.292a3.6 3.6 0 0 1-.461-1.778q0-1.154.6-1.962.6-.83 1.708-1.269t2.654-.439h3.024q0-1.015-.3-1.685t-.9-.992q-.577-.346-1.477-.346-1.039 0-1.778.508-.738.484-.923 1.454h-2.308q.138-1.224.831-2.078a4.6 4.6 0 0 1 1.823-1.338 5.8 5.8 0 0 1 2.355-.485q1.638 0 2.746.577a3.8 3.8 0 0 1 1.662 1.639q.577 1.038.577 2.493v7.201h-2.008l-.185-1.962q-.253.462-.6.877-.345.416-.831.716-.461.3-1.084.461-.6.185-1.339.185m.438-1.87q.74 0 1.339-.3.6-.3 1.016-.808.438-.53.646-1.177.231-.669.254-1.362v-.069h-2.747q-.992 0-1.616.254-.6.23-.877.646a1.7 1.7 0 0 0-.277.97q0 .577.254.992.278.393.785.624.508.23 1.223.23"/><path fill="url(#x)" d="M498.961 471.254q-1.662 0-2.955-.762a5.4 5.4 0 0 1-2.031-2.123q-.715-1.362-.715-3.162 0-1.847.715-3.209.74-1.385 2.031-2.146 1.293-.786 3.001-.785 1.709 0 2.931.762a5.2 5.2 0 0 1 1.893 2.031q.669 1.246.669 2.77 0 .23-.023.507 0 .255-.023.577h-9.509v-1.638h7.247q-.069-1.455-.969-2.262-.9-.831-2.239-.831a3.5 3.5 0 0 0-1.731.438q-.784.416-1.27 1.247-.46.807-.461 2.054v.646q0 1.293.461 2.193.486.877 1.27 1.339a3.45 3.45 0 0 0 1.708.438q1.108 0 1.823-.485a2.9 2.9 0 0 0 1.062-1.315h2.308a5.1 5.1 0 0 1-1.015 1.916 5.1 5.1 0 0 1-1.778 1.315q-1.038.485-2.4.485"/><path fill="url(#y)" d="M485.223 470.977v-11.633h2.077l.208 2.193a4.1 4.1 0 0 1 1.015-1.316 4.5 4.5 0 0 1 1.454-.854q.855-.3 1.939-.3v2.447h-.831q-.716 0-1.361.184-.646.162-1.155.577-.485.415-.761 1.131-.277.716-.277 1.778v5.793z"/><path fill="url(#z)" d="M471.653 470.977v-16.619h2.308v6.878a4.17 4.17 0 0 1 1.593-1.592 4.6 4.6 0 0 1 2.285-.577q1.385 0 2.378.577.992.554 1.523 1.685.531 1.107.531 2.792v6.856h-2.285v-6.625q0-1.615-.693-2.446-.692-.854-2.054-.854a3.2 3.2 0 0 0-1.662.438q-.739.438-1.177 1.293-.438.831-.439 2.031v6.163z"/><path fill="url(#A)" d="M467.101 470.976q-1.108 0-1.916-.346a2.52 2.52 0 0 1-1.246-1.154q-.44-.807-.439-2.193v-5.978h-2.008v-1.962h2.008l.277-2.908h2.031v2.908h3.301v1.962h-3.301v6.001q0 .993.416 1.362.416.346 1.431.346h1.339v1.962z"/><path fill="url(#B)" d="M448.289 471.254q-1.662 0-2.954-.762a5.4 5.4 0 0 1-2.032-2.123q-.715-1.362-.715-3.162 0-1.847.715-3.209.74-1.385 2.032-2.146 1.292-.786 3-.785 1.708 0 2.932.762a5.2 5.2 0 0 1 1.892 2.031q.67 1.246.67 2.77 0 .23-.023.507 0 .255-.024.577h-9.509v-1.638h7.247q-.069-1.455-.969-2.262-.9-.831-2.239-.831a3.5 3.5 0 0 0-1.731.438q-.785.416-1.269 1.247-.462.807-.462 2.054v.646q0 1.293.462 2.193.484.877 1.269 1.339a3.45 3.45 0 0 0 1.708.438q1.108 0 1.823-.485a2.9 2.9 0 0 0 1.062-1.315h2.308a5.1 5.1 0 0 1-1.015 1.916 5.1 5.1 0 0 1-1.777 1.315q-1.04.485-2.401.485"/><path fill="url(#C)" d="m434.447 470.977-4.362-11.633h2.424l3.3 9.417 3.324-9.417h2.377l-4.339 11.633z"/><path fill="url(#D)" d="M425.539 470.977v-11.633h2.308v11.633zm1.177-13.826q-.67 0-1.108-.415-.416-.415-.416-1.062 0-.623.416-1.015.438-.416 1.108-.416.646 0 1.085.416.438.392.438 1.015 0 .646-.438 1.062a1.52 1.52 0 0 1-1.085.415"/><path fill="url(#E)" d="M420.825 470.976q-1.109 0-1.916-.346a2.52 2.52 0 0 1-1.247-1.154q-.438-.807-.438-2.193v-5.978h-2.008v-1.962h2.008l.277-2.908h2.031v2.908h3.301v1.962h-3.301v6.001q0 .993.416 1.362.416.346 1.431.346h1.338v1.962z"/><path fill="url(#F)" d="M408.193 471.254q-1.686 0-3.001-.762a5.67 5.67 0 0 1-2.077-2.146q-.74-1.362-.739-3.162 0-1.824.739-3.186a5.46 5.46 0 0 1 2.077-2.146q1.315-.786 3.001-.785 2.123 0 3.554 1.108t1.824 3h-2.401q-.231-1.015-1.062-1.569-.807-.554-1.939-.554-.922 0-1.708.485-.785.46-1.269 1.385-.462.9-.462 2.238 0 .993.277 1.778.277.76.739 1.292.484.53 1.108.808.623.254 1.315.254a3.8 3.8 0 0 0 1.362-.231 2.67 2.67 0 0 0 1.039-.738 2.6 2.6 0 0 0 .6-1.154h2.401q-.393 1.846-1.824 2.977-1.431 1.108-3.554 1.108"/><path fill="url(#G)" d="M393.822 471.254q-1.43 0-2.377-.485t-1.408-1.292a3.6 3.6 0 0 1-.462-1.778q0-1.154.6-1.962.6-.83 1.708-1.269t2.655-.439h3.023q0-1.015-.3-1.685t-.9-.992q-.577-.346-1.477-.346-1.038 0-1.777.508-.739.484-.924 1.454h-2.308q.14-1.224.831-2.078a4.6 4.6 0 0 1 1.824-1.338 5.8 5.8 0 0 1 2.354-.485q1.638 0 2.747.577a3.8 3.8 0 0 1 1.662 1.639q.577 1.038.577 2.493v7.201h-2.009l-.184-1.962q-.254.462-.6.877a3.4 3.4 0 0 1-.831.716q-.462.3-1.085.461-.6.185-1.339.185m.439-1.87q.738 0 1.338-.3t1.016-.808q.438-.53.646-1.177.231-.669.254-1.362v-.069h-2.746q-.993 0-1.616.254-.6.23-.877.646a1.7 1.7 0 0 0-.277.97q0 .577.254.992.277.393.784.624.508.23 1.224.23"/><path fill="url(#H)" d="M375.553 471.254q-1.639 0-2.954-.762a5.56 5.56 0 0 1-2.055-2.123q-.738-1.385-.738-3.185 0-1.848.761-3.209a5.47 5.47 0 0 1 2.078-2.146q1.316-.762 2.954-.762 1.662 0 2.955.762a5.4 5.4 0 0 1 2.031 2.123q.762 1.362.761 3.208 0 1.847-.761 3.209a5.35 5.35 0 0 1-2.055 2.123q-1.315.762-2.977.762m0-1.985q.946 0 1.708-.462.785-.46 1.246-1.362.486-.923.485-2.285 0-1.36-.462-2.262-.461-.923-1.246-1.384a3.2 3.2 0 0 0-1.685-.462q-.923 0-1.708.462-.785.461-1.269 1.384-.462.901-.462 2.262 0 1.362.462 2.285.484.901 1.246 1.362a3.27 3.27 0 0 0 1.685.462"/><path fill="url(#I)" d="M354.131 470.977V454.82h2.308l8.24 12.395V454.82h2.308v16.157h-2.308l-8.24-12.372v12.372z"/><path fill="url(#J)" d="M536.784 435.189q-1.662 0-2.954-.762a5.4 5.4 0 0 1-2.031-2.123q-.716-1.362-.716-3.162 0-1.847.716-3.209.738-1.384 2.031-2.146 1.292-.785 3-.785t2.932.762a5.2 5.2 0 0 1 1.892 2.031q.67 1.246.67 2.77 0 .23-.023.507 0 .255-.023.577h-9.51v-1.638h7.248q-.07-1.455-.97-2.262-.9-.831-2.239-.831a3.5 3.5 0 0 0-1.731.438q-.784.416-1.269 1.247-.462.807-.462 2.054v.646q0 1.293.462 2.193.485.877 1.269 1.339a3.45 3.45 0 0 0 1.708.438q1.108 0 1.824-.484a2.9 2.9 0 0 0 1.061-1.316h2.308a5.1 5.1 0 0 1-1.015 1.916 5.1 5.1 0 0 1-1.777 1.315q-1.04.485-2.401.485"/><path fill="url(#K)" d="M523.046 434.912v-11.633h2.077l.208 2.193q.393-.785 1.016-1.316.623-.554 1.454-.854.853-.3 1.939-.3v2.447h-.831a5 5 0 0 0-1.362.184q-.647.162-1.154.577-.485.415-.762 1.131t-.277 1.778v5.793z"/><path fill="url(#L)" d="M513.769 435.189q-1.362 0-2.377-.554-.993-.554-1.547-1.662-.531-1.108-.531-2.793v-6.901h2.309v6.647q0 1.64.715 2.47.716.831 2.054.831.901 0 1.616-.439.739-.438 1.154-1.269.416-.831.416-2.031v-6.209h2.308v11.633h-2.054l-.162-1.985a3.93 3.93 0 0 1-1.546 1.662q-1.016.6-2.355.6"/><path fill="url(#M)" d="M501.42 435.189q-1.684 0-3.001-.762a5.7 5.7 0 0 1-2.077-2.146q-.738-1.362-.738-3.162 0-1.824.738-3.186a5.47 5.47 0 0 1 2.077-2.146q1.317-.785 3.001-.785 2.124 0 3.555 1.108 1.43 1.108 1.823 3h-2.4q-.231-1.015-1.062-1.569-.808-.554-1.939-.554a3.2 3.2 0 0 0-1.708.485q-.784.46-1.27 1.385-.46.9-.461 2.238 0 .993.277 1.778.277.762.738 1.292.486.532 1.108.808.624.254 1.316.254a3.8 3.8 0 0 0 1.362-.231 2.7 2.7 0 0 0 1.038-.738q.44-.485.601-1.154h2.4q-.393 1.846-1.823 2.977-1.431 1.108-3.555 1.108"/><path fill="url(#N)" d="M487.938 435.189q-1.66 0-2.954-.762a5.4 5.4 0 0 1-2.031-2.123q-.716-1.362-.716-3.162 0-1.847.716-3.209.738-1.384 2.031-2.146 1.293-.785 3.001-.785t2.931.762a5.2 5.2 0 0 1 1.893 2.031q.669 1.246.669 2.77 0 .23-.023.507 0 .255-.023.577h-9.51v-1.638h7.248q-.069-1.455-.97-2.262-.9-.831-2.238-.831-.946 0-1.732.438-.785.416-1.269 1.247-.462.807-.462 2.054v.646q0 1.293.462 2.193.484.877 1.269 1.339a3.45 3.45 0 0 0 1.708.438q1.109 0 1.824-.484a2.9 2.9 0 0 0 1.062-1.316h2.308a5.1 5.1 0 0 1-1.016 1.916 5.1 5.1 0 0 1-1.777 1.315q-1.04.485-2.401.485"/><path fill="url(#O)" d="M475.388 435.189q-1.478 0-2.585-.485-1.109-.484-1.755-1.362-.645-.876-.784-2.054h2.354q.115.555.439 1.016.345.462.923.738.6.277 1.408.277.762 0 1.246-.207.508-.231.739-.6.231-.393.231-.831 0-.646-.324-.97-.3-.346-.923-.531-.6-.207-1.454-.369a13 13 0 0 1-1.569-.369 6.7 6.7 0 0 1-1.339-.623 2.9 2.9 0 0 1-.923-.924q-.347-.577-.347-1.408 0-.992.531-1.777.531-.808 1.5-1.246.993-.462 2.332-.462 1.938 0 3.116.923 1.177.924 1.385 2.608h-2.239q-.093-.785-.693-1.2-.6-.438-1.592-.438t-1.524.392a1.23 1.23 0 0 0-.531 1.039q0 .415.3.738.3.324.878.554.6.209 1.454.393 1.223.23 2.192.577.97.346 1.547 1.015.577.67.577 1.916.023 1.085-.554 1.916-.553.831-1.593 1.292-1.016.462-2.423.462"/><path fill="url(#P)" d="M444.042 434.912v-11.633h2.077l.162 1.639a3.93 3.93 0 0 1 1.477-1.408q.924-.508 2.077-.508.877 0 1.593.254.715.23 1.27.715.553.486.9 1.201a4.46 4.46 0 0 1 1.662-1.593 4.6 4.6 0 0 1 2.239-.577q1.407 0 2.423.577 1.016.554 1.547 1.685.53 1.108.53 2.77v6.878h-2.285v-6.647q0-1.616-.669-2.447-.646-.831-1.916-.831-.854 0-1.523.439-.669.438-1.062 1.269-.369.831-.369 2.031v6.186h-2.308v-6.647q0-1.616-.67-2.447-.646-.831-1.915-.831-.808 0-1.478.439-.67.438-1.061 1.269-.393.831-.393 2.031v6.186z"/><path fill="url(#Q)" d="M435.937 435.189q-1.66 0-2.954-.762a5.4 5.4 0 0 1-2.031-2.123q-.716-1.362-.716-3.162 0-1.847.716-3.209.738-1.384 2.031-2.146 1.293-.785 3.001-.785t2.931.762a5.2 5.2 0 0 1 1.893 2.031q.669 1.246.669 2.77 0 .23-.023.507 0 .255-.023.577h-9.51v-1.638h7.248q-.069-1.455-.97-2.262-.9-.831-2.238-.831-.946 0-1.732.438-.785.416-1.269 1.247-.462.807-.462 2.054v.646q0 1.293.462 2.193.484.877 1.269 1.339a3.45 3.45 0 0 0 1.708.438q1.108 0 1.824-.484a2.9 2.9 0 0 0 1.062-1.316h2.308a5.1 5.1 0 0 1-1.016 1.916 5.1 5.1 0 0 1-1.777 1.315q-1.038.485-2.401.485"/><path fill="url(#R)" d="M426.438 434.912q-1.108 0-1.916-.346a2.52 2.52 0 0 1-1.246-1.154q-.44-.809-.439-2.193v-5.978h-2.008v-1.962h2.008l.277-2.908h2.031v2.908h3.301v1.962h-3.301v6.001q0 .993.416 1.362.416.346 1.431.346h1.339v1.962z"/><path fill="url(#S)" d="M414.822 435.189q-1.476 0-2.585-.485-1.107-.484-1.754-1.362-.646-.876-.785-2.054h2.355q.115.555.438 1.016.347.462.923.738.6.277 1.408.277.762 0 1.247-.207.507-.231.738-.6.231-.393.231-.831 0-.646-.323-.97-.3-.346-.923-.531-.6-.207-1.454-.369a13 13 0 0 1-1.57-.369 6.8 6.8 0 0 1-1.339-.623 2.95 2.95 0 0 1-.923-.924q-.346-.577-.346-1.408 0-.992.531-1.777.531-.808 1.5-1.246.993-.462 2.331-.462 1.94 0 3.116.923 1.178.924 1.385 2.608h-2.239q-.092-.785-.692-1.2-.6-.438-1.593-.438-.992 0-1.523.392a1.23 1.23 0 0 0-.531 1.039q0 .415.3.738.3.324.877.554.6.209 1.454.393 1.224.23 2.193.577.97.346 1.546 1.015.577.67.577 1.916.024 1.085-.553 1.916-.555.831-1.593 1.292-1.016.462-2.424.462"/><path fill="url(#T)" d="m399.103 439.99 2.839-6.371h-.669l-4.593-10.34h2.492l3.647 8.448 3.67-8.448h2.424l-7.386 16.711z"/><path fill="url(#U)" d="M391.02 435.189q-1.477 0-2.586-.485-1.107-.484-1.754-1.362-.646-.876-.784-2.054h2.354q.115.555.438 1.016.347.462.924.738.6.277 1.408.277.761 0 1.246-.207.508-.231.739-.6.23-.393.23-.831 0-.646-.323-.97-.3-.346-.923-.531-.6-.207-1.454-.369a13 13 0 0 1-1.57-.369 6.8 6.8 0 0 1-1.338-.623 2.94 2.94 0 0 1-.924-.924q-.346-.577-.346-1.408 0-.992.531-1.777.531-.808 1.5-1.246.993-.462 2.332-.462 1.938 0 3.116.923 1.177.924 1.384 2.608h-2.238q-.093-.785-.693-1.2-.6-.438-1.593-.438-.992 0-1.523.392a1.23 1.23 0 0 0-.531 1.039q0 .415.3.738.3.324.877.554.6.209 1.455.393 1.223.23 2.192.577.97.346 1.547 1.015.577.67.577 1.916.022 1.085-.554 1.916-.554.831-1.593 1.292-1.016.462-2.423.462"/><path fill="url(#V)" d="M375.134 434.912v-16.619h2.308v16.619z"/><path fill="url(#W)" d="M369.657 434.912v-16.619h2.308v16.619z"/><path fill="url(#X)" d="m353.091 434.912 5.932-16.157h2.516l5.932 16.157h-2.47l-4.732-13.387-4.755 13.387zm2.677-3.993.647-1.847h7.593l.647 1.847z"/><path fill="url(#Y)" fill-opacity=".15" d="M242.807 60.426c0-7.967 6.458-14.426 14.426-14.426h504.908c7.968 0 14.426 6.459 14.426 14.426v84.399c0 7.967-6.458 14.426-14.426 14.426H257.233c-7.968 0-14.426-6.459-14.426-14.426z"/><path fill="url(#Z)" d="M762.141 157.808v1.443H257.233v-1.443zm12.984-12.983V60.426c0-7.17-5.813-12.983-12.984-12.983H257.233c-6.947 0-12.619 5.455-12.967 12.315l-.017.668v84.399c0 7.17 5.813 12.983 12.984 12.983v1.443l-.743-.018c-7.622-.387-13.683-6.69-13.683-14.408V60.426c0-7.967 6.458-14.426 14.426-14.426h504.908c7.968 0 14.426 6.459 14.426 14.426v84.399c0 7.718-6.061 14.021-13.683 14.408l-.743.018v-1.443c7.171 0 12.984-5.813 12.984-12.983"/><path fill="url(#aa)" d="M748.305 128.505q-1.662 0-2.955-.761a5.4 5.4 0 0 1-2.031-2.124q-.715-1.362-.715-3.162 0-1.846.715-3.208.738-1.386 2.031-2.147 1.293-.785 3.001-.785t2.931.762a5.2 5.2 0 0 1 1.893 2.031q.669 1.246.669 2.77 0 .23-.023.508 0 .253-.023.577h-9.51v-1.639h7.248q-.069-1.453-.969-2.262-.9-.831-2.239-.831a3.5 3.5 0 0 0-1.731.439 3.2 3.2 0 0 0-1.27 1.246q-.462.808-.462 2.054v.647q0 1.292.462 2.192.484.877 1.27 1.339a3.45 3.45 0 0 0 1.708.439q1.107 0 1.823-.485a2.9 2.9 0 0 0 1.062-1.316h2.308a5.1 5.1 0 0 1-1.016 1.916 5.1 5.1 0 0 1-1.777 1.316q-1.038.484-2.4.484"/><path fill="url(#ab)" d="M734.964 128.505q-1.684 0-3.001-.761a5.7 5.7 0 0 1-2.077-2.147q-.739-1.362-.739-3.162 0-1.823.739-3.185a5.47 5.47 0 0 1 2.077-2.147q1.317-.785 3.001-.785 2.124 0 3.555 1.108 1.43 1.108 1.823 3.001h-2.4q-.231-1.015-1.062-1.57-.808-.554-1.939-.554a3.2 3.2 0 0 0-1.708.485q-.784.462-1.27 1.385-.46.9-.461 2.239 0 .993.277 1.777.277.762.738 1.293.486.53 1.108.808a3.5 3.5 0 0 0 1.316.253 3.8 3.8 0 0 0 1.362-.23q.623-.255 1.038-.739.44-.485.601-1.154h2.4q-.393 1.847-1.823 2.977-1.431 1.108-3.555 1.108"/><path fill="url(#ac)" d="M723.976 128.228v-11.633h2.308v11.633zm1.177-13.826q-.669 0-1.108-.416-.415-.415-.415-1.061 0-.624.415-1.016.44-.415 1.108-.415.647 0 1.085.415.438.392.439 1.016 0 .646-.439 1.061a1.52 1.52 0 0 1-1.085.416"/><path fill="url(#ad)" d="m714.673 128.228-4.362-11.633h2.423l3.301 9.417 3.323-9.417h2.378l-4.339 11.633z"/><path fill="url(#ae)" d="M703.72 128.505q-1.662 0-2.955-.761a5.4 5.4 0 0 1-2.031-2.124q-.715-1.362-.715-3.162 0-1.846.715-3.208a5.36 5.36 0 0 1 2.031-2.147q1.293-.785 3.001-.785t2.931.762a5.2 5.2 0 0 1 1.893 2.031q.669 1.246.669 2.77 0 .23-.023.508 0 .253-.023.577h-9.509v-1.639h7.247q-.069-1.453-.969-2.262-.9-.831-2.239-.831a3.5 3.5 0 0 0-1.731.439 3.2 3.2 0 0 0-1.27 1.246q-.462.808-.461 2.054v.647q0 1.292.461 2.192.484.877 1.27 1.339a3.45 3.45 0 0 0 1.708.439q1.107 0 1.823-.485a2.9 2.9 0 0 0 1.062-1.316h2.308a5.1 5.1 0 0 1-1.016 1.916 5.1 5.1 0 0 1-1.777 1.316q-1.038.484-2.4.484"/><path fill="url(#af)" d="M688.953 128.505q-1.662 0-2.932-.785a5.6 5.6 0 0 1-1.985-2.169q-.692-1.386-.692-3.139 0-1.778.692-3.14a5.46 5.46 0 0 1 1.985-2.146q1.293-.808 2.955-.808 1.362 0 2.4.554a3.86 3.86 0 0 1 1.616 1.523v-6.786h2.308v16.619h-2.077l-.231-1.8a5 5 0 0 1-.9 1.015q-.555.462-1.339.762-.785.3-1.8.3m.369-2.008q1.085 0 1.916-.508a3.28 3.28 0 0 0 1.269-1.431q.462-.923.462-2.146 0-1.224-.462-2.124a3.3 3.3 0 0 0-1.269-1.431q-.831-.531-1.916-.531-1.04 0-1.87.531a3.43 3.43 0 0 0-1.292 1.431q-.462.9-.462 2.124 0 1.223.462 2.146a3.4 3.4 0 0 0 1.292 1.431 3.5 3.5 0 0 0 1.87.508"/><path fill="url(#ag)" d="M669.063 128.228v-11.633h2.078l.208 2.193a4.1 4.1 0 0 1 1.015-1.316q.623-.554 1.454-.854.855-.3 1.939-.3v2.447h-.831a5 5 0 0 0-1.362.185q-.645.161-1.154.577-.485.416-.761 1.131-.277.715-.277 1.777v5.793z"/><path fill="url(#ah)" d="M659.787 128.505q-1.362 0-2.378-.554-.992-.554-1.546-1.662-.531-1.109-.531-2.793v-6.901h2.308v6.647q0 1.64.716 2.47.715.831 2.054.831.9 0 1.616-.439a3 3 0 0 0 1.154-1.269q.415-.831.415-2.031v-6.209h2.308v11.633h-2.054l-.161-1.985a3.93 3.93 0 0 1-1.547 1.662q-1.016.6-2.354.6"/><path fill="url(#ai)" d="M647.008 128.505q-1.638 0-2.954-.761a5.57 5.57 0 0 1-2.055-2.124q-.738-1.385-.738-3.185 0-1.846.761-3.208a5.47 5.47 0 0 1 2.078-2.147q1.316-.762 2.954-.762 1.662 0 2.955.762a5.4 5.4 0 0 1 2.031 2.124q.762 1.361.762 3.208 0 1.846-.762 3.208a5.36 5.36 0 0 1-2.054 2.124q-1.317.762-2.978.761m0-1.985a3.23 3.23 0 0 0 2.954-1.823q.485-.923.485-2.285t-.461-2.262q-.462-.923-1.247-1.385a3.2 3.2 0 0 0-1.685-.462q-.923 0-1.708.462t-1.269 1.385q-.462.9-.462 2.262t.462 2.285q.484.9 1.246 1.362a3.26 3.26 0 0 0 1.685.461"/><path fill="url(#aj)" d="m630.911 133.306 2.839-6.371h-.669l-4.594-10.34h2.493l3.647 8.448 3.67-8.448h2.424l-7.387 16.711z"/><path fill="url(#ak)" d="M614.854 128.228v-11.633h2.077l.208 2.193a4.1 4.1 0 0 1 1.015-1.316q.623-.554 1.454-.854.855-.3 1.939-.3v2.447h-.831a5 5 0 0 0-1.362.185q-.645.161-1.154.577-.485.416-.761 1.131-.277.715-.277 1.777v5.793z"/><path fill="url(#al)" d="M606.346 128.505q-1.639 0-2.954-.761a5.57 5.57 0 0 1-2.055-2.124q-.738-1.385-.738-3.185 0-1.846.761-3.208a5.47 5.47 0 0 1 2.078-2.147q1.316-.762 2.954-.762 1.662 0 2.955.762a5.4 5.4 0 0 1 2.031 2.124q.761 1.361.761 3.208 0 1.846-.761 3.208a5.35 5.35 0 0 1-2.055 2.124q-1.315.762-2.977.761m0-1.985a3.23 3.23 0 0 0 2.954-1.823q.486-.923.485-2.285 0-1.362-.462-2.262-.461-.923-1.246-1.385a3.2 3.2 0 0 0-1.685-.462q-.923 0-1.708.462t-1.269 1.385q-.462.9-.462 2.262t.462 2.285q.484.9 1.246 1.362a3.26 3.26 0 0 0 1.685.461"/><path fill="url(#am)" d="M594.041 128.228v-13.203q0-1.2.392-1.961a2.46 2.46 0 0 1 1.201-1.108q.785-.347 1.892-.347h1.362v1.962h-.992q-.83 0-1.201.347-.346.323-.346 1.154v13.156zm-1.708-9.671v-1.962h6.809v1.962z"/><path fill="url(#an)" d="M579.408 128.505q-1.662 0-2.954-.761a5.4 5.4 0 0 1-2.031-2.124q-.716-1.362-.716-3.162 0-1.846.716-3.208.738-1.386 2.031-2.147 1.292-.785 3-.785t2.932.762a5.2 5.2 0 0 1 1.892 2.031q.67 1.246.67 2.77 0 .23-.023.508 0 .253-.023.577h-9.51v-1.639h7.248q-.07-1.453-.97-2.262-.9-.831-2.239-.831a3.5 3.5 0 0 0-1.731.439 3.2 3.2 0 0 0-1.269 1.246q-.462.808-.462 2.054v.647q0 1.292.462 2.192.485.877 1.269 1.339a3.45 3.45 0 0 0 1.708.439q1.109 0 1.824-.485a2.9 2.9 0 0 0 1.061-1.316h2.309a5.1 5.1 0 0 1-1.016 1.916 5.1 5.1 0 0 1-1.777 1.316q-1.04.484-2.401.484"/><path fill="url(#ao)" d="M568.668 128.228v-16.619h2.308v16.619z"/><path fill="url(#ap)" d="M560.364 128.505a5.2 5.2 0 0 1-1.731-.277 4.3 4.3 0 0 1-1.339-.715 4.5 4.5 0 0 1-.969-1.062l-.231 1.777h-2.077v-16.619h2.308v6.809q.554-.876 1.546-1.477 1.016-.623 2.493-.623 1.662 0 2.931.808a5.24 5.24 0 0 1 1.962 2.17q.716 1.361.716 3.139 0 1.73-.716 3.116a5.25 5.25 0 0 1-1.962 2.169q-1.269.785-2.931.785m-.369-2.008q1.062 0 1.869-.508a3.43 3.43 0 0 0 1.293-1.431q.485-.923.485-2.146 0-1.224-.485-2.124a3.44 3.44 0 0 0-1.293-1.431q-.807-.531-1.869-.531-1.086 0-1.916.531-.808.508-1.27 1.431-.46.9-.461 2.124 0 1.223.461 2.146.462.924 1.27 1.431.83.508 1.916.508"/><path fill="url(#aq)" d="M545.024 128.505q-1.43 0-2.377-.484t-1.408-1.293a3.6 3.6 0 0 1-.462-1.777q0-1.155.6-1.962.601-.83 1.709-1.27 1.107-.438 2.654-.438h3.024q0-1.016-.3-1.685a2.04 2.04 0 0 0-.901-.993q-.577-.346-1.477-.346-1.038 0-1.777.508-.739.485-.923 1.454h-2.309q.14-1.223.831-2.077a4.6 4.6 0 0 1 1.824-1.339 5.8 5.8 0 0 1 2.354-.485q1.639 0 2.747.577a3.8 3.8 0 0 1 1.662 1.639q.577 1.04.577 2.493v7.201h-2.008l-.185-1.961q-.253.461-.6.877a3.4 3.4 0 0 1-.831.715 3.7 3.7 0 0 1-1.085.462q-.6.184-1.339.184m.439-1.869q.738 0 1.339-.3.6-.3 1.015-.808.439-.53.647-1.177.23-.67.253-1.362v-.069h-2.746q-.993 0-1.616.254-.6.23-.877.646t-.277.969q0 .578.254.993.276.392.785.623.507.231 1.223.231"/><path fill="url(#ar)" d="M535.692 128.228v-16.619h2.309v16.619z"/><path fill="url(#as)" d="M530.083 128.228v-11.633h2.308v11.633zm1.177-13.826q-.67 0-1.108-.416-.416-.415-.416-1.061 0-.624.416-1.016.438-.415 1.108-.415.646 0 1.085.415.438.392.438 1.016 0 .646-.438 1.061a1.52 1.52 0 0 1-1.085.416"/><path fill="url(#at)" d="M520.928 128.505q-1.431 0-2.378-.484-.946-.484-1.408-1.293a3.6 3.6 0 0 1-.461-1.777q0-1.155.6-1.962.6-.83 1.708-1.27 1.107-.438 2.654-.438h3.024q0-1.016-.3-1.685t-.9-.993q-.577-.346-1.478-.346-1.038 0-1.777.508-.738.485-.923 1.454h-2.308q.138-1.223.831-2.077a4.6 4.6 0 0 1 1.823-1.339 5.8 5.8 0 0 1 2.354-.485q1.64 0 2.747.577a3.8 3.8 0 0 1 1.662 1.639q.577 1.04.577 2.493v7.201h-2.008l-.185-1.961q-.253.461-.6.877a3.4 3.4 0 0 1-.831.715 3.7 3.7 0 0 1-1.085.462q-.6.184-1.338.184m.438-1.869q.74 0 1.339-.3.6-.3 1.016-.808.438-.53.646-1.177.23-.67.254-1.362v-.069h-2.747q-.993 0-1.616.254-.6.23-.877.646-.276.416-.277.969 0 .578.254.993.277.392.785.623.507.231 1.223.231"/><path fill="url(#au)" d="m508.562 128.228-4.363-11.633h2.424l3.3 9.417 3.324-9.417h2.378l-4.34 11.633z"/><path fill="url(#av)" d="M496.675 128.505q-1.431 0-2.378-.484-.946-.484-1.408-1.293a3.6 3.6 0 0 1-.461-1.777q0-1.155.6-1.962.6-.83 1.708-1.27 1.107-.438 2.654-.438h3.024q0-1.016-.3-1.685t-.9-.993q-.577-.346-1.478-.346-1.038 0-1.777.508-.738.485-.923 1.454h-2.308q.138-1.223.831-2.077a4.6 4.6 0 0 1 1.823-1.339 5.8 5.8 0 0 1 2.354-.485q1.64 0 2.747.577a3.8 3.8 0 0 1 1.662 1.639q.577 1.04.577 2.493v7.201h-2.008l-.185-1.961q-.254.461-.6.877a3.4 3.4 0 0 1-.831.715q-.46.3-1.085.462-.6.184-1.338.184m.438-1.869q.74 0 1.339-.3.6-.3 1.016-.808.438-.53.646-1.177.23-.67.254-1.362v-.069h-2.747q-.993 0-1.616.254-.6.23-.877.646-.276.416-.277.969 0 .578.254.993.277.392.785.623.507.231 1.223.231"/><path fill="url(#aw)" d="M479.626 128.505q-1.477 0-2.585-.484t-1.754-1.362-.785-2.054h2.354q.115.553.439 1.015.346.462.923.739.6.277 1.408.277.762 0 1.246-.208.508-.231.739-.6.231-.393.231-.831 0-.647-.323-.969-.3-.347-.924-.531-.6-.208-1.454-.37a13 13 0 0 1-1.569-.369 6.7 6.7 0 0 1-1.339-.623 2.9 2.9 0 0 1-.923-.923q-.346-.577-.346-1.408 0-.993.53-1.778.53-.807 1.501-1.246.992-.462 2.331-.462 1.939 0 3.116.924 1.177.923 1.385 2.608h-2.239q-.092-.785-.692-1.2-.6-.44-1.593-.439-.993 0-1.523.392a1.23 1.23 0 0 0-.531 1.039q0 .415.3.739.3.323.877.554.6.207 1.454.392a14.6 14.6 0 0 1 2.193.577q.969.346 1.546 1.016t.577 1.915q.024 1.086-.554 1.916-.554.831-1.592 1.293-1.016.462-2.424.461"/><path fill="url(#ax)" d="M469.516 128.228v-11.633h2.308v11.633zm1.177-13.826q-.669 0-1.108-.416-.415-.415-.415-1.061 0-.624.415-1.016.44-.415 1.108-.415.647 0 1.085.415.44.392.439 1.016 0 .646-.439 1.061a1.52 1.52 0 0 1-1.085.416"/><path fill="url(#ay)" d="m450.349 128.228 4.016-5.817-4.016-5.816h2.492l3.047 4.524 3.07-4.524h2.47l-4.016 5.816 4.016 5.817h-2.47l-3.07-4.547-3.047 4.547z"/><path fill="url(#az)" d="M438.735 128.228v-9.671h-1.708v-1.962h1.708v-1.57q0-1.2.393-1.961a2.47 2.47 0 0 1 1.2-1.108q.784-.347 1.893-.347h1.2v1.962h-.831q-.831 0-1.2.347-.346.323-.346 1.154v1.523h7.086v11.633h-2.309v-9.671h-4.777v9.671zm8.264-13.641q-.647 0-1.085-.416-.44-.415-.439-1.061 0-.624.439-1.016.438-.415 1.085-.415.669 0 1.084.415.44.392.439 1.016 0 .646-.439 1.061-.415.416-1.084.416"/><path fill="url(#aA)" d="M426.729 128.228v-16.619h2.309v16.619z"/><path fill="url(#aB)" d="M417.737 128.505q-1.43 0-2.377-.484t-1.408-1.293a3.6 3.6 0 0 1-.462-1.777q0-1.155.6-1.962.6-.83 1.708-1.27 1.108-.438 2.655-.438h3.023q0-1.016-.3-1.685t-.9-.993q-.577-.346-1.477-.346-1.038 0-1.777.508-.739.485-.924 1.454h-2.308q.14-1.223.831-2.077a4.6 4.6 0 0 1 1.824-1.339 5.8 5.8 0 0 1 2.354-.485q1.639 0 2.747.577a3.8 3.8 0 0 1 1.662 1.639q.576 1.04.577 2.493v7.201h-2.008l-.185-1.961q-.254.461-.6.877a3.4 3.4 0 0 1-.831.715q-.462.3-1.085.462-.6.184-1.339.184m.439-1.869q.738 0 1.339-.3.6-.3 1.015-.808.438-.53.646-1.177.231-.67.254-1.362v-.069h-2.746q-.993 0-1.616.254-.6.23-.877.646t-.277.969q0 .578.254.993.277.392.784.623.509.231 1.224.231"/><path fill="url(#aC)" d="M405.803 128.505q-1.685 0-3.001-.761a5.7 5.7 0 0 1-2.077-2.147q-.739-1.362-.739-3.162 0-1.823.739-3.185a5.47 5.47 0 0 1 2.077-2.147q1.316-.785 3.001-.785 2.124 0 3.554 1.108 1.431 1.108 1.824 3.001h-2.401q-.23-1.015-1.061-1.57-.808-.554-1.939-.554a3.2 3.2 0 0 0-1.708.485q-.785.462-1.27 1.385-.46.9-.461 2.239 0 .993.277 1.777.276.762.738 1.293.485.53 1.108.808a3.5 3.5 0 0 0 1.316.253 3.8 3.8 0 0 0 1.362-.23q.623-.255 1.038-.739.44-.485.6-1.154h2.401q-.393 1.847-1.824 2.977-1.43 1.108-3.554 1.108"/><path fill="url(#aD)" d="M394.816 128.228v-11.633h2.308v11.633zm1.177-13.826q-.669 0-1.108-.416-.415-.415-.415-1.061 0-.624.415-1.016.44-.415 1.108-.415.647 0 1.085.415.438.392.438 1.016 0 .646-.438 1.061a1.52 1.52 0 0 1-1.085.416"/><path fill="url(#aE)" d="M390.102 128.228q-1.108 0-1.916-.346a2.52 2.52 0 0 1-1.246-1.154q-.44-.808-.439-2.193v-5.978h-2.008v-1.962h2.008l.277-2.908h2.031v2.908h3.301v1.962h-3.301v6.001q0 .993.416 1.362.416.346 1.431.346h1.339v1.962z"/><path fill="url(#aF)" d="M379.692 128.228v-11.633H382v11.633zm1.177-13.826q-.669 0-1.108-.416-.415-.415-.415-1.061 0-.624.415-1.016.44-.415 1.108-.415.647 0 1.085.415.438.392.438 1.016 0 .646-.438 1.061a1.52 1.52 0 0 1-1.085.416"/><path fill="url(#aG)" d="M370.718 128.228v-11.633h2.077l.208 2.193a4.1 4.1 0 0 1 1.015-1.316 4.4 4.4 0 0 1 1.455-.854q.853-.3 1.938-.3v2.447h-.831q-.715 0-1.361.185-.647.161-1.154.577-.485.416-.762 1.131t-.277 1.777v5.793z"/><path fill="url(#aH)" d="M361.215 128.505q-2.376 0-4.108-1.038-1.709-1.062-2.654-2.932-.924-1.892-.924-4.385 0-2.47.924-4.362.945-1.893 2.654-2.932 1.732-1.062 4.108-1.062 2.84 0 4.594 1.362 1.777 1.362 2.262 3.832h-2.539q-.347-1.431-1.431-2.285-1.062-.855-2.886-.854-1.638 0-2.839.761-1.2.762-1.846 2.17t-.646 3.37.646 3.393q.646 1.408 1.846 2.17 1.201.738 2.839.738 1.824 0 2.886-.808 1.085-.83 1.431-2.239h2.539q-.485 2.401-2.262 3.763-1.755 1.338-4.594 1.338"/><path fill="url(#aI)" d="M593.925 92.44q-1.662 0-2.955-.762a5.4 5.4 0 0 1-2.031-2.123q-.715-1.362-.715-3.162 0-1.846.715-3.209.74-1.384 2.031-2.146 1.293-.785 3.001-.785t2.931.762a5.2 5.2 0 0 1 1.893 2.03q.669 1.248.669 2.77 0 .231-.023.508 0 .255-.023.577h-9.509v-1.638h7.247q-.069-1.455-.969-2.262-.9-.831-2.239-.831-.946 0-1.731.438a3.2 3.2 0 0 0-1.27 1.247q-.46.807-.461 2.054v.646q0 1.293.461 2.193.485.876 1.27 1.339a3.44 3.44 0 0 0 1.708.438q1.107 0 1.823-.484a2.9 2.9 0 0 0 1.062-1.316h2.308a5.1 5.1 0 0 1-1.015 1.916 5.1 5.1 0 0 1-1.778 1.315q-1.038.485-2.4.485"/><path fill="url(#aJ)" d="M583.184 92.163V75.544h2.308v16.62z"/><path fill="url(#aK)" d="M574.88 92.44a5.2 5.2 0 0 1-1.731-.277 4.3 4.3 0 0 1-1.339-.715 4.5 4.5 0 0 1-.97-1.062l-.23 1.777h-2.078V75.544h2.308v6.81q.554-.878 1.547-1.478 1.015-.623 2.493-.623 1.662 0 2.931.808a5.26 5.26 0 0 1 1.962 2.17q.715 1.361.715 3.139 0 1.73-.715 3.116a5.26 5.26 0 0 1-1.962 2.17q-1.269.784-2.931.784m-.37-2.008q1.062 0 1.87-.508a3.44 3.44 0 0 0 1.293-1.43q.484-.924.484-2.147 0-1.224-.484-2.124a3.44 3.44 0 0 0-1.293-1.431q-.808-.53-1.87-.53-1.084 0-1.915.53-.808.508-1.27 1.431-.462.9-.462 2.124 0 1.222.462 2.146t1.27 1.431q.83.508 1.915.508"/><path fill="url(#aL)" d="M559.54 92.44q-1.431 0-2.377-.485-.947-.485-1.408-1.292a3.6 3.6 0 0 1-.462-1.778q0-1.154.6-1.962.6-.83 1.708-1.269t2.655-.438h3.023q0-1.017-.3-1.685a2.03 2.03 0 0 0-.9-.993q-.577-.346-1.477-.346-1.039 0-1.778.508-.738.484-.923 1.454h-2.308q.138-1.224.831-2.078a4.6 4.6 0 0 1 1.823-1.338 5.8 5.8 0 0 1 2.355-.485q1.639 0 2.746.577 1.109.577 1.662 1.639.577 1.038.577 2.493v7.201h-2.008l-.184-1.962q-.255.462-.601.877-.345.416-.83.716-.462.3-1.085.461-.6.185-1.339.185m.439-1.87q.738 0 1.338-.3t1.016-.807q.439-.531.646-1.178.231-.67.254-1.361v-.07h-2.747q-.992 0-1.615.254-.6.232-.877.646t-.277.97q0 .577.253.992.278.393.785.624.509.23 1.224.23"/><path fill="url(#aM)" d="M550.208 92.163V75.544h2.308v16.62z"/><path fill="url(#aN)" d="M544.598 92.163V80.53h2.308v11.633zm1.177-13.825q-.669 0-1.108-.416-.415-.415-.415-1.062 0-.623.415-1.015.44-.416 1.108-.416.647 0 1.085.416.44.392.439 1.015 0 .647-.439 1.062-.438.416-1.085.416"/><path fill="url(#aO)" d="M535.443 92.44q-1.43 0-2.377-.485t-1.408-1.292a3.6 3.6 0 0 1-.462-1.778q0-1.154.6-1.962.6-.83 1.708-1.269t2.655-.438h3.024q0-1.017-.301-1.685a2.03 2.03 0 0 0-.9-.993q-.577-.346-1.477-.346-1.038 0-1.777.508-.739.484-.923 1.454h-2.309q.14-1.224.831-2.078a4.6 4.6 0 0 1 1.824-1.338 5.8 5.8 0 0 1 2.354-.485q1.639 0 2.747.577t1.662 1.639q.577 1.038.577 2.493v7.201h-2.008l-.185-1.962q-.254.462-.6.877a3.4 3.4 0 0 1-.831.716q-.462.3-1.085.461a4.5 4.5 0 0 1-1.339.185m.439-1.87q.738 0 1.339-.3.6-.3 1.015-.807.44-.531.646-1.178.231-.67.254-1.361v-.07h-2.746q-.993 0-1.616.254-.6.232-.877.646t-.277.97q0 .577.254.992.276.393.785.624.507.23 1.223.23"/><path fill="url(#aP)" d="m523.077 92.163-4.362-11.633h2.423l3.301 9.417 3.324-9.417h2.377l-4.339 11.633z"/><path fill="url(#aQ)" d="M511.19 92.44q-1.43 0-2.377-.485t-1.408-1.292a3.6 3.6 0 0 1-.462-1.778q0-1.154.6-1.962.601-.83 1.709-1.269 1.107-.438 2.654-.438h3.024q0-1.017-.3-1.685a2.04 2.04 0 0 0-.901-.993q-.577-.346-1.477-.346-1.038 0-1.777.508-.739.484-.923 1.454h-2.309q.14-1.224.831-2.078a4.6 4.6 0 0 1 1.824-1.338 5.8 5.8 0 0 1 2.354-.485q1.639 0 2.747.577t1.662 1.639q.577 1.038.577 2.493v7.201h-2.008l-.185-1.962q-.253.462-.6.877a3.4 3.4 0 0 1-.831.716q-.462.3-1.085.461a4.5 4.5 0 0 1-1.339.185m.439-1.87q.738 0 1.339-.3.6-.3 1.015-.807a3.5 3.5 0 0 0 .647-1.178q.23-.67.253-1.361v-.07h-2.746q-.993 0-1.616.254-.6.232-.877.646t-.277.97q0 .577.254.992.276.393.785.624.507.23 1.223.23"/><path fill="url(#aR)" d="M487.859 92.163V75.544h2.309v6.879a4.16 4.16 0 0 1 1.592-1.593 4.6 4.6 0 0 1 2.285-.577q1.385 0 2.378.577.992.554 1.523 1.685.531 1.109.531 2.793v6.855h-2.285V85.54q0-1.616-.693-2.447-.692-.855-2.054-.854-.922 0-1.662.439-.739.438-1.177 1.292-.438.831-.438 2.031v6.163z"/><path fill="url(#aS)" d="M479.781 92.44q-1.684 0-3-.762a5.7 5.7 0 0 1-2.078-2.146q-.738-1.362-.738-3.162 0-1.824.738-3.186a5.47 5.47 0 0 1 2.078-2.146q1.316-.785 3-.785 2.124 0 3.555 1.108t1.823 3h-2.4q-.231-1.015-1.062-1.57-.808-.552-1.939-.553a3.2 3.2 0 0 0-1.708.485q-.785.46-1.269 1.385-.462.9-.462 2.239 0 .992.277 1.777.277.761.739 1.292.484.531 1.108.808.623.254 1.315.254.762 0 1.362-.23.624-.255 1.039-.74.438-.483.6-1.153h2.4q-.392 1.845-1.823 2.977-1.431 1.108-3.555 1.108"/><path fill="url(#aT)" d="M470.166 92.163q-1.107 0-1.915-.346a2.52 2.52 0 0 1-1.247-1.154q-.438-.808-.438-2.193v-5.978h-2.008V80.53h2.008l.277-2.908h2.031v2.908h3.301v1.962h-3.301v6.001q0 .993.415 1.362.415.346 1.431.346h1.339v1.962z"/><path fill="url(#aU)" d="M456.62 92.44q-1.43 0-2.377-.485t-1.408-1.292a3.6 3.6 0 0 1-.462-1.778q0-1.154.6-1.962.6-.83 1.708-1.269t2.655-.438h3.023q0-1.017-.3-1.685a2.03 2.03 0 0 0-.9-.993q-.577-.346-1.477-.346-1.04 0-1.777.508-.74.484-.924 1.454h-2.308q.138-1.224.831-2.078a4.6 4.6 0 0 1 1.823-1.338 5.8 5.8 0 0 1 2.355-.485q1.638 0 2.747.577a3.8 3.8 0 0 1 1.661 1.639q.577 1.038.577 2.493v7.201h-2.008l-.184-1.962q-.255.462-.6.877a3.4 3.4 0 0 1-.831.716q-.462.3-1.085.461-.6.185-1.339.185m.439-1.87q.738 0 1.338-.3t1.016-.807q.438-.531.646-1.178.231-.67.254-1.361v-.07h-2.747q-.992 0-1.615.254-.6.232-.877.646t-.277.97q0 .577.253.992.278.393.785.624.509.23 1.224.23"/><path fill="url(#aV)" d="M438.112 97.24V80.53h2.078l.23 1.8q.37-.53.924-.992a4.5 4.5 0 0 1 1.315-.785q.785-.3 1.824-.3 1.662 0 2.908.808a5.4 5.4 0 0 1 1.962 2.192q.716 1.362.716 3.117 0 1.753-.716 3.139a5.45 5.45 0 0 1-1.985 2.146q-1.246.785-2.908.785-1.362 0-2.401-.53a4.24 4.24 0 0 1-1.639-1.524v6.855zm5.978-6.808q1.062 0 1.87-.508a3.44 3.44 0 0 0 1.293-1.431q.484-.923.484-2.146 0-1.224-.484-2.124a3.44 3.44 0 0 0-1.293-1.431q-.808-.531-1.87-.531-1.084 0-1.915.53-.808.509-1.27 1.432-.462.9-.461 2.124 0 1.222.461 2.146.462.924 1.27 1.431.83.508 1.915.508"/><path fill="url(#aW)" d="M426.729 92.163V75.544h2.309v16.62z"/><path fill="url(#aX)" d="M417.737 92.44q-1.43 0-2.377-.485t-1.408-1.292a3.6 3.6 0 0 1-.462-1.778q0-1.154.6-1.962.6-.83 1.708-1.269t2.655-.438h3.023q0-1.017-.3-1.685a2.03 2.03 0 0 0-.9-.993q-.577-.346-1.477-.346-1.038 0-1.777.508-.739.484-.924 1.454h-2.308q.14-1.224.831-2.078a4.6 4.6 0 0 1 1.824-1.338 5.8 5.8 0 0 1 2.354-.485q1.639 0 2.747.577t1.662 1.639q.576 1.038.577 2.493v7.201h-2.008l-.185-1.962q-.254.462-.6.877a3.4 3.4 0 0 1-.831.716q-.462.3-1.085.461a4.5 4.5 0 0 1-1.339.185m.439-1.87q.738 0 1.339-.3.6-.3 1.015-.807.438-.531.646-1.178.231-.67.254-1.361v-.07h-2.746q-.993 0-1.616.254-.6.232-.877.646t-.277.97q0 .577.254.992.277.393.784.624.509.23 1.224.23"/><path fill="url(#aY)" d="M405.803 92.44q-1.685 0-3.001-.762a5.7 5.7 0 0 1-2.077-2.146q-.739-1.362-.739-3.162 0-1.824.739-3.186a5.47 5.47 0 0 1 2.077-2.146q1.316-.785 3.001-.785 2.124 0 3.554 1.108 1.431 1.109 1.824 3h-2.401q-.23-1.015-1.061-1.57-.808-.552-1.939-.553-.924 0-1.708.485-.785.46-1.27 1.385-.46.9-.461 2.239 0 .992.277 1.777.276.761.738 1.292.485.531 1.108.808.623.254 1.316.254.762 0 1.362-.23a2.7 2.7 0 0 0 1.038-.74q.44-.483.6-1.153h2.401q-.393 1.845-1.824 2.977-1.43 1.108-3.554 1.108"/><path fill="url(#aZ)" d="M394.816 92.163V80.53h2.308v11.633zm1.177-13.825q-.669 0-1.108-.416-.415-.415-.415-1.062 0-.623.415-1.015.44-.416 1.108-.416.647 0 1.085.416.438.392.438 1.015 0 .647-.438 1.062t-1.085.416"/><path fill="url(#ba)" d="M390.102 92.163q-1.108 0-1.916-.346a2.52 2.52 0 0 1-1.246-1.154q-.44-.808-.439-2.193v-5.978h-2.008V80.53h2.008l.277-2.908h2.031v2.908h3.301v1.962h-3.301v6.001q0 .993.416 1.362.416.346 1.431.346h1.339v1.962z"/><path fill="url(#bb)" d="M379.692 92.163V80.53H382v11.633zm1.177-13.825q-.669 0-1.108-.416-.415-.415-.415-1.062 0-.623.415-1.015.44-.416 1.108-.416.647 0 1.085.416.438.392.438 1.015 0 .647-.438 1.062t-1.085.416"/><path fill="url(#bc)" d="M370.718 92.163V80.53h2.077l.208 2.193q.392-.785 1.015-1.316.624-.554 1.455-.854.853-.3 1.938-.3V82.7h-.831q-.715 0-1.361.184-.647.162-1.154.577-.485.416-.762 1.131t-.277 1.778v5.793z"/><path fill="url(#bd)" d="M361.215 92.44q-2.376 0-4.108-1.039-1.709-1.061-2.654-2.931-.924-1.893-.924-4.385 0-2.47.924-4.363.945-1.893 2.654-2.931 1.732-1.062 4.108-1.062 2.84 0 4.594 1.362 1.777 1.362 2.262 3.831h-2.539q-.347-1.43-1.431-2.285-1.062-.854-2.886-.854-1.638 0-2.839.762-1.2.762-1.846 2.17t-.646 3.37.646 3.393q.646 1.407 1.846 2.17 1.201.738 2.839.738 1.824 0 2.886-.808 1.085-.83 1.431-2.239h2.539q-.485 2.4-2.262 3.762-1.755 1.34-4.594 1.339"/><path fill="#53DB78" fill-opacity=".1" d="M267.331 426.256c0-7.17 5.813-12.983 12.983-12.983h37.508c7.17 0 12.983 5.813 12.983 12.983v37.508c0 7.17-5.813 12.983-12.983 12.983h-37.508c-7.17 0-12.983-5.813-12.983-12.983z"/><path fill="#53DB78" d="M317.822 475.305v1.442h-37.508v-1.442zm11.541-11.541v-37.508c0-6.373-5.167-11.54-11.541-11.54h-37.508c-6.373 0-11.54 5.167-11.54 11.54v37.508c0 6.374 5.167 11.541 11.54 11.541v1.442l-.667-.017c-6.861-.347-12.316-6.02-12.316-12.966v-37.508c0-6.946 5.455-12.619 12.316-12.966l.667-.017h37.508c7.17 0 12.983 5.813 12.983 12.983v37.508c0 7.17-5.813 12.983-12.983 12.983v-1.442c6.374 0 11.541-5.167 11.541-11.541"/><path fill="#53DB78" d="M307.724 443.568c0-5.577-4.521-10.098-10.098-10.098s-10.098 4.521-10.098 10.098 4.521 10.098 10.098 10.098 10.098-4.521 10.098-10.098m2.885 0c0 7.17-5.813 12.983-12.983 12.983s-12.983-5.813-12.983-12.983 5.812-12.984 12.983-12.984c7.17 0 12.983 5.813 12.983 12.984"/><path fill="#53DB78" d="M304.757 450.698a1.443 1.443 0 0 1 2.04 0l6.275 6.275a1.441 1.441 0 1 1-2.04 2.04l-6.275-6.275a1.443 1.443 0 0 1 0-2.04"/><path fill="#53DB78" fill-opacity=".1" d="M267.331 83.507c0-7.17 5.813-12.983 12.983-12.983h37.508c7.17 0 12.983 5.813 12.983 12.983v37.508c0 7.17-5.813 12.983-12.983 12.983h-37.508c-7.17 0-12.983-5.813-12.983-12.983z"/><path fill="#53DB78" d="M317.822 132.556v1.442h-37.508v-1.442zm11.541-11.541V83.507c0-6.374-5.167-11.54-11.541-11.54h-37.508c-6.373 0-11.54 5.166-11.54 11.54v37.508c0 6.374 5.167 11.541 11.54 11.541v1.442l-.667-.017c-6.861-.347-12.316-6.02-12.316-12.966V83.507c0-6.946 5.455-12.619 12.316-12.966l.667-.017h37.508c7.17 0 12.983 5.813 12.983 12.983v37.508c0 7.17-5.813 12.983-12.983 12.983v-1.442c6.374 0 11.541-5.167 11.541-11.541"/><path fill="#53DB78" d="M299.715 86.393a4.33 4.33 0 0 1 3.548 1.85l.152.234 12.224 20.405.011.019a4.322 4.322 0 0 1 .011 4.308 4.33 4.33 0 0 1-3.712 2.184H287.48a4.327 4.327 0 0 1-3.688-6.511l12.223-20.405a4.32 4.32 0 0 1 3.7-2.084m0 2.885a1.44 1.44 0 0 0-1.234.695l-12.203 20.371a1.45 1.45 0 0 0-.193.717c0 .252.065.5.189.718a1.45 1.45 0 0 0 1.239.729h24.405a1.442 1.442 0 0 0 1.233-2.164l-12.203-20.371-.106-.152a1.44 1.44 0 0 0-1.127-.543"/><path fill="#53DB78" d="M298.271 102.409v-5.77a1.443 1.443 0 0 1 2.886 0v5.77a1.443 1.443 0 1 1-2.886 0M299.728 106.737a1.443 1.443 0 1 1 0 2.885h-.014a1.443 1.443 0 1 1 0-2.885z"/><path fill="#53DB78" fill-opacity=".1" d="M173.562 254.882c0-7.17 5.813-12.983 12.984-12.983h37.507c7.171 0 12.984 5.813 12.984 12.983v37.508c0 7.17-5.813 12.983-12.984 12.983h-37.507c-7.171 0-12.984-5.813-12.984-12.983z"/><path fill="#53DB78" d="M224.053 303.931v1.442h-37.507v-1.442zm11.541-11.541v-37.508c0-6.373-5.167-11.54-11.541-11.54h-37.507c-6.374 0-11.541 5.167-11.541 11.54v37.508c0 6.374 5.167 11.541 11.541 11.541v1.442l-.668-.017c-6.86-.347-12.316-6.02-12.316-12.966v-37.508c0-6.946 5.456-12.619 12.316-12.966l.668-.017h37.507c7.171 0 12.984 5.813 12.984 12.983v37.508c0 7.17-5.813 12.983-12.984 12.983v-1.442c6.374 0 11.541-5.167 11.541-11.541"/><path fill="#53DB78" d="M205.945 290.794a1.44 1.44 0 0 1-1.29 0l.645-1.29zm9.453-24.814-10.098-3.787-10.098 3.787v9.098c0 3.684 2.478 6.924 5.277 9.373a30 30 0 0 0 4.821 3.409 29.9 29.9 0 0 0 4.821-3.409c2.798-2.449 5.277-5.689 5.277-9.373zm2.885 9.098c0 4.972-3.292 8.945-6.263 11.545a33 33 0 0 1-5.526 3.878q-.252.14-.394.213l-.11.058-.039.02-.005.001v.001l-.646-1.29c-.645 1.29-.646 1.291-.647 1.29v-.001l-.004-.001-.04-.02-.109-.058q-.142-.073-.395-.213a32.679 32.679 0 0 1-5.525-3.878c-2.972-2.6-6.264-6.573-6.264-11.545V264.98c0-.601.373-1.14.936-1.351l11.541-4.328.124-.039c.292-.081.604-.068.89.039l11.541 4.328c.562.211.935.75.935 1.351z"/><path fill="url(#be)" d="M112.038 546h-4V0h4z"/><g filter="url(#bf)"><path fill="#000D01" d="M118.038 103a8 8 0 1 1-16 0 8 8 0 0 1 16 0"/></g><g filter="url(#bg)"><path fill="#53DB78" fill-opacity=".7" d="M115.038 103a5 5 0 1 0-5 5v3a8 8 0 1 1 0-16 8 8 0 0 1 0 16v-3a5 5 0 0 0 5-5"/></g><path fill="#000D01" d="M117.038 103a7 7 0 1 1-14 0 7 7 0 0 1 14 0"/><path fill="#53DB78" fill-opacity=".7" d="M115.038 103a5 5 0 1 0-5 5v2a7 7 0 1 1 0-14 7 7 0 0 1 0 14v-2a5 5 0 0 0 5-5"/><g filter="url(#bh)"><path fill="#53DB78" d="M118.038 274a8 8 0 1 1-16 0 8 8 0 0 1 16 0"/></g><g filter="url(#bi)"><path fill="#53DB78" d="M115.038 274a5 5 0 1 0-5 5v3a8 8 0 1 1 0-16 8 8 0 0 1 0 16v-3a5 5 0 0 0 5-5"/></g><path fill="#53DB78" d="M117.038 274a7 7 0 1 1-14 0 7 7 0 0 1 14 0"/><path fill="#53DB78" d="M115.038 274a5 5 0 1 0-5 5v2a7 7 0 1 1 0-14 7 7 0 0 1 0 14v-2a5 5 0 0 0 5-5"/><g filter="url(#bj)"><path fill="#000D01" d="M118.038 445a8 8 0 1 1-16 0 8 8 0 0 1 16 0"/></g><g filter="url(#bk)"><path fill="#53DB78" fill-opacity=".7" d="M115.038 445a5 5 0 1 0-5 5v3a8 8 0 1 1 0-16 8 8 0 0 1 0 16v-3a5 5 0 0 0 5-5"/></g><path fill="#000D01" d="M117.038 445a7 7 0 1 1-14 0 7 7 0 0 1 14 0"/><path fill="#53DB78" fill-opacity=".7" d="M115.038 445a5 5 0 1 0-5 5v2a7 7 0 1 1 0-14 7 7 0 0 1 0 14v-2a5 5 0 0 0 5-5"/><path fill="#53DB78" d="M70.517 295.738v-15.313h3.675l4.615 9.428 4.55-9.428h3.654v15.313h-3.063v-10.129l-3.96 7.985h-2.427l-3.982-7.985v10.129zM53.915 295.738l5.578-15.313h3.478l5.579 15.313h-3.238l-4.09-11.835-4.113 11.835zm2.45-3.435.81-2.384h7.875l.787 2.384zM38.984 295.738l5.557-12.688h-7.307v-2.625h10.457v2.144l-5.556 13.169zM31.939 295.738v-11.791l-2.735.722v-2.45l4.047-1.794h1.838v15.313zM25.663 295.847q-.832 0-1.357-.503a1.7 1.7 0 0 1-.525-1.247q0-.744.525-1.247t1.357-.503 1.356.503.525 1.247q0 .722-.525 1.247-.525.503-1.356.503m0-7.919q-.832 0-1.357-.503a1.7 1.7 0 0 1-.525-1.247q0-.744.525-1.247t1.357-.503 1.356.503.525 1.247q0 .722-.525 1.247-.525.503-1.356.503M15.119 296q-2.1 0-3.61-1.006t-2.319-2.778q-.81-1.794-.81-4.135t.81-4.113q.81-1.793 2.32-2.8 1.508-1.005 3.608-1.006 2.1 0 3.588 1.006 1.51 1.007 2.319 2.8.81 1.773.81 4.113t-.81 4.135q-.81 1.772-2.319 2.778Q17.22 296 15.118 296m0-2.756q1.071 0 1.88-.635.81-.634 1.27-1.772.459-1.159.459-2.756t-.46-2.734q-.46-1.16-1.268-1.794a2.96 2.96 0 0 0-1.882-.635q-1.071 0-1.88.635-.81.635-1.27 1.794-.459 1.137-.459 2.734t.46 2.756q.46 1.138 1.268 1.772.81.635 1.881.635M2.734 295.738v-11.791L0 284.669v-2.45l4.047-1.794h1.838v15.313z"/><path fill="#ABFFCE" d="M83.375 272.179V260.74h-3.832v-1.518h9.533v1.518h-3.85v11.439zM69.42 272.179v-12.957h4.424q1.555 0 2.554.518 1 .518 1.481 1.388.48.87.481 1.981 0 1.055-.481 1.943-.463.87-1.462 1.407-1 .518-2.573.518H71.27v5.202zm1.85-6.738h2.5q1.463 0 2.073-.629.63-.648.63-1.703 0-1.13-.63-1.74-.61-.61-2.073-.611h-2.5zM58.846 272.179v-12.957h8.181v1.518h-6.33v4.146h5.775v1.481h-5.775v4.294h6.33v1.518zM52.221 272.401q-1.425 0-2.499-.499-1.073-.519-1.666-1.444-.592-.925-.592-2.166h1.943q.02.704.334 1.296.332.574.944.925.63.333 1.536.333.777 0 1.333-.259.573-.259.87-.703.296-.463.296-1.055 0-.685-.315-1.129a2.33 2.33 0 0 0-.851-.722 6.2 6.2 0 0 0-1.222-.518q-.685-.223-1.444-.482-1.537-.5-2.295-1.295-.74-.796-.74-2.074 0-1.092.518-1.888a3.4 3.4 0 0 1 1.444-1.258q.944-.463 2.22-.463 1.26 0 2.204.463.944.462 1.48 1.277.537.814.537 1.906h-1.962q0-.5-.26-.981a1.96 1.96 0 0 0-.776-.777q-.519-.315-1.278-.315a2.6 2.6 0 0 0-1.129.204 1.75 1.75 0 0 0-.777.648q-.278.426-.278 1.018t.24.962q.26.352.741.611.482.26 1.11.481.65.204 1.426.463.963.315 1.703.778.758.444 1.185 1.166.444.703.444 1.814 0 .962-.5 1.795-.5.834-1.48 1.37-.983.518-2.444.518M32.305 272.179v-1.333a52 52 0 0 0 2.462-2.017 25 25 0 0 0 2.073-2.018q.925-1.018 1.443-1.98.519-.981.519-1.87 0-.629-.222-1.166a1.94 1.94 0 0 0-.704-.87q-.48-.351-1.314-.352-.796 0-1.333.352-.517.352-.796.944a3.1 3.1 0 0 0-.259 1.277H32.38q.018-1.332.574-2.258t1.499-1.407q.962-.481 2.147-.481 1.24 0 2.147.463a3.2 3.2 0 0 1 1.407 1.314q.5.852.5 2.092a4.8 4.8 0 0 1-.352 1.777 7.9 7.9 0 0 1-.962 1.702q-.593.834-1.333 1.611-.74.759-1.537 1.444-.777.685-1.499 1.24h6.09v1.536zM27.97 272.179v-10.866l-2.26.574v-1.388l2.944-1.277h1.203v12.957z"/><g filter="url(#bl)"><path fill="url(#bm)" d="M413.409 214v5h-234v-5z"/></g><g filter="url(#bn)"><path fill="url(#bo)" d="M341.409 214v5h-91v-5z"/></g><defs><linearGradient id="a" x1="212.512" x2="681.356" y1="226.03" y2="350.093" gradientUnits="userSpaceOnUse"><stop stop-color="#53DB78"/><stop offset=".997" stop-color="#2C7540" stop-opacity="0"/></linearGradient><linearGradient id="b" x1="149.038" x2="682.799" y1="274" y2="274" gradientUnits="userSpaceOnUse"><stop stop-color="#53DB78"/><stop offset="1" stop-color="#2C7540" stop-opacity=".35"/></linearGradient><linearGradient id="d" x1="212.512" x2="681.356" y1="226.03" y2="350.093" gradientUnits="userSpaceOnUse"><stop stop-color="#53DB78"/><stop offset=".997" stop-color="#2C7540" stop-opacity="0"/></linearGradient><linearGradient id="e" x1="149.038" x2="682.799" y1="274" y2="274" gradientUnits="userSpaceOnUse"><stop stop-color="#53DB78"/><stop offset="1" stop-color="#2C7540" stop-opacity=".35"/></linearGradient><linearGradient id="f" x1="306.281" x2="775.125" y1="397.405" y2="521.468" gradientUnits="userSpaceOnUse"><stop stop-color="#53DB78"/><stop offset=".997" stop-color="#2C7540" stop-opacity="0"/></linearGradient><linearGradient id="g" x1="242.807" x2="776.567" y1="445.375" y2="445.375" gradientUnits="userSpaceOnUse"><stop stop-color="#53DB78"/><stop offset="1" stop-color="#2C7540" stop-opacity=".35"/></linearGradient><linearGradient id="h" x1="352.444" x2="728.962" y1="463.043" y2="463.043" gradientUnits="userSpaceOnUse"><stop stop-color="#53DB78"/><stop offset="1" stop-color="#2C7540" stop-opacity=".3"/></linearGradient><linearGradient id="i" x1="352.445" x2="728.963" y1="463.043" y2="463.043" gradientUnits="userSpaceOnUse"><stop stop-color="#53DB78"/><stop offset="1" stop-color="#2C7540" stop-opacity=".3"/></linearGradient><linearGradient id="j" x1="352.445" x2="728.962" y1="463.042" y2="463.042" gradientUnits="userSpaceOnUse"><stop stop-color="#53DB78"/><stop offset="1" stop-color="#2C7540" stop-opacity=".3"/></linearGradient><linearGradient id="k" x1="352.446" x2="728.963" y1="463.043" y2="463.043" gradientUnits="userSpaceOnUse"><stop stop-color="#53DB78"/><stop offset="1" stop-color="#2C7540" stop-opacity=".3"/></linearGradient><linearGradient id="l" x1="352.445" x2="728.962" y1="463.042" y2="463.042" gradientUnits="userSpaceOnUse"><stop stop-color="#53DB78"/><stop offset="1" stop-color="#2C7540" stop-opacity=".3"/></linearGradient><linearGradient id="m" x1="352.445" x2="728.963" y1="463.042" y2="463.042" gradientUnits="userSpaceOnUse"><stop stop-color="#53DB78"/><stop offset="1" stop-color="#2C7540" stop-opacity=".3"/></linearGradient><linearGradient id="n" x1="352.445" x2="728.963" y1="463.043" y2="463.043" gradientUnits="userSpaceOnUse"><stop stop-color="#53DB78"/><stop offset="1" stop-color="#2C7540" stop-opacity=".3"/></linearGradient><linearGradient id="o" x1="352.445" x2="728.963" y1="463.042" y2="463.042" gradientUnits="userSpaceOnUse"><stop stop-color="#53DB78"/><stop offset="1" stop-color="#2C7540" stop-opacity=".3"/></linearGradient><linearGradient id="p" x1="352.444" x2="728.961" y1="463.043" y2="463.043" gradientUnits="userSpaceOnUse"><stop stop-color="#53DB78"/><stop offset="1" stop-color="#2C7540" stop-opacity=".3"/></linearGradient><linearGradient id="q" x1="352.446" x2="728.964" y1="463.043" y2="463.043" gradientUnits="userSpaceOnUse"><stop stop-color="#53DB78"/><stop offset="1" stop-color="#2C7540" stop-opacity=".3"/></linearGradient><linearGradient id="r" x1="352.444" x2="728.962" y1="463.042" y2="463.042" gradientUnits="userSpaceOnUse"><stop stop-color="#53DB78"/><stop offset="1" stop-color="#2C7540" stop-opacity=".3"/></linearGradient><linearGradient id="s" x1="352.445" x2="728.963" y1="463.043" y2="463.043" gradientUnits="userSpaceOnUse"><stop stop-color="#53DB78"/><stop offset="1" stop-color="#2C7540" stop-opacity=".3"/></linearGradient><linearGradient id="t" x1="352.445" x2="728.963" y1="463.042" y2="463.042" gradientUnits="userSpaceOnUse"><stop stop-color="#53DB78"/><stop offset="1" stop-color="#2C7540" stop-opacity=".3"/></linearGradient><linearGradient id="u" x1="352.444" x2="728.962" y1="463.043" y2="463.043" gradientUnits="userSpaceOnUse"><stop stop-color="#53DB78"/><stop offset="1" stop-color="#2C7540" stop-opacity=".3"/></linearGradient><linearGradient id="v" x1="352.445" x2="728.963" y1="463.042" y2="463.042" gradientUnits="userSpaceOnUse"><stop stop-color="#53DB78"/><stop offset="1" stop-color="#2C7540" stop-opacity=".3"/></linearGradient><linearGradient id="w" x1="352.445" x2="728.963" y1="463.043" y2="463.043" gradientUnits="userSpaceOnUse"><stop stop-color="#53DB78"/><stop offset="1" stop-color="#2C7540" stop-opacity=".3"/></linearGradient><linearGradient id="x" x1="352.445" x2="728.963" y1="463.043" y2="463.043" gradientUnits="userSpaceOnUse"><stop stop-color="#53DB78"/><stop offset="1" stop-color="#2C7540" stop-opacity=".3"/></linearGradient><linearGradient id="y" x1="352.444" x2="728.962" y1="463.043" y2="463.043" gradientUnits="userSpaceOnUse"><stop stop-color="#53DB78"/><stop offset="1" stop-color="#2C7540" stop-opacity=".3"/></linearGradient><linearGradient id="z" x1="352.445" x2="728.962" y1="463.042" y2="463.042" gradientUnits="userSpaceOnUse"><stop stop-color="#53DB78"/><stop offset="1" stop-color="#2C7540" stop-opacity=".3"/></linearGradient><linearGradient id="A" x1="352.446" x2="728.963" y1="463.042" y2="463.042" gradientUnits="userSpaceOnUse"><stop stop-color="#53DB78"/><stop offset="1" stop-color="#2C7540" stop-opacity=".3"/></linearGradient><linearGradient id="B" x1="352.444" x2="728.962" y1="463.043" y2="463.043" gradientUnits="userSpaceOnUse"><stop stop-color="#53DB78"/><stop offset="1" stop-color="#2C7540" stop-opacity=".3"/></linearGradient><linearGradient id="C" x1="352.443" x2="728.961" y1="463.043" y2="463.043" gradientUnits="userSpaceOnUse"><stop stop-color="#53DB78"/><stop offset="1" stop-color="#2C7540" stop-opacity=".3"/></linearGradient><linearGradient id="D" x1="352.444" x2="728.962" y1="463.043" y2="463.043" gradientUnits="userSpaceOnUse"><stop stop-color="#53DB78"/><stop offset="1" stop-color="#2C7540" stop-opacity=".3"/></linearGradient><linearGradient id="E" x1="352.445" x2="728.963" y1="463.042" y2="463.042" gradientUnits="userSpaceOnUse"><stop stop-color="#53DB78"/><stop offset="1" stop-color="#2C7540" stop-opacity=".3"/></linearGradient><linearGradient id="F" x1="352.445" x2="728.962" y1="463.043" y2="463.043" gradientUnits="userSpaceOnUse"><stop stop-color="#53DB78"/><stop offset="1" stop-color="#2C7540" stop-opacity=".3"/></linearGradient><linearGradient id="G" x1="352.446" x2="728.963" y1="463.043" y2="463.043" gradientUnits="userSpaceOnUse"><stop stop-color="#53DB78"/><stop offset="1" stop-color="#2C7540" stop-opacity=".3"/></linearGradient><linearGradient id="H" x1="352.445" x2="728.963" y1="463.043" y2="463.043" gradientUnits="userSpaceOnUse"><stop stop-color="#53DB78"/><stop offset="1" stop-color="#2C7540" stop-opacity=".3"/></linearGradient><linearGradient id="I" x1="352.446" x2="728.964" y1="463.043" y2="463.043" gradientUnits="userSpaceOnUse"><stop stop-color="#53DB78"/><stop offset="1" stop-color="#2C7540" stop-opacity=".3"/></linearGradient><linearGradient id="J" x1="352.445" x2="661.161" y1="426.978" y2="426.978" gradientUnits="userSpaceOnUse"><stop stop-color="#ABFFCE"/><stop offset="1" stop-color="#66997B"/></linearGradient><linearGradient id="K" x1="352.445" x2="661.16" y1="426.978" y2="426.978" gradientUnits="userSpaceOnUse"><stop stop-color="#ABFFCE"/><stop offset="1" stop-color="#66997B"/></linearGradient><linearGradient id="L" x1="352.445" x2="661.16" y1="426.978" y2="426.978" gradientUnits="userSpaceOnUse"><stop stop-color="#ABFFCE"/><stop offset="1" stop-color="#66997B"/></linearGradient><linearGradient id="M" x1="352.444" x2="661.16" y1="426.978" y2="426.978" gradientUnits="userSpaceOnUse"><stop stop-color="#ABFFCE"/><stop offset="1" stop-color="#66997B"/></linearGradient><linearGradient id="N" x1="352.445" x2="661.16" y1="426.978" y2="426.978" gradientUnits="userSpaceOnUse"><stop stop-color="#ABFFCE"/><stop offset="1" stop-color="#66997B"/></linearGradient><linearGradient id="O" x1="352.444" x2="661.16" y1="426.978" y2="426.978" gradientUnits="userSpaceOnUse"><stop stop-color="#ABFFCE"/><stop offset="1" stop-color="#66997B"/></linearGradient><linearGradient id="P" x1="352.445" x2="661.161" y1="426.978" y2="426.978" gradientUnits="userSpaceOnUse"><stop stop-color="#ABFFCE"/><stop offset="1" stop-color="#66997B"/></linearGradient><linearGradient id="Q" x1="352.445" x2="661.16" y1="426.978" y2="426.978" gradientUnits="userSpaceOnUse"><stop stop-color="#ABFFCE"/><stop offset="1" stop-color="#66997B"/></linearGradient><linearGradient id="R" x1="352.446" x2="661.161" y1="426.978" y2="426.978" gradientUnits="userSpaceOnUse"><stop stop-color="#ABFFCE"/><stop offset="1" stop-color="#66997B"/></linearGradient><linearGradient id="S" x1="352.446" x2="661.161" y1="426.978" y2="426.978" gradientUnits="userSpaceOnUse"><stop stop-color="#ABFFCE"/><stop offset="1" stop-color="#66997B"/></linearGradient><linearGradient id="T" x1="352.444" x2="661.159" y1="426.978" y2="426.978" gradientUnits="userSpaceOnUse"><stop stop-color="#ABFFCE"/><stop offset="1" stop-color="#66997B"/></linearGradient><linearGradient id="U" x1="352.446" x2="661.161" y1="426.978" y2="426.978" gradientUnits="userSpaceOnUse"><stop stop-color="#ABFFCE"/><stop offset="1" stop-color="#66997B"/></linearGradient><linearGradient id="V" x1="352.444" x2="661.159" y1="426.978" y2="426.978" gradientUnits="userSpaceOnUse"><stop stop-color="#ABFFCE"/><stop offset="1" stop-color="#66997B"/></linearGradient><linearGradient id="W" x1="352.445" x2="661.16" y1="426.978" y2="426.978" gradientUnits="userSpaceOnUse"><stop stop-color="#ABFFCE"/><stop offset="1" stop-color="#66997B"/></linearGradient><linearGradient id="X" x1="352.445" x2="661.16" y1="426.978" y2="426.978" gradientUnits="userSpaceOnUse"><stop stop-color="#ABFFCE"/><stop offset="1" stop-color="#66997B"/></linearGradient><linearGradient id="Y" x1="306.281" x2="775.125" y1="54.656" y2="178.719" gradientUnits="userSpaceOnUse"><stop stop-color="#53DB78"/><stop offset=".997" stop-color="#2C7540" stop-opacity="0"/></linearGradient><linearGradient id="Z" x1="242.807" x2="776.567" y1="102.626" y2="102.626" gradientUnits="userSpaceOnUse"><stop stop-color="#53DB78"/><stop offset="1" stop-color="#2C7540" stop-opacity=".35"/></linearGradient><linearGradient id="aa" x1="352.445" x2="757.814" y1="120.294" y2="120.294" gradientUnits="userSpaceOnUse"><stop stop-color="#53DB78"/><stop offset="1" stop-color="#2C7540" stop-opacity=".3"/></linearGradient><linearGradient id="ab" x1="352.446" x2="757.815" y1="120.294" y2="120.294" gradientUnits="userSpaceOnUse"><stop stop-color="#53DB78"/><stop offset="1" stop-color="#2C7540" stop-opacity=".3"/></linearGradient><linearGradient id="ac" x1="352.444" x2="757.814" y1="120.293" y2="120.293" gradientUnits="userSpaceOnUse"><stop stop-color="#53DB78"/><stop offset="1" stop-color="#2C7540" stop-opacity=".3"/></linearGradient><linearGradient id="ad" x1="352.445" x2="757.814" y1="120.294" y2="120.294" gradientUnits="userSpaceOnUse"><stop stop-color="#53DB78"/><stop offset="1" stop-color="#2C7540" stop-opacity=".3"/></linearGradient><linearGradient id="ae" x1="352.445" x2="757.815" y1="120.294" y2="120.294" gradientUnits="userSpaceOnUse"><stop stop-color="#53DB78"/><stop offset="1" stop-color="#2C7540" stop-opacity=".3"/></linearGradient><linearGradient id="af" x1="352.444" x2="757.814" y1="120.294" y2="120.294" gradientUnits="userSpaceOnUse"><stop stop-color="#53DB78"/><stop offset="1" stop-color="#2C7540" stop-opacity=".3"/></linearGradient><linearGradient id="ag" x1="352.444" x2="757.814" y1="120.294" y2="120.294" gradientUnits="userSpaceOnUse"><stop stop-color="#53DB78"/><stop offset="1" stop-color="#2C7540" stop-opacity=".3"/></linearGradient><linearGradient id="ah" x1="352.444" x2="757.814" y1="120.294" y2="120.294" gradientUnits="userSpaceOnUse"><stop stop-color="#53DB78"/><stop offset="1" stop-color="#2C7540" stop-opacity=".3"/></linearGradient><linearGradient id="ai" x1="352.444" x2="757.814" y1="120.294" y2="120.294" gradientUnits="userSpaceOnUse"><stop stop-color="#53DB78"/><stop offset="1" stop-color="#2C7540" stop-opacity=".3"/></linearGradient><linearGradient id="aj" x1="352.444" x2="757.814" y1="120.294" y2="120.294" gradientUnits="userSpaceOnUse"><stop stop-color="#53DB78"/><stop offset="1" stop-color="#2C7540" stop-opacity=".3"/></linearGradient><linearGradient id="ak" x1="352.444" x2="757.814" y1="120.294" y2="120.294" gradientUnits="userSpaceOnUse"><stop stop-color="#53DB78"/><stop offset="1" stop-color="#2C7540" stop-opacity=".3"/></linearGradient><linearGradient id="al" x1="352.446" x2="757.815" y1="120.294" y2="120.294" gradientUnits="userSpaceOnUse"><stop stop-color="#53DB78"/><stop offset="1" stop-color="#2C7540" stop-opacity=".3"/></linearGradient><linearGradient id="am" x1="352.445" x2="757.815" y1="120.294" y2="120.294" gradientUnits="userSpaceOnUse"><stop stop-color="#53DB78"/><stop offset="1" stop-color="#2C7540" stop-opacity=".3"/></linearGradient><linearGradient id="an" x1="352.445" x2="757.814" y1="120.294" y2="120.294" gradientUnits="userSpaceOnUse"><stop stop-color="#53DB78"/><stop offset="1" stop-color="#2C7540" stop-opacity=".3"/></linearGradient><linearGradient id="ao" x1="352.445" x2="757.814" y1="120.294" y2="120.294" gradientUnits="userSpaceOnUse"><stop stop-color="#53DB78"/><stop offset="1" stop-color="#2C7540" stop-opacity=".3"/></linearGradient><linearGradient id="ap" x1="352.445" x2="757.814" y1="120.294" y2="120.294" gradientUnits="userSpaceOnUse"><stop stop-color="#53DB78"/><stop offset="1" stop-color="#2C7540" stop-opacity=".3"/></linearGradient><linearGradient id="aq" x1="352.446" x2="757.815" y1="120.294" y2="120.294" gradientUnits="userSpaceOnUse"><stop stop-color="#53DB78"/><stop offset="1" stop-color="#2C7540" stop-opacity=".3"/></linearGradient><linearGradient id="ar" x1="352.446" x2="757.815" y1="120.294" y2="120.294" gradientUnits="userSpaceOnUse"><stop stop-color="#53DB78"/><stop offset="1" stop-color="#2C7540" stop-opacity=".3"/></linearGradient><linearGradient id="as" x1="352.445" x2="757.814" y1="120.293" y2="120.293" gradientUnits="userSpaceOnUse"><stop stop-color="#53DB78"/><stop offset="1" stop-color="#2C7540" stop-opacity=".3"/></linearGradient><linearGradient id="at" x1="352.445" x2="757.815" y1="120.294" y2="120.294" gradientUnits="userSpaceOnUse"><stop stop-color="#53DB78"/><stop offset="1" stop-color="#2C7540" stop-opacity=".3"/></linearGradient><linearGradient id="au" x1="352.444" x2="757.814" y1="120.294" y2="120.294" gradientUnits="userSpaceOnUse"><stop stop-color="#53DB78"/><stop offset="1" stop-color="#2C7540" stop-opacity=".3"/></linearGradient><linearGradient id="av" x1="352.446" x2="757.815" y1="120.294" y2="120.294" gradientUnits="userSpaceOnUse"><stop stop-color="#53DB78"/><stop offset="1" stop-color="#2C7540" stop-opacity=".3"/></linearGradient><linearGradient id="aw" x1="352.445" x2="757.815" y1="120.294" y2="120.294" gradientUnits="userSpaceOnUse"><stop stop-color="#53DB78"/><stop offset="1" stop-color="#2C7540" stop-opacity=".3"/></linearGradient><linearGradient id="ax" x1="352.445" x2="757.815" y1="120.293" y2="120.293" gradientUnits="userSpaceOnUse"><stop stop-color="#53DB78"/><stop offset="1" stop-color="#2C7540" stop-opacity=".3"/></linearGradient><linearGradient id="ay" x1="352.444" x2="757.814" y1="120.294" y2="120.294" gradientUnits="userSpaceOnUse"><stop stop-color="#53DB78"/><stop offset="1" stop-color="#2C7540" stop-opacity=".3"/></linearGradient><linearGradient id="az" x1="352.444" x2="757.813" y1="120.294" y2="120.294" gradientUnits="userSpaceOnUse"><stop stop-color="#53DB78"/><stop offset="1" stop-color="#2C7540" stop-opacity=".3"/></linearGradient><linearGradient id="aA" x1="352.444" x2="757.814" y1="120.294" y2="120.294" gradientUnits="userSpaceOnUse"><stop stop-color="#53DB78"/><stop offset="1" stop-color="#2C7540" stop-opacity=".3"/></linearGradient><linearGradient id="aB" x1="352.445" x2="757.815" y1="120.294" y2="120.294" gradientUnits="userSpaceOnUse"><stop stop-color="#53DB78"/><stop offset="1" stop-color="#2C7540" stop-opacity=".3"/></linearGradient><linearGradient id="aC" x1="352.444" x2="757.814" y1="120.294" y2="120.294" gradientUnits="userSpaceOnUse"><stop stop-color="#53DB78"/><stop offset="1" stop-color="#2C7540" stop-opacity=".3"/></linearGradient><linearGradient id="aD" x1="352.444" x2="757.814" y1="120.293" y2="120.293" gradientUnits="userSpaceOnUse"><stop stop-color="#53DB78"/><stop offset="1" stop-color="#2C7540" stop-opacity=".3"/></linearGradient><linearGradient id="aE" x1="352.445" x2="757.815" y1="120.294" y2="120.294" gradientUnits="userSpaceOnUse"><stop stop-color="#53DB78"/><stop offset="1" stop-color="#2C7540" stop-opacity=".3"/></linearGradient><linearGradient id="aF" x1="352.445" x2="757.814" y1="120.293" y2="120.293" gradientUnits="userSpaceOnUse"><stop stop-color="#53DB78"/><stop offset="1" stop-color="#2C7540" stop-opacity=".3"/></linearGradient><linearGradient id="aG" x1="352.446" x2="757.815" y1="120.294" y2="120.294" gradientUnits="userSpaceOnUse"><stop stop-color="#53DB78"/><stop offset="1" stop-color="#2C7540" stop-opacity=".3"/></linearGradient><linearGradient id="aH" x1="352.444" x2="757.814" y1="120.294" y2="120.294" gradientUnits="userSpaceOnUse"><stop stop-color="#53DB78"/><stop offset="1" stop-color="#2C7540" stop-opacity=".3"/></linearGradient><linearGradient id="aI" x1="352.445" x2="661.161" y1="84.229" y2="84.229" gradientUnits="userSpaceOnUse"><stop stop-color="#ABFFCE"/><stop offset="1" stop-color="#66997B"/></linearGradient><linearGradient id="aJ" x1="352.444" x2="661.16" y1="84.229" y2="84.229" gradientUnits="userSpaceOnUse"><stop stop-color="#ABFFCE"/><stop offset="1" stop-color="#66997B"/></linearGradient><linearGradient id="aK" x1="352.444" x2="661.16" y1="84.229" y2="84.229" gradientUnits="userSpaceOnUse"><stop stop-color="#ABFFCE"/><stop offset="1" stop-color="#66997B"/></linearGradient><linearGradient id="aL" x1="352.445" x2="661.161" y1="84.229" y2="84.229" gradientUnits="userSpaceOnUse"><stop stop-color="#ABFFCE"/><stop offset="1" stop-color="#66997B"/></linearGradient><linearGradient id="aM" x1="352.445" x2="661.161" y1="84.229" y2="84.229" gradientUnits="userSpaceOnUse"><stop stop-color="#ABFFCE"/><stop offset="1" stop-color="#66997B"/></linearGradient><linearGradient id="aN" x1="352.444" x2="661.16" y1="84.229" y2="84.229" gradientUnits="userSpaceOnUse"><stop stop-color="#ABFFCE"/><stop offset="1" stop-color="#66997B"/></linearGradient><linearGradient id="aO" x1="352.445" x2="661.16" y1="84.229" y2="84.229" gradientUnits="userSpaceOnUse"><stop stop-color="#ABFFCE"/><stop offset="1" stop-color="#66997B"/></linearGradient><linearGradient id="aP" x1="352.444" x2="661.159" y1="84.229" y2="84.229" gradientUnits="userSpaceOnUse"><stop stop-color="#ABFFCE"/><stop offset="1" stop-color="#66997B"/></linearGradient><linearGradient id="aQ" x1="352.445" x2="661.161" y1="84.229" y2="84.229" gradientUnits="userSpaceOnUse"><stop stop-color="#ABFFCE"/><stop offset="1" stop-color="#66997B"/></linearGradient><linearGradient id="aR" x1="352.444" x2="661.16" y1="84.229" y2="84.229" gradientUnits="userSpaceOnUse"><stop stop-color="#ABFFCE"/><stop offset="1" stop-color="#66997B"/></linearGradient><linearGradient id="aS" x1="352.445" x2="661.16" y1="84.229" y2="84.229" gradientUnits="userSpaceOnUse"><stop stop-color="#ABFFCE"/><stop offset="1" stop-color="#66997B"/></linearGradient><linearGradient id="aT" x1="352.446" x2="661.161" y1="84.229" y2="84.229" gradientUnits="userSpaceOnUse"><stop stop-color="#ABFFCE"/><stop offset="1" stop-color="#66997B"/></linearGradient><linearGradient id="aU" x1="352.446" x2="661.161" y1="84.229" y2="84.229" gradientUnits="userSpaceOnUse"><stop stop-color="#ABFFCE"/><stop offset="1" stop-color="#66997B"/></linearGradient><linearGradient id="aV" x1="352.444" x2="661.16" y1="84.229" y2="84.229" gradientUnits="userSpaceOnUse"><stop stop-color="#ABFFCE"/><stop offset="1" stop-color="#66997B"/></linearGradient><linearGradient id="aW" x1="352.444" x2="661.16" y1="84.229" y2="84.229" gradientUnits="userSpaceOnUse"><stop stop-color="#ABFFCE"/><stop offset="1" stop-color="#66997B"/></linearGradient><linearGradient id="aX" x1="352.445" x2="661.161" y1="84.229" y2="84.229" gradientUnits="userSpaceOnUse"><stop stop-color="#ABFFCE"/><stop offset="1" stop-color="#66997B"/></linearGradient><linearGradient id="aY" x1="352.444" x2="661.16" y1="84.229" y2="84.229" gradientUnits="userSpaceOnUse"><stop stop-color="#ABFFCE"/><stop offset="1" stop-color="#66997B"/></linearGradient><linearGradient id="aZ" x1="352.444" x2="661.16" y1="84.229" y2="84.229" gradientUnits="userSpaceOnUse"><stop stop-color="#ABFFCE"/><stop offset="1" stop-color="#66997B"/></linearGradient><linearGradient id="ba" x1="352.445" x2="661.161" y1="84.229" y2="84.229" gradientUnits="userSpaceOnUse"><stop stop-color="#ABFFCE"/><stop offset="1" stop-color="#66997B"/></linearGradient><linearGradient id="bb" x1="352.445" x2="661.161" y1="84.229" y2="84.229" gradientUnits="userSpaceOnUse"><stop stop-color="#ABFFCE"/><stop offset="1" stop-color="#66997B"/></linearGradient><linearGradient id="bc" x1="352.446" x2="661.161" y1="84.229" y2="84.229" gradientUnits="userSpaceOnUse"><stop stop-color="#ABFFCE"/><stop offset="1" stop-color="#66997B"/></linearGradient><linearGradient id="bd" x1="352.444" x2="661.16" y1="84.229" y2="84.229" gradientUnits="userSpaceOnUse"><stop stop-color="#ABFFCE"/><stop offset="1" stop-color="#66997B"/></linearGradient><linearGradient id="be" x1="109.371" x2="109.371" y1="0" y2="546" gradientUnits="userSpaceOnUse"><stop stop-color="#53DB78" stop-opacity="0"/><stop offset=".457" stop-color="#53DB78"/><stop offset="1" stop-color="#53DB78" stop-opacity="0"/></linearGradient><linearGradient id="bm" x1="179.409" x2="413.409" y1="219.833" y2="219.833" gradientUnits="userSpaceOnUse"><stop stop-color="#53DB78" stop-opacity="0"/><stop offset=".5" stop-color="#53DB78"/><stop offset="1" stop-color="#53DB78" stop-opacity="0"/></linearGradient><linearGradient id="bo" x1="250.409" x2="341.409" y1="219.833" y2="219.833" gradientUnits="userSpaceOnUse"><stop stop-color="#53DB78" stop-opacity="0"/><stop offset=".5" stop-color="#53DB78"/><stop offset="1" stop-color="#53DB78" stop-opacity="0"/></linearGradient><filter id="c" width="543.761" height="123.251" x="144.038" y="212.374" color-interpolation-filters="sRGB" filterUnits="userSpaceOnUse"><feFlood flood-opacity="0" result="BackgroundImageFix"/><feBlend in="SourceGraphic" in2="BackgroundImageFix" result="shape"/><feGaussianBlur result="effect1_foregroundBlur_2249_1065" stdDeviation="2.5"/></filter><filter id="bf" width="24" height="24" x="98.038" y="91" color-interpolation-filters="sRGB" filterUnits="userSpaceOnUse"><feFlood flood-opacity="0" result="BackgroundImageFix"/><feBlend in="SourceGraphic" in2="BackgroundImageFix" result="shape"/><feGaussianBlur result="effect1_foregroundBlur_2249_1065" stdDeviation="2"/></filter><filter id="bg" width="24" height="24" x="98.038" y="91" color-interpolation-filters="sRGB" filterUnits="userSpaceOnUse"><feFlood flood-opacity="0" result="BackgroundImageFix"/><feBlend in="SourceGraphic" in2="BackgroundImageFix" result="shape"/><feGaussianBlur result="effect1_foregroundBlur_2249_1065" stdDeviation="2"/></filter><filter id="bh" width="24" height="24" x="98.038" y="262" color-interpolation-filters="sRGB" filterUnits="userSpaceOnUse"><feFlood flood-opacity="0" result="BackgroundImageFix"/><feBlend in="SourceGraphic" in2="BackgroundImageFix" result="shape"/><feGaussianBlur result="effect1_foregroundBlur_2249_1065" stdDeviation="2"/></filter><filter id="bi" width="24" height="24" x="98.038" y="262" color-interpolation-filters="sRGB" filterUnits="userSpaceOnUse"><feFlood flood-opacity="0" result="BackgroundImageFix"/><feBlend in="SourceGraphic" in2="BackgroundImageFix" result="shape"/><feGaussianBlur result="effect1_foregroundBlur_2249_1065" stdDeviation="2"/></filter><filter id="bj" width="24" height="24" x="98.038" y="433" color-interpolation-filters="sRGB" filterUnits="userSpaceOnUse"><feFlood flood-opacity="0" result="BackgroundImageFix"/><feBlend in="SourceGraphic" in2="BackgroundImageFix" result="shape"/><feGaussianBlur result="effect1_foregroundBlur_2249_1065" stdDeviation="2"/></filter><filter id="bk" width="24" height="24" x="98.038" y="433" color-interpolation-filters="sRGB" filterUnits="userSpaceOnUse"><feFlood flood-opacity="0" result="BackgroundImageFix"/><feBlend in="SourceGraphic" in2="BackgroundImageFix" result="shape"/><feGaussianBlur result="effect1_foregroundBlur_2249_1065" stdDeviation="2"/></filter><filter id="bl" width="242" height="13" x="175.409" y="210" color-interpolation-filters="sRGB" filterUnits="userSpaceOnUse"><feFlood flood-opacity="0" result="BackgroundImageFix"/><feBlend in="SourceGraphic" in2="BackgroundImageFix" result="shape"/><feGaussianBlur result="effect1_foregroundBlur_2249_1065" stdDeviation="2"/></filter><filter id="bn" width="99" height="13" x="246.409" y="210" color-interpolation-filters="sRGB" filterUnits="userSpaceOnUse"><feFlood flood-opacity="0" result="BackgroundImageFix"/><feBlend in="SourceGraphic" in2="BackgroundImageFix" result="shape"/><feGaussianBlur result="effect1_foregroundBlur_2249_1065" stdDeviation="2"/></filter></defs></svg>