<svg width="128" height="128" viewBox="0 0 128 128" fill="none" xmlns="http://www.w3.org/2000/svg">
<path d="M46.8135 74.3584L38.2609 75.1341L42.8297 82.8288L47.6048 75.6911L46.8135 74.3584ZM111.517 35.94L46.1471 74.754L46.9385 76.0868L112.309 37.2728L111.517 35.94Z" fill="#050505"/>
<rect x="8.775" y="8.77506" width="110.45" height="110.45" rx="55.225" stroke="#050505" stroke-width="1.55"/>
<path d="M33.0486 84.7121L25.9385 88.8608L25.1646 87.5062L31.1036 84.041L29.0559 80.4566L30.2271 79.7732L33.0486 84.7121Z" fill="#050505"/>
<path d="M26.8547 62.9839L18.6687 62.1144L19.3328 55.7288L20.6573 55.8695L20.1546 60.7034L22.1713 60.9177L22.6194 56.6089L23.9439 56.7496L23.4958 61.0583L25.6915 61.2916L26.2016 56.386L27.5262 56.5267L26.8547 62.9839Z" fill="#050505"/>
<path d="M33.801 41.9289L29.8438 33.9963L31.153 32.5269L39.3808 35.666L38.2553 36.9294L36.5204 36.243L34.0139 39.0564L34.8707 40.7283L33.801 41.9289ZM33.3649 37.8006L35.2089 35.7309L33.0073 34.847C32.9268 34.817 32.8262 34.7796 32.7055 34.7346C32.5843 34.6784 32.4544 34.6197 32.316 34.5586C32.1716 34.4921 32.0273 34.4257 31.8829 34.3592C31.7386 34.2928 31.6087 34.2341 31.4933 34.1832L31.4534 34.228C31.5398 34.3715 31.636 34.5401 31.742 34.7339C31.8532 34.9217 31.9556 35.1014 32.0491 35.273C32.1426 35.4446 32.2146 35.5804 32.2649 35.6802L33.3649 37.8006Z" fill="#050505"/>
<path d="M53.1628 28.0377L51.4685 19.982L55.7039 19.0722C56.2983 18.9445 56.8125 18.9404 57.2464 19.0599C57.6803 19.1795 58.0345 19.4061 58.3091 19.7399C58.5836 20.0737 58.7744 20.495 58.8815 21.0038C58.9918 21.5284 58.9724 22.0194 58.8234 22.4769C58.6727 22.9266 58.392 23.3019 57.9811 23.6029L60.3313 26.4978L58.6653 26.8557L56.5572 24.1788L54.0582 24.7156L54.688 27.7101L53.1628 28.0377ZM53.789 23.4356L56.3818 22.8786C56.7729 22.7946 57.0502 22.6164 57.2136 22.344C57.377 22.0716 57.4168 21.7358 57.3328 21.3365C57.2785 21.0782 57.1863 20.873 57.0562 20.7209C56.9244 20.561 56.7587 20.4534 56.5591 20.3981C56.3594 20.3428 56.1266 20.3437 55.8607 20.4008L53.2679 20.9578L53.789 23.4356Z" fill="#050505"/>
<path d="M76.0613 28.4479L79.3801 20.9146L80.737 21.5252L81.9841 27.4154C82.0012 27.4758 82.0175 27.5577 82.0331 27.6612C82.0519 27.7574 82.0671 27.8519 82.0786 27.9449C82.0902 28.0378 82.0935 28.1095 82.0888 28.16L82.1435 28.1846C82.1886 28.0821 82.2322 27.9832 82.2741 27.8881C82.316 27.7929 82.358 27.6977 82.3999 27.6025L84.3593 23.155L85.7272 23.7705L82.4084 31.3039L81.0623 30.6982L79.8189 24.7701C79.7992 24.656 79.7767 24.5186 79.7513 24.3581C79.7364 24.1935 79.7256 24.079 79.719 24.0146L79.6643 23.99C79.6224 24.0851 79.5788 24.184 79.5337 24.2865C79.4917 24.3816 79.4482 24.4805 79.4031 24.583L77.4292 29.0634L76.0613 28.4479Z" fill="#050505"/>
<path d="M101.209 63.9906L109.395 64.8601L109.14 67.3069L104.448 68.1117C104.284 68.1426 104.1 68.1713 103.896 68.1979C103.692 68.2245 103.497 68.248 103.31 68.2684C103.122 68.2967 102.959 68.3156 102.821 68.3251L102.811 68.4206C102.929 68.4492 103.074 68.4887 103.245 68.5391C103.417 68.5895 103.6 68.6452 103.795 68.7061C103.997 68.7758 104.19 68.8487 104.375 68.9246L108.788 70.6966L108.536 73.1195L100.35 72.25L100.511 70.6984L104.652 71.1382C105.018 71.1771 105.383 71.2199 105.749 71.2668C106.114 71.3136 106.427 71.3549 106.689 71.3908C106.95 71.4346 107.104 71.459 107.152 71.4641L107.162 71.3686C107.092 71.3451 106.941 71.2888 106.709 71.1998C106.477 71.1108 106.225 71.0157 105.954 70.9145C105.683 70.8133 105.451 70.7243 105.258 70.6475L100.709 68.8006L100.858 67.3683L105.676 66.5165C105.848 66.4865 106.052 66.4519 106.29 66.4128C106.534 66.3824 106.783 66.3485 107.036 66.3111C107.289 66.2815 107.509 66.2526 107.697 66.2243L107.707 66.1288C107.491 66.114 107.232 66.0945 106.928 66.0703C106.633 66.047 106.33 66.0229 106.019 65.9979C105.716 65.9737 105.441 65.9485 105.194 65.9223L101.054 65.4825L101.209 63.9906Z" fill="#050505"/>
<path d="M91.3984 88.9496C91.9679 88.3105 92.5726 87.8603 93.2125 87.599C93.8584 87.3431 94.5268 87.3023 95.2177 87.4768C95.9033 87.6573 96.6012 88.0706 97.3112 88.7167C98.0271 89.3682 98.5068 90.0263 98.7501 90.6912C98.994 91.3674 99.0209 92.0408 98.8306 92.7113C98.6463 93.3872 98.2694 94.0447 97.7 94.6839C97.1252 95.329 96.5176 95.7765 95.8771 96.0264C95.2371 96.2877 94.5743 96.3282 93.8887 96.1477C93.2037 95.9786 92.5032 95.5683 91.7872 94.9168C91.0772 94.2707 90.6002 93.6096 90.3563 92.9333C90.107 92.2631 90.0746 91.59 90.2589 90.9141C90.4439 90.2496 90.8237 89.5947 91.3984 88.9496ZM92.3747 89.838C92.098 90.1486 91.9002 90.4608 91.7815 90.7745C91.6573 91.0942 91.6092 91.4128 91.6371 91.7302C91.671 92.053 91.7778 92.372 91.9578 92.6871C92.1436 93.0077 92.4051 93.3214 92.7424 93.6283L92.9377 93.8059C93.2809 94.1182 93.6199 94.351 93.9547 94.5043C94.2896 94.6576 94.6146 94.7317 94.9299 94.7265C95.2511 94.7268 95.5625 94.6478 95.8641 94.4896C96.1604 94.3375 96.447 94.1061 96.7237 93.7955C97.0004 93.4848 97.2008 93.1697 97.325 92.85C97.4437 92.5363 97.4862 92.218 97.4524 91.8952C97.4245 91.5778 97.3176 91.2588 97.1318 90.9383C96.9406 90.6237 96.6735 90.3103 96.3303 89.998L96.135 89.8204C95.7978 89.5135 95.4644 89.2804 95.1348 89.1211C94.8059 88.9732 94.4808 88.8992 94.1596 88.8989C93.8444 88.904 93.5386 88.9827 93.2423 89.1349C92.9406 89.2931 92.6515 89.5274 92.3747 89.838Z" fill="#050505"/>
<path d="M74.7941 99.9624L76.4884 108.018L72.253 108.928C71.6585 109.056 71.1444 109.06 70.7105 108.94C70.2766 108.821 69.9224 108.594 69.6478 108.26C69.3732 107.926 69.1824 107.505 69.0754 106.996C68.9651 106.472 68.9844 105.981 69.1335 105.523C69.2841 105.074 69.5649 104.698 69.9757 104.397L67.6256 101.502L69.2916 101.144L71.3997 103.821L73.8987 103.285L73.2689 100.29L74.7941 99.9624ZM74.1679 104.565L71.575 105.121C71.1839 105.206 70.9067 105.384 70.7433 105.656C70.5798 105.929 70.5401 106.264 70.6241 106.664C70.6784 106.922 70.7706 107.127 70.9007 107.279C71.0324 107.439 71.1981 107.547 71.3978 107.602C71.5974 107.657 71.8302 107.656 72.0962 107.599L74.689 107.042L74.1679 104.565Z" fill="#050505"/>
<path d="M51.5643 99.4031L48.2455 106.936L42.3909 104.302L42.9279 103.083L47.3599 105.077L48.1775 103.222L44.227 101.444L44.764 100.225L48.7145 102.003L49.6047 99.9819L45.107 97.9582L45.644 96.7392L51.5643 99.4031Z" fill="#050505"/>
</svg>
