<svg xmlns="http://www.w3.org/2000/svg" width="332" height="80" fill="none"><g fill="#FAFDFF" clip-path="url(#a)"><path d="M101.19 54.903h23.321V47.88h-15.032V21.421h-8.289v33.482zm37.138-4.683c-3.325 0-5.057-2.903-5.057-7.258s1.732-7.305 5.057-7.305 5.105 2.95 5.105 7.305c0 4.355-1.78 7.258-5.105 7.258zm.047 5.433c7.727 0 12.785-5.48 12.785-12.691 0-7.212-5.058-12.69-12.785-12.69-7.68 0-12.831 5.478-12.831 12.69s5.151 12.69 12.831 12.69zm26.159 7.539c3.559 0 6.697-.796 8.804-2.67 1.92-1.732 3.184-4.354 3.184-7.96V30.927h-7.305v2.575h-.094c-1.405-2.013-3.559-3.278-6.743-3.278-5.947 0-10.068 4.964-10.068 11.989 0 7.352 5.01 11.38 10.396 11.38 2.903 0 4.729-1.172 6.134-2.764h.188v2.389c0 2.903-1.358 4.589-4.59 4.589-2.528 0-3.793-1.077-4.214-2.342h-7.399c.749 5.011 5.104 7.727 11.707 7.727zm-.047-15.266c-2.856 0-4.73-2.342-4.73-5.948 0-3.652 1.874-5.994 4.73-5.994 3.185 0 4.87 2.716 4.87 5.948 0 3.371-1.545 5.994-4.87 5.994zm27.056 2.294c-3.325 0-5.057-2.903-5.057-7.258s1.732-7.305 5.057-7.305 5.105 2.95 5.105 7.305c0 4.355-1.78 7.258-5.105 7.258zm.047 5.433c7.727 0 12.784-5.48 12.784-12.691 0-7.212-5.057-12.69-12.784-12.69-7.68 0-12.831 5.478-12.831 12.69s5.151 12.69 12.831 12.69zm15.013-.75h7.633V30.927h-7.633v23.976zm0-27.301h7.633V21.42h-7.633v6.18zm10.946 35.216h7.633V52.42h.094c1.498 2.014 3.699 3.232 6.79 3.232 6.275 0 10.443-4.964 10.443-12.738 0-7.212-3.887-12.69-10.256-12.69-3.278 0-5.619 1.451-7.258 3.605h-.141v-2.903h-7.305v31.89zm12.55-13.066c-3.278 0-5.151-2.67-5.151-6.556 0-3.887 1.686-6.837 5.011-6.837 3.278 0 4.823 2.716 4.823 6.837 0 4.074-1.78 6.556-4.683 6.556zm24.838 5.901c6.275 0 10.911-2.716 10.911-7.961 0-6.135-4.964-7.212-9.178-7.914-3.044-.562-5.76-.797-5.76-2.482 0-1.499 1.451-2.201 3.324-2.201 2.108 0 3.559.655 3.84 2.81h7.025c-.375-4.73-4.028-7.68-10.818-7.68-5.666 0-10.349 2.622-10.349 7.68 0 5.619 4.449 6.743 8.617 7.445 3.184.562 6.087.796 6.087 2.95 0 1.546-1.451 2.389-3.746 2.389-2.529 0-4.121-1.171-4.402-3.56h-7.212c.235 5.292 4.636 8.524 11.661 8.524zm21.279-.047c3.325 0 5.433-1.311 7.165-3.653h.141v2.95h7.305V30.927h-7.633V44.32c0 2.857-1.592 4.823-4.215 4.823-2.435 0-3.606-1.451-3.606-4.074V30.927h-7.586V46.66c0 5.339 2.904 8.945 8.429 8.945zm17.93-.703h7.634v-13.44c0-2.856 1.405-4.87 3.793-4.87 2.294 0 3.372 1.499 3.372 4.074v14.236h7.633v-13.44c0-2.856 1.358-4.87 3.793-4.87 2.295 0 3.372 1.499 3.372 4.074v14.236h7.633V39.31c0-5.385-2.716-9.085-8.149-9.085-3.09 0-5.666 1.312-7.539 4.215h-.094c-1.217-2.576-3.606-4.215-6.743-4.215-3.465 0-5.76 1.64-7.259 4.121h-.14v-3.418h-7.306v23.976z"/><path fill-rule="evenodd" d="M40.36 78.318c21.552 0 39.024-17.472 39.024-39.024C79.384 17.74 61.912.269 40.359.269 18.807.27 1.335 17.741 1.335 39.294c0 21.552 17.472 39.024 39.024 39.024zm12.174-59.87c.592-2.104-1.45-3.35-3.316-2.02L23.175 34.981c-2.023 1.441-1.705 4.313.478 4.313h6.858v-.053h13.366l-10.89 3.842-4.802 17.056c-.592 2.105 1.45 3.35 3.316 2.02l26.043-18.552c2.023-1.441 1.704-4.313-.478-4.313h-10.4l5.868-20.845z" clip-rule="evenodd"/></g><defs><clipPath id="a"><path fill="#fff" d="M0 0h331.707v80H0z"/></clipPath></defs></svg>