<svg xmlns="http://www.w3.org/2000/svg" width="279" height="80" fill="none"><path fill="#FAFDFF" fill-rule="evenodd" d="M46.27 6.477a6.65 6.65 0 0 0-9.406.002l-21.672 21.68-.019-.005-.068.007.083.04c-3.802.4-5.415 1.542-5.433 3.009.006.546.23 1.135.641 1.747l-.02.02c3.457 5.212 20.578 12.089 32.691 7.43-9.078 4.539-30.457 5.438-36.737-3.375a6.637 6.637 0 0 0-1.72 5.277c1.66 9.144 20.206 11.638 38.752-1.61l4.014 4.014c-4.994 5.13-12.371 34.934-1.41 30.383.26-.176.48-.334.78-.561l.49-.462-.085.02L76.508 46.38a6.65 6.65 0 0 0 .136-9.54L46.27 6.477zm-3.198 9.032 1.004-4.014 1.003 4.014 3.01 1.003-3.01 1.003-1.003 4.014-1.004-4.014-3.01-1.003 3.01-1.003zM30.653 28.61l.67-2.675.668 2.675 2.007.669-2.007.669-.669 2.675-.669-2.675-2.006-.669 2.006-.669zM53.95 51.18l-.669 2.675-2.006.67 2.006.668.67 2.675.668-2.675 2.007-.669-2.007-.669-.669-2.675z" clip-rule="evenodd"/><path fill="#FAFDFF" d="M95.475 21.349h-6.23v28.11h17.246V43.95H95.475V21.349zm11.611 18.575c0 6.002 4.027 9.99 10.104 9.99 6.04 0 10.067-3.988 10.067-9.99 0-6.002-4.027-10.028-10.067-10.028-6.077 0-10.104 4.026-10.104 10.028zm5.888-.038c0-2.849 1.671-4.748 4.216-4.748 2.507 0 4.179 1.899 4.179 4.748 0 2.887-1.672 4.786-4.179 4.786-2.545 0-4.216-1.899-4.216-4.786zm15.224-.266c0 5.736 3.723 9.61 9.003 9.61 2.545 0 4.748-.911 5.85-2.392v2.62c0 2.622-1.634 4.37-4.521 4.37-2.583 0-4.368-1.217-4.482-3.382h-5.926c.532 5.204 4.558 8.7 10.066 8.7 6.496 0 10.599-4.217 10.599-10.903V30.465h-5.281l-.303 1.938c-1.064-1.558-3.305-2.583-5.888-2.583-5.318 0-9.117 3.988-9.117 9.8zm5.926-.152c0-2.735 1.823-4.558 4.14-4.558 2.697 0 4.673 1.785 4.673 4.558 0 2.773-1.938 4.672-4.635 4.672-2.317 0-4.178-1.899-4.178-4.672zm16.367.456c0 6.002 4.027 9.99 10.105 9.99 6.039 0 10.066-3.988 10.066-9.99 0-6.002-4.027-10.028-10.066-10.028-6.078 0-10.105 4.026-10.105 10.028zm5.888-.038c0-2.849 1.672-4.748 4.217-4.748 2.507 0 4.178 1.899 4.178 4.748 0 2.887-1.671 4.786-4.178 4.786-2.545 0-4.217-1.899-4.217-4.786zm19.327-12.384c1.823 0 3.305-1.48 3.305-3.342a3.283 3.283 0 0 0-3.305-3.305c-1.861 0-3.343 1.443-3.343 3.305a3.324 3.324 0 0 0 3.343 3.342zm-2.963 21.957h5.889V30.465h-5.889V49.46zm9.315 9.116h5.774V47.56c1.102 1.444 3.608 2.431 6.231 2.431 5.659 0 9.078-4.33 8.925-10.332-.151-6.116-3.683-9.8-8.963-9.8-2.698 0-5.242 1.177-6.307 2.925l-.304-2.318h-5.356v28.11zm5.888-18.613c0-2.849 1.899-4.748 4.635-4.748 2.772 0 4.52 1.937 4.52 4.748s-1.748 4.748-4.52 4.748c-2.736 0-4.635-1.9-4.635-4.748zm15.666 3.495c.152 3.836 3.192 6.495 7.978 6.495 4.596 0 7.788-2.43 7.788-6.343 0-2.811-1.674-4.673-4.788-5.432l-3.381-.836c-1.216-.304-1.974-.608-1.974-1.596 0-.987.796-1.633 1.974-1.633 1.33 0 2.203.874 2.165 2.165h5.282c-.153-3.95-3.153-6.42-7.332-6.42-4.218 0-7.369 2.508-7.369 6.306 0 2.546 1.405 4.635 5.165 5.622l3.343.874c.988.266 1.405.722 1.405 1.368 0 .95-.873 1.557-2.355 1.557-1.709 0-2.621-.798-2.621-2.127h-5.28zm24.718 6.495c2.319 0 4.635-1.063 5.813-2.62l.38 2.127h5.508V30.465h-5.85v9.877c0 2.849-.837 4.406-3.532 4.406-2.091 0-3.458-.95-3.458-4.482v-9.8h-5.85v11.927c0 4.52 2.508 7.56 6.989 7.56zm20.978-.493v-10.37c0-3.192 1.709-4.103 3.381-4.103 1.86 0 3.076 1.14 3.076 3.495v10.978h5.774v-10.37c0-3.23 1.671-4.141 3.343-4.141 1.86 0 3.114 1.14 3.114 3.532v10.98h5.699V37.037c0-4.33-2.28-7.217-7.18-7.217-2.734 0-4.976 1.33-5.964 3.38-1.139-2.05-3.115-3.38-6.268-3.38-2.088 0-4.026.95-5.165 2.469l-.228-1.824h-5.471V49.46h5.889z"/><path fill="#FAFDFF" fill-rule="evenodd" d="M78.768 9.133a21.147 21.147 0 0 0-16.245 7.609L48.228 33.895l8.254-12.381-13.701 5.871c-1.74.746-2.177 3.013-.838 4.352l4.409 4.409-2.252 2.701 4.953 4.952 2.701-2.25 4.41 4.408c1.338 1.339 3.605.902 4.35-.838l5.872-13.7-12.38 8.253 17.152-14.294a21.147 21.147 0 0 0 7.61-16.245zM65.15 22.752a3.502 3.502 0 1 0 4.953-4.953 3.502 3.502 0 0 0-4.953 4.953z" clip-rule="evenodd"/><path fill="#FAFDFF" d="M6.17 36.802c3.279 11.234 23.215 10.648 36.893 3.606-9.159 4.577-30.825 5.451-36.893-3.606zm39.796 38.294c-9.236 3.834-5.452-16.723-1.044-26.358-3.213 8.564-5.956 27.442 2.313 25.335l-.488.462c-.3.227-.521.385-.781.561z" opacity=".6"/></svg>