<svg xmlns="http://www.w3.org/2000/svg" width="312" height="80" fill="none"><path fill="#FAFDFF" d="M108.844 50.824h18.227v-4.963h-12.207V22.349h-6.02v28.475zm30.577.417c6.479 0 10.511-4.435 10.511-11.011 0-6.619-4.032-11.04-10.511-11.04-6.479 0-10.511 4.421-10.511 11.04 0 6.576 4.032 11.011 10.511 11.011zm.028-4.588c-2.989 0-4.519-2.74-4.519-6.465 0-3.727 1.53-6.48 4.519-6.48 2.934 0 4.463 2.754 4.463 6.48 0 3.726-1.529 6.465-4.463 6.465zm22.781 12.625c6.104 0 10.442-2.781 10.442-8.245V29.468h-5.881v3.587h-.223c-.792-1.738-2.53-3.865-6.104-3.865-4.685 0-8.648 3.643-8.648 10.914 0 7.105 3.852 10.414 8.662 10.414 3.407 0 5.312-1.71 6.09-3.476h.25v3.907c0 2.934-1.877 4.074-4.449 4.074-2.614 0-3.935-1.14-4.421-2.433l-5.478.737c.709 3.364 4.004 5.95 9.76 5.95zm.125-13.21c-2.906 0-4.491-2.307-4.491-5.991 0-3.63 1.558-6.174 4.491-6.174 2.878 0 4.491 2.433 4.491 6.174 0 3.767-1.64 5.992-4.491 5.992zm23.505 5.173c6.479 0 10.511-4.435 10.511-11.011 0-6.619-4.032-11.04-10.511-11.04-6.479 0-10.511 4.421-10.511 11.04 0 6.576 4.032 11.011 10.511 11.011zm.028-4.588c-2.99 0-4.519-2.74-4.519-6.465 0-3.727 1.529-6.48 4.519-6.48 2.933 0 4.463 2.754 4.463 6.48 0 3.726-1.53 6.465-4.463 6.465zm13.16 4.171h5.923V29.468h-5.923v21.356zm2.975-24.109c1.766 0 3.212-1.348 3.212-3.003 0-1.64-1.446-2.99-3.212-2.99-1.752 0-3.198 1.35-3.198 2.99 0 1.655 1.446 3.003 3.198 3.003zm6.519 32.118h5.922v-11.43h.181c.82 1.78 2.613 3.769 6.061 3.769 4.868 0 8.663-3.852 8.663-10.998 0-7.341-3.963-10.984-8.649-10.984-3.573 0-5.282 2.127-6.075 3.865h-.265v-3.587h-5.838v29.365zm5.797-18.687c0-3.81 1.612-6.243 4.49-6.243 2.936 0 4.492 2.545 4.492 6.243 0 3.726-1.585 6.312-4.492 6.312-2.849 0-4.49-2.502-4.49-6.312zm35.573-4.588c-.529-3.935-3.698-6.368-9.093-6.368-5.465 0-9.065 2.53-9.053 6.646-.012 3.198 2.003 5.27 6.175 6.104l3.698.736c1.863.376 2.712 1.057 2.739 2.128-.027 1.265-1.403 2.169-3.475 2.169-2.115 0-3.518-.904-3.879-2.642l-5.826.306c.556 4.087 4.031 6.604 9.69 6.604 5.533 0 9.496-2.822 9.51-7.035-.014-3.087-2.031-4.936-6.172-5.784l-3.867-.779c-1.987-.43-2.724-1.112-2.709-2.14-.015-1.28 1.431-2.114 3.265-2.114 2.06 0 3.282 1.126 3.574 2.502l5.423-.333zm16.736 6.173c.015 2.864-1.946 4.366-4.073 4.366-2.238 0-3.684-1.571-3.699-4.088v-12.54h-5.922v13.597c.012 4.991 2.933 8.036 7.229 8.036 3.212 0 5.52-1.654 6.48-4.157h.221v3.879h5.687V29.468h-5.923v12.263zm9.486 9.093h5.924v-12.82c0-2.363 1.501-3.934 3.475-3.934 1.946 0 3.253 1.335 3.253 3.434v13.32h5.744V37.782c0-2.21 1.265-3.712 3.419-3.712 1.891 0 3.309 1.182 3.309 3.56v13.194h5.91V36.462c0-4.63-2.753-7.272-6.731-7.272-3.128 0-5.561 1.599-6.437 4.046h-.221c-.681-2.475-2.866-4.046-5.799-4.046-2.878 0-5.061 1.53-5.951 4.046h-.25v-3.768h-5.645v21.356zM35.124 4.103h18.459l-7.41 20.706c-13.04 2.291-23.015 14.909-23.015 30.13 0 6.867 2.03 13.204 5.455 18.302H4.103L26.51 10.62c1.409-3.937 4.82-6.518 8.614-6.518z"/><path fill="#FAFDFF" fill-opacity=".3" d="m53.583 4.103-5.207 14.552-1.57-14.552h6.777z"/><path fill="#FAFDFF" d="M65.266 4.103h-18.46l7.379 20.618c13.3 2.038 23.547 14.79 23.547 30.219 0 6.866-2.03 13.203-5.455 18.3h24.01L73.88 10.623c-1.41-3.938-4.82-6.52-8.614-6.52z"/><path fill="#FAFDFF" d="M31.832 71.248c-3.154-4.492-5.035-10.155-5.035-16.309 0-14.6 10.588-26.435 23.649-26.435 13.06 0 23.648 11.835 23.648 26.435 0 6.154-1.88 11.817-5.035 16.309-5.179-3.855-11.625-6.141-18.613-6.141-6.988 0-13.435 2.286-18.614 6.141z"/></svg>