<svg xmlns="http://www.w3.org/2000/svg" width="326" height="80" fill="none"><g fill="#FAFDFF" clip-path="url(#a)"><path d="M94.89 56.183h23.321v-7.025h-15.033V22.7H94.89v33.483zm37.138-4.683c-3.325 0-5.058-2.904-5.058-7.259s1.733-7.305 5.058-7.305c3.324 0 5.104 2.95 5.104 7.305 0 4.355-1.78 7.259-5.104 7.259zm.046 5.432c7.727 0 12.785-5.48 12.785-12.69 0-7.213-5.058-12.692-12.785-12.692-7.68 0-12.831 5.48-12.831 12.691 0 7.212 5.151 12.69 12.831 12.69zm26.159 7.539c3.559 0 6.697-.796 8.804-2.669 1.92-1.733 3.184-4.355 3.184-7.96V32.205h-7.305v2.576h-.094c-1.404-2.014-3.559-3.278-6.743-3.278-5.947 0-10.068 4.963-10.068 11.988 0 7.352 5.01 11.38 10.396 11.38 2.903 0 4.73-1.171 6.134-2.764h.188v2.389c0 2.903-1.358 4.589-4.589 4.589-2.529 0-3.794-1.077-4.215-2.341h-7.399c.749 5.01 5.104 7.726 11.707 7.726zm-.047-15.266c-2.856 0-4.729-2.341-4.729-5.947 0-3.653 1.873-5.994 4.729-5.994 3.185 0 4.871 2.716 4.871 5.947 0 3.372-1.546 5.994-4.871 5.994zm27.056 2.295c-3.324 0-5.057-2.904-5.057-7.259s1.733-7.305 5.057-7.305c3.325 0 5.105 2.95 5.105 7.305 0 4.355-1.78 7.259-5.105 7.259zm.047 5.432c7.727 0 12.785-5.48 12.785-12.69 0-7.213-5.058-12.692-12.785-12.692-7.68 0-12.831 5.48-12.831 12.691 0 7.212 5.151 12.69 12.831 12.69zm15.014-.749h7.633V32.206h-7.633v23.977zm0-27.302h7.633V22.7h-7.633v6.181zm10.944 35.216h7.633V53.7h.094c1.498 2.013 3.699 3.23 6.79 3.23 6.275 0 10.443-4.963 10.443-12.737 0-7.211-3.887-12.69-10.256-12.69-3.278 0-5.619 1.451-7.258 3.605h-.141v-2.903h-7.305v31.89zm12.55-13.066c-3.278 0-5.151-2.669-5.151-6.556 0-3.886 1.686-6.837 5.011-6.837 3.278 0 4.823 2.716 4.823 6.837 0 4.075-1.779 6.556-4.683 6.556zm24.839 5.901c6.275 0 10.911-2.716 10.911-7.961 0-6.135-4.964-7.212-9.178-7.914-3.044-.562-5.76-.796-5.76-2.482 0-1.499 1.451-2.201 3.325-2.201 2.107 0 3.559.655 3.84 2.81h7.024c-.375-4.73-4.027-7.68-10.818-7.68-5.666 0-10.349 2.622-10.349 7.68 0 5.62 4.449 6.743 8.617 7.446 3.184.561 6.088.796 6.088 2.95 0 1.545-1.452 2.388-3.747 2.388-2.529 0-4.121-1.17-4.402-3.559h-7.211c.234 5.292 4.636 8.523 11.66 8.523zm21.279-.047c3.324 0 5.432-1.311 7.165-3.653h.14v2.95h7.305V32.207h-7.633V45.6c0 2.857-1.592 4.824-4.214 4.824-2.436 0-3.606-1.452-3.606-4.075V32.207h-7.587v15.735c0 5.338 2.904 8.944 8.43 8.944zm17.931-.702h7.633v-13.44c0-2.857 1.405-4.87 3.793-4.87 2.295 0 3.372 1.498 3.372 4.074v14.236h7.633v-13.44c0-2.857 1.358-4.87 3.793-4.87 2.295 0 3.372 1.498 3.372 4.074v14.236h7.633V40.589c0-5.386-2.716-9.085-8.148-9.085-3.091 0-5.667 1.31-7.54 4.214h-.093c-1.218-2.575-3.606-4.214-6.744-4.214-3.465 0-5.76 1.639-7.258 4.12h-.141v-3.418h-7.305v23.977z"/><path fill-rule="evenodd" d="M16.887 7.593a39.25 39.25 0 0 0-7.508 6.858c8.955-.832 20.332.526 33.54 7.13 14.105 7.052 25.462 7.29 33.367 5.766a38.805 38.805 0 0 0-2.69-6.243c-9.049.955-20.649-.308-34.167-7.068-8.585-4.292-16.152-6.06-22.543-6.443zm51.423 5.988C61.165 5.597 50.78.573 39.223.573c-3.395 0-6.688.433-9.827 1.248 4.252 1.16 8.769 2.857 13.523 5.234 9.898 4.95 18.443 6.543 25.391 6.526zm9.665 21.388c-9.549 1.886-22.735 1.498-38.546-6.407-14.782-7.39-26.547-7.298-34.482-5.535-.41.091-.81.187-1.2.287a38.733 38.733 0 0 0-2.463 7.102c.636-.17 1.293-.331 1.97-.482 9.626-2.14 23.227-2.046 39.665 6.173C57.7 43.497 69.466 43.404 77.4 41.64c.272-.06.54-.123.804-.187a39.577 39.577 0 0 0-.228-6.485zM76.93 49.69c-9.457 1.654-22.26 1.02-37.501-6.601-14.782-7.391-26.547-7.298-34.482-5.535a38.913 38.913 0 0 0-4.743 1.371 37.75 37.75 0 0 0-.006.673c0 21.553 17.472 39.025 39.025 39.025 18.062 0 33.259-12.272 37.707-28.932z" clip-rule="evenodd"/></g><defs><clipPath id="a"><path fill="#fff" d="M0 0h325.854v80H0z"/></clipPath></defs></svg>