<svg xmlns="http://www.w3.org/2000/svg" width="404" height="80" fill="none"><g fill="#FAFDFF" clip-path="url(#a)"><path fill-rule="evenodd" d="M51.111 23.37A20 20 0 0 0 40 20V0A40 40 0 1 1 0 40h20a20 20 0 1 0 31.111-16.63z" clip-rule="evenodd"/><path fill-rule="evenodd" d="M20 0A20 20 0 0 1 0 20v20A40 40 0 0 0 40 0H20z" clip-rule="evenodd"/><path d="M251.238 28.905h-9.704V59.73h9.704V28.905zm-8.624-5.772c1.014 1.015 2.282 1.522 3.804 1.522 1.522 0 2.77-.507 3.742-1.522.974-1.057 1.46-2.325 1.46-3.805 0-1.523-.486-2.791-1.46-3.806-.972-1.015-2.22-1.522-3.742-1.522-1.522 0-2.79.507-3.804 1.522-.974 1.015-1.46 2.283-1.46 3.806 0 1.48.486 2.748 1.46 3.805zM102.312 59.73V14.95h9.958v36.026h19.853v8.753h-29.811z"/><path fill-rule="evenodd" d="M150.055 60.427c-3.172 0-6.047-.697-8.626-2.093-2.537-1.437-4.546-3.382-6.026-5.835-1.479-2.452-2.219-5.2-2.219-8.245 0-3.045.74-5.772 2.219-8.182 1.48-2.41 3.489-4.313 6.026-5.708 2.537-1.438 5.412-2.157 8.626-2.157 3.213 0 6.088.698 8.625 2.093 2.537 1.396 4.546 3.32 6.026 5.772 1.48 2.41 2.22 5.137 2.22 8.182 0 3.044-.74 5.793-2.22 8.245-1.48 2.453-3.489 4.398-6.026 5.835-2.537 1.396-5.412 2.093-8.625 2.093zm0-8.816c1.395 0 2.621-.296 3.678-.888a6.212 6.212 0 0 0 2.41-2.6c.592-1.142.888-2.432.888-3.87 0-1.437-.296-2.684-.888-3.741-.592-1.1-1.416-1.945-2.473-2.537-1.015-.635-2.22-.952-3.615-.952-1.353 0-2.558.317-3.616.952-1.057.592-1.881 1.437-2.473 2.537-.592 1.1-.888 2.368-.888 3.805 0 1.396.296 2.664.888 3.806a6.651 6.651 0 0 0 2.473 2.6c1.058.592 2.263.888 3.616.888zm24.556 20.169c2.579 1.184 5.56 1.776 8.943 1.776 3.298 0 6.237-.655 8.816-1.966 2.58-1.31 4.609-3.129 6.089-5.454 1.48-2.326 2.221-5.074 2.221-8.246V28.905h-9.515v2.071a10.257 10.257 0 0 0-2.41-1.5c-1.649-.804-3.531-1.205-5.645-1.205-2.833 0-5.349.676-7.547 2.03-2.199 1.31-3.933 3.128-5.201 5.454-1.269 2.283-1.903 4.862-1.903 7.738 0 2.833.634 5.412 1.903 7.738 1.268 2.325 3.002 4.165 5.201 5.518 2.198 1.353 4.714 2.03 7.547 2.03 2.072 0 3.954-.402 5.645-1.206a11.326 11.326 0 0 0 2.22-1.376v1.947c0 2.156-.698 3.827-2.093 5.01-1.353 1.185-3.235 1.776-5.645 1.776-1.945 0-3.615-.338-5.011-1.014-1.353-.677-2.579-1.67-3.678-2.981l-5.962 5.962c1.48 2.114 3.488 3.742 6.025 4.883zm13.827-22.516c-.973.592-2.135.888-3.489.888-1.353 0-2.537-.296-3.551-.888a6.26 6.26 0 0 1-2.284-2.41 7.192 7.192 0 0 1-.824-3.361c0-1.269.275-2.41.824-3.425a6.124 6.124 0 0 1 2.347-2.41c1.015-.592 2.178-.888 3.488-.888 1.354 0 2.516.296 3.489.888 1.015.592 1.776 1.395 2.283 2.41.55 1.015.825 2.156.825 3.425 0 1.268-.275 2.41-.825 3.425-.507.972-1.268 1.754-2.283 2.346zm32.664 11.163c-3.172 0-6.048-.697-8.626-2.093-2.538-1.437-4.546-3.382-6.026-5.835-1.48-2.452-2.22-5.2-2.22-8.245 0-3.045.74-5.772 2.22-8.182 1.48-2.41 3.488-4.313 6.026-5.708 2.536-1.438 5.412-2.157 8.626-2.157 3.212 0 6.088.698 8.624 2.093 2.538 1.396 4.546 3.32 6.026 5.772 1.48 2.41 2.22 5.137 2.22 8.182 0 3.044-.74 5.793-2.22 8.245-1.48 2.453-3.488 4.398-6.026 5.835-2.536 1.396-5.412 2.093-8.624 2.093zm0-8.816c1.394 0 2.62-.296 3.678-.888a6.225 6.225 0 0 0 2.41-2.6c.592-1.142.888-2.432.888-3.87 0-1.437-.296-2.684-.888-3.741-.592-1.1-1.416-1.945-2.474-2.537-1.014-.635-2.22-.952-3.614-.952-1.354 0-2.56.317-3.616.952-1.058.592-1.882 1.437-2.474 2.537-.592 1.1-.888 2.368-.888 3.805 0 1.396.296 2.664.888 3.806a6.647 6.647 0 0 0 2.474 2.6c1.056.592 2.262.888 3.616.888zm53.46 8.753c-2.07 0-3.974-.402-5.708-1.205a12.126 12.126 0 0 1-2.472-1.515v15.088h-9.578V28.905h9.704v2.127a11.998 11.998 0 0 1 2.346-1.493c1.734-.846 3.638-1.268 5.708-1.268 2.918 0 5.498.697 7.738 2.093 2.284 1.395 4.06 3.298 5.328 5.708 1.312 2.41 1.966 5.159 1.966 8.245 0 3.087-.654 5.835-1.966 8.246-1.268 2.41-3.044 4.312-5.328 5.708-2.24 1.395-4.82 2.093-7.738 2.093zm-1.774-8.753c1.394 0 2.6-.317 3.614-.951a6.648 6.648 0 0 0 2.474-2.6c.592-1.1.888-2.347.888-3.743 0-1.437-.296-2.706-.888-3.805-.592-1.1-1.416-1.945-2.474-2.537-1.014-.635-2.198-.952-3.552-.952-1.352 0-2.558.317-3.614.952-1.016.592-1.818 1.437-2.41 2.537-.592 1.1-.888 2.368-.888 3.805 0 1.396.274 2.643.824 3.742a6.648 6.648 0 0 0 2.474 2.6c1.056.635 2.24.952 3.552.952z" clip-rule="evenodd"/><path d="M299.092 59.793c1.776.465 3.572.698 5.39.698 3.848 0 6.892-.888 9.134-2.664 2.282-1.776 3.424-4.165 3.424-7.167 0-1.945-.358-3.51-1.078-4.694-.718-1.226-1.648-2.198-2.79-2.917a16.66 16.66 0 0 0-3.616-1.713 55.795 55.795 0 0 0-3.614-1.078c-1.142-.296-2.072-.634-2.792-1.015-.718-.38-1.078-.888-1.078-1.522 0-.592.276-1.036.824-1.332.55-.338 1.374-.507 2.474-.507 1.142 0 2.304.232 3.488.697 1.226.465 2.326 1.269 3.298 2.41l5.518-5.58c-1.394-1.777-3.212-3.109-5.454-3.997-2.198-.93-4.608-1.395-7.23-1.395-2.494 0-4.672.423-6.532 1.268-1.862.846-3.3 2.009-4.314 3.489-1.014 1.437-1.522 3.15-1.522 5.137 0 1.86.36 3.404 1.078 4.63.718 1.184 1.65 2.115 2.79 2.791a16.205 16.205 0 0 0 3.616 1.586c1.268.38 2.474.74 3.616 1.078 1.14.296 2.072.655 2.79 1.078.762.38 1.142.952 1.142 1.713 0 .592-.318 1.057-.952 1.395-.592.338-1.458.507-2.6.507-1.65 0-3.172-.296-4.566-.888a11.12 11.12 0 0 1-3.616-2.6l-5.518 5.581c1.058 1.142 2.326 2.157 3.806 3.045a21.466 21.466 0 0 0 4.884 1.966zm35.644.634c-2.832 0-5.348-.57-7.546-1.712-2.158-1.184-3.848-2.791-5.074-4.82-1.228-2.072-1.84-4.44-1.84-7.104V28.905h9.704v17.759c0 1.057.168 1.966.508 2.727.38.761.93 1.353 1.648 1.776.72.423 1.586.634 2.6.634 1.438 0 2.58-.444 3.426-1.332.846-.93 1.268-2.198 1.268-3.805V28.905h9.704v17.822c0 2.707-.612 5.096-1.84 7.167-1.226 2.03-2.916 3.637-5.074 4.82-2.156 1.142-4.65 1.713-7.484 1.713zm28.926-31.522h-9.704V59.73h9.704V41.717c0-1.057.212-1.945.634-2.664a4.624 4.624 0 0 1 1.84-1.649c.762-.423 1.628-.634 2.6-.634 1.396 0 2.558.444 3.488 1.332.974.845 1.46 2.05 1.46 3.615V59.73h9.704V41.717c0-1.057.212-1.945.634-2.664a4.61 4.61 0 0 1 1.84-1.649c.76-.423 1.628-.634 2.6-.634 1.396 0 2.558.444 3.488 1.332.972.845 1.458 2.05 1.458 3.615V59.73h9.706V40.639c0-2.58-.55-4.778-1.65-6.597-1.058-1.86-2.516-3.277-4.376-4.249-1.818-1.015-3.912-1.522-6.28-1.522-2.41 0-4.588.528-6.532 1.585a11.849 11.849 0 0 0-3.314 2.608 10.784 10.784 0 0 0-3.22-2.735c-1.69-.972-3.614-1.458-5.77-1.458-2.284 0-4.334.486-6.152 1.458-.792.405-1.51.89-2.158 1.454v-2.278z"/></g><defs><clipPath id="a"><path fill="#fff" d="M0 0h404v80H0z"/></clipPath></defs></svg>