<svg xmlns="http://www.w3.org/2000/svg" width="440" height="80" fill="none"><g fill="#FAFDFF" clip-path="url(#a)"><path d="M40 80c22.092 0 40-17.908 40-40V12A12 12 0 0 0 68 0H42v17.548c0 4.004.244 8.152 2.344 11.56a19.998 19.998 0 0 0 13.808 9.254l.766.124a1.6 1.6 0 0 1 0 3.028l-.766.124a20 20 0 0 0-16.514 16.514l-.124.766a1.6 1.6 0 0 1-3.028 0l-.124-.766a20 20 0 0 0-9.254-13.808C25.7 42.244 21.552 42 17.548 42H.048C1.094 63.162 18.58 80 40 80z"/><path d="M0 38h17.548c4.004 0 8.152-.244 11.56-2.344a20.037 20.037 0 0 0 6.548-6.548C37.756 25.7 38 21.552 38 17.548V0H12A12 12 0 0 0 0 12v26zM92.91 4a4 4 0 1 1-8 0 4 4 0 0 1 8 0zm330.512 20.208c11.182 0 16.578 7.81 16.578 16.856v16.99h-11.702V43.08c0-4.1-1.496-7.484-5.786-7.484-4.29 0-5.72 3.384-5.72 7.484v14.972H405.09V43.08c0-4.1-1.43-7.484-5.722-7.484-4.29 0-5.786 3.384-5.786 7.484v14.972h-11.7v-16.99c0-9.046 5.394-16.856 16.576-16.856 6.112 0 10.532 2.408 12.548 6.378 2.144-3.97 6.826-6.38 12.416-6.38v.004zM360.854 47.64c3.77 0 5.396-3.45 5.396-7.552v-14.58h11.7V41.52c0 9.568-5.59 17.51-17.096 17.51-11.508 0-17.098-7.94-17.098-17.51V25.508h11.702v14.58c0 4.1 1.624 7.552 5.396 7.552zM326.55 59.094c-7.346 0-12.092-2.538-14.888-7.484l8.452-4.752c1.17 2.082 2.924 3.124 5.85 3.124 2.406 0 3.51-.846 3.51-1.888 0-3.97-17.162.066-17.162-12.56 0-6.12 5.2-11.066 14.042-11.066 7.736 0 11.962 3.774 13.848 7.42l-8.452 4.816c-.714-1.952-2.926-3.124-5.136-3.124-1.69 0-2.6.716-2.6 1.692 0 4.036 17.162.326 17.162 12.562 0 6.834-6.696 11.26-14.626 11.26zm-40.884 13.93h-11.702V41.716c0-9.96 7.476-17.184 17.878-17.184 10.142 0 17.878 7.746 17.878 17.184 0 10.414-6.892 17.314-17.228 17.314-2.406 0-4.81-.716-6.826-1.824v15.818zm6.176-24.994c3.706 0 6.176-2.864 6.176-6.25 0-3.448-2.47-6.248-6.176-6.248s-6.176 2.8-6.176 6.25c0 3.384 2.47 6.248 6.176 6.248zm-29.6-25.97c-3.836 0-7.02-3.19-7.02-7.03 0-3.84 3.184-7.03 7.02-7.03 3.836 0 7.022 3.19 7.022 7.03 0 3.84-3.186 7.03-7.022 7.03zm-5.85 3.448h11.702v32.546h-11.702V25.508zM233.94 59.03c-10.142 0-17.878-7.81-17.878-17.314 0-9.438 7.736-17.248 17.878-17.248s17.878 7.81 17.878 17.248c0 9.504-7.736 17.314-17.878 17.314zm0-11c3.706 0 6.176-2.864 6.176-6.25 0-3.448-2.47-6.312-6.176-6.312s-6.176 2.864-6.176 6.312c0 3.386 2.47 6.25 6.176 6.25zM193.966 74c-8.06 0-13.912-3.58-16.902-9.96l9.686-5.206c1.04 2.214 2.99 4.492 7.02 4.492 4.228 0 7.022-2.67 7.348-7.356-1.56 1.368-4.032 2.408-7.736 2.408-9.038 0-16.32-6.964-16.32-16.728 0-9.436 7.738-17.118 17.88-17.118 10.402 0 17.878 7.226 17.878 17.184v12.888C212.82 66.32 204.692 74 193.966 74zm.78-26.62c3.51 0 6.176-2.41 6.176-5.99 0-3.514-2.664-5.858-6.176-5.858-3.446 0-6.176 2.344-6.176 5.86 0 3.58 2.73 5.986 6.176 5.986v.002zm-37.532 11.65c-10.142 0-17.88-7.81-17.88-17.314 0-9.438 7.738-17.248 17.88-17.248 10.14 0 17.878 7.81 17.878 17.248 0 9.504-7.736 17.314-17.878 17.314zm0-11c3.706 0 6.176-2.864 6.176-6.25 0-3.448-2.47-6.312-6.176-6.312s-6.176 2.864-6.176 6.312c0 3.386 2.47 6.25 6.176 6.25zm-39.188-33.91v32.868H137.4v11.066h-21c-7.41 0-10.4-3.906-10.4-10.09V14.12h12.026z"/></g><defs><clipPath id="a"><path fill="#fff" d="M0 0h440v80H0z"/></clipPath></defs></svg>