<svg xmlns="http://www.w3.org/2000/svg" width="293" height="80" fill="none"><path fill="#FAFDFF" d="M98.538 52.727h6.398V22.618h-6.398v30.11zm19.523.669c6.691 0 11.082-4.307 11.082-11.918 0-7.36-4.265-11.96-11.082-11.96-6.69 0-11.04 4.307-11.04 11.96 0 7.402 4.224 11.918 11.04 11.918zm0-5.185c-2.885 0-4.474-2.384-4.474-6.733 0-4.39 1.547-6.774 4.474-6.774 2.928 0 4.517 2.425 4.517 6.774 0 4.391-1.547 6.733-4.517 6.733zm21.491 4.559c2.426 0 4.433-1.005 5.855-2.97v3.764c0 3.136-1.547 4.181-3.847 4.181-2.217 0-3.931-1.087-4.182-3.094h-6.398c.794 5.478 4.934 7.987 10.663 7.987 5.897 0 10.162-3.136 10.162-9.158V30.23h-6.398v2.09c-1.38-1.84-3.346-2.802-5.855-2.802-5.603 0-9.241 4.182-9.241 11.667 0 7.151 3.554 11.584 9.241 11.584zm1.548-5.186c-2.76 0-4.224-2.3-4.224-6.399 0-4.223 1.464-6.481 4.224-6.481 2.801 0 4.307 2.3 4.307 6.44 0 4.181-1.464 6.44-4.307 6.44zm23.867 5.812c6.691 0 11.082-4.307 11.082-11.918 0-7.36-4.266-11.96-11.082-11.96-6.691 0-11.04 4.307-11.04 11.96 0 7.402 4.223 11.918 11.04 11.918zm0-5.185c-2.886 0-4.475-2.384-4.475-6.733 0-4.39 1.547-6.774 4.475-6.774 2.927 0 4.516 2.425 4.516 6.774 0 4.391-1.547 6.733-4.516 6.733zm13.211-20.241h6.399v-5.352h-6.399v5.353zm0 24.757h6.399V30.23h-6.399v22.498zm15.842 9.243v-11.5c1.338 1.923 3.262 2.926 5.646 2.926 5.729 0 9.451-4.307 9.451-11.96 0-7.36-3.639-11.918-9.451-11.918-2.342 0-4.266 1.087-5.646 3.053v-2.342h-6.398v31.74h6.398zm4.308-27.266c2.718 0 4.223 2.383 4.223 6.732 0 4.391-1.463 6.775-4.223 6.775-2.802 0-4.308-2.425-4.308-6.775 0-4.349 1.464-6.732 4.308-6.732zM216.8 36.46c0-1.213 1.088-2.05 2.76-2.05 2.259 0 3.597.963 3.973 3.263h6.357c-.628-5.688-4.726-8.155-10.12-8.155-6.022 0-9.075 3.513-9.075 7.277 0 9.032 13.633 5.143 13.633 9.492 0 1.38-1.129 2.258-3.388 2.258-2.383 0-4.098-1.129-4.39-3.22h-6.399c.837 5.562 4.935 8.071 10.622 8.071 5.855 0 9.953-3.052 9.953-7.485 0-8.907-13.926-5.018-13.926-9.451zm29.689 6.69c0 2.886-1.589 5.06-4.056 5.06-2.258 0-3.345-1.42-3.345-4.306V30.229h-6.399V45.2c0 5.604 3.137 8.196 7.402 8.196 2.718 0 4.935-1.17 6.398-3.68v3.011h6.399V30.23h-6.399v12.922zm9.49 9.577h6.398V39.806c0-2.886 1.463-5.102 3.68-5.102 2.049 0 3.052 1.463 3.052 4.307v13.716h6.357V39.806c0-2.886 1.505-5.102 3.722-5.102 2.049 0 3.011 1.463 3.011 4.307v13.716h6.398V37.715c0-5.562-3.095-8.197-7.277-8.197-2.801 0-5.185 1.171-6.732 3.722-1.129-2.51-3.388-3.722-6.064-3.722-2.593 0-4.725 1.13-6.147 3.555v-2.844h-6.398v22.498zM74.274 61.914c6.93-6.19 11.18-14.542 11.18-23.732 0-19.08-18.315-34.546-40.908-34.546-22.594 0-40.91 15.467-40.91 34.546s18.316 34.545 40.91 34.545c6.41 0 12.475-1.245 17.875-3.464 6.344 3.916 14.117 6.731 22.701 6.137-4.535-1.152-8.436-5.822-10.848-13.486z"/><path fill="#FAFDFF" d="M74.546 38.182c0 14.058-13.432 25.454-30 25.454-16.569 0-30-11.396-30-25.454s13.431-25.455 30-25.455c16.568 0 30 11.397 30 25.455z"/><path fill="#FAFDFF" d="M63.636 38.182c0 9.037-8.547 16.363-19.091 16.363s-19.09-7.326-19.09-16.363c0-9.038 8.546-16.364 19.09-16.364s19.09 7.326 19.09 16.364z"/></svg>