<svg width="217" height="42" viewBox="0 0 217 42" fill="none" xmlns="http://www.w3.org/2000/svg">
<path d="M24 1H16V13.0632C15.9663 15.2434 14.1885 17 12.0005 17H0V25H8.68629C10.808 25 12.8429 24.1571 14.3431 22.6569L21.6569 15.3431C23.1571 13.8429 24 11.808 24 9.68629V1Z" fill="white"/>
<path d="M16 41H24V28.9368C24.0337 26.7566 25.8115 25 27.9995 25H40V17H31.3137C29.192 17 27.1571 17.8429 25.6569 19.3431L18.3431 26.6569C16.8429 28.1571 16 30.192 16 32.3137V41Z" fill="white"/>
<path d="M72.0896 34H52.3496V33.4799L63.4796 14.92C63.7129 14.5266 63.9829 14.1533 64.2896 13.8H53.0196V9.49995H72.0896V10.02L60.9596 28.57C60.7263 28.97 60.4596 29.3466 60.1596 29.7H72.0896V34ZM80.3896 34.4199C79.0763 34.4199 77.8963 34.1166 76.8496 33.5099C75.8029 32.9033 74.9763 32.0333 74.3696 30.9C73.7629 29.7666 73.4596 28.4433 73.4596 26.93V15.8H78.1796V25.77C78.1796 27.3366 78.4963 28.48 79.1296 29.2C79.7563 29.9266 80.6529 30.29 81.8196 30.29C82.8263 30.29 83.7063 29.9266 84.4596 29.2C85.2196 28.48 85.5996 27.3366 85.5996 25.77V15.8H90.3296V34H85.7396V31.27C85.2996 32.3166 84.6529 33.1033 83.7996 33.63C82.9463 34.1566 81.8096 34.4199 80.3896 34.4199ZM97.8496 34H93.1296V15.8H97.7796V18.46C98.7396 16.4066 100.593 15.38 103.34 15.38C104.653 15.38 105.833 15.6833 106.88 16.29C107.926 16.8966 108.756 17.76 109.37 18.88C109.976 20 110.28 21.33 110.28 22.87V34H105.55V24.02C105.55 22.4333 105.19 21.2866 104.47 20.58C103.743 19.8666 102.796 19.51 101.63 19.51C100.63 19.51 99.7496 19.8666 98.9896 20.58C98.2296 21.2866 97.8496 22.4333 97.8496 24.02V34ZM121.19 34.45C119.536 34.45 118.026 34.0266 116.66 33.18C115.293 32.3266 114.21 31.1833 113.41 29.75C112.603 28.31 112.2 26.7166 112.2 24.97C112.2 23.6633 112.433 22.4333 112.9 21.28C113.366 20.12 114.01 19.1033 114.83 18.23C115.643 17.3566 116.593 16.67 117.68 16.17C118.766 15.6633 119.936 15.41 121.19 15.41C122.783 15.41 124.023 15.71 124.91 16.31C125.79 16.9033 126.476 17.69 126.97 18.67V15.8H131.66V34H127.08V31.02C126.586 32.0533 125.89 32.8833 124.99 33.5099C124.09 34.1366 122.823 34.45 121.19 34.45ZM121.97 30.18C123.016 30.18 123.92 29.9433 124.68 29.47C125.433 28.99 126.023 28.3533 126.45 27.56C126.87 26.7666 127.08 25.9033 127.08 24.97C127.08 24.01 126.87 23.1333 126.45 22.34C126.023 21.5533 125.433 20.9133 124.68 20.42C123.92 19.9266 123.016 19.68 121.97 19.68C120.963 19.68 120.08 19.92 119.32 20.4C118.566 20.88 117.98 21.5166 117.56 22.31C117.133 23.1033 116.92 23.9766 116.92 24.93C116.92 25.8433 117.133 26.7033 117.56 27.51C117.98 28.31 118.566 28.9566 119.32 29.45C120.08 29.9366 120.963 30.18 121.97 30.18ZM139.19 41H134.46V15.8H139.12V18.74C139.606 17.7333 140.3 16.9266 141.2 16.32C142.1 15.7133 143.343 15.41 144.93 15.41C146.183 15.41 147.353 15.6633 148.44 16.17C149.526 16.67 150.48 17.3566 151.3 18.23C152.113 19.1033 152.753 20.12 153.22 21.28C153.686 22.4333 153.92 23.6633 153.92 24.97C153.92 26.7166 153.516 28.31 152.71 29.75C151.903 31.1833 150.826 32.3266 149.48 33.18C148.126 34.0266 146.61 34.45 144.93 34.45C143.363 34.45 142.136 34.1666 141.25 33.5999C140.363 33.0266 139.676 32.2599 139.19 31.2999V41ZM144.16 30.18C145.16 30.18 146.04 29.9366 146.8 29.45C147.56 28.9566 148.146 28.31 148.56 27.51C148.986 26.7033 149.2 25.8433 149.2 24.93C149.2 23.9766 148.986 23.1033 148.56 22.31C148.146 21.5166 147.56 20.88 146.8 20.4C146.04 19.92 145.16 19.68 144.16 19.68C143.133 19.68 142.233 19.9266 141.46 20.42C140.693 20.9133 140.096 21.5533 139.67 22.34C139.256 23.1333 139.05 24.01 139.05 24.97C139.05 25.9033 139.256 26.7666 139.67 27.56C140.096 28.3533 140.693 28.99 141.46 29.47C142.233 29.9433 143.133 30.18 144.16 30.18ZM162.78 34.4199C161.466 34.4199 160.286 34.1166 159.24 33.5099C158.193 32.9033 157.366 32.0333 156.76 30.9C156.146 29.7666 155.84 28.4433 155.84 26.93V15.8H160.57V25.77C160.57 27.3366 160.886 28.48 161.52 29.2C162.146 29.9266 163.043 30.29 164.21 30.29C165.216 30.29 166.096 29.9266 166.85 29.2C167.61 28.48 167.99 27.3366 167.99 25.77V15.8H172.72V34H168.13V31.27C167.69 32.3166 167.043 33.1033 166.19 33.63C165.336 34.1566 164.2 34.4199 162.78 34.4199ZM180.24 34H175.52V8.44995H180.24V34ZM189.27 34.45C186.216 34.45 183.696 33.39 181.71 31.27L184.9 28.36C186.226 29.86 187.65 30.61 189.17 30.61C189.983 30.61 190.606 30.4266 191.04 30.06C191.473 29.7 191.69 29.2499 191.69 28.7099C191.69 28.3899 191.613 28.1133 191.46 27.88C191.306 27.64 190.99 27.4166 190.51 27.2099C190.036 26.9966 189.32 26.7866 188.36 26.58C186.726 26.18 185.513 25.69 184.72 25.11C183.926 24.5233 183.403 23.87 183.15 23.15C182.89 22.4233 182.76 21.6766 182.76 20.91C182.76 19.3233 183.36 18 184.56 16.94C185.766 15.8733 187.43 15.34 189.55 15.34C191.023 15.34 192.283 15.5633 193.33 16.01C194.383 16.45 195.376 17.2766 196.31 18.49L192.88 21.12C192.433 20.42 191.936 19.9166 191.39 19.61C190.843 19.31 190.266 19.16 189.66 19.16C189.006 19.16 188.463 19.2866 188.03 19.54C187.596 19.8 187.38 20.21 187.38 20.77C187.38 21.0766 187.52 21.3733 187.8 21.66C188.08 21.9533 188.756 22.24 189.83 22.52C191.603 22.96 192.956 23.48 193.89 24.08C194.823 24.6733 195.466 25.3433 195.82 26.09C196.166 26.8366 196.34 27.6633 196.34 28.57C196.34 29.69 196.03 30.6966 195.41 31.59C194.796 32.47 193.956 33.1699 192.89 33.6899C191.83 34.1966 190.623 34.45 189.27 34.45ZM206.91 34.45C205.043 34.45 203.4 34.02 201.98 33.16C200.553 32.2933 199.45 31.1433 198.67 29.7099C197.89 28.2766 197.5 26.6833 197.5 24.93C197.5 23.1833 197.906 21.58 198.72 20.12C199.54 18.66 200.653 17.5 202.06 16.64C203.473 15.7733 205.09 15.34 206.91 15.34C208.73 15.34 210.333 15.7733 211.72 16.64C213.113 17.5 214.2 18.66 214.98 20.12C215.76 21.58 216.15 23.1833 216.15 24.93C216.15 25.19 216.14 25.46 216.12 25.74C216.093 26.02 216.056 26.31 216.01 26.61H202.4C202.653 27.69 203.17 28.5666 203.95 29.24C204.736 29.9133 205.723 30.25 206.91 30.25C207.936 30.25 208.83 30.0166 209.59 29.5499C210.35 29.0899 210.94 28.5066 211.36 27.7999L215.03 30.57C214.31 31.7166 213.226 32.6499 211.78 33.3699C210.333 34.0899 208.71 34.45 206.91 34.45ZM206.84 19.41C205.72 19.41 204.763 19.7466 203.97 20.42C203.176 21.0933 202.653 21.98 202.4 23.08H211.39C211.136 22.0733 210.606 21.21 209.8 20.49C208.993 19.77 208.006 19.41 206.84 19.41Z" fill="white"/>
</svg>
