<svg width="509" height="397" viewBox="0 0 509 397" fill="none" xmlns="http://www.w3.org/2000/svg">
<line x1="35" y1="166.316" x2="472" y2="166.316" stroke="#53DB78" stroke-opacity="0.2"/>
<path d="M12 8.31641H497C503.351 8.31641 508.5 13.4651 508.5 19.8164V396.316H0.5V19.8164L0.514648 19.2246C0.82265 13.1484 5.8472 8.31641 12 8.31641Z" fill="url(#paint0_linear_2196_36)" fill-opacity="0.1" stroke="url(#paint1_linear_2196_36)"/>
<path d="M35 278.816C35 272.189 40.3726 266.816 47 266.816H460C466.627 266.816 472 272.189 472 278.816V331.816C472 338.444 466.627 343.816 460 343.816H47C40.3726 343.816 35 338.444 35 331.816V278.816Z" fill="url(#paint2_linear_2196_36)" fill-opacity="0.1"/>
<path d="M47 267.316H460C466.351 267.316 471.5 272.465 471.5 278.816V331.816C471.5 338.168 466.351 343.316 460 343.316H47C40.6487 343.316 35.5 338.168 35.5 331.816V278.816C35.5 272.465 40.6487 267.316 47 267.316Z" stroke="url(#paint3_linear_2196_36)" stroke-opacity="0.8"/>
<path d="M39.72 60.8164V48.4564H35.58V46.8164H45.88V48.4564H41.72V60.8164H39.72ZM47.8053 60.8164V46.4164H49.8053V52.3764C50.1386 51.7897 50.5986 51.3297 51.1853 50.9964C51.7853 50.6631 52.4453 50.4964 53.1653 50.4964C53.9653 50.4964 54.652 50.6631 55.2253 50.9964C55.7986 51.3164 56.2386 51.8031 56.5453 52.4564C56.852 53.0964 57.0053 53.9031 57.0053 54.8764V60.8164H55.0253V55.0764C55.0253 54.1431 54.8253 53.4364 54.4253 52.9564C54.0253 52.4631 53.432 52.2164 52.6453 52.2164C52.112 52.2164 51.632 52.3431 51.2053 52.5964C50.7786 52.8497 50.4386 53.2231 50.1853 53.7164C49.932 54.1964 49.8053 54.7831 49.8053 55.4764V60.8164H47.8053ZM59.5631 60.8164V50.7364H61.3631L61.5431 52.6364C61.7698 52.1831 62.0631 51.8031 62.4231 51.4964C62.7831 51.1764 63.2031 50.9297 63.6831 50.7564C64.1765 50.5831 64.7365 50.4964 65.3631 50.4964V52.6164H64.6431C64.2298 52.6164 63.8365 52.6697 63.4631 52.7764C63.0898 52.8697 62.7565 53.0364 62.4631 53.2764C62.1831 53.5164 61.9631 53.8431 61.8031 54.2564C61.6431 54.6697 61.5631 55.1831 61.5631 55.7964V60.8164H59.5631ZM71.4669 61.0564C70.5069 61.0564 69.6535 60.8364 68.9069 60.3964C68.1602 59.9564 67.5735 59.3431 67.1469 58.5564C66.7335 57.7697 66.5269 56.8564 66.5269 55.8164C66.5269 54.7497 66.7335 53.8231 67.1469 53.0364C67.5735 52.2364 68.1602 51.6164 68.9069 51.1764C69.6535 50.7231 70.5202 50.4964 71.5069 50.4964C72.4935 50.4964 73.3402 50.7164 74.0469 51.1564C74.7535 51.5964 75.3002 52.1831 75.6869 52.9164C76.0735 53.6364 76.2669 54.4364 76.2669 55.3164C76.2669 55.4497 76.2602 55.5964 76.2469 55.7564C76.2469 55.9031 76.2402 56.0697 76.2269 56.2564H67.9869V54.8364H74.2669C74.2269 53.9964 73.9469 53.3431 73.4269 52.8764C72.9069 52.3964 72.2602 52.1564 71.4869 52.1564C70.9402 52.1564 70.4402 52.2831 69.9869 52.5364C69.5335 52.7764 69.1669 53.1364 68.8869 53.6164C68.6202 54.0831 68.4869 54.6764 68.4869 55.3964V55.9564C68.4869 56.7031 68.6202 57.3364 68.8869 57.8564C69.1669 58.3631 69.5335 58.7497 69.9869 59.0164C70.4402 59.2697 70.9335 59.3964 71.4669 59.3964C72.1069 59.3964 72.6335 59.2564 73.0469 58.9764C73.4602 58.6964 73.7669 58.3164 73.9669 57.8364H75.9669C75.7935 58.4497 75.5002 59.0031 75.0869 59.4964C74.6735 59.9764 74.1602 60.3564 73.5469 60.6364C72.9469 60.9164 72.2535 61.0564 71.4669 61.0564ZM81.8289 61.0564C81.0022 61.0564 80.3156 60.9164 79.7689 60.6364C79.2222 60.3564 78.8156 59.9831 78.5489 59.5164C78.2822 59.0364 78.1489 58.5231 78.1489 57.9764C78.1489 57.3097 78.3222 56.7431 78.6689 56.2764C79.0156 55.7964 79.5089 55.4297 80.1489 55.1764C80.7889 54.9231 81.5556 54.7964 82.4489 54.7964H85.0689C85.0689 54.2097 84.9822 53.7231 84.8089 53.3364C84.6356 52.9497 84.3756 52.6631 84.0289 52.4764C83.6956 52.2764 83.2689 52.1764 82.7489 52.1764C82.1489 52.1764 81.6356 52.3231 81.2089 52.6164C80.7822 52.8964 80.5156 53.3164 80.4089 53.8764H78.4089C78.4889 53.1697 78.7289 52.5697 79.1289 52.0764C79.5422 51.5697 80.0689 51.1831 80.7089 50.9164C81.3489 50.6364 82.0289 50.4964 82.7489 50.4964C83.6956 50.4964 84.4889 50.6631 85.1289 50.9964C85.7689 51.3297 86.2489 51.8031 86.5689 52.4164C86.9022 53.0164 87.0689 53.7364 87.0689 54.5764V60.8164H85.3289L85.1689 59.1164C85.0222 59.3831 84.8489 59.6364 84.6489 59.8764C84.4489 60.1164 84.2089 60.3231 83.9289 60.4964C83.6622 60.6697 83.3489 60.8031 82.9889 60.8964C82.6422 61.0031 82.2556 61.0564 81.8289 61.0564ZM82.2089 59.4364C82.6356 59.4364 83.0222 59.3497 83.3689 59.1764C83.7156 59.0031 84.0089 58.7697 84.2489 58.4764C84.5022 58.1697 84.6889 57.8297 84.8089 57.4564C84.9422 57.0697 85.0156 56.6764 85.0289 56.2764V56.2164H82.6489C82.0756 56.2164 81.6089 56.2897 81.2489 56.4364C80.9022 56.5697 80.6489 56.7564 80.4889 56.9964C80.3289 57.2364 80.2489 57.5164 80.2489 57.8364C80.2489 58.1697 80.3222 58.4564 80.4689 58.6964C80.6289 58.9231 80.8556 59.1031 81.1489 59.2364C81.4422 59.3697 81.7956 59.4364 82.2089 59.4364ZM93.5669 60.8164C92.9269 60.8164 92.3735 60.7164 91.9069 60.5164C91.4402 60.3164 91.0802 59.9831 90.8269 59.5164C90.5735 59.0497 90.4469 58.4164 90.4469 57.6164V52.4364H88.7069V50.7364H90.4469L90.6869 48.2164H92.4469V50.7364H95.3069V52.4364H92.4469V57.6364C92.4469 58.2097 92.5669 58.6031 92.8069 58.8164C93.0469 59.0164 93.4602 59.1164 94.0469 59.1164H95.2069V60.8164H93.5669ZM102.73 60.8164V46.8164H104.73V59.2364H111.13V60.8164H102.73ZM117.523 61.0564C116.576 61.0564 115.723 60.8364 114.963 60.3964C114.216 59.9564 113.623 59.3431 113.183 58.5564C112.756 57.7564 112.543 56.8364 112.543 55.7964C112.543 54.7297 112.763 53.8031 113.203 53.0164C113.643 52.2164 114.243 51.5964 115.003 51.1564C115.763 50.7164 116.616 50.4964 117.563 50.4964C118.523 50.4964 119.376 50.7164 120.123 51.1564C120.869 51.5964 121.456 52.2097 121.883 52.9964C122.323 53.7831 122.543 54.7097 122.543 55.7764C122.543 56.8431 122.323 57.7697 121.883 58.5564C121.456 59.3431 120.863 59.9564 120.103 60.3964C119.343 60.8364 118.483 61.0564 117.523 61.0564ZM117.523 59.3364C118.069 59.3364 118.563 59.2031 119.003 58.9364C119.456 58.6697 119.816 58.2764 120.083 57.7564C120.363 57.2231 120.503 56.5631 120.503 55.7764C120.503 54.9897 120.369 54.3364 120.103 53.8164C119.836 53.2831 119.476 52.8831 119.023 52.6164C118.583 52.3497 118.096 52.2164 117.563 52.2164C117.029 52.2164 116.536 52.3497 116.083 52.6164C115.629 52.8831 115.263 53.2831 114.983 53.8164C114.716 54.3364 114.583 54.9897 114.583 55.7764C114.583 56.5631 114.716 57.2231 114.983 57.7564C115.263 58.2764 115.623 58.6697 116.063 58.9364C116.516 59.2031 117.003 59.3364 117.523 59.3364ZM128.487 65.4564C127.567 65.4564 126.754 65.3364 126.047 65.0964C125.341 64.8697 124.794 64.5164 124.407 64.0364C124.021 63.5564 123.827 62.9697 123.827 62.2764C123.827 61.9164 123.907 61.5497 124.067 61.1764C124.227 60.8164 124.487 60.4697 124.847 60.1364C125.207 59.8031 125.694 59.5031 126.307 59.2364L127.427 60.1364C126.747 60.3897 126.287 60.6897 126.047 61.0364C125.821 61.3964 125.707 61.7431 125.707 62.0764C125.707 62.4764 125.827 62.8097 126.067 63.0764C126.307 63.3431 126.634 63.5431 127.047 63.6764C127.474 63.8097 127.954 63.8764 128.487 63.8764C129.007 63.8764 129.461 63.8031 129.847 63.6564C130.234 63.5097 130.534 63.3031 130.747 63.0364C130.961 62.7697 131.067 62.4564 131.067 62.0964C131.067 61.6697 130.907 61.3097 130.587 61.0164C130.267 60.7364 129.654 60.5697 128.747 60.5164C127.987 60.4631 127.341 60.3897 126.807 60.2964C126.287 60.2031 125.841 60.0897 125.467 59.9564C125.107 59.8231 124.801 59.6764 124.547 59.5164C124.307 59.3564 124.101 59.1897 123.927 59.0164V58.5564L125.927 56.4964L127.547 57.0564L125.367 59.0764L125.787 58.1764C125.934 58.2697 126.074 58.3631 126.207 58.4564C126.341 58.5364 126.521 58.6097 126.747 58.6764C126.974 58.7431 127.281 58.8031 127.667 58.8564C128.054 58.9097 128.561 58.9631 129.187 59.0164C130.094 59.0831 130.821 59.2431 131.367 59.4964C131.927 59.7497 132.334 60.0897 132.587 60.5164C132.841 60.9431 132.967 61.4497 132.967 62.0364C132.967 62.6097 132.807 63.1564 132.487 63.6764C132.181 64.1964 131.694 64.6231 131.027 64.9564C130.374 65.2897 129.527 65.4564 128.487 65.4564ZM128.487 57.7164C127.634 57.7164 126.907 57.5564 126.307 57.2364C125.721 56.9164 125.267 56.4831 124.947 55.9364C124.641 55.3897 124.487 54.7831 124.487 54.1164C124.487 53.4364 124.641 52.8297 124.947 52.2964C125.267 51.7497 125.727 51.3164 126.327 50.9964C126.927 50.6631 127.647 50.4964 128.487 50.4964C129.327 50.4964 130.041 50.6631 130.627 50.9964C131.227 51.3164 131.681 51.7497 131.987 52.2964C132.307 52.8297 132.467 53.4364 132.467 54.1164C132.467 54.7831 132.307 55.3897 131.987 55.9364C131.681 56.4831 131.227 56.9164 130.627 57.2364C130.041 57.5564 129.327 57.7164 128.487 57.7164ZM128.487 56.1164C129.141 56.1164 129.661 55.9497 130.047 55.6164C130.434 55.2697 130.627 54.7697 130.627 54.1164C130.627 53.4631 130.434 52.9697 130.047 52.6364C129.661 52.2897 129.141 52.1164 128.487 52.1164C127.834 52.1164 127.307 52.2897 126.907 52.6364C126.507 52.9697 126.307 53.4631 126.307 54.1164C126.307 54.7697 126.507 55.2697 126.907 55.6164C127.307 55.9497 127.834 56.1164 128.487 56.1164ZM130.127 52.3164L129.647 50.7364H133.787V52.1164L130.127 52.3164Z" fill="#E0F3E7"/>
<path d="M106.06 132.816V121.076L103.62 121.696V120.196L106.8 118.816H108.1V132.816H106.06ZM115.643 133.056C114.736 133.056 113.963 132.883 113.323 132.536C112.683 132.176 112.176 131.703 111.803 131.116C111.429 130.516 111.203 129.87 111.123 129.176H112.983C113.116 129.87 113.416 130.41 113.883 130.796C114.349 131.17 114.943 131.356 115.663 131.356C116.329 131.356 116.916 131.156 117.423 130.756C117.929 130.356 118.336 129.75 118.643 128.936C118.949 128.123 119.123 127.096 119.163 125.856C119.176 125.816 119.183 125.776 119.183 125.736C119.183 125.696 119.183 125.656 119.183 125.616C118.969 126.016 118.676 126.383 118.303 126.716C117.929 127.05 117.489 127.316 116.983 127.516C116.489 127.703 115.936 127.796 115.323 127.796C114.536 127.796 113.796 127.616 113.103 127.256C112.423 126.883 111.863 126.356 111.423 125.676C110.996 124.996 110.783 124.203 110.783 123.296C110.783 122.483 110.976 121.716 111.363 120.996C111.763 120.276 112.323 119.696 113.043 119.256C113.776 118.803 114.636 118.576 115.623 118.576C116.649 118.576 117.509 118.77 118.203 119.156C118.909 119.53 119.469 120.043 119.883 120.696C120.309 121.336 120.616 122.056 120.803 122.856C121.003 123.643 121.103 124.456 121.103 125.296C121.103 126.83 120.889 128.183 120.463 129.356C120.036 130.516 119.416 131.423 118.603 132.076C117.789 132.73 116.803 133.056 115.643 133.056ZM115.763 126.096C116.336 126.096 116.849 125.97 117.303 125.716C117.756 125.45 118.116 125.096 118.383 124.656C118.649 124.216 118.783 123.73 118.783 123.196C118.783 122.636 118.649 122.143 118.383 121.716C118.116 121.276 117.749 120.936 117.283 120.696C116.829 120.443 116.316 120.316 115.743 120.316C115.183 120.316 114.676 120.443 114.223 120.696C113.769 120.936 113.409 121.276 113.143 121.716C112.889 122.143 112.763 122.643 112.763 123.216C112.763 123.79 112.889 124.296 113.143 124.736C113.409 125.163 113.769 125.496 114.223 125.736C114.676 125.976 115.189 126.096 115.763 126.096ZM123.067 132.816V131.376C124 130.656 124.887 129.93 125.727 129.196C126.567 128.463 127.313 127.736 127.967 127.016C128.633 126.283 129.153 125.57 129.527 124.876C129.9 124.17 130.087 123.496 130.087 122.856C130.087 122.403 130.007 121.983 129.847 121.596C129.687 121.21 129.433 120.896 129.087 120.656C128.74 120.403 128.267 120.276 127.667 120.276C127.093 120.276 126.613 120.403 126.227 120.656C125.853 120.91 125.567 121.25 125.367 121.676C125.18 122.09 125.087 122.55 125.087 123.056H123.147C123.16 122.096 123.367 121.283 123.767 120.616C124.167 119.95 124.707 119.443 125.387 119.096C126.08 118.75 126.853 118.576 127.707 118.576C128.6 118.576 129.373 118.743 130.027 119.076C130.68 119.396 131.187 119.87 131.547 120.496C131.907 121.11 132.087 121.863 132.087 122.756C132.087 123.396 131.96 124.036 131.707 124.676C131.453 125.303 131.107 125.916 130.667 126.516C130.24 127.116 129.76 127.696 129.227 128.256C128.693 128.803 128.14 129.323 127.567 129.816C127.007 130.31 126.467 130.756 125.947 131.156H132.527V132.816H123.067ZM135.59 132.916C135.203 132.916 134.883 132.796 134.63 132.556C134.39 132.303 134.27 132.003 134.27 131.656C134.27 131.296 134.39 130.996 134.63 130.756C134.883 130.503 135.203 130.376 135.59 130.376C135.976 130.376 136.29 130.503 136.53 130.756C136.77 130.996 136.89 131.296 136.89 131.656C136.89 132.003 136.77 132.303 136.53 132.556C136.29 132.796 135.976 132.916 135.59 132.916ZM140.259 132.816V121.076L137.819 121.696V120.196L140.999 118.816H142.299V132.816H140.259ZM150.322 133.056C149.295 133.056 148.428 132.87 147.722 132.496C147.028 132.11 146.468 131.596 146.042 130.956C145.615 130.303 145.302 129.583 145.102 128.796C144.915 127.996 144.822 127.176 144.822 126.336C144.822 124.79 145.035 123.436 145.462 122.276C145.902 121.116 146.528 120.21 147.342 119.556C148.155 118.903 149.135 118.576 150.282 118.576C151.202 118.576 151.982 118.756 152.622 119.116C153.275 119.463 153.782 119.93 154.142 120.516C154.515 121.103 154.742 121.75 154.822 122.456H152.962C152.842 121.763 152.542 121.23 152.062 120.856C151.595 120.47 150.995 120.276 150.262 120.276C149.608 120.276 149.022 120.483 148.502 120.896C147.982 121.296 147.568 121.91 147.262 122.736C146.968 123.563 146.802 124.61 146.762 125.876C146.762 125.89 146.762 125.91 146.762 125.936C146.762 125.963 146.762 125.99 146.762 126.016C146.962 125.616 147.248 125.25 147.622 124.916C147.995 124.583 148.435 124.323 148.942 124.136C149.462 123.936 150.022 123.836 150.622 123.836C151.408 123.836 152.142 124.023 152.822 124.396C153.515 124.756 154.075 125.276 154.502 125.956C154.928 126.636 155.142 127.43 155.142 128.336C155.142 129.15 154.942 129.916 154.542 130.636C154.155 131.356 153.602 131.943 152.882 132.396C152.162 132.836 151.308 133.056 150.322 133.056ZM150.182 131.316C150.755 131.316 151.262 131.196 151.702 130.956C152.155 130.703 152.508 130.356 152.762 129.916C153.028 129.476 153.162 128.976 153.162 128.416C153.162 127.843 153.028 127.343 152.762 126.916C152.508 126.476 152.155 126.136 151.702 125.896C151.262 125.656 150.755 125.536 150.182 125.536C149.608 125.536 149.095 125.67 148.642 125.936C148.188 126.19 147.828 126.536 147.562 126.976C147.295 127.403 147.162 127.89 147.162 128.436C147.162 128.996 147.295 129.496 147.562 129.936C147.828 130.363 148.188 130.703 148.642 130.956C149.108 131.196 149.622 131.316 150.182 131.316ZM162.519 133.056C161.599 133.056 160.766 132.89 160.019 132.556C159.286 132.21 158.699 131.73 158.259 131.116C157.833 130.503 157.619 129.79 157.619 128.976C157.619 128.403 157.726 127.876 157.939 127.396C158.153 126.903 158.453 126.476 158.839 126.116C159.226 125.756 159.679 125.496 160.199 125.336C159.506 125.056 158.959 124.643 158.559 124.096C158.159 123.55 157.959 122.95 157.959 122.296C157.959 121.616 158.139 120.996 158.499 120.436C158.859 119.876 159.379 119.43 160.059 119.096C160.739 118.75 161.559 118.576 162.519 118.576C163.479 118.576 164.299 118.75 164.979 119.096C165.659 119.43 166.173 119.876 166.519 120.436C166.879 120.996 167.059 121.616 167.059 122.296C167.059 122.95 166.859 123.556 166.459 124.116C166.073 124.663 165.533 125.07 164.839 125.336C165.359 125.496 165.813 125.756 166.199 126.116C166.586 126.476 166.886 126.903 167.099 127.396C167.313 127.876 167.419 128.403 167.419 128.976C167.419 129.79 167.199 130.503 166.759 131.116C166.333 131.73 165.746 132.21 164.999 132.556C164.266 132.89 163.439 133.056 162.519 133.056ZM162.519 131.336C163.493 131.336 164.219 131.11 164.699 130.656C165.193 130.19 165.439 129.583 165.439 128.836C165.439 127.996 165.173 127.356 164.639 126.916C164.119 126.476 163.413 126.256 162.519 126.256C161.626 126.256 160.913 126.476 160.379 126.916C159.859 127.356 159.599 127.996 159.599 128.836C159.599 129.583 159.839 130.19 160.319 130.656C160.813 131.11 161.546 131.336 162.519 131.336ZM162.519 124.676C163.306 124.676 163.926 124.47 164.379 124.056C164.846 123.643 165.079 123.116 165.079 122.476C165.079 121.743 164.853 121.19 164.399 120.816C163.946 120.443 163.319 120.256 162.519 120.256C161.733 120.256 161.113 120.443 160.659 120.816C160.206 121.19 159.979 121.743 159.979 122.476C159.979 123.116 160.206 123.643 160.659 124.056C161.113 124.47 161.733 124.676 162.519 124.676ZM170.844 132.916C170.457 132.916 170.137 132.796 169.884 132.556C169.644 132.303 169.524 132.003 169.524 131.656C169.524 131.296 169.644 130.996 169.884 130.756C170.137 130.503 170.457 130.376 170.844 130.376C171.23 130.376 171.544 130.503 171.784 130.756C172.024 130.996 172.144 131.296 172.144 131.656C172.144 132.003 172.024 132.303 171.784 132.556C171.544 132.796 171.23 132.916 170.844 132.916ZM175.513 132.816V121.076L173.073 121.696V120.196L176.253 118.816H177.553V132.816H175.513ZM181.176 132.916C180.789 132.916 180.469 132.796 180.216 132.556C179.976 132.303 179.856 132.003 179.856 131.656C179.856 131.296 179.976 130.996 180.216 130.756C180.469 130.503 180.789 130.376 181.176 130.376C181.562 130.376 181.876 130.503 182.116 130.756C182.356 130.996 182.476 131.296 182.476 131.656C182.476 132.003 182.356 132.303 182.116 132.556C181.876 132.796 181.562 132.916 181.176 132.916ZM184.493 132.816V131.376C185.426 130.656 186.313 129.93 187.153 129.196C187.993 128.463 188.739 127.736 189.393 127.016C190.059 126.283 190.579 125.57 190.953 124.876C191.326 124.17 191.513 123.496 191.513 122.856C191.513 122.403 191.433 121.983 191.273 121.596C191.113 121.21 190.859 120.896 190.513 120.656C190.166 120.403 189.693 120.276 189.093 120.276C188.519 120.276 188.039 120.403 187.653 120.656C187.279 120.91 186.993 121.25 186.793 121.676C186.606 122.09 186.513 122.55 186.513 123.056H184.573C184.586 122.096 184.793 121.283 185.193 120.616C185.593 119.95 186.133 119.443 186.813 119.096C187.506 118.75 188.279 118.576 189.133 118.576C190.026 118.576 190.799 118.743 191.453 119.076C192.106 119.396 192.613 119.87 192.973 120.496C193.333 121.11 193.513 121.863 193.513 122.756C193.513 123.396 193.386 124.036 193.133 124.676C192.879 125.303 192.533 125.916 192.093 126.516C191.666 127.116 191.186 127.696 190.653 128.256C190.119 128.803 189.566 129.323 188.993 129.816C188.433 130.31 187.893 130.756 187.373 131.156H193.953V132.816H184.493ZM201.619 133.056C200.379 133.056 199.313 132.756 198.419 132.156C197.526 131.543 196.839 130.696 196.359 129.616C195.879 128.523 195.639 127.256 195.639 125.816C195.639 124.376 195.879 123.116 196.359 122.036C196.839 120.943 197.526 120.096 198.419 119.496C199.313 118.883 200.379 118.576 201.619 118.576C202.859 118.576 203.919 118.883 204.799 119.496C205.693 120.096 206.373 120.943 206.839 122.036C207.319 123.116 207.559 124.376 207.559 125.816C207.559 127.256 207.319 128.523 206.839 129.616C206.373 130.696 205.693 131.543 204.799 132.156C203.919 132.756 202.859 133.056 201.619 133.056ZM201.619 131.276C202.366 131.276 203.033 131.056 203.619 130.616C204.219 130.176 204.686 129.55 205.019 128.736C205.353 127.923 205.519 126.95 205.519 125.816C205.519 124.683 205.353 123.71 205.019 122.896C204.686 122.083 204.219 121.463 203.619 121.036C203.033 120.596 202.366 120.376 201.619 120.376C200.859 120.376 200.179 120.596 199.579 121.036C198.979 121.463 198.513 122.083 198.179 122.896C197.846 123.71 197.679 124.683 197.679 125.816C197.679 126.95 197.846 127.923 198.179 128.736C198.513 129.55 198.979 130.176 199.579 130.616C200.179 131.056 200.859 131.276 201.619 131.276Z" fill="#B3FFC8"/>
<path d="M374.904 132.816V121.076L372.464 121.696V120.196L375.644 118.816H376.944V132.816H374.904ZM384.486 133.056C383.58 133.056 382.806 132.883 382.166 132.536C381.526 132.176 381.02 131.703 380.646 131.116C380.273 130.516 380.046 129.87 379.966 129.176H381.826C381.96 129.87 382.26 130.41 382.726 130.796C383.193 131.17 383.786 131.356 384.506 131.356C385.173 131.356 385.76 131.156 386.266 130.756C386.773 130.356 387.18 129.75 387.486 128.936C387.793 128.123 387.966 127.096 388.006 125.856C388.02 125.816 388.026 125.776 388.026 125.736C388.026 125.696 388.026 125.656 388.026 125.616C387.813 126.016 387.52 126.383 387.146 126.716C386.773 127.05 386.333 127.316 385.826 127.516C385.333 127.703 384.78 127.796 384.166 127.796C383.38 127.796 382.64 127.616 381.946 127.256C381.266 126.883 380.706 126.356 380.266 125.676C379.84 124.996 379.626 124.203 379.626 123.296C379.626 122.483 379.82 121.716 380.206 120.996C380.606 120.276 381.166 119.696 381.886 119.256C382.62 118.803 383.48 118.576 384.466 118.576C385.493 118.576 386.353 118.77 387.046 119.156C387.753 119.53 388.313 120.043 388.726 120.696C389.153 121.336 389.46 122.056 389.646 122.856C389.846 123.643 389.946 124.456 389.946 125.296C389.946 126.83 389.733 128.183 389.306 129.356C388.88 130.516 388.26 131.423 387.446 132.076C386.633 132.73 385.646 133.056 384.486 133.056ZM384.606 126.096C385.18 126.096 385.693 125.97 386.146 125.716C386.6 125.45 386.96 125.096 387.226 124.656C387.493 124.216 387.626 123.73 387.626 123.196C387.626 122.636 387.493 122.143 387.226 121.716C386.96 121.276 386.593 120.936 386.126 120.696C385.673 120.443 385.16 120.316 384.586 120.316C384.026 120.316 383.52 120.443 383.066 120.696C382.613 120.936 382.253 121.276 381.986 121.716C381.733 122.143 381.606 122.643 381.606 123.216C381.606 123.79 381.733 124.296 381.986 124.736C382.253 125.163 382.613 125.496 383.066 125.736C383.52 125.976 384.033 126.096 384.606 126.096ZM391.91 132.816V131.376C392.844 130.656 393.73 129.93 394.57 129.196C395.41 128.463 396.157 127.736 396.81 127.016C397.477 126.283 397.997 125.57 398.37 124.876C398.744 124.17 398.93 123.496 398.93 122.856C398.93 122.403 398.85 121.983 398.69 121.596C398.53 121.21 398.277 120.896 397.93 120.656C397.584 120.403 397.11 120.276 396.51 120.276C395.937 120.276 395.457 120.403 395.07 120.656C394.697 120.91 394.41 121.25 394.21 121.676C394.024 122.09 393.93 122.55 393.93 123.056H391.99C392.004 122.096 392.21 121.283 392.61 120.616C393.01 119.95 393.55 119.443 394.23 119.096C394.924 118.75 395.697 118.576 396.55 118.576C397.444 118.576 398.217 118.743 398.87 119.076C399.524 119.396 400.03 119.87 400.39 120.496C400.75 121.11 400.93 121.863 400.93 122.756C400.93 123.396 400.804 124.036 400.55 124.676C400.297 125.303 399.95 125.916 399.51 126.516C399.084 127.116 398.604 127.696 398.07 128.256C397.537 128.803 396.984 129.323 396.41 129.816C395.85 130.31 395.31 130.756 394.79 131.156H401.37V132.816H391.91ZM404.433 132.916C404.047 132.916 403.727 132.796 403.473 132.556C403.233 132.303 403.113 132.003 403.113 131.656C403.113 131.296 403.233 130.996 403.473 130.756C403.727 130.503 404.047 130.376 404.433 130.376C404.82 130.376 405.133 130.503 405.373 130.756C405.613 130.996 405.733 131.296 405.733 131.656C405.733 132.003 405.613 132.303 405.373 132.556C405.133 132.796 404.82 132.916 404.433 132.916ZM409.103 132.816V121.076L406.663 121.696V120.196L409.843 118.816H411.143V132.816H409.103ZM419.165 133.056C418.139 133.056 417.272 132.87 416.565 132.496C415.872 132.11 415.312 131.596 414.885 130.956C414.459 130.303 414.145 129.583 413.945 128.796C413.759 127.996 413.665 127.176 413.665 126.336C413.665 124.79 413.879 123.436 414.305 122.276C414.745 121.116 415.372 120.21 416.185 119.556C416.999 118.903 417.979 118.576 419.125 118.576C420.045 118.576 420.825 118.756 421.465 119.116C422.119 119.463 422.625 119.93 422.985 120.516C423.359 121.103 423.585 121.75 423.665 122.456H421.805C421.685 121.763 421.385 121.23 420.905 120.856C420.439 120.47 419.839 120.276 419.105 120.276C418.452 120.276 417.865 120.483 417.345 120.896C416.825 121.296 416.412 121.91 416.105 122.736C415.812 123.563 415.645 124.61 415.605 125.876C415.605 125.89 415.605 125.91 415.605 125.936C415.605 125.963 415.605 125.99 415.605 126.016C415.805 125.616 416.092 125.25 416.465 124.916C416.839 124.583 417.279 124.323 417.785 124.136C418.305 123.936 418.865 123.836 419.465 123.836C420.252 123.836 420.985 124.023 421.665 124.396C422.359 124.756 422.919 125.276 423.345 125.956C423.772 126.636 423.985 127.43 423.985 128.336C423.985 129.15 423.785 129.916 423.385 130.636C422.999 131.356 422.445 131.943 421.725 132.396C421.005 132.836 420.152 133.056 419.165 133.056ZM419.025 131.316C419.599 131.316 420.105 131.196 420.545 130.956C420.999 130.703 421.352 130.356 421.605 129.916C421.872 129.476 422.005 128.976 422.005 128.416C422.005 127.843 421.872 127.343 421.605 126.916C421.352 126.476 420.999 126.136 420.545 125.896C420.105 125.656 419.599 125.536 419.025 125.536C418.452 125.536 417.939 125.67 417.485 125.936C417.032 126.19 416.672 126.536 416.405 126.976C416.139 127.403 416.005 127.89 416.005 128.436C416.005 128.996 416.139 129.496 416.405 129.936C416.672 130.363 417.032 130.703 417.485 130.956C417.952 131.196 418.465 131.316 419.025 131.316ZM431.363 133.056C430.443 133.056 429.61 132.89 428.863 132.556C428.13 132.21 427.543 131.73 427.103 131.116C426.676 130.503 426.463 129.79 426.463 128.976C426.463 128.403 426.57 127.876 426.783 127.396C426.996 126.903 427.296 126.476 427.683 126.116C428.07 125.756 428.523 125.496 429.043 125.336C428.35 125.056 427.803 124.643 427.403 124.096C427.003 123.55 426.803 122.95 426.803 122.296C426.803 121.616 426.983 120.996 427.343 120.436C427.703 119.876 428.223 119.43 428.903 119.096C429.583 118.75 430.403 118.576 431.363 118.576C432.323 118.576 433.143 118.75 433.823 119.096C434.503 119.43 435.016 119.876 435.363 120.436C435.723 120.996 435.903 121.616 435.903 122.296C435.903 122.95 435.703 123.556 435.303 124.116C434.916 124.663 434.376 125.07 433.683 125.336C434.203 125.496 434.656 125.756 435.043 126.116C435.43 126.476 435.73 126.903 435.943 127.396C436.156 127.876 436.263 128.403 436.263 128.976C436.263 129.79 436.043 130.503 435.603 131.116C435.176 131.73 434.59 132.21 433.843 132.556C433.11 132.89 432.283 133.056 431.363 133.056ZM431.363 131.336C432.336 131.336 433.063 131.11 433.543 130.656C434.036 130.19 434.283 129.583 434.283 128.836C434.283 127.996 434.016 127.356 433.483 126.916C432.963 126.476 432.256 126.256 431.363 126.256C430.47 126.256 429.756 126.476 429.223 126.916C428.703 127.356 428.443 127.996 428.443 128.836C428.443 129.583 428.683 130.19 429.163 130.656C429.656 131.11 430.39 131.336 431.363 131.336ZM431.363 124.676C432.15 124.676 432.77 124.47 433.223 124.056C433.69 123.643 433.923 123.116 433.923 122.476C433.923 121.743 433.696 121.19 433.243 120.816C432.79 120.443 432.163 120.256 431.363 120.256C430.576 120.256 429.956 120.443 429.503 120.816C429.05 121.19 428.823 121.743 428.823 122.476C428.823 123.116 429.05 123.643 429.503 124.056C429.956 124.47 430.576 124.676 431.363 124.676ZM439.687 132.916C439.301 132.916 438.981 132.796 438.727 132.556C438.487 132.303 438.367 132.003 438.367 131.656C438.367 131.296 438.487 130.996 438.727 130.756C438.981 130.503 439.301 130.376 439.687 130.376C440.074 130.376 440.387 130.503 440.627 130.756C440.867 130.996 440.987 131.296 440.987 131.656C440.987 132.003 440.867 132.303 440.627 132.556C440.387 132.796 440.074 132.916 439.687 132.916ZM444.357 132.816V121.076L441.917 121.696V120.196L445.097 118.816H446.397V132.816H444.357ZM450.019 132.916C449.633 132.916 449.313 132.796 449.059 132.556C448.819 132.303 448.699 132.003 448.699 131.656C448.699 131.296 448.819 130.996 449.059 130.756C449.313 130.503 449.633 130.376 450.019 130.376C450.406 130.376 450.719 130.503 450.959 130.756C451.199 130.996 451.319 131.296 451.319 131.656C451.319 132.003 451.199 132.303 450.959 132.556C450.719 132.796 450.406 132.916 450.019 132.916ZM454.689 132.816V121.076L452.249 121.696V120.196L455.429 118.816H456.729V132.816H454.689ZM465.111 133.056C463.871 133.056 462.805 132.756 461.911 132.156C461.018 131.543 460.331 130.696 459.851 129.616C459.371 128.523 459.131 127.256 459.131 125.816C459.131 124.376 459.371 123.116 459.851 122.036C460.331 120.943 461.018 120.096 461.911 119.496C462.805 118.883 463.871 118.576 465.111 118.576C466.351 118.576 467.411 118.883 468.291 119.496C469.185 120.096 469.865 120.943 470.331 122.036C470.811 123.116 471.051 124.376 471.051 125.816C471.051 127.256 470.811 128.523 470.331 129.616C469.865 130.696 469.185 131.543 468.291 132.156C467.411 132.756 466.351 133.056 465.111 133.056ZM465.111 131.276C465.858 131.276 466.525 131.056 467.111 130.616C467.711 130.176 468.178 129.55 468.511 128.736C468.845 127.923 469.011 126.95 469.011 125.816C469.011 124.683 468.845 123.71 468.511 122.896C468.178 122.083 467.711 121.463 467.111 121.036C466.525 120.596 465.858 120.376 465.111 120.376C464.351 120.376 463.671 120.596 463.071 121.036C462.471 121.463 462.005 122.083 461.671 122.896C461.338 123.71 461.171 124.683 461.171 125.816C461.171 126.95 461.338 127.923 461.671 128.736C462.005 129.55 462.471 130.176 463.071 130.616C463.671 131.056 464.351 131.276 465.111 131.276Z" fill="#53DB78"/>
<path d="M372.873 221.816V210.076L370.433 210.696V209.196L373.613 207.816H374.913V221.816H372.873ZM382.455 222.056C381.548 222.056 380.775 221.883 380.135 221.536C379.495 221.176 378.988 220.703 378.615 220.116C378.242 219.516 378.015 218.87 377.935 218.176H379.795C379.928 218.87 380.228 219.41 380.695 219.796C381.162 220.17 381.755 220.356 382.475 220.356C383.142 220.356 383.728 220.156 384.235 219.756C384.742 219.356 385.148 218.75 385.455 217.936C385.762 217.123 385.935 216.096 385.975 214.856C385.988 214.816 385.995 214.776 385.995 214.736C385.995 214.696 385.995 214.656 385.995 214.616C385.782 215.016 385.488 215.383 385.115 215.716C384.742 216.05 384.302 216.316 383.795 216.516C383.302 216.703 382.748 216.796 382.135 216.796C381.348 216.796 380.608 216.616 379.915 216.256C379.235 215.883 378.675 215.356 378.235 214.676C377.808 213.996 377.595 213.203 377.595 212.296C377.595 211.483 377.788 210.716 378.175 209.996C378.575 209.276 379.135 208.696 379.855 208.256C380.588 207.803 381.448 207.576 382.435 207.576C383.462 207.576 384.322 207.77 385.015 208.156C385.722 208.53 386.282 209.043 386.695 209.696C387.122 210.336 387.428 211.056 387.615 211.856C387.815 212.643 387.915 213.456 387.915 214.296C387.915 215.83 387.702 217.183 387.275 218.356C386.848 219.516 386.228 220.423 385.415 221.076C384.602 221.73 383.615 222.056 382.455 222.056ZM382.575 215.096C383.148 215.096 383.662 214.97 384.115 214.716C384.568 214.45 384.928 214.096 385.195 213.656C385.462 213.216 385.595 212.73 385.595 212.196C385.595 211.636 385.462 211.143 385.195 210.716C384.928 210.276 384.562 209.936 384.095 209.696C383.642 209.443 383.128 209.316 382.555 209.316C381.995 209.316 381.488 209.443 381.035 209.696C380.582 209.936 380.222 210.276 379.955 210.716C379.702 211.143 379.575 211.643 379.575 212.216C379.575 212.79 379.702 213.296 379.955 213.736C380.222 214.163 380.582 214.496 381.035 214.736C381.488 214.976 382.002 215.096 382.575 215.096ZM396.793 221.816V218.956H389.773V217.396L396.473 207.816H398.773V217.216H400.773V218.956H398.773V221.816H396.793ZM391.953 217.216H396.913V210.016L391.953 217.216ZM403.555 221.916C403.168 221.916 402.848 221.796 402.595 221.556C402.355 221.303 402.235 221.003 402.235 220.656C402.235 220.296 402.355 219.996 402.595 219.756C402.848 219.503 403.168 219.376 403.555 219.376C403.941 219.376 404.255 219.503 404.495 219.756C404.735 219.996 404.855 220.296 404.855 220.656C404.855 221.003 404.735 221.303 404.495 221.556C404.255 221.796 403.941 221.916 403.555 221.916ZM408.224 221.816V210.076L405.784 210.696V209.196L408.964 207.816H410.264V221.816H408.224ZM414.327 221.816L419.667 209.536H412.267V207.816H421.727V209.276L416.407 221.816H414.327ZM423.18 221.816V220.376C424.113 219.656 425 218.93 425.84 218.196C426.68 217.463 427.427 216.736 428.08 216.016C428.747 215.283 429.267 214.57 429.64 213.876C430.013 213.17 430.2 212.496 430.2 211.856C430.2 211.403 430.12 210.983 429.96 210.596C429.8 210.21 429.547 209.896 429.2 209.656C428.853 209.403 428.38 209.276 427.78 209.276C427.207 209.276 426.727 209.403 426.34 209.656C425.967 209.91 425.68 210.25 425.48 210.676C425.293 211.09 425.2 211.55 425.2 212.056H423.26C423.273 211.096 423.48 210.283 423.88 209.616C424.28 208.95 424.82 208.443 425.5 208.096C426.193 207.75 426.967 207.576 427.82 207.576C428.713 207.576 429.487 207.743 430.14 208.076C430.793 208.396 431.3 208.87 431.66 209.496C432.02 210.11 432.2 210.863 432.2 211.756C432.2 212.396 432.073 213.036 431.82 213.676C431.567 214.303 431.22 214.916 430.78 215.516C430.353 216.116 429.873 216.696 429.34 217.256C428.807 217.803 428.253 218.323 427.68 218.816C427.12 219.31 426.58 219.756 426.06 220.156H432.64V221.816H423.18ZM435.703 221.916C435.316 221.916 434.996 221.796 434.743 221.556C434.503 221.303 434.383 221.003 434.383 220.656C434.383 220.296 434.503 219.996 434.743 219.756C434.996 219.503 435.316 219.376 435.703 219.376C436.09 219.376 436.403 219.503 436.643 219.756C436.883 219.996 437.003 220.296 437.003 220.656C437.003 221.003 436.883 221.303 436.643 221.556C436.403 221.796 436.09 221.916 435.703 221.916ZM439.02 221.816V220.376C439.953 219.656 440.84 218.93 441.68 218.196C442.52 217.463 443.267 216.736 443.92 216.016C444.587 215.283 445.107 214.57 445.48 213.876C445.853 213.17 446.04 212.496 446.04 211.856C446.04 211.403 445.96 210.983 445.8 210.596C445.64 210.21 445.387 209.896 445.04 209.656C444.693 209.403 444.22 209.276 443.62 209.276C443.047 209.276 442.567 209.403 442.18 209.656C441.807 209.91 441.52 210.25 441.32 210.676C441.133 211.09 441.04 211.55 441.04 212.056H439.1C439.113 211.096 439.32 210.283 439.72 209.616C440.12 208.95 440.66 208.443 441.34 208.096C442.033 207.75 442.807 207.576 443.66 207.576C444.553 207.576 445.327 207.743 445.98 208.076C446.633 208.396 447.14 208.87 447.5 209.496C447.86 210.11 448.04 210.863 448.04 211.756C448.04 212.396 447.913 213.036 447.66 213.676C447.407 214.303 447.06 214.916 446.62 215.516C446.193 216.116 445.713 216.696 445.18 217.256C444.647 217.803 444.093 218.323 443.52 218.816C442.96 219.31 442.42 219.756 441.9 220.156H448.48V221.816H439.02ZM451.543 221.916C451.156 221.916 450.836 221.796 450.583 221.556C450.343 221.303 450.223 221.003 450.223 220.656C450.223 220.296 450.343 219.996 450.583 219.756C450.836 219.503 451.156 219.376 451.543 219.376C451.929 219.376 452.243 219.503 452.483 219.756C452.723 219.996 452.843 220.296 452.843 220.656C452.843 221.003 452.723 221.303 452.483 221.556C452.243 221.796 451.929 221.916 451.543 221.916ZM456.212 221.816V210.076L453.772 210.696V209.196L456.952 207.816H458.252V221.816H456.212ZM465.995 222.056C465.008 222.056 464.162 221.883 463.455 221.536C462.748 221.176 462.188 220.696 461.775 220.096C461.362 219.483 461.108 218.796 461.015 218.036H462.975C463.108 218.716 463.442 219.276 463.975 219.716C464.508 220.143 465.182 220.356 465.995 220.356C466.608 220.356 467.135 220.21 467.575 219.916C468.015 219.623 468.355 219.23 468.595 218.736C468.835 218.243 468.955 217.696 468.955 217.096C468.955 216.456 468.828 215.903 468.575 215.436C468.335 214.956 467.995 214.583 467.555 214.316C467.128 214.05 466.628 213.916 466.055 213.916C465.362 213.916 464.762 214.076 464.255 214.396C463.762 214.703 463.402 215.096 463.175 215.576H461.235L462.395 207.816H469.935V209.556H463.935L463.195 213.476C463.515 213.116 463.942 212.823 464.475 212.596C465.022 212.37 465.642 212.256 466.335 212.256C467.042 212.256 467.675 212.383 468.235 212.636C468.795 212.876 469.268 213.216 469.655 213.656C470.055 214.096 470.355 214.61 470.555 215.196C470.768 215.783 470.875 216.403 470.875 217.056C470.875 217.763 470.762 218.416 470.535 219.016C470.308 219.616 469.982 220.15 469.555 220.616C469.142 221.07 468.628 221.423 468.015 221.676C467.415 221.93 466.742 222.056 465.995 222.056Z" fill="#53DB78"/>
<path d="M104.46 221.816V207.816H113.16V209.456H106.46V213.996H112.06V215.596H106.46V221.816H104.46ZM115.34 221.816V211.736H117.34V221.816H115.34ZM116.36 209.836C115.973 209.836 115.653 209.716 115.4 209.476C115.16 209.236 115.04 208.93 115.04 208.556C115.04 208.196 115.16 207.903 115.4 207.676C115.653 207.436 115.973 207.316 116.36 207.316C116.733 207.316 117.047 207.436 117.3 207.676C117.553 207.903 117.68 208.196 117.68 208.556C117.68 208.93 117.553 209.236 117.3 209.476C117.047 209.716 116.733 209.836 116.36 209.836ZM120.2 221.816V207.416H122.2V221.816H120.2ZM129.506 222.056C128.546 222.056 127.693 221.836 126.946 221.396C126.199 220.956 125.613 220.343 125.186 219.556C124.773 218.77 124.566 217.856 124.566 216.816C124.566 215.75 124.773 214.823 125.186 214.036C125.613 213.236 126.199 212.616 126.946 212.176C127.693 211.723 128.559 211.496 129.546 211.496C130.533 211.496 131.379 211.716 132.086 212.156C132.793 212.596 133.339 213.183 133.726 213.916C134.113 214.636 134.306 215.436 134.306 216.316C134.306 216.45 134.299 216.596 134.286 216.756C134.286 216.903 134.279 217.07 134.266 217.256H126.026V215.836H132.306C132.266 214.996 131.986 214.343 131.466 213.876C130.946 213.396 130.299 213.156 129.526 213.156C128.979 213.156 128.479 213.283 128.026 213.536C127.573 213.776 127.206 214.136 126.926 214.616C126.659 215.083 126.526 215.676 126.526 216.396V216.956C126.526 217.703 126.659 218.336 126.926 218.856C127.206 219.363 127.573 219.75 128.026 220.016C128.479 220.27 128.973 220.396 129.506 220.396C130.146 220.396 130.673 220.256 131.086 219.976C131.499 219.696 131.806 219.316 132.006 218.836H134.006C133.833 219.45 133.539 220.003 133.126 220.496C132.713 220.976 132.199 221.356 131.586 221.636C130.986 221.916 130.293 222.056 129.506 222.056ZM145.345 222.056C144.558 222.056 143.872 221.896 143.285 221.576C142.712 221.256 142.265 220.776 141.945 220.136C141.638 219.496 141.485 218.69 141.485 217.716V211.736H143.485V217.496C143.485 218.443 143.692 219.156 144.105 219.636C144.518 220.116 145.112 220.356 145.885 220.356C146.405 220.356 146.872 220.23 147.285 219.976C147.712 219.723 148.045 219.356 148.285 218.876C148.525 218.396 148.645 217.81 148.645 217.116V211.736H150.645V221.816H148.865L148.725 220.096C148.418 220.71 147.972 221.19 147.385 221.536C146.798 221.883 146.118 222.056 145.345 222.056ZM153.383 226.216V211.736H155.183L155.383 213.296C155.597 212.99 155.863 212.703 156.183 212.436C156.503 212.156 156.883 211.93 157.323 211.756C157.777 211.583 158.303 211.496 158.903 211.496C159.863 211.496 160.703 211.73 161.423 212.196C162.157 212.663 162.723 213.296 163.123 214.096C163.537 214.883 163.743 215.783 163.743 216.796C163.743 217.81 163.537 218.716 163.123 219.516C162.71 220.303 162.137 220.923 161.403 221.376C160.683 221.83 159.843 222.056 158.883 222.056C158.097 222.056 157.403 221.903 156.803 221.596C156.203 221.276 155.73 220.836 155.383 220.276V226.216H153.383ZM158.563 220.316C159.177 220.316 159.717 220.17 160.183 219.876C160.663 219.583 161.037 219.17 161.303 218.636C161.583 218.103 161.723 217.483 161.723 216.776C161.723 216.07 161.583 215.456 161.303 214.936C161.037 214.403 160.663 213.99 160.183 213.696C159.717 213.39 159.177 213.236 158.563 213.236C157.937 213.236 157.383 213.39 156.903 213.696C156.437 213.99 156.07 214.403 155.803 214.936C155.537 215.456 155.403 216.07 155.403 216.776C155.403 217.483 155.537 218.103 155.803 218.636C156.07 219.17 156.437 219.583 156.903 219.876C157.383 220.17 157.937 220.316 158.563 220.316ZM166.079 221.816V207.416H168.079V221.816H166.079ZM175.425 222.056C174.478 222.056 173.625 221.836 172.865 221.396C172.118 220.956 171.525 220.343 171.085 219.556C170.658 218.756 170.445 217.836 170.445 216.796C170.445 215.73 170.665 214.803 171.105 214.016C171.545 213.216 172.145 212.596 172.905 212.156C173.665 211.716 174.518 211.496 175.465 211.496C176.425 211.496 177.278 211.716 178.025 212.156C178.772 212.596 179.358 213.21 179.785 213.996C180.225 214.783 180.445 215.71 180.445 216.776C180.445 217.843 180.225 218.77 179.785 219.556C179.358 220.343 178.765 220.956 178.005 221.396C177.245 221.836 176.385 222.056 175.425 222.056ZM175.425 220.336C175.972 220.336 176.465 220.203 176.905 219.936C177.358 219.67 177.718 219.276 177.985 218.756C178.265 218.223 178.405 217.563 178.405 216.776C178.405 215.99 178.272 215.336 178.005 214.816C177.738 214.283 177.378 213.883 176.925 213.616C176.485 213.35 175.998 213.216 175.465 213.216C174.932 213.216 174.438 213.35 173.985 213.616C173.532 213.883 173.165 214.283 172.885 214.816C172.618 215.336 172.485 215.99 172.485 216.776C172.485 217.563 172.618 218.223 172.885 218.756C173.165 219.276 173.525 219.67 173.965 219.936C174.418 220.203 174.905 220.336 175.425 220.336ZM186.138 222.056C185.311 222.056 184.624 221.916 184.077 221.636C183.531 221.356 183.124 220.983 182.858 220.516C182.591 220.036 182.458 219.523 182.458 218.976C182.458 218.31 182.631 217.743 182.978 217.276C183.324 216.796 183.818 216.43 184.458 216.176C185.098 215.923 185.864 215.796 186.758 215.796H189.378C189.378 215.21 189.291 214.723 189.118 214.336C188.944 213.95 188.684 213.663 188.338 213.476C188.004 213.276 187.578 213.176 187.058 213.176C186.458 213.176 185.944 213.323 185.518 213.616C185.091 213.896 184.824 214.316 184.718 214.876H182.718C182.798 214.17 183.038 213.57 183.438 213.076C183.851 212.57 184.378 212.183 185.018 211.916C185.658 211.636 186.338 211.496 187.058 211.496C188.004 211.496 188.798 211.663 189.438 211.996C190.078 212.33 190.558 212.803 190.878 213.416C191.211 214.016 191.378 214.736 191.378 215.576V221.816H189.638L189.478 220.116C189.331 220.383 189.158 220.636 188.958 220.876C188.758 221.116 188.518 221.323 188.238 221.496C187.971 221.67 187.658 221.803 187.298 221.896C186.951 222.003 186.564 222.056 186.138 222.056ZM186.518 220.436C186.944 220.436 187.331 220.35 187.678 220.176C188.024 220.003 188.318 219.77 188.558 219.476C188.811 219.17 188.998 218.83 189.118 218.456C189.251 218.07 189.324 217.676 189.338 217.276V217.216H186.958C186.384 217.216 185.918 217.29 185.558 217.436C185.211 217.57 184.958 217.756 184.798 217.996C184.638 218.236 184.558 218.516 184.558 218.836C184.558 219.17 184.631 219.456 184.778 219.696C184.938 219.923 185.164 220.103 185.458 220.236C185.751 220.37 186.104 220.436 186.518 220.436ZM198.41 222.056C197.45 222.056 196.604 221.83 195.87 221.376C195.137 220.91 194.564 220.283 194.15 219.496C193.75 218.696 193.55 217.79 193.55 216.776C193.55 215.75 193.75 214.843 194.15 214.056C194.564 213.27 195.137 212.65 195.87 212.196C196.617 211.73 197.47 211.496 198.43 211.496C199.217 211.496 199.91 211.656 200.51 211.976C201.11 212.283 201.577 212.723 201.91 213.296V207.416H203.91V221.816H202.11L201.91 220.256C201.71 220.563 201.45 220.856 201.13 221.136C200.81 221.403 200.424 221.623 199.97 221.796C199.517 221.97 198.997 222.056 198.41 222.056ZM198.73 220.316C199.357 220.316 199.91 220.17 200.39 219.876C200.87 219.583 201.237 219.17 201.49 218.636C201.757 218.103 201.89 217.483 201.89 216.776C201.89 216.07 201.757 215.456 201.49 214.936C201.237 214.403 200.87 213.99 200.39 213.696C199.91 213.39 199.357 213.236 198.73 213.236C198.13 213.236 197.59 213.39 197.11 213.696C196.63 213.99 196.257 214.403 195.99 214.936C195.724 215.456 195.59 216.07 195.59 216.776C195.59 217.483 195.724 218.103 195.99 218.636C196.257 219.17 196.63 219.583 197.11 219.876C197.59 220.17 198.13 220.316 198.73 220.316ZM211.205 222.056C210.245 222.056 209.392 221.836 208.645 221.396C207.898 220.956 207.312 220.343 206.885 219.556C206.472 218.77 206.265 217.856 206.265 216.816C206.265 215.75 206.472 214.823 206.885 214.036C207.312 213.236 207.898 212.616 208.645 212.176C209.392 211.723 210.258 211.496 211.245 211.496C212.232 211.496 213.078 211.716 213.785 212.156C214.492 212.596 215.038 213.183 215.425 213.916C215.812 214.636 216.005 215.436 216.005 216.316C216.005 216.45 215.998 216.596 215.985 216.756C215.985 216.903 215.978 217.07 215.965 217.256H207.725V215.836H214.005C213.965 214.996 213.685 214.343 213.165 213.876C212.645 213.396 211.998 213.156 211.225 213.156C210.678 213.156 210.178 213.283 209.725 213.536C209.272 213.776 208.905 214.136 208.625 214.616C208.358 215.083 208.225 215.676 208.225 216.396V216.956C208.225 217.703 208.358 218.336 208.625 218.856C208.905 219.363 209.272 219.75 209.725 220.016C210.178 220.27 210.672 220.396 211.205 220.396C211.845 220.396 212.372 220.256 212.785 219.976C213.198 219.696 213.505 219.316 213.705 218.836H215.705C215.532 219.45 215.238 220.003 214.825 220.496C214.412 220.976 213.898 221.356 213.285 221.636C212.685 221.916 211.992 222.056 211.205 222.056ZM222.707 222.056C221.747 222.056 220.901 221.83 220.167 221.376C219.434 220.91 218.861 220.283 218.447 219.496C218.047 218.696 217.847 217.79 217.847 216.776C217.847 215.75 218.047 214.843 218.447 214.056C218.861 213.27 219.434 212.65 220.167 212.196C220.914 211.73 221.767 211.496 222.727 211.496C223.514 211.496 224.207 211.656 224.807 211.976C225.407 212.283 225.874 212.723 226.207 213.296V207.416H228.207V221.816H226.407L226.207 220.256C226.007 220.563 225.747 220.856 225.427 221.136C225.107 221.403 224.721 221.623 224.267 221.796C223.814 221.97 223.294 222.056 222.707 222.056ZM223.027 220.316C223.654 220.316 224.207 220.17 224.687 219.876C225.167 219.583 225.534 219.17 225.787 218.636C226.054 218.103 226.187 217.483 226.187 216.776C226.187 216.07 226.054 215.456 225.787 214.936C225.534 214.403 225.167 213.99 224.687 213.696C224.207 213.39 223.654 213.236 223.027 213.236C222.427 213.236 221.887 213.39 221.407 213.696C220.927 213.99 220.554 214.403 220.287 214.936C220.021 215.456 219.887 216.07 219.887 216.776C219.887 217.483 220.021 218.103 220.287 218.636C220.554 219.17 220.927 219.583 221.407 219.876C221.887 220.17 222.427 220.316 223.027 220.316Z" fill="#B3FFC8"/>
<path d="M131.04 312.056C130.013 312.056 129.113 311.876 128.34 311.516C127.567 311.143 126.967 310.623 126.54 309.956C126.113 309.29 125.9 308.51 125.9 307.616H128C128.013 308.123 128.133 308.59 128.36 309.016C128.6 309.43 128.94 309.763 129.38 310.016C129.833 310.256 130.387 310.376 131.04 310.376C131.6 310.376 132.08 310.283 132.48 310.096C132.893 309.91 133.207 309.656 133.42 309.336C133.633 309.003 133.74 308.623 133.74 308.196C133.74 307.703 133.627 307.296 133.4 306.976C133.173 306.656 132.867 306.396 132.48 306.196C132.107 305.983 131.667 305.796 131.16 305.636C130.667 305.476 130.147 305.303 129.6 305.116C128.493 304.756 127.667 304.29 127.12 303.716C126.587 303.143 126.32 302.396 126.32 301.476C126.32 300.69 126.507 300.01 126.88 299.436C127.253 298.85 127.773 298.396 128.44 298.076C129.12 297.743 129.92 297.576 130.84 297.576C131.747 297.576 132.54 297.743 133.22 298.076C133.9 298.41 134.433 298.87 134.82 299.456C135.207 300.043 135.4 300.73 135.4 301.516H133.28C133.28 301.156 133.187 300.803 133 300.456C132.813 300.11 132.533 299.83 132.16 299.616C131.787 299.39 131.327 299.276 130.78 299.276C130.327 299.263 129.92 299.336 129.56 299.496C129.2 299.656 128.92 299.89 128.72 300.196C128.52 300.503 128.42 300.87 128.42 301.296C128.42 301.723 128.507 302.07 128.68 302.336C128.867 302.59 129.133 302.81 129.48 302.996C129.827 303.183 130.227 303.356 130.68 303.516C131.147 303.663 131.66 303.83 132.22 304.016C132.913 304.243 133.527 304.523 134.06 304.856C134.607 305.176 135.033 305.596 135.34 306.116C135.66 306.623 135.82 307.276 135.82 308.076C135.82 308.77 135.64 309.416 135.28 310.016C134.92 310.616 134.387 311.11 133.68 311.496C132.973 311.87 132.093 312.056 131.04 312.056ZM141.798 312.056C141.012 312.056 140.325 311.896 139.738 311.576C139.165 311.256 138.718 310.776 138.398 310.136C138.092 309.496 137.938 308.69 137.938 307.716V301.736H139.938V307.496C139.938 308.443 140.145 309.156 140.558 309.636C140.972 310.116 141.565 310.356 142.338 310.356C142.858 310.356 143.325 310.23 143.738 309.976C144.165 309.723 144.498 309.356 144.738 308.876C144.978 308.396 145.098 307.81 145.098 307.116V301.736H147.098V311.816H145.318L145.178 310.096C144.872 310.71 144.425 311.19 143.838 311.536C143.252 311.883 142.572 312.056 141.798 312.056ZM153.737 312.056C152.883 312.056 152.137 311.916 151.497 311.636C150.857 311.356 150.35 310.963 149.977 310.456C149.603 309.95 149.377 309.356 149.297 308.676H151.337C151.403 308.996 151.53 309.29 151.717 309.556C151.917 309.823 152.183 310.036 152.517 310.196C152.863 310.356 153.27 310.436 153.737 310.436C154.177 310.436 154.537 310.376 154.817 310.256C155.11 310.123 155.323 309.95 155.457 309.736C155.59 309.51 155.657 309.27 155.657 309.016C155.657 308.643 155.563 308.363 155.377 308.176C155.203 307.976 154.937 307.823 154.577 307.716C154.23 307.596 153.81 307.49 153.317 307.396C152.85 307.316 152.397 307.21 151.957 307.076C151.53 306.93 151.143 306.75 150.797 306.536C150.463 306.323 150.197 306.056 149.997 305.736C149.797 305.403 149.697 304.996 149.697 304.516C149.697 303.943 149.85 303.43 150.157 302.976C150.463 302.51 150.897 302.15 151.457 301.896C152.03 301.63 152.703 301.496 153.477 301.496C154.597 301.496 155.497 301.763 156.177 302.296C156.857 302.83 157.257 303.583 157.377 304.556H155.437C155.383 304.103 155.183 303.756 154.837 303.516C154.49 303.263 154.03 303.136 153.457 303.136C152.883 303.136 152.443 303.25 152.137 303.476C151.83 303.703 151.677 304.003 151.677 304.376C151.677 304.616 151.763 304.83 151.937 305.016C152.11 305.203 152.363 305.363 152.697 305.496C153.043 305.616 153.463 305.73 153.957 305.836C154.663 305.97 155.297 306.136 155.857 306.336C156.417 306.536 156.863 306.83 157.197 307.216C157.53 307.603 157.697 308.156 157.697 308.876C157.71 309.503 157.55 310.056 157.217 310.536C156.897 311.016 156.437 311.39 155.837 311.656C155.25 311.923 154.55 312.056 153.737 312.056ZM160.051 316.216V301.736H161.851L162.051 303.296C162.265 302.99 162.531 302.703 162.851 302.436C163.171 302.156 163.551 301.93 163.991 301.756C164.445 301.583 164.971 301.496 165.571 301.496C166.531 301.496 167.371 301.73 168.091 302.196C168.825 302.663 169.391 303.296 169.791 304.096C170.205 304.883 170.411 305.783 170.411 306.796C170.411 307.81 170.205 308.716 169.791 309.516C169.378 310.303 168.805 310.923 168.071 311.376C167.351 311.83 166.511 312.056 165.551 312.056C164.765 312.056 164.071 311.903 163.471 311.596C162.871 311.276 162.398 310.836 162.051 310.276V316.216H160.051ZM165.231 310.316C165.845 310.316 166.385 310.17 166.851 309.876C167.331 309.583 167.705 309.17 167.971 308.636C168.251 308.103 168.391 307.483 168.391 306.776C168.391 306.07 168.251 305.456 167.971 304.936C167.705 304.403 167.331 303.99 166.851 303.696C166.385 303.39 165.845 303.236 165.231 303.236C164.605 303.236 164.051 303.39 163.571 303.696C163.105 303.99 162.738 304.403 162.471 304.936C162.205 305.456 162.071 306.07 162.071 306.776C162.071 307.483 162.205 308.103 162.471 308.636C162.738 309.17 163.105 309.583 163.571 309.876C164.051 310.17 164.605 310.316 165.231 310.316ZM172.887 311.816V301.736H174.887V311.816H172.887ZM173.907 299.836C173.52 299.836 173.2 299.716 172.947 299.476C172.707 299.236 172.587 298.93 172.587 298.556C172.587 298.196 172.707 297.903 172.947 297.676C173.2 297.436 173.52 297.316 173.907 297.316C174.28 297.316 174.593 297.436 174.847 297.676C175.1 297.903 175.227 298.196 175.227 298.556C175.227 298.93 175.1 299.236 174.847 299.476C174.593 299.716 174.28 299.836 173.907 299.836ZM182.407 312.056C181.433 312.056 180.567 311.836 179.807 311.396C179.047 310.943 178.447 310.323 178.007 309.536C177.58 308.75 177.367 307.836 177.367 306.796C177.367 305.743 177.58 304.823 178.007 304.036C178.447 303.236 179.047 302.616 179.807 302.176C180.567 301.723 181.433 301.496 182.407 301.496C183.633 301.496 184.66 301.816 185.487 302.456C186.313 303.096 186.84 303.963 187.067 305.056H184.987C184.853 304.47 184.547 304.016 184.067 303.696C183.6 303.376 183.04 303.216 182.387 303.216C181.853 303.216 181.36 303.356 180.907 303.636C180.453 303.903 180.087 304.303 179.807 304.836C179.54 305.356 179.407 306.003 179.407 306.776C179.407 307.35 179.487 307.863 179.647 308.316C179.807 308.756 180.02 309.13 180.287 309.436C180.567 309.743 180.887 309.976 181.247 310.136C181.607 310.283 181.987 310.356 182.387 310.356C182.827 310.356 183.22 310.29 183.567 310.156C183.927 310.01 184.227 309.796 184.467 309.516C184.72 309.236 184.893 308.903 184.987 308.516H187.067C186.84 309.583 186.313 310.443 185.487 311.096C184.66 311.736 183.633 312.056 182.407 312.056ZM189.547 311.816V301.736H191.547V311.816H189.547ZM190.567 299.836C190.18 299.836 189.86 299.716 189.607 299.476C189.367 299.236 189.247 298.93 189.247 298.556C189.247 298.196 189.367 297.903 189.607 297.676C189.86 297.436 190.18 297.316 190.567 297.316C190.94 297.316 191.254 297.436 191.507 297.676C191.76 297.903 191.887 298.196 191.887 298.556C191.887 298.93 191.76 299.236 191.507 299.476C191.254 299.716 190.94 299.836 190.567 299.836ZM199.007 312.056C198.06 312.056 197.207 311.836 196.447 311.396C195.7 310.956 195.107 310.343 194.667 309.556C194.24 308.756 194.027 307.836 194.027 306.796C194.027 305.73 194.247 304.803 194.687 304.016C195.127 303.216 195.727 302.596 196.487 302.156C197.247 301.716 198.1 301.496 199.047 301.496C200.007 301.496 200.86 301.716 201.607 302.156C202.354 302.596 202.94 303.21 203.367 303.996C203.807 304.783 204.027 305.71 204.027 306.776C204.027 307.843 203.807 308.77 203.367 309.556C202.94 310.343 202.347 310.956 201.587 311.396C200.827 311.836 199.967 312.056 199.007 312.056ZM199.007 310.336C199.554 310.336 200.047 310.203 200.487 309.936C200.94 309.67 201.3 309.276 201.567 308.756C201.847 308.223 201.987 307.563 201.987 306.776C201.987 305.99 201.854 305.336 201.587 304.816C201.32 304.283 200.96 303.883 200.507 303.616C200.067 303.35 199.58 303.216 199.047 303.216C198.514 303.216 198.02 303.35 197.567 303.616C197.114 303.883 196.747 304.283 196.467 304.816C196.2 305.336 196.067 305.99 196.067 306.776C196.067 307.563 196.2 308.223 196.467 308.756C196.747 309.276 197.107 309.67 197.547 309.936C198 310.203 198.487 310.336 199.007 310.336ZM210.08 312.056C209.293 312.056 208.606 311.896 208.02 311.576C207.446 311.256 207 310.776 206.68 310.136C206.373 309.496 206.22 308.69 206.22 307.716V301.736H208.22V307.496C208.22 308.443 208.426 309.156 208.84 309.636C209.253 310.116 209.846 310.356 210.62 310.356C211.14 310.356 211.606 310.23 212.02 309.976C212.446 309.723 212.78 309.356 213.02 308.876C213.26 308.396 213.38 307.81 213.38 307.116V301.736H215.38V311.816H213.6L213.46 310.096C213.153 310.71 212.706 311.19 212.12 311.536C211.533 311.883 210.853 312.056 210.08 312.056ZM222.018 312.056C221.164 312.056 220.418 311.916 219.778 311.636C219.138 311.356 218.631 310.963 218.258 310.456C217.884 309.95 217.658 309.356 217.578 308.676H219.618C219.684 308.996 219.811 309.29 219.998 309.556C220.198 309.823 220.464 310.036 220.798 310.196C221.144 310.356 221.551 310.436 222.018 310.436C222.458 310.436 222.818 310.376 223.098 310.256C223.391 310.123 223.604 309.95 223.738 309.736C223.871 309.51 223.938 309.27 223.938 309.016C223.938 308.643 223.844 308.363 223.658 308.176C223.484 307.976 223.218 307.823 222.858 307.716C222.511 307.596 222.091 307.49 221.598 307.396C221.131 307.316 220.678 307.21 220.238 307.076C219.811 306.93 219.424 306.75 219.078 306.536C218.744 306.323 218.478 306.056 218.278 305.736C218.078 305.403 217.978 304.996 217.978 304.516C217.978 303.943 218.131 303.43 218.438 302.976C218.744 302.51 219.178 302.15 219.738 301.896C220.311 301.63 220.984 301.496 221.758 301.496C222.878 301.496 223.778 301.763 224.458 302.296C225.138 302.83 225.538 303.583 225.658 304.556H223.718C223.664 304.103 223.464 303.756 223.118 303.516C222.771 303.263 222.311 303.136 221.738 303.136C221.164 303.136 220.724 303.25 220.418 303.476C220.111 303.703 219.958 304.003 219.958 304.376C219.958 304.616 220.044 304.83 220.218 305.016C220.391 305.203 220.644 305.363 220.978 305.496C221.324 305.616 221.744 305.73 222.238 305.836C222.944 305.97 223.578 306.136 224.138 306.336C224.698 306.536 225.144 306.83 225.478 307.216C225.811 307.603 225.978 308.156 225.978 308.876C225.991 309.503 225.831 310.056 225.498 310.536C225.178 311.016 224.718 311.39 224.118 311.656C223.531 311.923 222.831 312.056 222.018 312.056ZM236.79 312.056C235.963 312.056 235.277 311.916 234.73 311.636C234.183 311.356 233.777 310.983 233.51 310.516C233.243 310.036 233.11 309.523 233.11 308.976C233.11 308.31 233.283 307.743 233.63 307.276C233.977 306.796 234.47 306.43 235.11 306.176C235.75 305.923 236.517 305.796 237.41 305.796H240.03C240.03 305.21 239.943 304.723 239.77 304.336C239.597 303.95 239.337 303.663 238.99 303.476C238.657 303.276 238.23 303.176 237.71 303.176C237.11 303.176 236.597 303.323 236.17 303.616C235.743 303.896 235.477 304.316 235.37 304.876H233.37C233.45 304.17 233.69 303.57 234.09 303.076C234.503 302.57 235.03 302.183 235.67 301.916C236.31 301.636 236.99 301.496 237.71 301.496C238.657 301.496 239.45 301.663 240.09 301.996C240.73 302.33 241.21 302.803 241.53 303.416C241.863 304.016 242.03 304.736 242.03 305.576V311.816H240.29L240.13 310.116C239.983 310.383 239.81 310.636 239.61 310.876C239.41 311.116 239.17 311.323 238.89 311.496C238.623 311.67 238.31 311.803 237.95 311.896C237.603 312.003 237.217 312.056 236.79 312.056ZM237.17 310.436C237.597 310.436 237.983 310.35 238.33 310.176C238.677 310.003 238.97 309.77 239.21 309.476C239.463 309.17 239.65 308.83 239.77 308.456C239.903 308.07 239.977 307.676 239.99 307.276V307.216H237.61C237.037 307.216 236.57 307.29 236.21 307.436C235.863 307.57 235.61 307.756 235.45 307.996C235.29 308.236 235.21 308.516 235.21 308.836C235.21 309.17 235.283 309.456 235.43 309.696C235.59 309.923 235.817 310.103 236.11 310.236C236.403 310.37 236.757 310.436 237.17 310.436ZM249.243 312.056C248.269 312.056 247.403 311.836 246.643 311.396C245.883 310.943 245.283 310.323 244.843 309.536C244.416 308.75 244.203 307.836 244.203 306.796C244.203 305.743 244.416 304.823 244.843 304.036C245.283 303.236 245.883 302.616 246.643 302.176C247.403 301.723 248.269 301.496 249.243 301.496C250.469 301.496 251.496 301.816 252.323 302.456C253.149 303.096 253.676 303.963 253.903 305.056H251.823C251.689 304.47 251.383 304.016 250.903 303.696C250.436 303.376 249.876 303.216 249.223 303.216C248.689 303.216 248.196 303.356 247.743 303.636C247.289 303.903 246.923 304.303 246.643 304.836C246.376 305.356 246.243 306.003 246.243 306.776C246.243 307.35 246.323 307.863 246.483 308.316C246.643 308.756 246.856 309.13 247.123 309.436C247.403 309.743 247.723 309.976 248.083 310.136C248.443 310.283 248.823 310.356 249.223 310.356C249.663 310.356 250.056 310.29 250.403 310.156C250.763 310.01 251.063 309.796 251.303 309.516C251.556 309.236 251.729 308.903 251.823 308.516H253.903C253.676 309.583 253.149 310.443 252.323 311.096C251.496 311.736 250.469 312.056 249.243 312.056ZM260.188 311.816C259.548 311.816 258.995 311.716 258.528 311.516C258.061 311.316 257.701 310.983 257.448 310.516C257.195 310.05 257.068 309.416 257.068 308.616V303.436H255.328V301.736H257.068L257.308 299.216H259.068V301.736H261.928V303.436H259.068V308.636C259.068 309.21 259.188 309.603 259.428 309.816C259.668 310.016 260.081 310.116 260.668 310.116H261.828V311.816H260.188ZM264.273 311.816V301.736H266.273V311.816H264.273ZM265.293 299.836C264.907 299.836 264.587 299.716 264.333 299.476C264.093 299.236 263.973 298.93 263.973 298.556C263.973 298.196 264.093 297.903 264.333 297.676C264.587 297.436 264.907 297.316 265.293 297.316C265.667 297.316 265.98 297.436 266.233 297.676C266.487 297.903 266.613 298.196 266.613 298.556C266.613 298.93 266.487 299.236 266.233 299.476C265.98 299.716 265.667 299.836 265.293 299.836ZM271.993 311.816L268.213 301.736H270.313L273.173 309.896L276.053 301.736H278.113L274.353 311.816H271.993ZM280.055 311.816V301.736H282.055V311.816H280.055ZM281.075 299.836C280.688 299.836 280.368 299.716 280.115 299.476C279.875 299.236 279.755 298.93 279.755 298.556C279.755 298.196 279.875 297.903 280.115 297.676C280.368 297.436 280.688 297.316 281.075 297.316C281.448 297.316 281.761 297.436 282.015 297.676C282.268 297.903 282.395 298.196 282.395 298.556C282.395 298.93 282.268 299.236 282.015 299.476C281.761 299.716 281.448 299.836 281.075 299.836ZM289.075 311.816C288.435 311.816 287.881 311.716 287.415 311.516C286.948 311.316 286.588 310.983 286.335 310.516C286.081 310.05 285.955 309.416 285.955 308.616V303.436H284.215V301.736H285.955L286.195 299.216H287.955V301.736H290.815V303.436H287.955V308.636C287.955 309.21 288.075 309.603 288.315 309.816C288.555 310.016 288.968 310.116 289.555 310.116H290.715V311.816H289.075ZM294.18 316.216L296.64 310.696H296.06L292.08 301.736H294.24L297.4 309.056L300.58 301.736H302.68L296.28 316.216H294.18Z" fill="#FDFF6C"/>
<path d="M49.6667 141.15C57.767 141.15 64.3335 134.583 64.3335 126.483C64.3335 118.383 57.767 111.816 49.6667 111.816C41.5665 111.816 35 118.383 35 126.483C35 134.583 41.5665 141.15 49.6667 141.15Z" stroke="#256334" stroke-width="4" stroke-linecap="round" stroke-linejoin="round"/>
<path d="M68.0004 144.816L60.0254 136.841" stroke="#256334" stroke-width="4" stroke-linecap="round" stroke-linejoin="round"/>
<path d="M53.125 197.816H38.625C37.6636 197.816 36.7416 198.198 36.0617 198.878C35.3819 199.558 35 200.48 35 201.441V230.441C35 231.403 35.3819 232.325 36.0617 233.005C36.7416 233.684 37.6636 234.066 38.625 234.066H60.375C61.3364 234.066 62.2584 233.684 62.9383 233.005C63.6181 232.325 64 231.403 64 230.441V208.691L53.125 197.816Z" stroke="#256334" stroke-width="3" stroke-linecap="round" stroke-linejoin="round"/>
<path d="M53.125 197.816V208.691H64" stroke="#256334" stroke-width="3" stroke-linecap="round" stroke-linejoin="round"/>
<path d="M56.75 217.754H42.25" stroke="#256334" stroke-width="3" stroke-linecap="round" stroke-linejoin="round"/>
<path d="M56.75 225.004H42.25" stroke="#256334" stroke-width="3" stroke-linecap="round" stroke-linejoin="round"/>
<path d="M45.875 210.504H44.0625H42.25" stroke="#256334" stroke-width="3" stroke-linecap="round" stroke-linejoin="round"/>
<path d="M73.5 289.816C74.3781 289.816 75.2416 290.041 76.0067 290.469C76.6761 290.843 77.2502 291.362 77.6884 291.985L77.8681 292.259L92.3014 316.182L92.3147 316.205C92.7608 316.973 92.9975 317.843 93 318.729C93.0024 319.615 92.7697 320.487 92.328 321.256C91.8861 322.026 91.2487 322.667 90.4799 323.116C89.7111 323.565 88.8369 323.807 87.9449 323.816H59.0534C58.1613 323.807 57.2873 323.565 56.5184 323.116C55.7496 322.667 55.1122 322.026 54.6704 321.256C54.2286 320.487 53.9976 319.615 54 318.729C54.0025 317.843 54.2392 316.973 54.6853 316.205C54.6898 316.198 54.6941 316.19 54.6986 316.182L69.1303 292.259C69.5857 291.514 70.228 290.897 70.9933 290.469C71.7584 290.041 72.622 289.816 73.5 289.816ZM73.5 293.199C73.2073 293.199 72.9184 293.274 72.6633 293.417C72.4085 293.56 72.1945 293.765 72.0429 294.013L57.6345 317.897C57.4859 318.152 57.4076 318.442 57.4067 318.737C57.4058 319.032 57.4826 319.323 57.6295 319.58C57.7768 319.836 57.9903 320.051 58.2467 320.201C58.5029 320.35 58.7945 320.431 59.0917 320.434H87.9083C88.2056 320.43 88.4971 320.351 88.7533 320.201C89.0096 320.051 89.2215 319.836 89.3688 319.58C89.5159 319.323 89.5942 319.033 89.5933 318.737C89.5924 318.442 89.5124 318.152 89.3638 317.897L74.9555 294.013L74.8307 293.835C74.6946 293.666 74.5263 293.524 74.335 293.417C74.08 293.275 73.7926 293.199 73.5 293.199Z" fill="#FDFF6C"/>
<path d="M72 308.15V301.483C72 300.563 72.6716 299.816 73.5 299.816C74.3284 299.816 75 300.563 75 301.483V308.15C75 309.07 74.3284 309.816 73.5 309.816C72.6716 309.816 72 309.07 72 308.15Z" fill="#FDFF6C"/>
<path d="M73.5073 313.816C74.3317 313.816 75 314.488 75 315.316C75 316.145 74.3317 316.816 73.5073 316.816H73.4927C72.6683 316.816 72 316.145 72 315.316C72 314.488 72.6683 313.816 73.4927 313.816H73.5073Z" fill="#FDFF6C"/>
<rect x="392.5" y="293.316" width="47" height="24" rx="5.5" fill="#FDFF6C" fill-opacity="0.15" stroke="#FDFF6C"/>
<path d="M407.167 309.816V301.416H408.847V309.816H407.167ZM401.875 309.816V301.416H403.555V309.816H401.875ZM403.339 306.204V304.848H407.443V306.204H403.339ZM410.476 309.816V301.416H412.156V309.816H410.476ZM417.489 309.96C416.689 309.96 415.993 309.784 415.401 309.432C414.809 309.072 414.345 308.572 414.009 307.932C413.681 307.284 413.517 306.532 413.517 305.676C413.517 304.812 413.685 304.052 414.021 303.396C414.365 302.732 414.853 302.212 415.485 301.836C416.125 301.46 416.885 301.272 417.765 301.272C418.757 301.272 419.577 301.512 420.225 301.992C420.881 302.464 421.305 303.12 421.497 303.96H419.625C419.505 303.6 419.285 303.32 418.965 303.12C418.653 302.92 418.249 302.82 417.753 302.82C417.209 302.82 416.749 302.936 416.373 303.168C415.997 303.4 415.713 303.732 415.521 304.164C415.329 304.588 415.233 305.096 415.233 305.688C415.233 306.28 415.329 306.784 415.521 307.2C415.721 307.616 416.001 307.932 416.361 308.148C416.729 308.364 417.161 308.472 417.657 308.472C418.377 308.472 418.921 308.28 419.289 307.896C419.665 307.504 419.889 307.008 419.961 306.408H417.933V305.16H421.653V309.816H420.105L419.973 308.784C419.797 309.032 419.593 309.244 419.361 309.42C419.129 309.596 418.857 309.728 418.545 309.816C418.241 309.912 417.889 309.96 417.489 309.96ZM428.448 309.816V301.416H430.128V309.816H428.448ZM423.156 309.816V301.416H424.836V309.816H423.156ZM424.62 306.204V304.848H428.724V306.204H424.62Z" fill="#FDFF6C"/>
<g filter="url(#filter0_f_2196_36)">
<line x1="4" y1="7.63281" x2="302" y2="7.63284" stroke="url(#paint4_linear_2196_36)" stroke-width="4"/>
</g>
<g filter="url(#filter1_f_2196_36)">
<line x1="94.7686" y1="6" x2="211.228" y2="6" stroke="url(#paint5_linear_2196_36)" stroke-width="4"/>
</g>
<defs>
<filter id="filter0_f_2196_36" x="0" y="1.63281" width="306" height="12" filterUnits="userSpaceOnUse" color-interpolation-filters="sRGB">
<feFlood flood-opacity="0" result="BackgroundImageFix"/>
<feBlend mode="normal" in="SourceGraphic" in2="BackgroundImageFix" result="shape"/>
<feGaussianBlur stdDeviation="2" result="effect1_foregroundBlur_2196_36"/>
</filter>
<filter id="filter1_f_2196_36" x="90.7686" y="0" width="124.46" height="12" filterUnits="userSpaceOnUse" color-interpolation-filters="sRGB">
<feFlood flood-opacity="0" result="BackgroundImageFix"/>
<feBlend mode="normal" in="SourceGraphic" in2="BackgroundImageFix" result="shape"/>
<feGaussianBlur stdDeviation="2" result="effect1_foregroundBlur_2196_36"/>
</filter>
<linearGradient id="paint0_linear_2196_36" x1="44.5" y1="36.8164" x2="490.5" y2="396.816" gradientUnits="userSpaceOnUse">
<stop stop-color="#81FFA3"/>
<stop offset="1" stop-color="#262626"/>
</linearGradient>
<linearGradient id="paint1_linear_2196_36" x1="254.5" y1="7.81641" x2="255" y2="467.816" gradientUnits="userSpaceOnUse">
<stop stop-color="#53DB78"/>
<stop offset="1" stop-color="#2C7540" stop-opacity="0"/>
</linearGradient>
<linearGradient id="paint2_linear_2196_36" x1="73.2053" y1="272.557" x2="120.908" y2="439.563" gradientUnits="userSpaceOnUse">
<stop stop-color="#81FFA3"/>
<stop offset="1" stop-color="#262626"/>
</linearGradient>
<linearGradient id="paint3_linear_2196_36" x1="35" y1="305.316" x2="504.5" y2="305.816" gradientUnits="userSpaceOnUse">
<stop stop-color="#FDFF6C"/>
<stop offset="1" stop-color="#989941" stop-opacity="0.65"/>
</linearGradient>
<linearGradient id="paint4_linear_2196_36" x1="4" y1="10.1328" x2="302" y2="10.1328" gradientUnits="userSpaceOnUse">
<stop stop-color="#53DB78" stop-opacity="0"/>
<stop offset="0.5" stop-color="#53DB78"/>
<stop offset="1" stop-color="#53DB78" stop-opacity="0"/>
</linearGradient>
<linearGradient id="paint5_linear_2196_36" x1="94.7686" y1="8.5" x2="211.228" y2="8.5" gradientUnits="userSpaceOnUse">
<stop stop-color="#53DB78" stop-opacity="0"/>
<stop offset="0.5" stop-color="#53DB78"/>
<stop offset="1" stop-color="#53DB78" stop-opacity="0"/>
</linearGradient>
</defs>
</svg>
