<svg width="630" height="92" viewBox="0 0 630 92" fill="none" xmlns="http://www.w3.org/2000/svg">
<path d="M0.368042 90V2.192H46.96C51.824 2.192 56.0907 3.088 59.76 4.88C63.4294 6.58667 66.288 9.06134 68.336 12.304C70.4694 15.5467 71.536 19.344 71.536 23.696C71.536 27.024 70.896 30.0533 69.616 32.784C68.4214 35.5147 66.7147 37.8187 64.496 39.696C62.3627 41.5733 59.9307 42.9813 57.2 43.92V44.432C60.3574 45.1147 63.1734 46.3947 65.648 48.272C68.208 50.064 70.2134 52.4533 71.664 55.44C73.2 58.3413 73.968 61.84 73.968 65.936C73.968 71.4827 72.7307 76.048 70.256 79.632C67.8667 83.216 64.6667 85.8613 60.656 87.568C56.6454 89.1893 52.08 90 46.96 90H0.368042ZM14.704 77.712H45.808C49.7334 77.712 52.9334 76.688 55.408 74.64C57.968 72.5067 59.248 69.0933 59.248 64.4C59.248 61.584 58.6934 59.1947 57.584 57.232C56.56 55.184 54.9814 53.648 52.848 52.624C50.7147 51.5147 48.0267 50.96 44.784 50.96H14.704V77.712ZM14.704 38.928H43.632C46.3627 38.928 48.7094 38.416 50.672 37.392C52.6347 36.368 54.128 34.9173 55.152 33.04C56.2614 31.1627 56.816 29.072 56.816 26.768C56.816 22.5867 55.664 19.5147 53.36 17.552C51.1414 15.504 48.1974 14.48 44.528 14.48H14.704V38.928Z" fill="#F5F5F5"/>
<path d="M129.051 91.536C120.006 91.536 112.155 89.872 105.499 86.544C98.9284 83.216 93.851 78.1813 90.267 71.44C86.7684 64.6987 85.019 56.2507 85.019 46.096C85.019 35.856 86.7684 27.408 90.267 20.752C93.851 14.0107 98.9284 8.97601 105.499 5.648C112.155 2.32 120.006 0.656006 129.051 0.656006C138.267 0.656006 146.16 2.32 152.731 5.648C159.302 8.97601 164.336 14.0107 167.835 20.752C171.419 27.408 173.211 35.856 173.211 46.096C173.211 56.2507 171.419 64.6987 167.835 71.44C164.336 78.1813 159.302 83.216 152.731 86.544C146.16 89.872 138.267 91.536 129.051 91.536ZM129.051 79.376C133.744 79.376 137.883 78.736 141.467 77.456C145.136 76.176 148.208 74.2133 150.683 71.568C153.243 68.9227 155.163 65.5947 156.443 61.584C157.808 57.5733 158.491 52.9227 158.491 47.632V44.816C158.491 39.3547 157.808 34.6187 156.443 30.608C155.163 26.5973 153.243 23.2693 150.683 20.624C148.208 17.9787 145.136 16.016 141.467 14.736C137.883 13.456 133.744 12.816 129.051 12.816C124.443 12.816 120.304 13.456 116.635 14.736C113.051 16.016 109.979 17.9787 107.419 20.624C104.944 23.2693 103.067 26.5973 101.787 30.608C100.507 34.6187 99.867 39.3547 99.867 44.816V47.632C99.867 52.9227 100.507 57.5733 101.787 61.584C103.067 65.5947 104.944 68.9227 107.419 71.568C109.979 74.2133 113.051 76.176 116.635 77.456C120.304 78.736 124.443 79.376 129.051 79.376Z" fill="#F5F5F5"/>
<path d="M221.255 91.536C216.476 91.536 211.868 91.024 207.431 90C202.994 89.0613 199.068 87.5253 195.655 85.392C192.242 83.1733 189.554 80.4 187.591 77.072C185.628 73.6587 184.647 69.6053 184.647 64.912C184.647 64.4 184.647 63.9307 184.647 63.504C184.732 62.992 184.775 62.5653 184.775 62.224H199.111C199.111 62.48 199.068 62.864 198.983 63.376C198.983 63.888 198.983 64.3147 198.983 64.656C198.983 67.8133 199.922 70.5013 201.799 72.72C203.676 74.9387 206.279 76.6027 209.607 77.712C213.02 78.8213 216.903 79.376 221.255 79.376C223.644 79.376 225.948 79.248 228.167 78.992C230.386 78.6507 232.391 78.1813 234.183 77.584C236.06 76.9013 237.682 76.0907 239.047 75.152C240.412 74.128 241.479 72.9333 242.247 71.568C243.015 70.2027 243.399 68.624 243.399 66.832C243.399 64.1013 242.588 61.84 240.967 60.048C239.431 58.256 237.298 56.7627 234.567 55.568C231.922 54.3733 228.892 53.3067 225.479 52.368C222.151 51.4293 218.695 50.4907 215.111 49.552C211.527 48.6133 208.028 47.504 204.615 46.224C201.287 44.944 198.258 43.408 195.527 41.616C192.882 39.7387 190.748 37.4347 189.127 34.704C187.591 31.888 186.823 28.4747 186.823 24.464C186.823 20.624 187.634 17.2107 189.255 14.224C190.876 11.2373 193.223 8.76267 196.295 6.8C199.367 4.752 203.036 3.216 207.303 2.192C211.57 1.168 216.391 0.656006 221.767 0.656006C226.375 0.656006 230.727 1.168 234.823 2.192C238.919 3.13067 242.503 4.62401 245.575 6.672C248.647 8.72 251.036 11.3227 252.743 14.48C254.535 17.6373 255.431 21.392 255.431 25.744V27.28H241.223V25.616C241.223 22.8853 240.412 20.5813 238.791 18.704C237.17 16.8267 234.908 15.376 232.007 14.352C229.106 13.328 225.735 12.816 221.895 12.816C217.372 12.816 213.575 13.2853 210.503 14.224C207.431 15.0773 205.084 16.3147 203.463 17.936C201.927 19.472 201.159 21.3493 201.159 23.568C201.159 26.0427 201.97 28.0907 203.591 29.712C205.212 31.248 207.346 32.5707 209.991 33.68C212.722 34.7893 215.751 35.8133 219.079 36.752C222.492 37.6053 225.948 38.544 229.447 39.568C233.031 40.5067 236.487 41.616 239.815 42.896C243.228 44.176 246.258 45.7547 248.903 47.632C251.634 49.5093 253.81 51.856 255.431 54.672C257.052 57.4027 257.863 60.7733 257.863 64.784C257.863 71.0987 256.284 76.2613 253.127 80.272C249.97 84.1973 245.618 87.056 240.071 88.848C234.61 90.64 228.338 91.536 221.255 91.536Z" fill="#F5F5F5"/>
<path d="M306.005 91.536C301.226 91.536 296.618 91.024 292.181 90C287.744 89.0613 283.818 87.5253 280.405 85.392C276.992 83.1733 274.304 80.4 272.341 77.072C270.378 73.6587 269.397 69.6053 269.397 64.912C269.397 64.4 269.397 63.9307 269.397 63.504C269.482 62.992 269.525 62.5653 269.525 62.224H283.861C283.861 62.48 283.818 62.864 283.733 63.376C283.733 63.888 283.733 64.3147 283.733 64.656C283.733 67.8133 284.672 70.5013 286.549 72.72C288.426 74.9387 291.029 76.6027 294.357 77.712C297.77 78.8213 301.653 79.376 306.005 79.376C308.394 79.376 310.698 79.248 312.917 78.992C315.136 78.6507 317.141 78.1813 318.933 77.584C320.81 76.9013 322.432 76.0907 323.797 75.152C325.162 74.128 326.229 72.9333 326.997 71.568C327.765 70.2027 328.149 68.624 328.149 66.832C328.149 64.1013 327.338 61.84 325.717 60.048C324.181 58.256 322.048 56.7627 319.317 55.568C316.672 54.3733 313.642 53.3067 310.229 52.368C306.901 51.4293 303.445 50.4907 299.861 49.552C296.277 48.6133 292.778 47.504 289.365 46.224C286.037 44.944 283.008 43.408 280.277 41.616C277.632 39.7387 275.498 37.4347 273.877 34.704C272.341 31.888 271.573 28.4747 271.573 24.464C271.573 20.624 272.384 17.2107 274.005 14.224C275.626 11.2373 277.973 8.76267 281.045 6.8C284.117 4.752 287.786 3.216 292.053 2.192C296.32 1.168 301.141 0.656006 306.517 0.656006C311.125 0.656006 315.477 1.168 319.573 2.192C323.669 3.13067 327.253 4.62401 330.325 6.672C333.397 8.72 335.786 11.3227 337.493 14.48C339.285 17.6373 340.181 21.392 340.181 25.744V27.28H325.973V25.616C325.973 22.8853 325.162 20.5813 323.541 18.704C321.92 16.8267 319.658 15.376 316.757 14.352C313.856 13.328 310.485 12.816 306.645 12.816C302.122 12.816 298.325 13.2853 295.253 14.224C292.181 15.0773 289.834 16.3147 288.213 17.936C286.677 19.472 285.909 21.3493 285.909 23.568C285.909 26.0427 286.72 28.0907 288.341 29.712C289.962 31.248 292.096 32.5707 294.741 33.68C297.472 34.7893 300.501 35.8133 303.829 36.752C307.242 37.6053 310.698 38.544 314.197 39.568C317.781 40.5067 321.237 41.616 324.565 42.896C327.978 44.176 331.008 45.7547 333.653 47.632C336.384 49.5093 338.56 51.856 340.181 54.672C341.802 57.4027 342.613 60.7733 342.613 64.784C342.613 71.0987 341.034 76.2613 337.877 80.272C334.72 84.1973 330.368 87.056 324.821 88.848C319.36 90.64 313.088 91.536 306.005 91.536Z" fill="#F5F5F5"/>
<path d="M354.659 90L370.019 2.192H379.875L395.491 68.752C395.832 69.9467 396.131 71.184 396.387 72.464C396.643 73.6587 396.856 74.896 397.027 76.176C397.283 77.456 397.496 78.736 397.667 80.016H398.307C398.99 78.736 399.672 77.456 400.355 76.176C401.038 74.896 401.72 73.6587 402.403 72.464C403.171 71.184 403.896 69.9467 404.579 68.752L443.491 2.192H453.859L438.499 90H431.587L442.083 30.352C442.51 28.048 442.894 25.744 443.235 23.44C443.662 21.136 444.046 19.0027 444.387 17.04C444.814 15.0773 445.112 13.456 445.283 12.176H444.387C443.704 13.7973 443.022 15.2907 442.339 16.656C441.656 18.0213 440.974 19.3013 440.291 20.496C439.694 21.6907 439.011 22.8853 438.243 24.08L398.947 90H394.211L377.955 24.08C377.528 22.288 377.144 20.4533 376.803 18.576C376.547 16.6987 376.334 14.5653 376.163 12.176H375.267C375.011 13.6267 374.67 15.4187 374.243 17.552C373.902 19.6 373.518 21.776 373.091 24.08C372.75 26.2987 372.408 28.3893 372.067 30.352L361.571 90H354.659Z" fill="#F5F5F5"/>
<path d="M453.19 90L502.598 2.192H511.302L529.862 90H522.822L517.574 64.016H475.078L460.614 90H453.19ZM478.534 57.872H516.294L509.766 25.744C509.595 24.8053 509.339 23.6533 508.998 22.288C508.742 20.9227 508.443 19.472 508.102 17.936C507.761 16.3147 507.419 14.736 507.078 13.2C506.822 11.5787 506.566 10.128 506.31 8.84801H505.542C504.689 10.5547 503.665 12.5173 502.47 14.736C501.275 16.8693 500.123 18.96 499.014 21.008C497.99 22.9707 497.137 24.5493 496.454 25.744L478.534 57.872Z" fill="#F5F5F5"/>
<path d="M544.784 90L560.144 2.192H567.184L603.92 67.344C604.432 68.1973 605.029 69.264 605.712 70.544C606.395 71.824 607.077 73.1467 607.76 74.512C608.443 75.792 608.997 76.944 609.424 77.968L609.936 77.84C610.192 76.304 610.405 74.7253 610.576 73.104C610.832 71.3973 611.131 69.4773 611.472 67.344L622.864 2.192H629.776L614.416 90H609.04L571.152 23.696C570.555 22.5867 569.616 20.9227 568.336 18.704C567.141 16.4 566.203 14.48 565.52 12.944L564.88 13.072C564.709 14.6933 564.453 16.4853 564.112 18.448C563.856 20.3253 563.6 22.032 563.344 23.568L551.696 90H544.784Z" fill="#F5F5F5"/>
</svg>
