<svg width="81" height="70" viewBox="0 0 81 70" fill="none" xmlns="http://www.w3.org/2000/svg">
<path d="M18.0972 59.824H21.6304C21.5923 60.1798 21.516 60.8788 21.2618 61.3745C20.4611 63.0902 18.6183 64.0434 15.1233 64.0434C12.3272 64.0434 10.5097 63.3444 9.53114 62.1625C8.85754 61.3745 8.51434 60.2815 8.51434 58.8835C8.51434 57.6126 8.83213 56.5577 9.46753 55.7824C10.4843 54.5115 12.3145 53.749 15.1868 53.749C19.1012 53.749 20.728 55.147 21.3254 56.634C21.5287 57.155 21.5923 57.7397 21.605 58.0574H18.0718C18.059 57.8286 17.9701 57.5363 17.8176 57.3202C17.449 56.7865 16.6356 56.3925 15.1487 56.3925C13.8015 56.3925 12.8229 56.7356 12.378 57.4346C12.1493 57.7778 12.0603 58.2862 12.0603 58.9216C12.0603 59.6079 12.1747 60.0782 12.4162 60.4213C12.9119 61.1584 14.0176 61.438 15.1614 61.438C16.4958 61.438 17.4489 61.1711 17.8684 60.5611C18.021 60.345 18.0845 60.0909 18.0972 59.824Z" fill="#0A0A0A"/>
<path d="M32.5438 61.2346V63.8908H23.0246V53.9141H26.4688V61.2346H32.5438Z" fill="#0A0A0A"/>
<path d="M44.4077 63.8908V61.4125H37.2524V60.1162H44.1154V57.6887H37.2524V56.4051H44.3188V53.9141H33.8972V63.8908H44.4077Z" fill="#0A0A0A"/>
<path fill-rule="evenodd" clip-rule="evenodd" d="M54.8807 62.048H49.492L48.5642 63.8908H44.9675L50.2927 53.9141H54.3977L59.4307 63.8908H55.7577L54.8807 62.048ZM50.6104 59.8112H53.8007L52.6058 57.3964L52.2499 56.494L51.8687 57.4091L50.6104 59.8112Z" fill="#0A0A0A"/>
<path fill-rule="evenodd" clip-rule="evenodd" d="M72.2025 56.9516C72.2025 56.0492 71.9865 55.401 71.5285 54.9308C70.9315 54.2953 69.9015 53.9141 68.3265 53.9141H60.3825V63.8908H63.7765V60.3704H66.8645L69.3425 63.8908H73.1305L70.1185 59.8239C70.7915 59.7222 71.3385 59.3155 71.6935 58.8325C72.0115 58.3877 72.2025 57.7268 72.2025 56.9516ZM68.8975 57.2693C68.8975 57.4345 68.8725 57.6379 68.7835 57.7904C68.6565 58.0446 68.3265 58.1463 67.7795 58.1463H63.7885V56.3288H67.7155C68.2495 56.3288 68.6055 56.4178 68.7835 56.7482C68.8725 56.8753 68.8975 57.0787 68.8975 57.2693Z" fill="#0A0A0A"/>
<path d="M53.4627 8.47604C53.4627 8.64134 53.4377 8.84464 53.3487 8.99714C53.2217 9.25134 52.8907 9.35304 52.3444 9.35304H48.3537V7.53564H52.2808C52.8147 7.53564 53.1707 7.62454 53.3487 7.95504C53.4377 8.08214 53.4627 8.28544 53.4627 8.47604Z" fill="#0A0A0A"/>
<path d="M63.3986 11.0178H66.5886L65.3936 8.60298L65.0376 7.70068L64.6566 8.61578L63.3986 11.0178Z" fill="#0A0A0A"/>
<path fill-rule="evenodd" clip-rule="evenodd" d="M2.70819 8.45247C3.11969 4.40067 6.54159 1.23877 10.702 1.23877H70.6317C75.0697 1.23877 78.6667 4.83627 78.6667 9.27407V59.5598C78.6667 63.9976 75.0697 67.5951 70.6317 67.5951H10.702C6.26419 67.5951 2.66669 63.9976 2.66669 59.5598V9.27407C2.66669 8.99667 2.68079 8.72267 2.70819 8.45247ZM4.34069 23.7133L31.3477 32.8472C32.0834 32.1007 33.0846 31.4518 34.289 30.9462C34.5659 30.8299 34.8517 30.7221 35.1451 30.6229L23.8854 19.1985H32.6992L37.6471 30.0158C38.3005 29.9133 38.9722 29.848 39.6531 29.8219C39.8796 29.8132 40.1061 29.8088 40.3322 29.8088V19.1985H47.965L43.0171 30.016C43.7793 30.1357 44.5193 30.3064 45.2219 30.5264C46.1262 30.8096 46.9493 31.1682 47.6674 31.5889L68.8187 19.1985H76.9927V23.4869L46.0314 33.9582C45.3806 33.2978 44.4101 32.7654 43.2426 32.4281C42.0752 32.0909 40.7633 31.964 39.4727 32.0635C38.1822 32.163 36.9711 32.4845 35.9924 32.9872C35.0138 33.49 34.3116 34.1515 33.9747 34.888C33.6378 35.6245 33.6813 36.403 34.0997 37.1251C34.5181 37.8471 35.2927 38.4804 36.3253 38.9446C37.358 39.4087 38.6025 39.683 39.9014 39.7329C40.6231 39.7606 41.3437 39.7184 42.035 39.6098C42.5875 39.5231 43.1218 39.394 43.6225 39.2246L53.8837 49.6354H46.6214L43.0166 41.7558C41.2559 42.0322 39.404 42.0316 37.6471 41.7559L34.0429 49.6354H26.7808L35.145 41.1489C34.3619 40.884 33.6391 40.5596 32.9963 40.1831L16.8606 49.6354H4.34069V48.0585L31.3476 38.9245C30.7262 38.294 30.3004 37.6004 30.0962 36.8758C29.8548 36.0193 29.9303 35.1456 30.3112 34.313L4.34069 30.2366V23.7133ZM76.9927 48.2848L40.3322 35.8858L76.9927 41.6402V48.2848ZM76.9927 51.3094H4.34069V59.5598C4.34069 63.073 7.18869 65.921 10.702 65.921H70.6317C74.1447 65.921 76.9927 63.073 76.9927 59.5598V51.3094ZM22.1696 11.2467V5.12087H18.7635V10.9416C18.7635 11.9838 17.7976 12.6828 16.1709 12.6828C14.4678 12.6828 13.54 12.0092 13.54 10.9289V5.12087H10.0958V10.9289C10.0958 13.9537 12.5742 15.2374 16.0311 15.2374C19.7295 15.2374 22.1696 13.941 22.1696 11.2467ZM33.6405 15.0976V12.4413H27.5655V5.12087H24.1213V15.0976H33.6405ZM43.8763 5.12087V7.62457H39.6569V15.0976H36.1745V7.62457H31.9678V5.12087H43.8763ZM56.7667 8.15837C56.7667 7.25607 56.5507 6.60787 56.0937 6.13757C55.4967 5.50217 54.4667 5.12087 52.8907 5.12087H44.9476V15.0976H48.3409V11.5771H51.4293L53.9077 15.0976H57.6947L54.6827 11.0306C55.3567 10.9289 55.9027 10.5222 56.2587 10.0393C56.5767 9.59457 56.7667 8.93367 56.7667 8.15837ZM67.6687 13.2547H62.2797L61.3527 15.0976H57.7557L63.0807 5.12087H67.1857L72.2187 15.0976H68.5457L67.6687 13.2547Z" fill="#0A0A0A"/>
</svg>
