<svg width="117" height="60" viewBox="0 0 117 60" fill="none" xmlns="http://www.w3.org/2000/svg">
<path d="M9.12284 13.1827C8.40119 11.3507 8.71448 9.24429 9.37922 7.4727C10.0786 5.60853 11.2964 3.74946 13.1166 2.76904C13.2069 4.73352 12.6061 6.67439 11.9497 8.42453C11.3593 9.9987 10.635 11.6758 9.43886 12.9776C9.25506 13.9641 9.11421 14.9478 9.01516 15.927C9.41159 14.8925 10.0544 13.9497 10.8565 13.1915C11.8891 12.2153 13.4252 11.462 14.8672 11.9075C14.4448 13.4996 13.4821 15.0257 12.342 16.0963C11.4446 16.939 10.26 18.0188 8.86465 18.0613C8.80717 19.5022 8.83966 20.93 8.95836 22.3384C9.15522 21.3078 9.57698 20.3372 10.1864 19.6145C11.0236 18.6213 12.2649 17.408 13.8502 17.6109C13.7636 19.2223 13.1201 20.8733 12.224 22.1139C11.5119 23.0998 10.5718 24.3562 9.23746 24.6808C9.45112 26.0647 9.74874 27.4257 10.1263 28.7574C10.13 27.7377 10.3554 26.7369 10.8028 25.9341C11.4332 24.8021 12.4151 23.3905 14.0022 23.2801C14.2348 24.8609 13.9196 26.589 13.2837 27.9635C12.7755 29.0622 12.0979 30.4632 10.8628 31.0429C11.3815 32.4757 11.9952 33.8684 12.6989 35.2127C12.4519 34.054 12.4617 32.8331 12.7541 31.7345C13.157 30.22 14.1572 28.6292 15.763 28.1675C16.3306 29.8395 16.2523 31.7055 15.9226 33.4049C15.6512 34.8041 15.118 36.4475 13.9228 37.3564C14.7042 38.616 15.5686 39.8248 16.5113 40.9749C16.0048 39.8469 15.7531 38.6132 15.8881 37.4837C16.0849 35.8383 16.5478 34.0781 18.2304 33.2008C19.185 34.846 19.4062 36.6917 19.4873 38.5146C19.5529 39.9884 19.3403 41.8062 18.3156 43.0051C19.4428 44.1757 20.659 45.2713 21.9581 46.2815C21.1194 45.2069 20.5321 43.9459 20.4078 42.6989C20.2321 40.9369 20.318 38.9973 21.8834 37.7043C23.2222 39.101 24.0211 41.158 24.4127 42.9445C24.7589 44.5241 25.1204 46.3938 24.296 47.9483C25.9492 49.0262 27.7141 49.9759 29.5801 50.7801C28.2671 49.8455 27.1923 48.5633 26.6802 47.2394C26.0092 45.504 25.5941 43.4362 26.9013 41.6982C28.6525 42.8186 29.9396 44.7302 30.9537 46.4736C31.8238 47.9696 32.7244 50.0344 32.2776 51.8161C33.3107 52.1662 34.3705 52.4737 35.4557 52.736L35.3911 53.0021C34.3019 52.7388 33.238 52.4303 32.2007 52.0791C31.4739 54.2243 29.0931 54.933 27.1677 55.2459C24.4244 55.6917 21.1578 54.8279 18.8158 53.0879C20.0519 51.343 22.574 51.166 24.4757 51.0324L24.5005 51.0307C26.5839 50.8845 28.8372 51.0798 30.9323 51.6235C28.512 50.7033 26.2473 49.5462 24.159 48.1859L24.1282 48.2344C22.9839 50.0878 20.6864 50.1601 18.883 50.0429C16.4359 49.8838 13.6106 48.3976 11.9755 46.3432C13.5135 44.9952 15.7852 45.3725 17.5455 45.6648L17.554 45.6661C19.5186 45.9923 21.6653 46.704 23.4674 47.7997C23.2957 47.6646 23.1277 47.5218 22.9645 47.372C21.2124 46.1243 19.5963 44.7286 18.1297 43.2068C18.1126 43.2239 18.0954 43.2408 18.078 43.2576C16.6519 44.6905 14.575 44.3153 12.9542 43.8489C10.7852 43.2249 8.53568 41.3422 7.45769 39.1809C9.12818 38.246 11.1254 39.0164 12.6788 39.6258C14.3838 40.2946 16.1878 41.3646 17.5749 42.7285C17.4319 42.5483 17.2954 42.3601 17.1665 42.1653C15.8772 40.7118 14.7175 39.1555 13.6979 37.5136L13.6467 37.5456C12.0335 38.5854 10.2057 37.8324 8.75708 37.0918C6.79295 36.0878 5.21459 33.8812 4.53258 31.7112C6.27497 31.1537 7.99646 32.2478 9.33469 33.1143C10.7983 34.062 12.2809 35.4135 13.2986 36.9635C13.2238 36.8108 13.1542 36.6547 13.09 36.4956C12.1122 34.7916 11.2815 33.0028 10.6091 31.1471L10.5744 31.1589L10.5716 31.16C9.10478 31.7169 7.47132 30.851 6.4064 29.9013C4.92629 28.5815 3.88306 26.5525 3.6385 24.5702C5.16779 24.3723 6.60859 25.5542 7.59366 26.5622C8.72754 27.7223 9.74521 29.0935 10.3709 30.6165C10.3252 30.451 10.286 30.283 10.2531 30.1133C9.68376 28.3695 9.25245 26.5711 8.96813 24.7326L8.94598 24.7353L8.93848 24.7366C7.38772 24.9951 5.95396 23.8175 5.09736 22.6746C3.89556 21.0708 3.27602 18.8512 3.4313 16.8394C4.97604 16.9473 6.15229 18.4152 6.91506 19.6025C7.7979 20.9771 8.53 22.5328 8.85068 24.1603C8.84091 24.0308 8.83511 23.9006 8.83307 23.77C8.59759 21.8988 8.51365 19.9892 8.59044 18.0561L8.58601 18.0558C7.00935 17.9991 5.84412 16.5369 5.24253 15.2399C4.38173 13.3839 4.24315 11.0379 4.8177 9.06071C6.32041 9.482 7.15815 11.2038 7.65262 12.5291C8.22274 14.0572 8.62065 15.7239 8.62383 17.3808C8.70585 15.9907 8.87101 14.5896 9.12284 13.1827Z" fill="#0A0A0A"/>
<path d="M40.1758 9.75342V16.3907C40.1758 19.3099 37.5288 20.7145 33.5171 20.7145C29.7673 20.7145 27.079 19.3238 27.079 16.0464V9.75342H30.8151V16.0464C30.8151 17.2169 31.8214 17.9467 33.6687 17.9467C35.4334 17.9467 36.4812 17.1893 36.4812 16.0602V9.75342H40.1758Z" fill="#0A0A0A"/>
<path d="M52.6185 17.6851V20.563H42.2928V9.75342H46.0288V17.6851H52.6185Z" fill="#0A0A0A"/>
<path d="M63.7216 12.4662V9.75342H50.804V12.4662H55.3672V20.563H59.1446V12.4662H63.7216Z" fill="#0A0A0A"/>
<path fill-rule="evenodd" clip-rule="evenodd" d="M76.9735 10.8551C77.4699 11.3646 77.705 12.0669 77.705 13.0445C77.705 13.8846 77.4983 14.6006 77.153 15.0825C76.7668 15.6058 76.1738 16.0464 75.4434 16.1566L78.7115 20.563H74.6028L71.9141 16.7487H68.5645V20.563H64.8835V9.75342H73.4999C75.2094 9.75342 76.326 10.1665 76.9735 10.8551ZM73.9963 13.9534C74.0928 13.7881 74.1201 13.5678 74.1201 13.3888C74.1201 13.1822 74.0928 12.9619 73.9963 12.8243C73.8031 12.4662 73.4169 12.3698 72.8376 12.3698H68.5782V14.339H72.9069C73.4999 14.339 73.8588 14.2288 73.9963 13.9534Z" fill="#0A0A0A"/>
<path fill-rule="evenodd" clip-rule="evenodd" d="M83.6845 18.5664H89.53L90.4808 20.563H94.4656L89.0063 9.75342H84.5535L78.7773 20.563H82.6781L83.6845 18.5664ZM88.3577 16.1428H84.8977L86.2631 13.5403L86.6766 12.5488L87.0628 13.5265L88.3577 16.1428Z" fill="#0A0A0A"/>
<path fill-rule="evenodd" clip-rule="evenodd" d="M76.5793 22.5986C74.2666 22.5986 73.05 23.6935 73.05 25.3024C73.05 27.1184 74.3268 28.0396 76.5793 28.0396C79.0591 28.0396 80.1018 26.9714 80.1018 25.3024C80.1018 23.6067 78.925 22.5986 76.5793 22.5986ZM76.5793 26.6978C75.2628 26.6978 74.8811 26.157 74.8811 25.3225C74.8811 24.5014 75.2958 23.9606 76.5725 23.9606C77.9697 23.9606 78.2832 24.5681 78.2832 25.3225C78.2832 26.1237 77.9027 26.6978 76.5793 26.6978Z" fill="#0A0A0A"/>
<path d="M69.6222 27.9595V24.8552H66.1333V25.9835H67.998C67.9847 26.0703 67.9178 26.2372 67.8309 26.3373C67.6371 26.5643 67.1224 26.7646 66.4541 26.7646C65.759 26.7646 65.3112 26.5843 65.0706 26.3039C64.9102 26.097 64.8166 25.8032 64.8166 25.3626C64.8166 24.902 64.9102 24.5883 65.0906 24.3813C65.3513 24.0876 65.7924 23.9607 66.4408 23.9607C67.0223 23.9607 67.4232 24.0941 67.6104 24.261C67.7307 24.3612 67.8242 24.5015 67.8443 24.5948H69.5754C69.5688 24.4279 69.5153 24.161 69.4217 23.9674C69.0073 23.1262 68.0448 22.6255 66.4074 22.6255C64.9837 22.6255 64.028 23.0594 63.5 23.7137C63.1524 24.161 62.992 24.7217 62.992 25.3492C62.992 26.0436 63.1791 26.6377 63.4866 27.0317C64.0079 27.706 64.9369 28.0396 66.0531 28.0396C67.0357 28.0396 67.7106 27.806 68.1384 27.4523L68.1852 27.9595H69.6222Z" fill="#0A0A0A"/>
<path d="M51.4155 24.7883C52.7722 24.9351 53.3537 25.4159 53.3537 26.3305C53.3537 27.4387 52.2709 28.0394 50.1388 28.0394C48.1538 28.0394 47.2983 27.4787 46.9707 26.7444C46.8972 26.5708 46.8638 26.3571 46.8437 26.2236H48.7687C48.7821 26.3037 48.8289 26.4239 48.8957 26.504C49.0561 26.6976 49.5038 26.8111 50.2658 26.8111C51.2484 26.8111 51.4823 26.6709 51.4823 26.4106C51.4823 26.1301 51.2417 26.0701 50.3527 25.9766C49.9985 25.9432 49.437 25.8898 49.2032 25.8698C47.5055 25.7162 46.8772 25.1888 46.8772 24.2876C46.8772 23.3529 47.9867 22.6387 50.0118 22.6387C51.8098 22.6387 52.6452 23.1727 52.9928 23.8403C53.0997 24.0406 53.1665 24.2675 53.1866 24.4277H51.2617C51.255 24.3543 51.2283 24.2809 51.1548 24.1874C51.0077 23.9939 50.6334 23.867 49.965 23.867C49.0227 23.867 48.7754 23.9805 48.7754 24.2208C48.7754 24.4879 49.0896 24.548 50.1388 24.6615C50.5465 24.6948 51.1949 24.7615 51.4155 24.7883Z" fill="#0A0A0A"/>
<path fill-rule="evenodd" clip-rule="evenodd" d="M32.2269 23.166C32.5811 23.4464 32.7816 23.9204 32.7816 24.608C32.7816 25.1688 32.6413 25.5893 32.3739 25.8831C32.013 26.297 31.4181 26.484 30.6429 26.4907C30.4022 26.4974 28.3436 26.4907 28.3436 26.4907V27.9593H26.5457V22.7188H30.6161C31.3379 22.7188 31.886 22.8656 32.2269 23.166ZM30.8969 25.0152C30.9502 24.9218 30.9771 24.8016 30.9771 24.6347C30.9771 24.4612 30.9435 24.3142 30.8835 24.2341C30.7699 24.0672 30.556 23.9871 30.2084 23.9871H28.3302V25.2689H30.195C30.5693 25.2689 30.7899 25.1821 30.8969 25.0152Z" fill="#0A0A0A"/>
<path fill-rule="evenodd" clip-rule="evenodd" d="M39.3586 23.2528C39.5993 23.4998 39.7129 23.8403 39.7129 24.3142C39.7129 24.7215 39.6126 25.0687 39.4455 25.3023C39.2584 25.556 38.971 25.7696 38.6167 25.8231L40.2007 27.9593H38.209L36.9057 26.1101H35.2815V27.9593H33.497V22.7188H37.6743C38.5031 22.7188 39.0445 22.919 39.3586 23.2528ZM37.9149 24.7549C37.9617 24.6748 37.975 24.5679 37.975 24.4811C37.975 24.3811 37.9617 24.2742 37.9149 24.2075C37.8213 24.0339 37.6342 23.9871 37.3536 23.9871H35.2882V24.9418H37.387C37.6743 24.9418 37.8481 24.8884 37.9149 24.7549Z" fill="#0A0A0A"/>
<path d="M46.302 27.9593V26.6576H42.5392V25.9766H46.1483V24.7015H42.5392V24.0272H46.2552V22.7188H40.7746V27.9593H46.302Z" fill="#0A0A0A"/>
<path d="M59.8577 24.0339V22.7188H53.5951V24.0339H55.8073V27.9593H57.6386V24.0339H59.8577Z" fill="#0A0A0A"/>
<path d="M62.2657 22.7188V27.9593H60.4277V22.7188H62.2657Z" fill="#0A0A0A"/>
<path d="M72.3242 22.7188V27.9593H70.4858V22.7188H72.3242Z" fill="#0A0A0A"/>
<path d="M87.1934 22.7188V25.9365C87.1934 27.3518 85.9098 28.0328 83.9651 28.0328C82.1476 28.0328 80.8436 27.3585 80.8436 25.7696V22.7188H82.6554V25.7696C82.6554 26.337 83.1427 26.6909 84.0389 26.6909C84.8943 26.6909 85.402 26.3238 85.402 25.7763V22.7188H87.1934Z" fill="#0A0A0A"/>
<path d="M94.4088 26.3305C94.4088 25.4159 93.8272 24.9351 92.4709 24.7883C92.2494 24.7615 91.6019 24.6948 91.1941 24.6615C90.1445 24.548 89.8299 24.4879 89.8299 24.2208C89.8299 23.9805 90.0775 23.867 91.0203 23.867C91.6882 23.867 92.0631 23.9939 92.2096 24.1874C92.2835 24.2809 92.3096 24.3543 92.3164 24.4277H94.2418C94.2213 24.2675 94.1543 24.0406 94.0476 23.8403C93.7 23.1727 92.8651 22.6387 91.0669 22.6387C89.0415 22.6387 87.9318 23.3529 87.9318 24.2876C87.9318 25.1888 88.5611 25.7162 90.2581 25.8698L90.3672 25.8795L90.5489 25.896L91.4077 25.9766C92.2971 26.0701 92.5368 26.1301 92.5368 26.4106C92.5368 26.6709 92.3039 26.8111 91.3213 26.8111C90.5591 26.8111 90.1116 26.6976 89.9503 26.504C89.8844 26.4239 89.8367 26.3037 89.8242 26.2236H87.8988C87.9193 26.3571 87.9522 26.5708 88.026 26.7444C88.3532 27.4787 89.2085 28.0394 91.1941 28.0394C93.3262 28.0394 94.4088 27.4387 94.4088 26.3305Z" fill="#0A0A0A"/>
<path fill-rule="evenodd" clip-rule="evenodd" d="M47.6708 29.9663C46.1679 29.9663 45.3773 30.6779 45.3773 31.7236C45.3773 32.9037 46.2069 33.5025 47.6708 33.5025C49.2824 33.5025 49.96 32.8083 49.96 31.7236C49.96 30.6215 49.1955 29.9663 47.6708 29.9663ZM47.6708 32.6304C46.8151 32.6304 46.5675 32.2789 46.5675 31.7365C46.5675 31.2029 46.8368 30.8514 47.6665 30.8514C48.5743 30.8514 48.7786 31.2463 48.7786 31.7365C48.7786 32.2572 48.5309 32.6304 47.6708 32.6304Z" fill="#0A0A0A"/>
<path d="M39.3126 32.3916C39.3126 31.7971 38.9346 31.4847 38.0528 31.3892C37.9095 31.3719 37.4882 31.3285 37.2232 31.3069C36.5411 31.233 36.337 31.194 36.337 31.0205C36.337 30.8643 36.4978 30.7905 37.1102 30.7905C37.5446 30.7905 37.7878 30.8729 37.8835 30.9987C37.9312 31.0595 37.9486 31.1072 37.953 31.1549H39.204C39.1909 31.0508 39.1475 30.9033 39.078 30.7731C38.8521 30.3393 38.3091 29.9922 37.1406 29.9922C35.8245 29.9922 35.1034 30.4564 35.1034 31.0638C35.1034 31.6496 35.5117 31.9924 36.615 32.0921C36.7671 32.1052 37.1319 32.1399 37.3622 32.1616C37.9399 32.2223 38.0962 32.2614 38.0962 32.4436C38.0962 32.6128 37.9442 32.7039 37.3057 32.7039C36.8105 32.7039 36.5195 32.6302 36.4152 32.5043C36.3718 32.4523 36.3413 32.3742 36.3327 32.3221H35.0816C35.0947 32.4089 35.1164 32.5477 35.1642 32.6606C35.3771 33.1378 35.9331 33.5022 37.2232 33.5022C38.6089 33.5022 39.3126 33.1118 39.3126 32.3916Z" fill="#0A0A0A"/>
<path fill-rule="evenodd" clip-rule="evenodd" d="M30.6393 32.4868C30.6393 32.7211 30.5741 32.9511 30.4439 33.1029C30.244 33.3459 29.8704 33.4499 29.3884 33.4499H26.3607V30.0439H29.3058C29.7749 30.0439 30.0747 30.1568 30.2397 30.326C30.3874 30.4735 30.4526 30.6688 30.4526 30.89C30.4526 31.1114 30.4005 31.2936 30.2876 31.4281C30.1962 31.541 30.0399 31.6276 29.8749 31.6494C30.1181 31.6797 30.3483 31.8012 30.4786 31.9704C30.5872 32.0962 30.6393 32.2872 30.6393 32.4868ZM29.1755 31.2936C29.2189 31.2458 29.245 31.1764 29.245 31.094C29.245 31.0115 29.2189 30.9421 29.1624 30.8945C29.1016 30.8379 28.9886 30.8163 28.8236 30.8163H27.4987V31.3717H28.854C29.0017 31.3717 29.1147 31.35 29.1755 31.2936ZM28.98 32.6777C29.1841 32.6777 29.3058 32.6516 29.3753 32.5866C29.4187 32.5432 29.4361 32.4781 29.4361 32.3957C29.4361 32.3089 29.4144 32.2439 29.3622 32.1918C29.2971 32.1354 29.1841 32.1093 28.9931 32.1093H27.4987V32.6777H28.98Z" fill="#0A0A0A"/>
<path d="M34.7296 32.604V33.4499H31.1372V30.0439H34.6991V30.8945H32.2839V31.3326H34.6296V32.1614H32.2839V32.604H34.7296Z" fill="#0A0A0A"/>
<path d="M43.5396 30.0439V30.8988H42.0974V33.4499H40.9073V30.8988H39.4694V30.0439H43.5396Z" fill="#0A0A0A"/>
<path d="M53.935 30.0439V30.9074H51.6197V31.389H53.8264V32.2439H51.6197V33.4499H50.4512V30.0439H53.935Z" fill="#0A0A0A"/>
<path d="M59.8205 30.8988V30.0439H55.7504V30.8988H57.1882V33.4499H58.3785V30.8988H59.8205Z" fill="#0A0A0A"/>
<path d="M64.2613 30.0439V33.4499H63.0971V32.2134H61.3508V33.4499H60.1867V30.0439H61.3508V31.2849H63.0971V30.0439H64.2613Z" fill="#0A0A0A"/>
<path d="M68.5429 33.4499V32.604H66.0973V32.1614H68.443V31.3326H66.0973V30.8945H68.5125V30.0439H64.9506V33.4499H68.5429Z" fill="#0A0A0A"/>
<path d="M75.7444 30.0439H76.869L75.6229 33.4499H74.3461C74.3461 33.4499 73.6634 31.4151 73.6589 31.3586C73.6555 31.4151 72.9682 33.4499 72.9682 33.4499H71.696L70.4189 30.0439H71.6824C71.6824 30.0439 72.4219 32.1873 72.4219 32.2394C72.4219 32.1873 73.1034 30.0439 73.1034 30.0439H74.3245C74.3245 30.0439 75.0106 32.1873 75.0106 32.2394C75.0106 32.1873 75.7444 30.0439 75.7444 30.0439Z" fill="#0A0A0A"/>
<path fill-rule="evenodd" clip-rule="evenodd" d="M79.1 29.9663C77.5971 29.9663 76.8065 30.6779 76.8065 31.7236C76.8065 32.9037 77.6357 33.5025 79.1 33.5025C80.7118 33.5025 81.3888 32.8083 81.3888 31.7236C81.3888 30.6215 80.6244 29.9663 79.1 29.9663ZM79.1 32.6304C78.2446 32.6304 77.997 32.2789 77.997 31.7365C77.997 31.2029 78.2662 30.8514 79.0954 30.8514C80.0041 30.8514 80.2075 31.2463 80.2075 31.7365C80.2075 32.2572 79.9598 32.6304 79.1 32.6304Z" fill="#0A0A0A"/>
<path fill-rule="evenodd" clip-rule="evenodd" d="M85.6906 30.3911C85.8462 30.5517 85.92 30.7729 85.92 31.081C85.92 31.3457 85.8553 31.5713 85.7462 31.7232C85.6247 31.888 85.4384 32.0269 85.2078 32.0615L86.237 33.4499H84.9431L84.0957 32.2482H83.0405V33.4499H81.8807V30.0439H84.5955C85.134 30.0439 85.4861 30.1742 85.6906 30.3911ZM84.7523 31.3674C84.7818 31.3153 84.7909 31.2458 84.7909 31.1895C84.7909 31.1243 84.7818 31.055 84.7523 31.0115C84.691 30.8988 84.5694 30.8684 84.3865 30.8684H83.045V31.4889H84.4081C84.5955 31.4889 84.708 31.4542 84.7523 31.3674Z" fill="#0A0A0A"/>
<path d="M89.864 33.4499V32.5432H87.7875V30.0439H86.6107V33.4499H89.864Z" fill="#0A0A0A"/>
<path fill-rule="evenodd" clip-rule="evenodd" d="M94.4701 31.684C94.4701 32.2134 94.4179 32.4998 94.2622 32.7688C94.0271 33.1983 93.5625 33.4499 92.7412 33.4499H90.3263V30.0439H92.7151C93.5318 30.0439 94.0146 30.2739 94.2532 30.6688C94.4224 30.9335 94.4701 31.2154 94.4701 31.684ZM92.5197 32.6126C92.8889 32.6126 93.0979 32.5258 93.224 32.335C93.3024 32.2178 93.324 31.9444 93.324 31.7058C93.3194 31.4889 93.2933 31.2589 93.224 31.1547C93.0888 30.9508 92.8855 30.8771 92.5288 30.8771H91.4906V32.6126H92.5197Z" fill="#0A0A0A"/>
<path d="M47.8733 50.0151H46.0733C46.0733 50.0151 44.8988 53.4445 44.8988 53.5278C44.8988 53.4445 43.8007 50.0151 43.8007 50.0151H41.8477C41.8477 50.0151 40.7565 53.4445 40.7565 53.5278C40.7565 53.4445 39.5751 50.0151 39.5751 50.0151H37.5526L39.5959 55.4646H41.6322C41.6322 55.4646 42.7303 52.2088 42.7373 52.1186C42.7443 52.2088 43.8354 55.4646 43.8354 55.4646H45.8786L47.8733 50.0151Z" fill="#0A0A0A"/>
<path d="M50.3365 55.4646V50.0151H48.4252V55.4646H50.3365Z" fill="#0A0A0A"/>
<path d="M57.7706 50.0151V55.4646H55.9079L53.2044 52.431V55.4646H51.4114V50.0151H53.3712L55.9913 52.9794V50.0151H57.7706Z" fill="#0A0A0A"/>
<path d="M65.216 55.4646V50.0151H63.4368V52.9794L60.8167 50.0151H58.8568V55.4646H60.6499V52.431L63.3535 55.4646H65.216Z" fill="#0A0A0A"/>
<path d="M72.0504 54.1109V55.4646H66.3022V50.0151H72.0016V51.3758H68.137V52.077H71.8902V53.4029H68.137V54.1109H72.0504Z" fill="#0A0A0A"/>
<path fill-rule="evenodd" clip-rule="evenodd" d="M79.3964 51.6743C79.3964 51.1814 79.2783 50.8274 79.0284 50.5705C78.7012 50.2235 78.139 50.0151 77.2768 50.0151H72.933V55.4646H74.7891V53.5416H76.4782L77.8334 55.4646H79.9042L78.2571 53.2432C78.6251 53.1876 78.9239 52.9655 79.1193 52.7017C79.2919 52.4588 79.3964 52.0977 79.3964 51.6743ZM77.5892 51.8479C77.5892 51.9381 77.5755 52.0492 77.5267 52.1324C77.4574 52.2713 77.2768 52.3268 76.978 52.3268H74.7959V51.3341H76.9428C77.2348 51.3341 77.4301 51.3827 77.5267 51.5632C77.5755 51.6326 77.5892 51.7437 77.5892 51.8479Z" fill="#0A0A0A"/>
<path d="M42.3239 40.4011L41.5702 38.084L40.8164 40.4011H38.3772L40.3506 41.8331L39.5969 44.1502L41.5702 42.7182L43.5434 44.1502L42.7897 41.8331L44.7631 40.4011H42.3239Z" fill="#0A0A0A"/>
<path d="M50.272 38.0825L51.0411 40.3996H53.53L51.5165 41.8317L52.2856 44.1487L50.272 42.7167L48.2584 44.1487L49.0275 41.8317L47.0139 40.3996H49.5028L50.272 38.0825Z" fill="#0A0A0A"/>
<path d="M59.6734 40.3996L58.9044 38.0825L58.1353 40.3996H55.6462L57.6599 41.8317L56.8907 44.1487L58.9044 42.7167L60.9179 44.1487L60.1488 41.8317L62.1624 40.3996H59.6734Z" fill="#0A0A0A"/>
<path d="M67.5372 38.0825L68.3063 40.3996H70.7952L68.7817 41.8317L69.5508 44.1487L67.5372 42.7167L65.5236 44.1487L66.2928 41.8317L64.2791 40.3996H66.7682L67.5372 38.0825Z" fill="#0A0A0A"/>
<path d="M76.9928 40.3996L76.2386 38.0825L75.4843 40.3996H73.0455L75.0186 41.8317L74.2655 44.1487L76.2386 42.7167L78.2117 44.1487L77.4585 41.8317L79.4316 40.3996H76.9928Z" fill="#0A0A0A"/>
<path d="M108.637 13.2332C109.359 11.4013 109.045 9.2947 108.381 7.52311C107.681 5.65905 106.463 3.79976 104.643 2.81934C104.553 4.78392 105.153 6.72468 105.81 8.47483C106.401 10.0489 107.124 11.7258 108.32 13.0276C108.504 14.0138 108.645 14.9973 108.744 15.9762C108.348 14.9422 107.706 13.9998 106.904 13.2419C105.871 12.2656 104.334 11.5124 102.893 11.9579C103.316 13.5498 104.278 15.0761 105.418 16.1468C106.316 16.9894 107.5 18.0691 108.895 18.1117C108.953 19.5528 108.92 20.9807 108.801 22.3892C108.604 21.3585 108.183 20.3879 107.573 19.6652C106.736 18.672 105.494 17.4587 103.91 17.6617C103.996 19.2731 104.64 20.9241 105.536 22.1646C106.247 23.1505 107.188 24.4071 108.523 24.7317C108.309 26.1154 108.011 27.4761 107.633 28.8077C107.63 27.7881 107.405 26.7873 106.957 25.9846C106.327 24.8527 105.344 23.4409 103.757 23.3305C103.525 24.9113 103.84 26.6395 104.476 28.0139C104.984 29.1126 105.662 30.5136 106.897 31.0933C106.378 32.5263 105.765 33.9194 105.06 35.2638C105.308 34.1049 105.298 32.8837 105.006 31.7848C104.603 30.2703 103.603 28.6794 101.997 28.2178C101.429 29.89 101.507 31.7558 101.838 33.4552C102.109 34.8545 102.642 36.4979 103.837 37.4068C103.055 38.6671 102.191 39.8764 101.247 41.0272C101.755 39.8987 102.006 38.6643 101.871 37.5344C101.674 35.8887 101.212 34.1286 99.5295 33.2515C98.5742 34.8967 98.3527 36.7424 98.2721 38.5654C98.2062 40.0393 98.4186 41.8571 99.4443 43.0562C98.3163 44.2264 97.1009 45.3217 95.8026 46.3317C96.6409 45.2571 97.2281 43.9962 97.352 42.7493C97.528 40.9873 97.4428 39.0478 95.8764 37.7547C94.5383 39.1514 93.7386 41.2084 93.3478 42.9949C93.0014 44.5744 92.6401 46.4442 93.4637 47.9987C91.8109 49.0768 90.0457 50.0266 88.1794 50.831C89.4925 49.8963 90.5671 48.6139 91.0794 47.2898C91.7507 45.5545 92.1653 43.4866 90.859 41.7486C89.1074 42.869 87.8204 44.7805 86.806 46.524C85.9359 48.0201 85.0351 50.085 85.4827 51.8667C84.449 52.2169 83.3892 52.5243 82.3044 52.7867L82.3691 53.0527C83.4574 52.7894 84.5217 52.4809 85.5588 52.1297C86.2858 54.2748 88.6667 54.9837 90.5921 55.2965C93.3353 55.7423 96.6022 54.8787 98.9445 53.1385C97.7075 51.3936 95.1858 51.2166 93.2842 51.083L93.2592 51.0813C91.1759 50.9351 88.9223 51.1305 86.8276 51.6743C89.2472 50.754 91.5122 49.5967 93.6011 48.2363L93.6295 48.2817C94.7734 50.1381 97.0725 50.2107 98.8764 50.0934C101.324 49.9344 104.149 48.4481 105.784 46.3937C104.246 45.046 101.975 45.423 100.214 45.7152L100.205 45.7168C98.2414 46.0429 96.0956 46.7541 94.2941 47.8495C94.4656 47.7146 94.6326 47.572 94.7961 47.4223C96.5477 46.1748 98.163 44.7793 99.6295 43.2578C99.6499 43.2781 99.6704 43.2981 99.6908 43.318C101.118 44.7397 103.188 44.3646 104.806 43.8993C106.975 43.2753 109.225 41.3926 110.303 39.2313C108.632 38.2964 106.635 39.0667 105.082 39.6762C103.375 40.3456 101.57 41.4168 100.182 42.7825C100.325 42.6021 100.462 42.4136 100.592 42.2184C101.881 40.7642 103.042 39.2069 104.062 37.564L104.106 37.5913L104.118 37.5985C105.729 38.6346 107.556 37.8822 109.003 37.1422C110.967 36.1382 112.546 33.9316 113.228 31.7616C111.485 31.2041 109.764 32.2982 108.426 33.1647C106.961 34.1129 105.477 35.4654 104.459 37.0165C104.534 36.8635 104.605 36.7069 104.67 36.5475C105.648 34.8429 106.478 33.0537 107.15 31.1975L107.186 31.2093L107.191 31.2116C108.658 31.7661 110.29 30.9007 111.354 29.9517C112.833 28.632 113.877 26.6029 114.122 24.6206C112.593 24.4228 111.151 25.6046 110.166 26.6124C109.033 27.7734 108.014 29.1455 107.388 30.6697C107.434 30.5034 107.474 30.3344 107.507 30.1637C108.076 28.42 108.508 26.6218 108.792 24.7834L108.835 24.7891C110.38 25.039 111.809 23.8647 112.663 22.725C113.865 21.1213 114.484 18.9016 114.328 16.8897C112.785 16.9977 111.608 18.4655 110.846 19.6529C109.962 21.0282 109.229 22.5848 108.909 24.2133C108.919 24.083 108.925 23.9521 108.927 23.8207C109.162 21.9494 109.246 20.0397 109.169 18.1066C110.747 18.0513 111.916 16.5881 112.518 15.2906C113.378 13.4347 113.516 11.0885 112.942 9.11146C111.44 9.53274 110.601 11.2543 110.107 12.5796C109.537 14.1077 109.139 15.7746 109.136 17.4316C109.054 16.0415 108.888 14.6402 108.637 13.2332Z" fill="#0A0A0A"/>
</svg>
