<svg width="199" height="52" viewBox="0 0 199 52" fill="none" xmlns="http://www.w3.org/2000/svg">
<path d="M59.2064 16.5491H63.9967V35.8813H59.2064V16.5491ZM65.8969 28.5819C65.8969 23.8006 68.835 20.9478 73.3698 20.9478C77.9047 20.9478 80.8427 23.8006 80.8427 28.5819C80.8427 33.3631 77.9685 36.2319 73.3698 36.2319C68.7711 36.2319 65.8969 33.4428 65.8969 28.5819ZM76.0364 28.5819C76.0364 25.9522 74.9985 24.4063 73.3698 24.4063C71.7411 24.4063 70.7192 26 70.7192 28.5819C70.7192 31.1638 71.7251 32.7256 73.3698 32.7256C75.0145 32.7256 76.0364 31.2594 76.0364 28.5978V28.5819ZM82.6471 36.8216H87.2458C87.4647 37.3069 87.8347 37.7086 88.3008 37.9672C88.7669 38.2255 89.3042 38.3269 89.8326 38.2559C91.6529 38.2559 92.6109 37.2678 92.6109 35.8334V33.1559H92.5151C92.1335 33.9766 91.5141 34.6641 90.7371 35.1301C89.9601 35.596 89.061 35.8188 88.1559 35.7697C84.659 35.7697 82.3437 33.1081 82.3437 28.5341C82.3437 23.96 84.5472 21.0753 88.2198 21.0753C89.1533 21.0388 90.0756 21.2879 90.8633 21.7892C91.651 22.2905 92.2664 23.0202 92.6269 23.8803V21.2188H97.4172V35.7219C97.4172 39.2122 94.3355 41.3797 89.7846 41.3797C85.5532 41.3797 82.9185 39.4831 82.6471 36.8375V36.8216ZM92.6269 28.5659C92.6269 26.2391 91.5571 24.7728 89.8645 24.7728C88.1719 24.7728 87.134 26.2231 87.134 28.5659C87.134 30.9088 88.1559 32.2316 89.8645 32.2316C91.573 32.2316 92.6269 30.9406 92.6269 28.5819V28.5659ZM99.2216 28.5659C99.2216 23.7847 102.16 20.9319 106.694 20.9319C111.229 20.9319 114.183 23.7847 114.183 28.5659C114.183 33.3472 111.309 36.2159 106.694 36.2159C102.08 36.2159 99.2216 33.4428 99.2216 28.5819V28.5659ZM109.361 28.5659C109.361 25.9363 108.323 24.3903 106.694 24.3903C105.066 24.3903 104.124 26 104.124 28.5978C104.124 31.1956 105.13 32.7416 106.758 32.7416C108.387 32.7416 109.361 31.2594 109.361 28.5978V28.5659ZM116.004 17.7444C115.991 17.2616 116.122 16.7861 116.381 16.3779C116.64 15.9698 117.014 15.6474 117.456 15.4518C117.898 15.2561 118.389 15.196 118.866 15.2789C119.342 15.3619 119.783 15.5842 120.133 15.9178C120.483 16.2513 120.726 16.681 120.831 17.1525C120.936 17.6239 120.898 18.1157 120.722 18.5658C120.547 19.0157 120.242 19.4036 119.845 19.6801C119.448 19.9567 118.978 20.1095 118.495 20.1191C118.174 20.1411 117.852 20.0966 117.55 19.9885C117.247 19.8805 116.97 19.7112 116.736 19.4911C116.502 19.2712 116.316 19.0052 116.19 18.71C116.064 18.415 116.001 18.0971 116.004 17.7763V17.7444ZM116.004 21.2506H120.794V35.8813H116.004V21.2506ZM138.183 28.5659C138.183 33.3472 136.059 36.0725 132.419 36.0725C131.485 36.1323 130.556 35.9045 129.756 35.42C128.956 34.9354 128.325 34.2174 127.948 33.3631H127.852V40.5669H123.061V21.2188H127.852V23.8325H127.948C128.307 22.9641 128.927 22.2274 129.721 21.7227C130.515 21.218 131.446 20.9696 132.387 21.0116C136.059 21.0753 138.247 23.8166 138.247 28.5978L138.183 28.5659ZM133.393 28.5659C133.393 26.2391 132.323 24.7569 130.646 24.7569C128.969 24.7569 127.9 26.255 127.884 28.5659C127.868 30.8769 128.969 32.3591 130.646 32.3591C132.323 32.3591 133.393 30.9088 133.393 28.5978V28.5659ZM146.406 20.9159C150.382 20.9159 152.793 22.7966 152.905 25.8088H148.546C148.546 24.7728 147.684 24.1194 146.358 24.1194C145.033 24.1194 144.442 24.6294 144.442 25.3784C144.442 26.1275 144.969 26.3666 146.039 26.5897L149.105 27.2113C152.027 27.8328 153.272 29.0122 153.272 31.2275C153.272 34.2556 150.51 36.2 146.438 36.2C142.366 36.2 139.7 34.2556 139.492 31.2753H144.107C144.251 32.3591 145.113 32.9966 146.518 32.9966C147.923 32.9966 148.562 32.5344 148.562 31.7694C148.562 31.0044 148.115 30.845 146.965 30.6059L144.203 30.0163C141.344 29.4266 139.844 27.9125 139.844 25.6813C139.875 22.8125 142.446 20.9478 146.406 20.9478V20.9159ZM169.256 35.8494H164.641V33.1241H164.546C164.292 34.039 163.733 34.8399 162.96 35.3937C162.187 35.9474 161.248 36.2207 160.298 36.1681C159.57 36.2094 158.842 36.0943 158.163 35.8306C157.483 35.5668 156.869 35.1607 156.36 34.6394C155.852 34.1182 155.461 33.494 155.215 32.8091C154.968 32.1243 154.873 31.3947 154.933 30.6697V21.2188H159.723V29.57C159.723 31.3072 160.618 32.2316 162.103 32.2316C162.451 32.2322 162.796 32.1587 163.113 32.0158C163.429 31.8728 163.714 31.6637 163.944 31.4027C164.172 31.1414 164.344 30.8343 164.445 30.5019C164.546 30.1693 164.576 29.8189 164.53 29.4744V21.2188H169.32L169.256 35.8494ZM171.571 21.2188H176.202V24.0397H176.298C176.552 23.1368 177.099 22.3435 177.853 21.7841C178.607 21.2246 179.527 20.9304 180.465 20.9478C181.422 20.8715 182.37 21.1569 183.126 21.7476C183.879 22.3382 184.384 23.1905 184.537 24.1353H184.633C184.922 23.1805 185.522 22.3492 186.338 21.7721C187.153 21.195 188.138 20.9049 189.136 20.9478C189.787 20.926 190.436 21.0412 191.039 21.286C191.644 21.5306 192.189 21.8996 192.641 22.3685C193.093 22.8375 193.441 23.3961 193.663 24.008C193.883 24.6198 193.974 25.2715 193.926 25.9203V35.8813H189.136V27.1953C189.136 25.6016 188.417 24.8684 187.076 24.8684C186.778 24.8659 186.48 24.9274 186.207 25.0489C185.934 25.1703 185.69 25.3488 185.492 25.5724C185.294 25.796 185.146 26.0593 185.058 26.3447C184.97 26.6303 184.946 26.9312 184.984 27.2272V35.8813H180.434V27.1316C180.434 25.6653 179.715 24.8684 178.406 24.8684C178.104 24.8686 177.804 24.9327 177.529 25.0565C177.253 25.1805 177.005 25.3614 176.806 25.5872C176.604 25.8131 176.454 26.0789 176.363 26.3672C176.274 26.6554 176.245 26.9593 176.282 27.2591V35.8813H171.492L171.571 21.2188Z" fill="#0A0A0A"/>
<path d="M45.8095 17.4258C44.9969 15.5712 43.9215 13.8429 42.616 12.2939C40.6863 9.93571 38.278 8.01213 35.5498 6.64981C32.8215 5.2875 29.8351 4.51732 26.7871 4.38997C23.7392 4.26261 20.6988 4.78096 17.866 5.91093C15.0332 7.04088 12.4723 8.75682 10.3519 10.9458C8.23139 13.1348 6.59941 15.7472 5.56334 18.6111C4.52727 21.4749 4.11059 24.5253 4.34075 27.5614C4.57093 30.5977 5.44269 33.5507 6.89869 36.2263C8.35469 38.9021 10.3619 41.2396 12.7882 43.0852C14.3451 44.2931 16.0654 45.275 17.8979 46.0017C20.4671 47.0526 23.2169 47.5939 25.9936 47.5955C31.725 47.5829 37.2176 45.3026 41.2675 41.2544C45.3172 37.2063 47.5938 31.7208 47.5979 26.0002C47.6021 23.0493 46.9932 20.1297 45.8095 17.4258ZM25.9776 8.77171C28.4711 8.77146 30.9345 9.3154 33.195 10.3655C32.6438 10.6032 32.0642 10.7693 31.4705 10.8595C29.517 11.1418 27.7074 12.047 26.3116 13.4401C24.9159 14.8332 24.0089 16.6394 23.7261 18.5892C23.6021 19.6827 23.1037 20.7 22.3154 21.4695C21.5271 22.2389 20.497 22.7132 19.3989 22.8127C17.4454 23.0949 15.6357 24.0002 14.24 25.3933C12.8443 26.7864 11.9373 28.5926 11.6545 30.5424C11.5588 31.5821 11.1143 32.5592 10.3931 33.3155C9.14864 30.691 8.58961 27.7949 8.768 24.8968C8.94639 21.9987 9.85641 19.1928 11.4134 16.74C12.9703 14.2874 15.1236 12.2676 17.6729 10.8688C20.2222 9.47006 23.0846 8.73768 25.9936 8.73984L25.9776 8.77171ZM12.7723 37.1564C12.9639 36.9811 13.1555 36.8217 13.3471 36.6305C14.7677 35.2559 15.6795 33.4412 15.9339 31.4827C16.037 30.3817 16.5295 29.3534 17.3231 28.582C18.0868 27.7887 19.1147 27.3011 20.2132 27.2114C22.1667 26.9292 23.9764 26.0239 25.3721 24.6308C26.7678 23.2377 27.6748 21.4315 27.9576 19.4817C28.0267 18.3302 28.5217 17.2454 29.3468 16.4377C30.1294 15.6597 31.1669 15.1899 32.2689 15.1148C34.0635 14.8684 35.7372 14.0721 37.0592 12.8358C38.5645 14.0822 39.8397 15.5816 40.8276 17.2664C40.7669 17.3482 40.6973 17.4231 40.62 17.4895C39.8579 18.2899 38.8313 18.7881 37.7298 18.892C35.7743 19.1694 33.9619 20.073 32.5652 21.4669C31.1687 22.861 30.2633 24.6699 29.9855 26.6217C29.8729 27.7189 29.3838 28.7435 28.6011 29.5219C27.8182 30.3004 26.7899 30.7848 25.6902 30.893C23.7309 31.173 21.9146 32.0765 20.5107 33.469C19.107 34.8616 18.1906 36.6689 17.8979 38.6227C17.812 39.4015 17.5439 40.1495 17.1155 40.8061C15.4772 39.8352 14.0099 38.6023 12.7723 37.1564ZM25.9776 43.3083C24.3573 43.31 22.7448 43.0847 21.1873 42.6389C21.7201 41.6476 22.0664 40.5672 22.2092 39.4514C22.3211 38.3567 22.808 37.334 23.5875 36.5559C24.3671 35.7778 25.3917 35.2919 26.4886 35.1802C28.4449 34.9011 30.2582 33.9973 31.6572 32.6039C33.0559 31.2106 33.9653 29.4025 34.2489 27.4505C34.3608 26.3557 34.8477 25.333 35.6272 24.555C36.4068 23.7769 37.4314 23.2909 38.5282 23.1792C40.0005 22.9881 41.4037 22.441 42.616 21.5855C43.2892 24.1321 43.3689 26.7988 42.8491 29.381C42.3294 31.9632 41.2237 34.3924 39.6174 36.4819C38.011 38.5713 35.9466 40.266 33.5821 41.4355C31.2177 42.605 28.6164 43.2184 25.9776 43.2286V43.3083Z" fill="#0A0A0A"/>
</svg>
