<svg width="100" height="52" viewBox="0 0 100 52" fill="none" xmlns="http://www.w3.org/2000/svg">
<g clip-path="url(#clip0_144_1724)">
<path d="M13.6824 39.0532C17.3495 40.495 23.295 40.495 26.9622 39.0532C30.6291 37.6114 30.6291 35.2737 26.9622 33.8319C23.295 32.39 17.3495 32.39 13.6824 33.8319C10.0154 35.2737 10.0154 37.6114 13.6824 39.0532Z" fill="#0A0A0A"/>
<path d="M51.7433 19.4735C57.244 21.6362 66.1621 21.6362 71.6628 19.4735C77.1633 17.3107 77.1633 13.8043 71.6628 11.6416C66.1621 9.47885 57.244 9.47885 51.7433 11.6416C46.2428 13.8043 46.2428 17.3107 51.7433 19.4735Z" fill="#0A0A0A"/>
<path d="M31.5391 29.2635C36.1229 31.0657 43.5548 31.0657 48.1386 29.2635C52.7224 27.4612 52.7224 24.5392 48.1386 22.7369C43.5548 20.9347 36.1229 20.9347 31.5391 22.7369C26.9552 24.5392 26.9552 27.4612 31.5391 29.2635Z" fill="#0A0A0A"/>
<path d="M2.06273 27.958C4.81302 29.0393 9.27214 29.0393 12.0225 27.958C14.7727 26.8766 14.7727 25.1234 12.0225 24.042C9.27214 22.9606 4.81302 22.9606 2.06273 24.042C-0.687577 25.1234 -0.687574 26.8766 2.06273 27.958Z" fill="#0A0A0A"/>
<path d="M31.5391 8.37826C36.1229 10.1805 43.5548 10.1805 48.1386 8.37826C52.7224 6.576 52.7224 3.65396 48.1386 1.8517C43.5548 0.0494339 36.1229 0.0494327 31.5391 1.8517C26.9552 3.65396 26.9552 6.576 31.5391 8.37826Z" fill="#0A0A0A"/>
<path d="M13.6824 18.1683C17.3495 19.6102 23.295 19.6102 26.9622 18.1683C30.6291 16.7265 30.6291 14.3888 26.9622 12.9471C23.295 11.5053 17.3495 11.5053 13.6824 12.9471C10.0154 14.3888 10.0154 16.7265 13.6824 18.1683Z" fill="#0A0A0A"/>
<path d="M31.5391 50.1483C36.1229 51.9505 43.5548 51.9505 48.1386 50.1483C52.7224 48.346 52.7224 45.424 48.1386 43.6217C43.5548 41.8195 36.1229 41.8195 31.5391 43.6217C26.9552 45.424 26.9552 48.346 31.5391 50.1483Z" fill="#0A0A0A"/>
<path d="M75.9549 29.9159C81.4557 32.0785 90.374 32.0785 95.8745 29.9159C101.375 27.7532 101.375 24.2467 95.8745 22.084C90.374 19.9212 81.4557 19.9212 75.9549 22.084C70.4545 24.2467 70.4545 27.7532 75.9549 29.9159Z" fill="#0A0A0A"/>
<path d="M51.7433 40.3582C57.244 42.521 66.1621 42.521 71.6628 40.3582C77.1633 38.1955 77.1633 34.6891 71.6628 32.5263C66.1621 30.3636 57.244 30.3636 51.7433 32.5263C46.2428 34.6891 46.2428 38.1955 51.7433 40.3582Z" fill="#0A0A0A"/>
</g>
<defs>
<clipPath id="clip0_144_1724">
<rect width="100" height="51" fill="white" transform="translate(0 0.5)"/>
</clipPath>
</defs>
</svg>
